<svg xmlns="http://www.w3.org/2000/svg" viewBox="0 0 321.33 318"><defs><style>.cls-1{font-size:21px;}.cls-1,.cls-2,.cls-3,.cls-4{fill:#4b205e;}.cls-1,.cls-2{font-family:HelveticaNeue-Bold, Helvetica Neue;font-weight:700;}.cls-2{font-size:14px;letter-spacing:0.2em;}.cls-4{opacity:1;}</style></defs><title>Artboard 1</title><g id="Textes_copy" data-name="Textes copy"><text class="cls-1" transform="translate(93.22 244.14) rotate(-139.24)">L</text><text class="cls-1" transform="translate(81.2 233.39) rotate(-130.5)">a</text><text class="cls-1" transform="translate(71.04 221.49) rotate(-119.99)">M</text><text class="cls-1" transform="translate(60.33 201.62) rotate(-109.4)">e</text><text class="cls-1" transform="matrix(-0.22, -0.98, 0.98, -0.22, 55.48, 186.56)">i</text><text class="cls-1" transform="translate(53.65 177.45) rotate(-97.29)">l</text><text class="cls-1" transform="translate(52.64 168.22) rotate(-92.2)">l</text><text class="cls-1" transform="translate(52.31 159) rotate(-85.38)">e</text><text class="cls-1" transform="matrix(0.23, -0.97, 0.97, 0.23, 53.84, 143.37)">u</text><text class="cls-1" transform="translate(57.97 127.75) rotate(-68.79)">r</text><text class="cls-1" transform="matrix(0.48, -0.88, 0.88, 0.48, 62.24, 117.03)">e</text><text class="cls-1" transform="translate(69.99 103.36) rotate(-52.33)">V</text><text class="cls-1" transform="matrix(0.72, -0.69, 0.69, 0.72, 79.8, 91.03)">e</text><text class="cls-1" transform="translate(91.41 80.34) rotate(-36.41)">r</text><text class="cls-1" transform="translate(101.06 73.39) rotate(-28.99)">s</text><text class="cls-1" transform="translate(114.42 66.44) rotate(-22.26)">i</text><text class="cls-1" transform="matrix(0.97, -0.26, 0.26, 0.97, 122.92, 62.97)">o</text><text class="cls-1" transform="translate(138.91 58.97) rotate(-6.07)">n</text><text class="cls-1" transform="translate(154.91 57.44) rotate(3.52)">D</text><text class="cls-1" transform="matrix(0.97, 0.23, -0.23, 0.97, 174.02, 59.07)">e</text><text class="cls-1" transform="translate(189.24 62.63) rotate(23.76)">M</text><text class="cls-1" transform="translate(209.64 72.3) rotate(34.53)">o</text><text class="cls-1" transform="translate(223.03 82.07) rotate(41.61)">i</text><text class="cls-2" transform="translate(118.15 197.63)">COACHING</text><path class="cls-3" d="M97.27,132.43c0,3.5,1.18,6.09,3.06,9.22v0c4.91,7.5,12.35,13.59,16.52,21.7a35.21,35.21,0,0,1,5.08-1c.13,0,.67.17.67.4,0,.07-4.1.94-5.42,1.14a18.35,18.35,0,0,1,1.88,8.21,28,28,0,0,1-4,15.17c-3.84,5.42-10,9.08-16,9.08a10.1,10.1,0,0,1-8.58-4.47,9.75,9.75,0,0,1-.91-4.88c1.41-13.49,15.68-21,25.37-23.28-2.42-4.41-5.79-8.31-9.08-12.08-5-5.65-10.63-12.21-10.63-19.18,0-.07,0-.13,0-.2v-.13c.81-10.8,13.69-15.51,20.15-15.51,3.67,0,8.91,1.45,9.08,7.33-.07.64-.4,3.63-1.45,4.47l-.17-1.88c0-.5,0-1.08,0-1.51l-.07-1c-.81-4.81-4.17-5.89-7.44-5.89C108.75,118.14,97.27,122.71,97.27,132.43Zm18,31.86c-9.32,2.52-23.62,10.7-24,24.09.37,3.67,3.3,6.43,7.84,6.73a14.91,14.91,0,0,0,4.88-.87c8.31-3,13.15-10.83,13.15-21.77a17.07,17.07,0,0,0-1.88-8.11h0Z"/><path class="cls-3" d="M138,160.39v.2A77.57,77.57,0,0,0,136.6,174c0,.77.07,1.58.1,2.66.07,1.28.17,3,1,3.77l.54.34,0,.64c-2.36-.54-2.62-5.45-2.62-8.48a82.27,82.27,0,0,1,.57-8.81h-.07s0,0-.07,0c-2.15,4.07-3.67,7.64-6.9,12.28l0,.07v0c-.57.91-1.48,2.25-2.52,2.32-1.55,0-2-2-2-3.57,0-4.47,3.4-15.14,7-15.14a2.58,2.58,0,0,1,2.29,2.46v.3a1.9,1.9,0,0,1-.84-.27l-.34-.17a1.71,1.71,0,0,0-.57-.1c-3.16.37-6.16,9.59-6.16,13.19,0,1,.4,1.08.4,1.08.81,0,3.33-4.27,4.44-6.22L131,170v0l.27-.44c1.92-3.3,3.57-7,5.55-10.13v0a.67.67,0,0,1,.37-.3.86.86,0,0,1,.74.71A2.35,2.35,0,0,1,138,160.39Z"/><path class="cls-3" d="M142.06,184.81c-.37-.1-.51-.24-.57-.47h0a1.05,1.05,0,0,1-.24-.71c.3-11.54.74-28.53,1.51-41.21.34-4.31.81-9.86,1.61-14.16.37-2.05,1.38-6.43,3.4-6.43a.85.85,0,0,1,.44.17l-.3.57v0l-.37.44,0,0-.34.87v0c-1.55,5.52-2.29,13.25-2.69,18.94-.67,9.76-1,20.42-1.35,30.24,0,.67-.07,1.68-.07,2.36,0,0,0,.07.14.07,1.48-5.69,3-11.54,5.58-16.45.94-1.78,2.25-3.94,4.07-4.1,1.68,0,2.22,2.76,2.32,4.47,0,7-2.69,16.59-7.77,19.48a23.88,23.88,0,0,1-3.63,1.31l-.87,4c-.1.4-.37.77-.77.77Zm2.05-5.58c6-1.75,9.82-11.2,9.82-18.77,0-.17,0-.34,0-.54v-.57c0-.5-.27-2.69-.77-2.69C149.46,157.09,145.66,172.7,144.11,179.23Z"/><path class="cls-3" d="M158.54,180v0a1.17,1.17,0,0,1-.74-1.28c0-2.19.3-4.44.3-6.66.24-3.84-.1-12.52,1.41-13.09.67.2.77,1.45.84,2.42l.07,1c0,2.73-.24,5.42-.37,8.11l.13,0c1.28-3.8,4.68-13.19,8.44-13.19h.3c1.75.37,2.62,2.09,2.62,4.27a2.21,2.21,0,0,1-.2,1c-.54-.17-.4-.71-.54-1.38l-.1-.54a2.3,2.3,0,0,0-1.78-2c-4,.47-8.21,15.95-9.29,20.52a.9.9,0,0,1-.84.77A.51.51,0,0,1,158.54,180Z"/><path class="cls-3" d="M182,178.09a2,2,0,0,1-.54-1.18c.07-3.7.27-7.27.47-10.83a.12.12,0,0,1-.1,0c-.71,2.89-3.23,12.28-6.09,12.28-2.56,0-2.72-4.71-2.72-7.1,0-3.57.5-12.92,2-12.92.74,0,.94.87.94,1.48a3.89,3.89,0,0,1,0,.61,71.52,71.52,0,0,0-1.14,11.37c0,.44,0,.84,0,1.24v.24a4.51,4.51,0,0,0,.74,2.89c1.85-1.28,3.9-7.7,4.64-10l.2-.94c.64-2.59,2.46-8.41,2.83-8.55.37.07.71,1.14.71,2.25a9.51,9.51,0,0,1-.13,2c-.13,3.6-.47,6.9-.61,10.4,0,0,0,.07.1.07.47-2,1.18-4.14,1.75-5.75,1.08-3.16,2.72-8.31,5.38-8.31,1.85.24,2.15,2.66,2.25,4.47,0,1.65-.14,3.33-.27,4.95l-.27,2.29a47.52,47.52,0,0,0-.64,6.76c0,.94,0,2.42.64,2.42,1.28,0,2.52-3,3.26-4.95v0l.47-1.45c.67-2.05,1.41-5,1.51-5.38a1,1,0,0,1,.37.71c0,1-1.11,6.29-1.48,6.66l-.3.81c-.74,2-1.82,5.28-3.73,5.25-1.58,0-2-2.76-2-4.27a27.08,27.08,0,0,1,.17-3.26l.4-3.87a54.7,54.7,0,0,0,.51-6.36c0-.84-.07-2.59-.87-2.72-1.65,0-3.26,4.78-4,6.93l-.17.4c-.4.94-.54,2.05-.87,3.09l-.37,1.31c-.67,2.39-2.05,7.13-2.66,7.13a.6.6,0,0,1-.37-.1Zm-5.25-27.38c0,.54-.47,1.45-.84,1.51-.5-.27-.5-1.38-.5-1.92a13.91,13.91,0,0,1,.87-4,2.12,2.12,0,0,1,1,.57v0a1.77,1.77,0,0,0,.5.37,21,21,0,0,0-1.08,3.2Z"/><path class="cls-3" d="M208.94,160.39v.2A77.57,77.57,0,0,0,207.56,174c0,.77.07,1.58.1,2.66.07,1.28.17,3,1,3.77l.54.34,0,.64c-2.36-.54-2.62-5.45-2.62-8.48a82.27,82.27,0,0,1,.57-8.81h-.07s0,0-.07,0c-2.15,4.07-3.67,7.64-6.9,12.28l0,.07v0c-.57.91-1.48,2.25-2.52,2.32-1.55,0-2-2-2-3.57,0-4.47,3.4-15.14,7-15.14a2.58,2.58,0,0,1,2.29,2.46v.3a1.9,1.9,0,0,1-.84-.27l-.34-.17a1.71,1.71,0,0,0-.57-.1c-3.16.37-6.16,9.59-6.16,13.19,0,1,.4,1.08.4,1.08.81,0,3.33-4.27,4.44-6.22L202,170v0l.27-.44c1.92-3.3,3.57-7,5.55-10.13v0a.67.67,0,0,1,.37-.3.86.86,0,0,1,.74.71A2.35,2.35,0,0,1,208.94,160.39Z"/></g><g id="Cercle_feuilles_copy" data-name="Cercle+feuilles copy"><path class="cls-3" d="M284.08,135.62c.39-1.56,1-3.07,1.47-4.59a17.54,17.54,0,0,1,.69-1.83c.67-1.35,1.45-2.66,2.22-4a35.15,35.15,0,0,1,2.49-3.41,26.06,26.06,0,0,1,4.21-4.26,7.11,7.11,0,0,0-.43,1.7,38.52,38.52,0,0,1-.26,5,13.37,13.37,0,0,1-.27,1.76c-.51,1.3-1.22,2.5-1.84,3.74a32.7,32.7,0,0,1-2.7,2.84c-.69.72-1.35,1.46-2,2.21-.34.37-.68.63-1,1a8,8,0,0,1-1.3,1.35l-.47.4c.49-1.18,1-2.35,1.58-3.49s1.15-2,1.72-3.06a35.12,35.12,0,0,1,2.18-3.48c.05-.07,0,0,0,0l-.46.54a43,43,0,0,0-2.69,3.78c-.64,1-1.3,2-1.84,3-.58,1.21-1.15,2.43-1.63,3.69-.11.3-.21.61-.31.91C283.62,138.23,283.82,136.92,284.08,135.62Zm-2-24.31q0,.69-.07,1.38c0-.18,0-.36-.07-.54,0,.52,0,1,0,1.57s-.06,1.21-.09,1.81c-.22-.65-.47-1.3-.69-2a31.14,31.14,0,0,1-1.27-5.15,21.93,21.93,0,0,1,.28-4.2c.16-.89.21-1.8.42-2.69a24.28,24.28,0,0,0,.72-3.19l.32.3a9.65,9.65,0,0,1,2.93,3.48c.21.52.28,1.09.44,1.63a14.76,14.76,0,0,1,0,6.74c-.21,1.1-.6,1.64-.83,2.89a9.4,9.4,0,0,1-.67,2.38c-.27.62-.61,1.22-.84,1.86,0-.22,0-.43-.08-.65,0,.31,0,.61,0,.92,0,.12-.07.24-.1.37v.06c.07-2.41.22-4.83.3-7.24a72.8,72.8,0,0,1,0-8.82A43.1,43.1,0,0,0,282.11,111.31ZM274,133.89a25.26,25.26,0,0,1-2.7-3.08,5,5,0,0,1-.84-1.64,7.75,7.75,0,0,1-.49-1.5,4.35,4.35,0,0,1,.16-1.37c.09-.53.17-1.06.25-1.59a9.73,9.73,0,0,0-.06-4.05c-.15-.62-.46-1.19-.65-1.8a4.46,4.46,0,0,1,.88.6,11.73,11.73,0,0,1,1.1,1.44,35.61,35.61,0,0,1,2.46,4c.27.57.53,1.14.75,1.73.79,2.08,1.55,4.17,2.2,6.3a26.75,26.75,0,0,1,1.5,5.68c.39,2.53.66,4.85.88,7.37-.06-.28-.13-.57-.21-.85A50.13,50.13,0,0,0,278,137.6a20,20,0,0,0-2.29-4.6,16.61,16.61,0,0,0-1.52-1.89,19.61,19.61,0,0,1,1.2,2.05,33.63,33.63,0,0,1,1.74,4.4c.31,1.08.48,2.2.73,3.3l.14.63c-.25-.61-.57-1.19-.8-1.82a36.31,36.31,0,0,0-1.41-3.62A18.55,18.55,0,0,0,274,133.89Zm-3,49.85a24.84,24.84,0,0,0,0-5.67,43.91,43.91,0,0,0-1.11-7.12,22.75,22.75,0,0,0-1.61-4.4c-.61-1.2-1.32-2.33-1.93-3.53s-1.19-2.34-1.6-3.58a18.54,18.54,0,0,1-.41-2.1,9.87,9.87,0,0,1-.22-2.34,13.12,13.12,0,0,1,.46-2.63,10.42,10.42,0,0,1,.83-2.33c.52-1.14,1.1-2.26,1.54-3.44a8.45,8.45,0,0,0,.34-.87l.1.14a59,59,0,0,1,3.6,5.27A39,39,0,0,1,273.5,157a11.66,11.66,0,0,1,.75,2.65c.16,2.85,0,5.72,0,8.57-.1,2.25-.51,4.47-.83,6.69-.29,1.85-.74,3.68-1,5.53v.13c0-.8,0-1.6,0-2.41A68.7,68.7,0,0,0,271,165.87a104.62,104.62,0,0,0-2.36-10.41c.47,2.94.84,5.9,1.32,8.84.44,2.54,1,5.51,1.27,7.86.36,3.43.36,6.88.39,10.33-.11,1-.21,2.06-.33,3.09l-.2.7c-.15.5-.32,1-.51,1.52C270.79,186.46,270.85,185.09,271,183.74Zm3.6,18.28a2.42,2.42,0,0,0-.06-.31,2.65,2.65,0,0,0-.2-.52.88.88,0,0,1,.22.45.94.94,0,0,0,0,.14A1.81,1.81,0,0,1,274.59,202Zm-3,1.37.08-.05.09.15Zm-16.12,9.78-.09,0a1.54,1.54,0,0,0-.17-.42l.13.07A.53.53,0,0,1,255.53,213.18Zm-1.79,4.2,0,0,0,0a3.68,3.68,0,0,1-.36-.45l-.05-.16v0A1.89,1.89,0,0,0,253.74,217.37Zm4-.59v-.06c0-.08,0-.16,0-.24s0-.19,0-.28l0,.08A3.37,3.37,0,0,1,257.7,216.79Zm-20.26-31.94-.25.76.24-1C237.43,184.66,237.43,184.75,237.43,184.85Zm12,71.38a17.89,17.89,0,0,0,.09-2.36c.05-.28.1-.56.15-.84a50.85,50.85,0,0,0,.49-6.68,27.5,27.5,0,0,0,0-3.25c-.32-2.83-1-5.6-1.52-8.41a25,25,0,0,0-1-3.93,46.7,46.7,0,0,1,1,6c.19,1.3.44,2.58.66,3.87a25.39,25.39,0,0,1,.38,3c0,1-.05,2.08-.07,3.12-.05,1.54-.15,3.08-.34,4.61-.11-.67-.24-1.33-.35-2a39.58,39.58,0,0,0-1.28-5.44c-.5-1.55-1.16-3-1.79-4.55-1.42-3.44-2.38-7.06-3.65-10.55a18.52,18.52,0,0,0-2.07-4c-.88-1.36-1.78-2.71-2.66-4.07a47.63,47.63,0,0,1-4.56-9.13,29.16,29.16,0,0,1-1.62-8.68c-.08-.8-.13-1.6-.23-2.39a6.37,6.37,0,0,1-.15-2,10,10,0,0,1,.48-1.79,19.17,19.17,0,0,1,1-2.77,23.66,23.66,0,0,1,1.11-2.14c.5-1,.94-2,1.44-2.92.57-1.11,1.16-2.22,1.73-3.33a4.13,4.13,0,0,1,.8-1.32c0,.06,0,.12,0,.18a32,32,0,0,0-1.15,3.89,10.22,10.22,0,0,0-.62,3.11c0,1.28.21,2.56.34,3.84.07.75.06,1.5.13,2.25.12,1.16.31,2.3.47,3.45.11.59.25,1.18.4,1.76l0,.15v-.09c.18.68.37,1.37.55,2,.32.95.71,1.87,1.1,2.8.54,1.17,1.18,2.3,1.72,3.48.66,1.38,1.36,2.75,2,4.12s1.32,2.84,2,4.25a42.9,42.9,0,0,1,2.35,8.52,37.88,37.88,0,0,0-1.76-8c-.41-1.16-1-2.24-1.5-3.36-.88-2-1.9-3.94-2.83-5.91-.52-1.15-1.13-2.26-1.66-3.41-.09-.16-.48-1.22-.7-1.75a15.77,15.77,0,0,1-.69-2.25c-.17-.75-.4-1.49-.53-2.25s-.19-1.27-.27-1.84q-.13-2.21-.27-4.42c-.07-1.29-.23-2.68-.17-3.89,0-.74.12-1.47.22-2.19l.13-.48c.28-1,.5-2,.74-3.06v.17a27.46,27.46,0,0,0,.91,6c.53,1.78,1.17,3.52,1.77,5.27,1,2.37,2.31,4.66,3.47,7,1.08,2,2.2,3.91,3.16,5.93,1.19,2.36,2.37,4.72,3.41,7.15a19.87,19.87,0,0,1,1.36,5.07c.14,1.1.19,2.2.27,3.3.15,1.68.32,3.36.48,5,.21,1.87.54,3.73.61,5.61a26.46,26.46,0,0,1,.12,3.12c-.2,2-.51,4-.75,6-.22,1.53-.4,3.07-.72,4.58A44,44,0,0,1,249.4,256.23Zm8.51-17.2a25.47,25.47,0,0,1-.91,3.4q-.33,1-.7,1.93c.42-1.27.85-2.53,1.2-3.81C257.64,240,257.78,239.52,257.91,239Zm2.21-6.61c-.61,1.61-1.2,3.23-1.75,4.87.14-.53.29-1.07.45-1.67C259.22,234.54,259.68,233.48,260.12,232.42Zm1.09-1c.75-1.78,1.9-4,2.64-5.46a58.39,58.39,0,0,1,3.71-5.84c1.08-1.33,2-2.77,3.17-4a46.94,46.94,0,0,1,5.41-4.63,52.32,52.32,0,0,1,8.23-3.63,18.65,18.65,0,0,1,2.1-.24c1.38-.15,2.76-.27,4.14-.45a16.75,16.75,0,0,1,2.25-.28c1.15,0,2.29.15,3.43.28l-.67.27a12.55,12.55,0,0,0-2.89.13,29.48,29.48,0,0,0-5,1.79c-.72.32-1.42.68-2.12,1a9.14,9.14,0,0,0-1.38.78,65.34,65.34,0,0,0-6,5,28.44,28.44,0,0,0-3.13,3.69,43.29,43.29,0,0,1,4.74-4.16c1.61-1.22,3.53-2.81,4.95-3.89a38.46,38.46,0,0,1,3.58-1.85,46.1,46.1,0,0,1,4.34-1.88,13.36,13.36,0,0,1,2.36-.42,37.46,37.46,0,0,0-6.27,4.13,36.79,36.79,0,0,0-7.79,7.8,13.55,13.55,0,0,0-1.48,2.47c-.36.93-.63,1.9-1,2.82a54.42,54.42,0,0,1-2.73,5.39,23.33,23.33,0,0,1-2.71,4.08,69,69,0,0,1-4.83,5.44c-1,.93-2.1,1.69-3.14,2.55-1.94,1.55-3.9,3.09-5.78,4.72-1.12,1-2.19,2-3.25,3.09l.46-.71c.54-.83,1.16-1.6,1.74-2.4l2.86-4.15c1.11-1.64,2.2-3.28,3.31-4.91,1-1.36,1.94-2.72,2.81-4.14,1.81-2.8,3.39-5.74,4.9-8.71l.4-.79,0,.07c-1.81,2.61-3.55,5.27-5.27,7.93-1,1.64-2.08,3.23-3.2,4.79-2,2.91-3.9,5.83-5.89,8.71-.55.81-1.16,1.59-1.74,2.39-.94,1.45-1.87,2.91-2.8,4.37l0,0c.12-.29.24-.57.35-.87.33-.84.61-1.7.88-2.56l.12-.3c.2-.52.37-1.05.54-1.59a20.39,20.39,0,0,0,1.47-3.06,26.29,26.29,0,0,0,1.21-3.83,20.4,20.4,0,0,1,.8-3C259.69,235.45,260.42,233.44,261.21,231.46Zm-.15-5.32a.92.92,0,0,0,.05.22c-.06.28-.12.56-.16.85a16,16,0,0,0-.18,1.63c-.18.49-.38,1-.58,1.45h0v0C260.5,228.89,260.78,227.51,261.05,226.14Zm.44-2.26c-.09.61-.2,1.21-.34,1.81l0,.12Zm1.91-10.31a21.27,21.27,0,0,1-.38,2.9l-.09.53c0-.41.08-.81.1-1.22C263.16,215.05,263.28,214.31,263.41,213.57Zm.64-3.74.07-.36.38-1.61C264.35,208.6,264.2,209.2,264,209.83Zm-.37-1-.07.3c-.22,1.26-.43,2.52-.64,3.78-.07-1.56-.14-3.12-.12-4.68a57.64,57.64,0,0,0-.16-7.07,68.5,68.5,0,0,0-2.22-9.13c-.35-1.29-.87-3.28-1.34-5s-.88-3.37-1.3-5.18l0,.24c.32,1.95.67,3.9,1.14,5.81.66,2.95,1.51,5.85,2.33,8.76a27.74,27.74,0,0,1,1.05,6.32c.08,1.21,0,2.42,0,3.63,0,.36,0,.72,0,1.07-.18-1-.41-1.95-.68-2.9a34.83,34.83,0,0,0-1.52-3.79,26.34,26.34,0,0,0-2.14-4.21,13.82,13.82,0,0,1-1.6-3.09c-.45-1.06-1-2-1.57-3.07Q253.4,187.88,252,185a30,30,0,0,1-2.26-5.48,17.54,17.54,0,0,1-.7-3.43,63,63,0,0,1,.61-7.82,42.45,42.45,0,0,1,2-8.29,5.67,5.67,0,0,0,.22-.85c.37,1.89.64,3.79,1,5.68.61,3.36,1.35,6.7,2.13,10l.18.75,0-.21c-.58-4-1.26-7.91-2.12-11.83-.34-1.56-.67-3.12-1.1-4.66a5.5,5.5,0,0,1,.14-.61c.57,1.54,1.14,3.08,1.73,4.6.9,2.22,1.89,4.4,2.85,6.59,1.46,3.36,2.72,5.94,4,9.47.52,1.53.95,3.09,1.32,4.67s.42,2.92.64,4.37l.77,5c.2,1.23.47,2.45.59,3.69a37.52,37.52,0,0,1,.09,7C263.93,205.37,263.79,207.08,263.67,208.79Zm7.14-35.15a3.22,3.22,0,0,0-.21-.4l.09,0,.1.06C270.79,173.42,270.8,173.53,270.81,173.64Zm-.48,16.4c-.47,1-.91,2-1.34,3l-.24.51q.25-.77.48-1.55l.26-.65C269.76,190.91,270,190.46,270.33,190Zm37.47-45.48c-.1,1.39-.11,2.79-.31,4.18a8.86,8.86,0,0,1-.89,2.65,10.06,10.06,0,0,1-2.2,3.13,14.5,14.5,0,0,1-3.07,2.32,14,14,0,0,1-2.38,1.28,35.47,35.47,0,0,0-8.38,5,38.84,38.84,0,0,0-8,7.64,25.7,25.7,0,0,0-2.21,3,24.25,24.25,0,0,0-2.33,4.13l-.18.47c.2-.65.39-1.29.6-1.94l.19-.52a17.1,17.1,0,0,1,1.09-2c.67-1.06,1.45-2,2.16-3.09,1.14-1.63,2.24-3.28,3.44-4.86.87-1.08,1.88-2,2.82-3,1.18-1.31,2.34-2.65,3.49-4s2.4-2.88,3.75-4.18a41.11,41.11,0,0,0-3.62,3.51c-1.46,1.52-2.87,3.09-4.27,4.66-.88,1-1.83,1.86-2.67,2.87-1.28,1.66-2.44,3.41-3.64,5.12-.46.68-1,1.35-1.44,2,.38-1,.77-2.06,1.13-3s.8-2.11,1.29-3.13c.86-1.75,1.88-3.41,2.84-5.1a29.91,29.91,0,0,1,2.24-3.81,34.38,34.38,0,0,1,5.33-5.55,58.53,58.53,0,0,1,4.56-3.89c1.58-1.13,3.23-2.17,4.86-3.23a60.65,60.65,0,0,1,5.5-2.74l.88-.38A9.05,9.05,0,0,0,307.8,144.56Z"/><path class="cls-3" d="M285.91,149.12h0a1.52,1.52,0,0,0,.53.58,2.94,2.94,0,0,0,1.67.09c1.36-.19,2.16-2.08,2.22-3.69l.12,0,.06,0h0a1.58,1.58,0,0,0,1.29-1.25c.09-.49.09-1.09-.55-1.12a1.18,1.18,0,0,0-1.14.93l0,0a2,2,0,0,0-.11-.24,3.27,3.27,0,0,0-2.29-1.29,3.91,3.91,0,0,0-1.78.52,3.39,3.39,0,0,0-1,.72,2.44,2.44,0,0,0-.27,2.1,8.71,8.71,0,0,0-1.73,2.55,11.06,11.06,0,0,0-.32,1.78c-.17,1.14-.33,2.28-.5,3.43-.15,1-.24,2-.33,3a23.93,23.93,0,0,0-.14,3.61c.48-3.84,1.57-7.57,2-11.41a3.54,3.54,0,0,1,.73-1.62,7.17,7.17,0,0,1,.45-.62l0,0A2.83,2.83,0,0,0,285.91,149.12Zm5.5-4.39-.07-.11.11,0Zm.2,2.67-.25.07a1.53,1.53,0,0,1,.35-.26Zm-3.46,1.67a1.2,1.2,0,0,0,.22-.16,2.68,2.68,0,0,0,.4-.31c-.19.38-.38.63-.51.63l-.38,0A1.71,1.71,0,0,0,288.15,149.07Zm2.41,1-.1,0h0l.06-.12,0,0S290.56,150,290.57,150Z"/><circle class="cls-4" cx="157.65" cy="298.96" r="3.67"/><path class="cls-3" d="M243,51.37A136.9,136.9,0,1,0,133.48,293.9a1.39,1.39,0,0,1,1.05,1.65,1.38,1.38,0,0,1-1.65,1A139.66,139.66,0,1,1,243,47.9Z"/><path class="cls-3" d="M240.35,272.45c-17.52,13.25-35.63,20.83-58.23,24.6a1.27,1.27,0,0,1-1.51-1.07,1.37,1.37,0,0,1,1.06-1.62,135.14,135.14,0,0,0,56.61-24.2c1.81-1.34,7.11-5.43,9-11.19.44-1.58,1.17-2.86,1.48-4.42a13.92,13.92,0,0,0-.15-3,62.76,62.76,0,0,0-1.51-7.09c-.58-1.91-1.42-3.73-2.18-5.57-.5-1.39-1-2.78-1.47-4.18-.75-2.23-1.63-5.29-2.37-6.84a29.31,29.31,0,0,0-2.16-3.57,61,61,0,0,1-6.22-11.27,33.35,33.35,0,0,1-2.09-9.09c0-1-.19-3.17-.23-3.53a6.76,6.76,0,0,1,.11-3.76c.32-.88.56-1.79.91-2.66a18.23,18.23,0,0,1,1.45-2.79c1-1.94,2.35-4.29,3.49-6.46a3,3,0,0,1,1.07-1.5c.62-.37.65,2.46.68,2.83a26.3,26.3,0,0,0,.84,5.24c.45,1.55,1,3.06,1.55,4.6a17.22,17.22,0,0,0,1.16,2.59c.79,1.59,1.6,3.17,2.42,4.75s1.59,2.87,2.36,4.31,1.35,2.74,2,4.11c2.33,4.84,3.71,7.65,3.9,13.17.18,2.22.37,4.44.62,6.64a62.31,62.31,0,0,1,.6,6.61,18.15,18.15,0,0,1-.27,3.38l-.53,4a48.31,48.31,0,0,1-.91,5.27q-.3,1.17-.66,2.32l.23-.45c1.34-2.72,2.51-5.54,3.59-8.38.47-1.58,1-3.14,1.57-4.68,1.37-3.85,2.43-7.9,1.87-12a28.68,28.68,0,0,0-1.5-5.67c-.17-1-.31-2-.5-2.92a1.4,1.4,0,0,1-.92.14,4,4,0,0,1-1.71-.54,3.26,3.26,0,0,1-1.18-3.27,3.54,3.54,0,0,1,1.32-1.83l.29-.14v0a1,1,0,0,1,0-.43l.2-.24.08-.1a.46.46,0,0,1,.5-.12h0a1.12,1.12,0,0,1,.43.26.74.74,0,0,1,.14.5l.4.14a3.39,3.39,0,0,1,1.41,1,3.33,3.33,0,0,1,.31.79,8,8,0,0,1,.33,1.36,3.11,3.11,0,0,1-.25,1.16,1.16,1.16,0,0,1-.17.45,2.14,2.14,0,0,1-.39.43,3.16,3.16,0,0,1-.43.4c.13.66.25,1.32.36,2a8.13,8.13,0,0,0,.49,2.09c.33.89.6,1.8.84,2.71a20,20,0,0,1,.41,6.83v.09c.32-1,.65-2,.91-3.06.7-3.26,1.31-6.54,1.93-9.82.1-1,.25-1.92.32-2.88l0-.35q.05-1.2.12-2.4a47.43,47.43,0,0,0-.23-4.9v-.08c0-.17-.14-.8-.22-1.17-.21-1.06-.5-2.39-.67-2.9a44.55,44.55,0,0,0-1.85-4.48,32.84,32.84,0,0,0-2.48-4.49,19.3,19.3,0,0,1-.94-2.12c-.32-.7-.7-1.36-1.05-2q-1.75-3.29-3.38-6.64a31.25,31.25,0,0,1-2.29-5.74,21.62,21.62,0,0,1-.73-3.59,42.24,42.24,0,0,1,.24-4.87c.15-1.81.41-3.61.69-5.4a35,35,0,0,1,1-3.77c.29-1.07.85-2.62,1-3.32a5.62,5.62,0,0,1,.45-1.63c0-.09.12-.2.23-.2a.16.16,0,0,1,.13,0c.33.24.38.68.53,1s.31.88.47,1.31c.69,1.76,1.42,3.84,2,5.13,1.32,3.06,2.67,6.11,4,9.17a53.32,53.32,0,0,1,3.55,10.46c.41,3,.87,6.07,1.35,9.1a42.72,42.72,0,0,1,.84,7,32.59,32.59,0,0,1-.28,5.28c.36-1.47.74-2.93,1.2-4.37.47-1.62.77-3.29,1.34-4.89.08-.26.17-.51.26-.77l.91-2.07c.25-.5.49-1,.73-1.53l.09-.27c.26-.88.45-1.78.63-2.69.26-1.6.26-3.24.46-4.85A30.74,30.74,0,0,0,270,177a35.62,35.62,0,0,0-1.7-8.11,31.42,31.42,0,0,0-2.41-4.84c-.68-1.28-1.28-2.59-1.86-3.92a11.55,11.55,0,0,1-.52-2.22,10.31,10.31,0,0,1-.23-3.51,17.29,17.29,0,0,1,.78-3.22c.51-1.33,1.22-2.57,1.74-3.89a6,6,0,0,0,.71-2.5c-.23-.25-.47-.5-.7-.73s-.55-.5-.82-.75a.1.1,0,0,1,0-.09c0-.19.23-.32.39-.39a1.5,1.5,0,0,1,1.65.59,1.82,1.82,0,0,1,.43.85,23,23,0,0,1,1.53,1.95c.91,1.28,1.88,2.51,2.71,3.85.59,1,1.08,2.08,1.57,3.13a27.41,27.41,0,0,1,1.29,3.33,11.42,11.42,0,0,1,.78,2.86c.17,2.84,0,5.7,0,8.54-.11,2.36-.54,4.68-.87,7-.34,2-.83,4-1,6a38.85,38.85,0,0,1-1.18,4.76c-.13.43-.27.85-.42,1.27a26.56,26.56,0,0,1-.67,2.63c.48-.91,1-1.82,1.44-2.73,1.06-2,2.14-4,3-6.16l1.3-2.93,1-2.61a51.69,51.69,0,0,0,1.66-4.95,28.26,28.26,0,0,0,.55-3.37c.06-1.33.06-2.66.09-4,.07-3.39-.2-6.77-.46-10.15,0-.72-.06-1.44-.08-2.15-.31-1.44-.64-2.88-1-4.31s-.88-2.9-1.37-4.33c-.26-.66-.6-1.29-.84-2a25.49,25.49,0,0,0-1.48-3.78c-.27-.3-.81-1-1.23-1.45-.76-.8-1.56-1.56-2.26-2.41a10.23,10.23,0,0,1-1.64-2.43,9,9,0,0,1-.66-2.24,45.08,45.08,0,0,0,.64-4.87,6.81,6.81,0,0,0-.31-2.3,5.7,5.7,0,0,1-.59-2.19.56.56,0,0,1,.52-.31c.23,0,.41.21.62.3a7.33,7.33,0,0,1,1.08.67,18.35,18.35,0,0,1,2,2.65,26.33,26.33,0,0,1,2.06,3.62c.71,1.69,1.35,3.43,1.95,5.16.62,2,1.36,4,1.91,6,.37,1.95.58,3.92.87,5.88.13,1.55.33,3.09.4,4.63.12,2.22.06,4.44.26,6.66.14,2,.32,4,.35,6,.28-4,.42-8,.57-12.05a.26.26,0,0,1-.25-.11,1.44,1.44,0,0,1,0-.32,6.87,6.87,0,0,1,.34-2.05c.11-2.51.27-5,.3-7.54.1-4.9.2-9.8.12-14.7v-.09a.25.25,0,0,1-.15-.07.08.08,0,0,1,0-.08q0-.13,0-.27h0c0-.4,0-.79,0-1.19s0-1,0-1.56a15.38,15.38,0,0,0-.11-1.59,18.58,18.58,0,0,0-1.11-3.84c-.28-.81-.5-1.65-.72-2.48a17,17,0,0,1-.62-2.85,24.5,24.5,0,0,1,.42-5.43,33.76,33.76,0,0,1,.88-4.16,6.58,6.58,0,0,0,.09-1.28c0-.28,0-.63.26-.77a.7.7,0,0,1,.5-.09,1.53,1.53,0,0,1,.32.33,6.64,6.64,0,0,0,.79.8,10.33,10.33,0,0,1,3,3.44,8.78,8.78,0,0,1,.43,1.42,13.45,13.45,0,0,1,.53,3,22.83,22.83,0,0,1-.39,4.22c-.2.91-.45,1.38-.66,2.07s-.33,1.71-.65,2.53-.71,1.54-1.05,2.31a16.51,16.51,0,0,0-.78,3.64c-.1.73-.2,1.46-.3,2.19,0,1.28,0,2.56,0,3.84-.07,5-.08,10-.3,15,.09-.53.18-1.05.25-1.58a51.9,51.9,0,0,1,1-5.56c.35-1.19.76-2.36,1.14-3.53a15.39,15.39,0,0,1,1-2.54c.72-1.35,1.46-2.69,2.27-4,.56-.87,1.21-1.67,1.84-2.49a26.63,26.63,0,0,1,5-5.1c.33-.25,1.17-.95,1.55-.55,0,.1,0,.17-.09.25a4.55,4.55,0,0,0-.41,1,13.39,13.39,0,0,0-.27,3.59,34.48,34.48,0,0,1-.37,4.07,17.21,17.21,0,0,1-1.42,3.19,6.18,6.18,0,0,1-1.2,1.88c-1.37,1.4-2.77,2.76-4,4.27-.3.33-.63.62-.91.9s-.56.71-.88,1a17.44,17.44,0,0,0-1.65,1.54,14.43,14.43,0,0,0-1.62,3.71c-.23.79-.75,2-.95,2.52l-.06.2v.09c-.19,1.42-.34,2.85-.5,4.28-.16,4.94-.31,9.88-.9,14.79-.2,1.57-.31,3.15-.57,4.7.21-.52.42-1,.65-1.56.77-1.63,1.71-3.17,2.59-4.74.73-1.25,1.33-2.58,2.14-3.78a29,29,0,0,1,4.18-4.83c1.94-1.69,3.78-3.5,5.81-5.09,1.18-.91,2.44-1.7,3.68-2.52a37.85,37.85,0,0,1,5.11-2.9c1.35-.67,2.74-1.27,4.13-1.84.28-.09.56-.26.85-.35h0a1.29,1.29,0,0,1,.3-.05c.09,0,.21.08.16.18a.35.35,0,0,1-.17.18c-.23.15-.53.2-.75.37a3.16,3.16,0,0,0-.61,1.77c-.38,2.17-.06,4.45-.8,6.55a13.92,13.92,0,0,1-1.51,3,13.45,13.45,0,0,1-2.37,2.53,29.24,29.24,0,0,1-3.61,2.37c-.71.43-1.51.66-2.26,1A47.63,47.63,0,0,0,284,169.8c-.62.78-1.33,1.49-1.89,2.32a48.78,48.78,0,0,0-2.77,4.32c-.56,1-1,2.08-1.45,3.12s-1,1.84-1.48,2.79c-.57,1.1-.79,2.4-1.65,3.35l-.28.28a4,4,0,0,0,.37-.46,10.43,10.43,0,0,0,1-2.69l-.16.34a47,47,0,0,1-3.44,6.11l-1,1.38-.13.25c.63-.83,1.38-1.83,1.81-2.37.81-1.12,1.54-2.3,2.43-3.38a35.91,35.91,0,0,1,2.78-2.85,15.48,15.48,0,0,1,1.78-1.42h0a2.5,2.5,0,0,1,.62-2.53,3.45,3.45,0,0,1,2.16-.92,2,2,0,0,1,.6-.13,2.1,2.1,0,0,1,.88.24l.42,0,.16-.18,0-.1c.19-.61,1.3-.89,1.59-.36a.31.31,0,0,1,.08.11.56.56,0,0,1,0,.41,1.67,1.67,0,0,1-.55,1,1.06,1.06,0,0,1-.35.18,2.77,2.77,0,0,1,.23.37,2.67,2.67,0,0,1-.45,2.05l0,.07-.13.26a1.84,1.84,0,0,1-.44.49,3.67,3.67,0,0,1-1,.81c-1.14.57-2.37.54-3-.54a2,2,0,0,1-.57-.69c-.27.2-.56.41-.87.67-.53.45-1.92,1.79-2.66,2.62-1.19,1.28-1.85,2.46-3,3.88-1,1.15-1.93,2.28-2.9,3.41l-.21.25c-.59,1.17-1.33,2.63-2,3.76s-1.11,2.41-1.57,3.65a47.74,47.74,0,0,0-1.39,5c-.23,1.3-.27,2.63-.55,3.92s-.59,2.38-.83,3.55a20.1,20.1,0,0,1,1.7-4.13,14.25,14.25,0,0,1,1.92-2.83c.43-.44.91-.82,1.37-1.22a12.64,12.64,0,0,1,1.41-1.06,2.09,2.09,0,0,1,.14-.92,1.11,1.11,0,0,1,.37-.83c.83-.8,2.37-1.57,3.34-.6a2.07,2.07,0,0,1,.34.49.52.52,0,0,1,.82.09c.18.25.34.67.08.92a1,1,0,0,1-.21.1l0,.06a.53.53,0,0,1-.35.18c0,.08,0,.16,0,.23a2.07,2.07,0,0,1-2.08,2,3,3,0,0,1-2-.86,14.58,14.58,0,0,0-1.69,1.29,9.17,9.17,0,0,0-1.53,1.49A23.52,23.52,0,0,0,264,214c0,.46-.07.92-.12,1.37-.24,1.5-.53,3-.78,4.48s-.45,2.83-.8,4.21l-.06.79a15.75,15.75,0,0,1-1.06,4.94,56.41,56.41,0,0,1,6.49-11.26c.8-1,1.5-2.1,2.34-3.08a31.1,31.1,0,0,1,3.71-3.41,19.73,19.73,0,0,1,4.75-3.12c1-.45,2-.77,3-1.14.77-.27,1.51-.66,2.3-.88a16.19,16.19,0,0,1,2.49-.32l3.54-.36a27.81,27.81,0,0,1,2.87-.34,33,33,0,0,1,3.94.37,5.51,5.51,0,0,1,1.29.33.87.87,0,0,1,.27.83.18.18,0,0,1-.1.11,5.4,5.4,0,0,1-1.25.61,16.76,16.76,0,0,0-1.8.77,22.83,22.83,0,0,0-3.28,2c-1.51,1.11-3,2.23-4.44,3.44-.86.73-1.64,1.54-2.46,2.31a27.1,27.1,0,0,0-4.47,5.94c-.41.89-.61,1.86-1,2.78a24.41,24.41,0,0,1-1.58,3.52c-.9,1.62-1.67,3.32-2.71,4.86a63.12,63.12,0,0,1-4.59,5.59c-.66.7-1.3,1.42-2,2.06s-1.41,1.12-2.12,1.67q-2.54,2-5,4c-1.92,1.56-3.69,3.29-5.44,5-1.29,1.21.1-.3-1.06,1a7.77,7.77,0,0,1-1.44,1.8c-.88,1.79-.64.67-1.57,2.63a7.77,7.77,0,0,1-1,2.47,6.15,6.15,0,0,1-1.09,2.45c-.38.83-1.29,2.07-1.67,2.72C246.62,267.52,243.5,270.07,240.35,272.45Z"/></g></svg>