<svg id="Layer_2" data-name="Layer 2" xmlns="http://www.w3.org/2000/svg" viewBox="0 0 768.67 150.67"><defs><style>.cls-1{fill:#b07d92;}</style></defs><title>Artboard 1</title><path class="cls-1" d="M716.79,57.33h0a1.52,1.52,0,0,0,.15.77,2.94,2.94,0,0,0,1.37.95c1.25.55,2.93-.64,3.82-2l.12,0,.07,0,0,0a1.58,1.58,0,0,0,1.76-.39c.33-.37.64-.88.12-1.24a1.18,1.18,0,0,0-1.46.19h0a2,2,0,0,0,0-.26,3.27,3.27,0,0,0-1.27-2.3,3.91,3.91,0,0,0-1.79-.49,3.39,3.39,0,0,0-1.25.08,2.44,2.44,0,0,0-1.33,1.65,8.71,8.71,0,0,0-2.81,1.26A11.06,11.06,0,0,0,713.1,57l-2.22,2.66c-.64.76-1.24,1.56-1.83,2.36a23.93,23.93,0,0,0-2,3c2.42-3,5.3-5.63,7.72-8.65a3.54,3.54,0,0,1,1.47-1,7.17,7.17,0,0,1,.71-.29v0A2.83,2.83,0,0,0,716.79,57.33Zm7-.86a1,1,0,0,0,0-.13l.11,0Zm-1.23,2.38-.25-.07a1.53,1.53,0,0,1,.44,0Zm-3.82-.39a1.2,1.2,0,0,0,.27,0,2.68,2.68,0,0,0,.5,0c-.36.23-.65.34-.77.27l-.35-.17A1.71,1.71,0,0,0,718.72,58.46Zm1.55,2.08-.1,0v0l.12-.07h0Z"/><path class="cls-1" d="M613.36,138.51c-21.87,2.1-41.26-.92-62.49-9.55a1.27,1.27,0,0,1-.72-1.71,1.37,1.37,0,0,1,1.75-.83,135.14,135.14,0,0,0,60.9,9c2.25-.2,8.9-.9,13.49-4.84,1.21-1.11,2.49-1.83,3.57-3a13.92,13.92,0,0,0,1.43-2.6,62.76,62.76,0,0,0,2.43-6.83c.5-1.93.74-3.92,1.06-5.88.3-1.45.59-2.9.94-4.34.53-2.29,1.38-5.36,1.56-7.07a29.31,29.31,0,0,0,0-4.17,61,61,0,0,1,.61-12.86,33.35,33.35,0,0,1,3-8.84c.51-.85,1.5-2.8,1.65-3.13a6.76,6.76,0,0,1,2.06-3.15c.73-.58,1.41-1.23,2.16-1.79a18.23,18.23,0,0,1,2.7-1.62c1.9-1.1,4.25-2.42,6.36-3.68a3,3,0,0,1,1.69-.72c.72,0-.74,2.44-.9,2.77a26.3,26.3,0,0,0-2,4.9c-.43,1.56-.71,3.16-1.08,4.73a17.22,17.22,0,0,0-.37,2.82c-.16,1.77-.3,3.54-.43,5.32s-.15,3.27-.24,4.91-.29,3-.43,4.56c-.55,5.34-.85,8.46-3.57,13.26-1,2-2,4-3,6a62.31,62.31,0,0,1-3,5.94,18.15,18.15,0,0,1-2,2.74L638,122a48.31,48.31,0,0,1-3.53,4q-.87.84-1.77,1.63l.44-.26c2.56-1.62,5-3.4,7.45-5.25q1.84-1.64,3.79-3.17c3.18-2.56,6.21-5.45,7.89-9.26a28.68,28.68,0,0,0,1.69-5.61c.39-.95.77-1.85,1.11-2.75a1.4,1.4,0,0,1-.85-.36A4,4,0,0,1,653,99.66a3.26,3.26,0,0,1,.71-3.4,3.54,3.54,0,0,1,2.09-.87l.31,0v0a1,1,0,0,1,.25-.35l.29-.1.12,0a.46.46,0,0,1,.49.16v0a1.12,1.12,0,0,1,.23.45.74.74,0,0,1-.15.49c.09.1.18.21.27.32a3.39,3.39,0,0,1,.69,1.57,3.33,3.33,0,0,1-.15.83,8,8,0,0,1-.43,1.33,3.11,3.11,0,0,1-.82.85,1.16,1.16,0,0,1-.38.3,2.14,2.14,0,0,1-.56.16,3.16,3.16,0,0,1-.57.12c-.23.63-.48,1.25-.73,1.87a8.13,8.13,0,0,0-.67,2c-.19.93-.43,1.84-.7,2.75a20,20,0,0,1-3.23,6l-.06.07c.81-.69,1.62-1.38,2.37-2.13,2.3-2.41,4.55-4.88,6.79-7.35.59-.76,1.21-1.5,1.78-2.28l.21-.28,1.35-2a47.43,47.43,0,0,0,2.38-4.3v0l0,0c.06-.16.3-.76.42-1.11.38-1,.83-2.3.95-2.83a44.55,44.55,0,0,0,.77-4.79,32.84,32.84,0,0,0,.24-5.12,19.3,19.3,0,0,1,.31-2.3c.09-.76.11-1.53.17-2.29q.23-3.72.6-7.43a31.25,31.25,0,0,1,1.05-6.09,21.62,21.62,0,0,1,1.25-3.44,42.24,42.24,0,0,1,2.76-4c1.08-1.46,2.24-2.86,3.42-4.24a35,35,0,0,1,2.8-2.71c.81-.76,2.09-1.79,2.6-2.29a5.62,5.62,0,0,1,1.23-1.15.31.31,0,0,1,.3-.05.16.16,0,0,1,.09.09,2.1,2.1,0,0,1-.1,1.16c-.1.45-.19.91-.29,1.36-.34,1.86-.8,4-1,5.42-.48,3.3-.93,6.61-1.37,9.91a53.32,53.32,0,0,1-2.45,10.77c-1.22,2.77-2.44,5.62-3.62,8.46a42.72,42.72,0,0,1-2.94,6.37,32.59,32.59,0,0,1-3,4.36c1.08-1.06,2.17-2.11,3.31-3.09s2.38-2.4,3.7-3.46l.62-.52,1.86-1.29,1.42-.92.21-.18c.68-.62,1.32-1.28,1.94-2,1.06-1.23,1.91-2.62,2.93-3.89a30.74,30.74,0,0,0,3.45-5.82,35.62,35.62,0,0,0,2.8-7.8,31.42,31.42,0,0,0,.49-5.38c.09-1.44.27-2.88.46-4.31a11.55,11.55,0,0,1,.72-2.16A10.31,10.31,0,0,1,694.74,50a17.29,17.29,0,0,1,2.35-2.33c1.13-.87,2.38-1.55,3.52-2.4a6,6,0,0,0,1.91-1.76c-.06-.33-.13-.67-.22-1s-.21-.71-.31-1.07a.1.1,0,0,1,0-.1c.1-.17.37-.15.54-.13a1.5,1.5,0,0,1,1.09,1.37,1.82,1.82,0,0,1-.08.95,23,23,0,0,1,.28,2.46c.11,1.56.29,3.13.3,4.7,0,1.17-.17,2.33-.3,3.49a27.41,27.41,0,0,1-.65,3.51,11.42,11.42,0,0,1-.83,2.85c-1.35,2.51-3,4.85-4.49,7.26-1.33,2-2.91,3.7-4.42,5.52-1.34,1.53-2.8,3-4,4.59a38.85,38.85,0,0,1-3.5,3.44c-.33.3-.68.58-1,.87a26.56,26.56,0,0,1-1.95,1.89c.89-.52,1.78-1,2.66-1.57,2-1.17,3.94-2.32,5.8-3.66L694,77.05l2.18-1.73a51.69,51.69,0,0,0,4-3.34,28.26,28.26,0,0,0,2.24-2.58c.75-1.1,1.45-2.24,2.17-3.36,1.84-2.85,3.38-5.88,4.93-8.89.34-.63.7-1.26,1.06-1.88.49-1.39,1-2.79,1.41-4.19s.77-2.93,1.1-4.41c.13-.7.17-1.41.32-2.11a25.49,25.49,0,0,0,.73-4c-.07-.39-.16-1.29-.29-1.88-.23-1.08-.51-2.15-.67-3.24a10.23,10.23,0,0,1-.13-2.93,9,9,0,0,1,.61-2.25,45.08,45.08,0,0,0,3.1-3.81,6.81,6.81,0,0,0,.94-2.12,5.7,5.7,0,0,1,.65-2.18.56.56,0,0,1,.6,0c.19.13.24.39.37.58a7.33,7.33,0,0,1,.57,1.14,18.35,18.35,0,0,1,.29,3.29,26.33,26.33,0,0,1-.14,4.16c-.28,1.82-.65,3.62-1,5.42-.52,2-.94,4.12-1.53,6.14-.71,1.85-1.56,3.64-2.34,5.46-.7,1.38-1.34,2.8-2.08,4.16-1.06,2-2.27,3.82-3.27,5.81-.93,1.78-1.83,3.58-2.85,5.31,2.34-3.27,4.56-6.62,6.8-10a.26.26,0,0,1-.15-.22,1.44,1.44,0,0,1,.17-.27,6.87,6.87,0,0,1,1.37-1.57c1.41-2.08,2.86-4.14,4.2-6.26,2.65-4.12,5.3-8.24,7.8-12.45l0-.08a.25.25,0,0,1-.09-.14.08.08,0,0,1,0-.08l.14-.23h0c.2-.34.4-.68.61-1L728.7,30a15.38,15.38,0,0,0,.74-1.41,18.58,18.58,0,0,0,1.07-3.85c.18-.84.44-1.66.68-2.49a17,17,0,0,1,1-2.76,24.5,24.5,0,0,1,3.2-4.4A33.76,33.76,0,0,1,738.3,12a6.58,6.58,0,0,0,.75-1c.17-.22.29-.56.63-.51a.7.7,0,0,1,.47.18,1.53,1.53,0,0,1,.1.45,6.64,6.64,0,0,0,.26,1.09,10.33,10.33,0,0,1,.76,4.51,8.78,8.78,0,0,1-.38,1.44A13.45,13.45,0,0,1,739.74,21a22.83,22.83,0,0,1-2.55,3.39c-.65.67-1.11.94-1.65,1.42s-1.18,1.28-1.88,1.81-1.41.94-2.11,1.42A16.51,16.51,0,0,0,729,31.72l-1.4,1.71-2,3.29c-2.68,4.23-5.31,8.49-8.12,12.63.35-.4.7-.8,1-1.22a51.9,51.9,0,0,1,3.77-4.21c.92-.83,1.88-1.61,2.82-2.41a15.39,15.39,0,0,1,2.17-1.64c1.32-.77,2.65-1.53,4-2.21.93-.45,1.91-.79,2.87-1.16a26.63,26.63,0,0,1,6.93-1.73c.41,0,1.49-.2,1.61.34,0,.1-.13.12-.2.17a4.55,4.55,0,0,0-.88.65,13.39,13.39,0,0,0-2.11,2.92,34.48,34.48,0,0,1-2.45,3.27,17.21,17.21,0,0,1-2.88,2,6.18,6.18,0,0,1-2,1c-1.9.47-3.8.9-5.66,1.53-.42.12-.86.2-1.24.29s-.84.31-1.28.41a17.44,17.44,0,0,0-2.22.45,14.43,14.43,0,0,0-3.32,2.31c-.61.55-1.71,1.33-2.13,1.65l-.15.14-.06.07c-.91,1.11-1.79,2.25-2.67,3.38-2.73,4.12-5.44,8.25-8.51,12.13-1,1.23-1.92,2.52-2.95,3.71.45-.34.91-.67,1.37-1,1.51-1,3.12-1.81,4.69-2.68,1.28-.68,2.48-1.5,3.8-2.1A29,29,0,0,1,718,63.46c2.54-.42,5.06-1,7.62-1.29,1.48-.15,3-.17,4.46-.22a37.85,37.85,0,0,1,5.87.2c1.5.13,3,.35,4.48.59.29.07.61.07.9.15h0a1.29,1.29,0,0,1,.28.11c.08,0,.14.18,0,.24a.35.35,0,0,1-.24.07c-.28,0-.55-.11-.83-.08-.63.14-1,.73-1.45,1.19-1.46,1.64-2.38,3.76-4.11,5.16a13.92,13.92,0,0,1-2.87,1.79,13.45,13.45,0,0,1-3.34.91,29.24,29.24,0,0,1-4.32.12c-.83,0-1.64-.23-2.46-.31A47.63,47.63,0,0,0,704.36,74c-.94.34-1.91.58-2.82,1a48.78,48.78,0,0,0-4.62,2.23c-1,.56-1.91,1.27-2.87,1.89s-1.83,1-2.72,1.6c-1.07.64-1.93,1.64-3.15,2l-.39.1a4,4,0,0,0,.55-.2,10.43,10.43,0,0,0,2.25-1.78l-.32.21a47,47,0,0,1-6.13,3.4l-1.54.67-.24.15,2.78-1.07c1.28-.53,2.52-1.15,3.83-1.6a35.91,35.91,0,0,1,3.86-1,15.48,15.48,0,0,1,2.26-.28h0A2.5,2.5,0,0,1,697,79.46a3.45,3.45,0,0,1,2.32.34,2,2,0,0,1,.58.21,2.1,2.1,0,0,1,.63.67,3.67,3.67,0,0,1,.37.2l.24-.07.09-.07c.49-.42,1.57-.08,1.55.53a.31.31,0,0,1,0,.14.56.56,0,0,1-.25.33,1.67,1.67,0,0,1-1,.53,1.06,1.06,0,0,1-.39,0,2.77,2.77,0,0,1,0,.44,2.67,2.67,0,0,1-1.46,1.51l-.08,0-.24.16a1.84,1.84,0,0,1-.63.19,3.67,3.67,0,0,1-1.3.15c-1.27-.11-2.3-.78-2.3-2a2,2,0,0,1-.12-.88c-.33,0-.69.06-1.09.11-.69.11-2.58.52-3.64.83-1.69.46-2.87,1.13-4.56,1.74-1.41.48-2.84.93-4.26,1.39l-.3.1c-1.11.69-2.51,1.54-3.66,2.16s-2.2,1.47-3.25,2.29A47.74,47.74,0,0,0,670.41,94c-.87,1-1.61,2.1-2.52,3.05s-1.74,1.72-2.57,2.59A20.1,20.1,0,0,1,668.93,97a14.25,14.25,0,0,1,3.12-1.4c.59-.15,1.2-.22,1.81-.32a12.64,12.64,0,0,1,1.76-.17,2.09,2.09,0,0,1,.6-.71,1.11,1.11,0,0,1,.75-.51c1.13-.25,2.84-.1,3.16,1.24a2.07,2.07,0,0,1,0,.6.52.52,0,0,1,.65.5c0,.31-.06.75-.41.82a1,1,0,0,1-.23,0l-.07,0a.53.53,0,0,1-.39,0l-.12.2a2.07,2.07,0,0,1-2.84.65,3,3,0,0,1-1.24-1.77,14.58,14.58,0,0,0-2.11.21,9.17,9.17,0,0,0-2.09.46,23.52,23.52,0,0,0-7.16,4.31c-.27.37-.54.75-.82,1.11-1,1.15-2,2.26-3,3.41s-1.86,2.18-2.89,3.17l-.46.64a15.75,15.75,0,0,1-3.49,3.66,56.41,56.41,0,0,1,11.43-6.2c1.21-.44,2.38-1,3.61-1.39a31.1,31.1,0,0,1,4.95-1,19.73,19.73,0,0,1,5.68-.17c1,.12,2.08.37,3.11.58.8.17,1.63.23,2.42.45a16.19,16.19,0,0,1,2.29,1l3.2,1.55a27.81,27.81,0,0,1,2.62,1.21,33,33,0,0,1,3.16,2.38,5.51,5.51,0,0,1,.93,1,.87.87,0,0,1-.21.85.18.18,0,0,1-.14,0,5.4,5.4,0,0,1-1.38-.14,16.76,16.76,0,0,0-1.94-.29,22.83,22.83,0,0,0-3.84,0c-1.87.15-3.73.32-5.58.61-1.11.17-2.21.46-3.31.68a27.1,27.1,0,0,0-6.92,2.72c-.82.54-1.5,1.27-2.29,1.86a24.41,24.41,0,0,1-3.19,2.17c-1.62.91-3.17,2-4.86,2.72a63.12,63.12,0,0,1-6.84,2.36c-.93.25-1.86.53-2.81.69s-1.79.21-2.68.31c-2.13.24-4.27.51-6.4.78-2.45.33-4.87.87-7.27,1.44-1.73.35.24-.2-1.45.33a7.77,7.77,0,0,1-2.17.78c-1.69,1.06-.89.24-2.72,1.42a7.77,7.77,0,0,1-2.18,1.56,6.15,6.15,0,0,1-2.21,1.52c-.76.5-2.18,1.09-2.85,1.44C621.28,137.6,617.29,138.13,613.36,138.51Z"/><path class="cls-1" d="M25.25,93.1v21H37.78v4.75H19.6V93.1Z"/><path class="cls-1" d="M47.39,105.92a5.93,5.93,0,0,1,.9-3,6.13,6.13,0,0,1,2-1.91,8.79,8.79,0,0,1,2.75-1,15.65,15.65,0,0,1,3.08-.31,20.88,20.88,0,0,1,2.84.2,8.74,8.74,0,0,1,2.63.77,5.18,5.18,0,0,1,1.94,1.6,4.48,4.48,0,0,1,.76,2.72v9.68a19.41,19.41,0,0,0,.14,2.41,4.34,4.34,0,0,0,.5,1.73H59.78a7.19,7.19,0,0,1-.23-.88,7.54,7.54,0,0,1-.13-.92,6.65,6.65,0,0,1-2.88,1.76,11.56,11.56,0,0,1-3.38.5,9.15,9.15,0,0,1-2.48-.32,5.69,5.69,0,0,1-2-1,4.69,4.69,0,0,1-1.35-1.73,5.84,5.84,0,0,1-.49-2.48,5.42,5.42,0,0,1,.56-2.61,4.67,4.67,0,0,1,1.44-1.64,6.49,6.49,0,0,1,2-.92,21.73,21.73,0,0,1,2.29-.49q1.15-.18,2.27-.29a13.61,13.61,0,0,0,2-.32,3.44,3.44,0,0,0,1.37-.63,1.38,1.38,0,0,0,.47-1.21,2.72,2.72,0,0,0-.27-1.31,2,2,0,0,0-.72-.76,2.83,2.83,0,0,0-1-.36,8.6,8.6,0,0,0-1.28-.09,3.88,3.88,0,0,0-2.38.65,2.89,2.89,0,0,0-1,2.16ZM59.2,109.7a2.28,2.28,0,0,1-.81.45,8.28,8.28,0,0,1-1,.27q-.56.11-1.17.18t-1.22.18a9.25,9.25,0,0,0-1.13.29,3.39,3.39,0,0,0-1,.49,2.31,2.31,0,0,0-.67.77,2.48,2.48,0,0,0-.25,1.19,2.4,2.4,0,0,0,.25,1.15,1.93,1.93,0,0,0,.68.74,2.89,2.89,0,0,0,1,.38,6.49,6.49,0,0,0,1.19.11,4.51,4.51,0,0,0,2.34-.5,3.38,3.38,0,0,0,1.22-1.21,3.86,3.86,0,0,0,.49-1.42,9.76,9.76,0,0,0,.09-1.15Z"/><path class="cls-1" d="M84,93.1l6,17.68h.07L95.74,93.1h8v25.7H98.4V100.59h-.07L92,118.8H87.68l-6.3-18H81.3v18H76V93.1Z"/><path class="cls-1" d="M120.8,114.34a5.24,5.24,0,0,0,6,.34,3.21,3.21,0,0,0,1.37-1.64h4.5a8.54,8.54,0,0,1-3.31,4.79,9.75,9.75,0,0,1-5.4,1.44,10.63,10.63,0,0,1-4-.7,8.24,8.24,0,0,1-3-2,9,9,0,0,1-1.89-3.1,11.32,11.32,0,0,1-.67-4,10.85,10.85,0,0,1,.68-3.89,9,9,0,0,1,5-5.18,9.64,9.64,0,0,1,3.87-.76,8.86,8.86,0,0,1,4.14.92,8.27,8.27,0,0,1,2.9,2.47,10.15,10.15,0,0,1,1.64,3.53,13.17,13.17,0,0,1,.36,4.14H119.54A5.17,5.17,0,0,0,120.8,114.34Zm5.78-9.79a3.59,3.59,0,0,0-2.79-1,4.45,4.45,0,0,0-2,.41,3.88,3.88,0,0,0-1.3,1,3.76,3.76,0,0,0-.68,1.3,5.84,5.84,0,0,0-.23,1.22h8.32A5.91,5.91,0,0,0,126.57,104.55Z"/><path class="cls-1" d="M143.33,97.31V93.1h5.11v4.21Zm5.11,2.88V118.8h-5.11V100.19Z"/><path class="cls-1" d="M164.93,93.1v25.7h-5.11V93.1Z"/><path class="cls-1" d="M181.42,93.1v25.7h-5.11V93.1Z"/><path class="cls-1" d="M198.12,114.34a5.24,5.24,0,0,0,6,.34,3.21,3.21,0,0,0,1.37-1.64H210a8.54,8.54,0,0,1-3.31,4.79,9.75,9.75,0,0,1-5.4,1.44,10.63,10.63,0,0,1-4-.7,8.24,8.24,0,0,1-3-2,9,9,0,0,1-1.89-3.1,11.32,11.32,0,0,1-.67-4,10.85,10.85,0,0,1,.68-3.89,9,9,0,0,1,5-5.18,9.64,9.64,0,0,1,3.87-.76,8.86,8.86,0,0,1,4.14.92,8.27,8.27,0,0,1,2.9,2.47,10.15,10.15,0,0,1,1.64,3.53,13.17,13.17,0,0,1,.36,4.14H196.86A5.17,5.17,0,0,0,198.12,114.34Zm5.78-9.79a3.59,3.59,0,0,0-2.79-1,4.45,4.45,0,0,0-2,.41,3.88,3.88,0,0,0-1.3,1,3.76,3.76,0,0,0-.68,1.3,5.84,5.84,0,0,0-.23,1.22h8.32A5.91,5.91,0,0,0,203.9,104.55Z"/><path class="cls-1" d="M233.12,118.8v-2.59H233a5.75,5.75,0,0,1-2.52,2.34,7.43,7.43,0,0,1-3.17.72,9,9,0,0,1-3.37-.54,4.86,4.86,0,0,1-2.07-1.53,6,6,0,0,1-1.06-2.41,15,15,0,0,1-.31-3.15V100.19h5.11V110.7a6.52,6.52,0,0,0,.72,3.44,2.79,2.79,0,0,0,2.56,1.13,3.54,3.54,0,0,0,3-1.24,6.91,6.91,0,0,0,.94-4.09v-9.76H238V118.8Z"/><path class="cls-1" d="M253.92,100.19v3.46H254a6.26,6.26,0,0,1,1-1.6,6.36,6.36,0,0,1,1.4-1.26,6.88,6.88,0,0,1,1.69-.81,6.12,6.12,0,0,1,1.87-.29,4,4,0,0,1,1.12.18v4.75q-.36-.07-.86-.13a9.1,9.1,0,0,0-1-.05,5.45,5.45,0,0,0-2.38.47,4.11,4.11,0,0,0-1.57,1.28,5.11,5.11,0,0,0-.85,1.89,10.26,10.26,0,0,0-.25,2.34v8.39h-5.11V100.19Z"/><path class="cls-1" d="M275.09,114.34a5.24,5.24,0,0,0,6,.34,3.21,3.21,0,0,0,1.37-1.64h4.5a8.54,8.54,0,0,1-3.31,4.79,9.75,9.75,0,0,1-5.4,1.44,10.63,10.63,0,0,1-4-.7,8.24,8.24,0,0,1-3-2,9,9,0,0,1-1.89-3.1,11.32,11.32,0,0,1-.67-4,10.85,10.85,0,0,1,.68-3.89,9,9,0,0,1,5-5.18,9.64,9.64,0,0,1,3.87-.76,8.86,8.86,0,0,1,4.14.92,8.27,8.27,0,0,1,2.9,2.47,10.15,10.15,0,0,1,1.64,3.53,13.17,13.17,0,0,1,.36,4.14H273.83A5.17,5.17,0,0,0,275.09,114.34Zm5.78-9.79a3.59,3.59,0,0,0-2.79-1,4.45,4.45,0,0,0-2,.41,3.88,3.88,0,0,0-1.3,1,3.76,3.76,0,0,0-.68,1.3,5.84,5.84,0,0,0-.23,1.22h8.32A5.91,5.91,0,0,0,280.87,104.55Z"/><path class="cls-1" d="M303.6,118.8l-8.32-25.7h5.8l5.72,18.07h.07l5.8-18.07h5.83L310,118.8Z"/><path class="cls-1" d="M330.86,114.34a5.24,5.24,0,0,0,6,.34A3.21,3.21,0,0,0,338.2,113h4.5a8.54,8.54,0,0,1-3.31,4.79,9.75,9.75,0,0,1-5.4,1.44,10.63,10.63,0,0,1-4-.7,8.24,8.24,0,0,1-3-2,9,9,0,0,1-1.89-3.1,11.32,11.32,0,0,1-.67-4,10.85,10.85,0,0,1,.68-3.89,9,9,0,0,1,5-5.18,9.64,9.64,0,0,1,3.87-.76,8.86,8.86,0,0,1,4.14.92,8.27,8.27,0,0,1,2.9,2.47,10.15,10.15,0,0,1,1.64,3.53,13.17,13.17,0,0,1,.36,4.14H329.6A5.17,5.17,0,0,0,330.86,114.34Zm5.78-9.79a3.59,3.59,0,0,0-2.79-1,4.45,4.45,0,0,0-2,.41,3.88,3.88,0,0,0-1.3,1,3.76,3.76,0,0,0-.68,1.3,5.84,5.84,0,0,0-.23,1.22h8.32A5.91,5.91,0,0,0,336.63,104.55Z"/><path class="cls-1" d="M358.11,100.19v3.46h.07a6.26,6.26,0,0,1,1-1.6,6.36,6.36,0,0,1,1.4-1.26,6.88,6.88,0,0,1,1.69-.81,6.12,6.12,0,0,1,1.87-.29,4,4,0,0,1,1.12.18v4.75q-.36-.07-.86-.13a9.1,9.1,0,0,0-1-.05,5.45,5.45,0,0,0-2.38.47,4.11,4.11,0,0,0-1.57,1.28,5.11,5.11,0,0,0-.85,1.89,10.26,10.26,0,0,0-.25,2.34v8.39h-5.11V100.19Z"/><path class="cls-1" d="M378.75,114.18a3,3,0,0,0,.88,1,3.78,3.78,0,0,0,1.24.56,5.84,5.84,0,0,0,1.46.18,5.4,5.4,0,0,0,1.13-.13,3.87,3.87,0,0,0,1.08-.4,2.45,2.45,0,0,0,.81-.72,1.89,1.89,0,0,0,.32-1.13q0-1.15-1.53-1.73a30.72,30.72,0,0,0-4.27-1.15q-1.12-.25-2.18-.59a7.38,7.38,0,0,1-1.89-.9,4.37,4.37,0,0,1-1.33-1.4,4,4,0,0,1-.5-2.07,5.6,5.6,0,0,1,.7-3,5.18,5.18,0,0,1,1.85-1.82,8.13,8.13,0,0,1,2.59-.94,16,16,0,0,1,3-.27A14.79,14.79,0,0,1,385,100a7.77,7.77,0,0,1,2.54,1,5.83,5.83,0,0,1,1.85,1.82,6.11,6.11,0,0,1,.88,2.86h-4.86a2.24,2.24,0,0,0-1.12-2,5.11,5.11,0,0,0-2.38-.52,8.78,8.78,0,0,0-.94.05,3.15,3.15,0,0,0-.92.23,1.91,1.91,0,0,0-.7.52,1.38,1.38,0,0,0-.29.92,1.4,1.4,0,0,0,.5,1.12,3.9,3.9,0,0,0,1.31.7,16.39,16.39,0,0,0,1.85.49l2.12.47a21.81,21.81,0,0,1,2.18.61,7.21,7.21,0,0,1,1.89,1,4.63,4.63,0,0,1,1.33,1.48,4.34,4.34,0,0,1,.5,2.18,5.65,5.65,0,0,1-2.66,5.08,7.88,7.88,0,0,1-2.72,1.06,15.83,15.83,0,0,1-3.11.31,15.43,15.43,0,0,1-3.17-.32,8.36,8.36,0,0,1-2.75-1.08,6.16,6.16,0,0,1-2-2,6.25,6.25,0,0,1-.85-3.11h4.86A2.79,2.79,0,0,0,378.75,114.18Z"/><path class="cls-1" d="M401.13,97.31V93.1h5.11v4.21Zm5.11,2.88V118.8h-5.11V100.19Z"/><path class="cls-1" d="M417.58,105.47a8.52,8.52,0,0,1,5-5.08,10.64,10.64,0,0,1,4-.7,10.78,10.78,0,0,1,4,.7,8.48,8.48,0,0,1,5,5.08,11.45,11.45,0,0,1,.68,4,11.3,11.3,0,0,1-.68,4,8.75,8.75,0,0,1-1.94,3.08,8.46,8.46,0,0,1-3,2,11,11,0,0,1-4,.68,10.88,10.88,0,0,1-4-.68,8.48,8.48,0,0,1-3-2,8.73,8.73,0,0,1-1.94-3.08,11.28,11.28,0,0,1-.68-4A11.43,11.43,0,0,1,417.58,105.47Zm4.64,6.23a5.79,5.79,0,0,0,.74,1.91,3.93,3.93,0,0,0,1.39,1.35,4.23,4.23,0,0,0,2.16.5,4.34,4.34,0,0,0,2.18-.5,3.88,3.88,0,0,0,1.4-1.35,5.79,5.79,0,0,0,.74-1.91,10.87,10.87,0,0,0,.22-2.18,11.13,11.13,0,0,0-.22-2.2,5.59,5.59,0,0,0-.74-1.91,4.1,4.1,0,0,0-1.4-1.35,4.22,4.22,0,0,0-2.18-.52,3.93,3.93,0,0,0-3.55,1.87,5.59,5.59,0,0,0-.74,1.91,11.13,11.13,0,0,0-.22,2.2A10.87,10.87,0,0,0,422.22,111.69Z"/><path class="cls-1" d="M451.53,100.19v2.59h.11a5.86,5.86,0,0,1,2.52-2.36,7.3,7.3,0,0,1,3.17-.74,8.68,8.68,0,0,1,3.37.56,5,5,0,0,1,2.07,1.55,6,6,0,0,1,1.06,2.41,15,15,0,0,1,.31,3.15V118.8H459V108.29a6.53,6.53,0,0,0-.72-3.44,2.79,2.79,0,0,0-2.56-1.13,3.54,3.54,0,0,0-3,1.24,6.9,6.9,0,0,0-.94,4.09v9.76h-5.11V100.19Z"/><path class="cls-1" d="M486.84,93.1a13.26,13.26,0,0,1,4.63.79,10.05,10.05,0,0,1,3.71,2.38,11,11,0,0,1,2.45,4,16,16,0,0,1,.88,5.58,17.79,17.79,0,0,1-.72,5.18,11.41,11.41,0,0,1-2.18,4.1,10.19,10.19,0,0,1-3.64,2.72,12.29,12.29,0,0,1-5.13,1H475.75V93.1Zm-.4,21a7.27,7.27,0,0,0,2.38-.4,5.22,5.22,0,0,0,2.05-1.31,6.6,6.6,0,0,0,1.44-2.39,10.52,10.52,0,0,0,.54-3.6,15,15,0,0,0-.38-3.51,7,7,0,0,0-1.24-2.68,5.51,5.51,0,0,0-2.29-1.71,9.13,9.13,0,0,0-3.51-.59h-4v16.2Z"/><path class="cls-1" d="M514.56,114.34a5.24,5.24,0,0,0,6,.34,3.21,3.21,0,0,0,1.37-1.64h4.5a8.54,8.54,0,0,1-3.31,4.79,9.75,9.75,0,0,1-5.4,1.44,10.63,10.63,0,0,1-4-.7,8.26,8.26,0,0,1-3-2,9,9,0,0,1-1.89-3.1,11.32,11.32,0,0,1-.67-4,10.85,10.85,0,0,1,.68-3.89,9,9,0,0,1,5-5.18,9.64,9.64,0,0,1,3.87-.76,8.86,8.86,0,0,1,4.14.92,8.27,8.27,0,0,1,2.9,2.47,10.14,10.14,0,0,1,1.64,3.53,13.15,13.15,0,0,1,.36,4.14H513.3A5.16,5.16,0,0,0,514.56,114.34Zm5.78-9.79a3.59,3.59,0,0,0-2.79-1,4.45,4.45,0,0,0-2,.41,3.89,3.89,0,0,0-1.3,1,3.77,3.77,0,0,0-.68,1.3,5.83,5.83,0,0,0-.23,1.22h8.32A5.92,5.92,0,0,0,520.34,104.55Z"/><path class="cls-1" d="M545.45,93.1l6,17.68h.07l5.69-17.68h8v25.7h-5.29V100.59h-.07l-6.3,18.22h-4.36l-6.3-18h-.07v18h-5.29V93.1Z"/><path class="cls-1" d="M576.91,105.47a8.52,8.52,0,0,1,5-5.08,10.64,10.64,0,0,1,4-.7,10.78,10.78,0,0,1,4,.7,8.48,8.48,0,0,1,5,5.08,11.45,11.45,0,0,1,.68,4,11.3,11.3,0,0,1-.68,4,8.75,8.75,0,0,1-1.94,3.08,8.46,8.46,0,0,1-3,2,11,11,0,0,1-4,.68,10.88,10.88,0,0,1-4-.68,8.48,8.48,0,0,1-3-2,8.73,8.73,0,0,1-1.94-3.08,11.28,11.28,0,0,1-.68-4A11.43,11.43,0,0,1,576.91,105.47Zm4.64,6.23a5.79,5.79,0,0,0,.74,1.91,3.93,3.93,0,0,0,1.39,1.35,4.23,4.23,0,0,0,2.16.5A4.34,4.34,0,0,0,588,115a3.88,3.88,0,0,0,1.4-1.35,5.79,5.79,0,0,0,.74-1.91,10.87,10.87,0,0,0,.22-2.18,11.13,11.13,0,0,0-.22-2.2,5.59,5.59,0,0,0-.74-1.91,4.1,4.1,0,0,0-1.4-1.35,4.22,4.22,0,0,0-2.18-.52,3.93,3.93,0,0,0-3.55,1.87,5.59,5.59,0,0,0-.74,1.91,11.13,11.13,0,0,0-.22,2.2A10.87,10.87,0,0,0,581.56,111.69Z"/><path class="cls-1" d="M606.15,97.31V93.1h5.11v4.21Zm5.11,2.88V118.8h-5.11V100.19Z"/></svg>