<svg id="Long_violet" data-name="Long violet" xmlns="http://www.w3.org/2000/svg" viewBox="0 0 792.42 355.48"><defs><style>.cls-1{font-size:47.59px;letter-spacing:0.2em;}.cls-1,.cls-2,.cls-3,.cls-4{fill:#4b205e;}.cls-1,.cls-3{font-family:HelveticaNeue-Bold, Helvetica Neue;font-weight:700;}.cls-3{font-size:25px;}.cls-4{opacity:1;}</style></defs><title>Artboard 1</title><text class="cls-1" transform="translate(425.19 316.06)">COACHING</text><path class="cls-2" d="M354.24,94.46c0,11.89,4,20.7,10.41,31.33v-.11c16.7,25.5,42,46.2,56.15,73.76,5.83-1,12.23-3.32,17.27-3.32.46,0,2.29.57,2.29,1.37,0,.23-14,3.2-18.41,3.89a62.38,62.38,0,0,1,6.4,27.9c0,17.84-3.55,35.1-13.72,51.57-13,18.41-33.85,30.87-54.43,30.87-10.18-.23-22.07-4-29.16-15.21-2.63-5.26-3.09-9.61-3.09-16.58,4.8-45.85,53.29-71.24,86.22-79.13-8.23-15-19.67-28.24-30.87-41.05-16.92-19.21-36.13-41.51-36.13-65.18,0-.23.11-.46.11-.69v-.46c2.74-36.71,46.54-52.72,68.5-52.72,12.46,0,30.3,4.92,30.87,24.93-.23,2.17-1.37,12.35-4.92,15.21l-.57-6.4c-.11-1.72-.11-3.66-.11-5.14l-.23-3.43c-2.75-16.35-14.18-20-25.27-20C393.23,45.86,354.24,61.41,354.24,94.46ZM415.3,202.75c-31.67,8.58-80.27,36.36-81.53,81.87,1.26,12.47,11.21,21.84,26.64,22.87a50.67,50.67,0,0,0,16.58-3c28.24-10.18,44.71-36.82,44.71-74A58,58,0,0,0,415.3,203h.11Z"/><path class="cls-2" d="M492.61,189.48v.69c-2.63,14.18-4.69,31-4.69,45.51,0,2.63.23,5.37.34,9,.23,4.34.57,10.18,3.55,12.81l1.83,1.14-.11,2.17c-8-1.83-8.92-18.53-8.92-28.82a279.62,279.62,0,0,1,1.94-30h-.23c-.11,0-.11,0-.23-.11-7.32,13.84-12.47,26-23.44,41.74l-.11.23v-.12c-1.94,3.09-5,7.66-8.58,7.89-5.26,0-6.75-6.75-6.75-12.12,0-15.21,11.55-51.46,23.9-51.46,2.4,0,7.78,2.86,7.78,8.35v1a6.46,6.46,0,0,1-2.86-.91l-1.14-.57a5.82,5.82,0,0,0-1.94-.34C462.2,196.92,452,228.25,452,240.48c0,3.54,1.37,3.66,1.37,3.66,2.74.12,11.32-14.52,15.09-21.15l.46-.8v.12l.92-1.49c6.52-11.21,12.12-23.9,18.87-34.42v.11a2.29,2.29,0,0,1,1.26-1,2.91,2.91,0,0,1,2.51,2.4A8,8,0,0,1,492.61,189.48Z"/><path class="cls-2" d="M506.45,272.5c-1.26-.34-1.72-.8-1.94-1.6h.11a3.59,3.59,0,0,1-.8-2.4c1-39.22,2.51-97,5.14-140.08,1.14-14.64,2.74-33.5,5.49-48.14,1.26-7,4.69-21.84,11.55-21.84a2.91,2.91,0,0,1,1.49.57l-1,1.94v-.11l-1.26,1.49.12-.11-1.14,3v-.11c-5.26,18.75-7.78,45.05-9.15,64.38-2.29,33.16-3.54,69.41-4.57,102.8,0,2.29-.23,5.72-.23,8,.12,0,.12.23.46.23,5-19.32,10.29-39.22,19-55.92,3.2-6.06,7.66-13.38,13.84-14,5.72,0,7.55,9.38,7.89,15.21,0,23.67-9.15,56.37-26.41,66.21-.46,0-8,3.77-12.35,4.46l-3,13.49c-.34,1.37-1.26,2.63-2.63,2.63Zm7-19c20.47-5.95,33.39-38.08,33.39-63.81,0-.57-.11-1.14-.11-1.83v-1.94c0-1.72-.91-9.15-2.63-9.15C531.61,178.28,518.69,231.34,513.43,253.52Z"/><path class="cls-2" d="M562.49,256.15v.12c-1.95-.8-2.52-2.17-2.52-4.35,0-7.43,1-15.09,1-22.64.8-13-.34-42.54,4.8-44.48,2.29.69,2.63,4.92,2.86,8.23l.23,3.32c0,9.26-.8,18.41-1.26,27.56.11,0,.34.11.46.11,4.34-12.92,15.89-44.83,28.7-44.83h1c5.95,1.26,8.92,7.09,8.92,14.52a7.5,7.5,0,0,1-.68,3.54c-1.83-.57-1.37-2.4-1.83-4.69l-.34-1.83c-.69-3.54-3.09-6.4-6.06-6.75-13.49,1.6-27.9,54.2-31.56,69.75a3.05,3.05,0,0,1-2.86,2.63A1.72,1.72,0,0,1,562.49,256.15Z"/><path class="cls-2" d="M642.2,249.63c-.91-.68-1.6-2.51-1.83-4,.23-12.58.92-24.7,1.6-36.82a.42.42,0,0,1-.34-.11c-2.4,9.84-11,41.74-20.7,41.74-8.69,0-9.26-16-9.26-24.13,0-12.12,1.71-43.91,6.86-43.91,2.51,0,3.2,3,3.2,5a13.23,13.23,0,0,1-.11,2.06c-2.06,12.12-3.89,26.3-3.89,38.65,0,1.49,0,2.86.11,4.23v.8c.11,2.63,0,7.09,2.51,9.83,6.29-4.34,13.27-26.19,15.78-34.07l.69-3.2c2.17-8.8,8.35-28.59,9.61-29,1.26.23,2.4,3.89,2.4,7.66a32.31,32.31,0,0,1-.46,6.63c-.46,12.24-1.6,23.44-2.06,35.34.11,0,.11.23.34.23,1.6-6.63,4-14.06,5.95-19.55,3.66-10.75,9.26-28.25,18.3-28.25,6.29.8,7.32,9,7.66,15.21,0,5.6-.46,11.32-.92,16.81l-.91,7.78c-.92,7.2-2.29,15-2.17,23,0,3.2-.11,8.23,2.17,8.23,4.34,0,8.58-10.18,11.09-16.81v.11l1.6-4.92c2.29-7,4.8-17.15,5.14-18.3a3.56,3.56,0,0,1,1.26,2.4c0,3.43-3.77,21.38-5,22.64l-1,2.74c-2.52,6.86-6.17,18-12.69,17.84-5.37,0-6.75-9.38-6.75-14.52a92.06,92.06,0,0,1,.57-11.09l1.37-13.15c.69-6.63,1.83-14.41,1.72-21.61,0-2.86-.23-8.81-3-9.26-5.6,0-11.09,16.24-13.49,23.56l-.57,1.37c-1.37,3.2-1.83,7-3,10.52l-1.26,4.46c-2.28,8.12-7,24.24-9,24.24a2,2,0,0,1-1.26-.34Zm-17.84-93.08c0,1.83-1.6,4.92-2.86,5.14-1.71-.91-1.71-4.69-1.71-6.52,0-3.89,1.71-10.18,3-13.49a7.21,7.21,0,0,1,3.54,1.95v-.11a6,6,0,0,0,1.71,1.26,71.21,71.21,0,0,0-3.66,10.86Z"/><path class="cls-2" d="M733.8,189.48v.69c-2.63,14.18-4.69,31-4.69,45.51,0,2.63.23,5.37.34,9,.23,4.34.57,10.18,3.55,12.81l1.83,1.14-.11,2.17c-8-1.83-8.92-18.53-8.92-28.82a279.62,279.62,0,0,1,1.94-30h-.23c-.11,0-.11,0-.23-.11-7.32,13.84-12.47,26-23.44,41.74l-.11.23v-.12c-1.94,3.09-5,7.66-8.58,7.89-5.26,0-6.75-6.75-6.75-12.12,0-15.21,11.55-51.46,23.9-51.46,2.4,0,7.78,2.86,7.78,8.35v1a6.46,6.46,0,0,1-2.86-.91l-1.14-.57a5.82,5.82,0,0,0-1.94-.34c-10.75,1.26-20.93,32.59-20.93,44.83,0,3.54,1.37,3.66,1.37,3.66,2.74.12,11.32-14.52,15.09-21.15l.46-.8v.12l.92-1.49c6.52-11.21,12.12-23.9,18.87-34.42v.11a2.29,2.29,0,0,1,1.26-1,2.91,2.91,0,0,1,2.51,2.4A8,8,0,0,1,733.8,189.48Z"/><text class="cls-3" transform="translate(135.13 277.51) rotate(-155.68)">L</text><text class="cls-3" transform="matrix(-0.82, -0.57, 0.57, -0.82, 116.81, 268.65)">a</text><text class="cls-3" transform="translate(100.45 257.11) rotate(-132.85)">M</text><text class="cls-3" transform="matrix(-0.51, -0.86, 0.86, -0.51, 82.01, 235.67)">e</text><text class="cls-3" transform="translate(72.59 218.3) rotate(-112.2)">i</text><text class="cls-3" transform="translate(68.41 207.31) rotate(-106.08)">l</text><text class="cls-3" transform="translate(65.43 195.97) rotate(-99.97)">l</text><text class="cls-3" transform="matrix(-0.03, -1, 1, -0.03, 63.48, 184.25)">e</text><text class="cls-3" transform="translate(63.32 164.4) rotate(-81.54)">u</text><text class="cls-3" transform="translate(66.93 144.44) rotate(-72.31)">r</text><text class="cls-3" transform="matrix(0.45, -0.89, 0.89, 0.45, 71.61, 130.46)">e</text><text class="cls-3" transform="translate(80.9 112.89) rotate(-52.81)">V</text><text class="cls-3" transform="translate(93.25 97.31) rotate(-42.95)">e</text><text class="cls-3" transform="translate(108.12 84.29) rotate(-33.96)">r</text><text class="cls-3" transform="matrix(0.91, -0.42, 0.42, 0.91, 120.87, 76.04)">s</text><text class="cls-3" transform="translate(138.15 68.61) rotate(-17.16)">i</text><text class="cls-3" transform="translate(149.53 65.18) rotate(-8.69)">o</text><text class="cls-3" transform="matrix(1, 0.03, -0.03, 1, 170.18, 62.57)">n</text><text class="cls-3" transform="translate(190.55 63.6) rotate(13.33)">D</text><text class="cls-3" transform="translate(213.82 69.9) rotate(24.8)">e</text><text class="cls-3" transform="translate(231.94 78.46) rotate(37.28)">M</text><text class="cls-3" transform="translate(253.81 96.4) rotate(49.93)">o</text><text class="cls-3" transform="translate(266.57 112.7) rotate(58.34)">i</text><path class="cls-2" d="M301.82,147.65c.39-1.56,1-3.07,1.47-4.59a17.54,17.54,0,0,1,.69-1.83c.67-1.35,1.45-2.66,2.22-4a35.15,35.15,0,0,1,2.49-3.41,26.06,26.06,0,0,1,4.21-4.26,7.11,7.11,0,0,0-.43,1.7,38.52,38.52,0,0,1-.26,5,13.37,13.37,0,0,1-.27,1.76c-.51,1.3-1.22,2.5-1.84,3.74a32.7,32.7,0,0,1-2.7,2.84c-.69.72-1.35,1.46-2,2.21-.34.37-.68.63-1,1a8,8,0,0,1-1.3,1.35l-.47.4c.49-1.18,1-2.35,1.58-3.49s1.15-2,1.72-3.06a35.12,35.12,0,0,1,2.18-3.48c.05-.07,0,0,0,0l-.46.54a43,43,0,0,0-2.69,3.78c-.64,1-1.3,2-1.84,3-.58,1.21-1.15,2.43-1.63,3.69-.11.3-.21.61-.31.91C301.35,150.26,301.55,148.95,301.82,147.65Zm-2-24.31q0,.69-.07,1.38c0-.18,0-.36-.07-.54,0,.52,0,1,0,1.57s-.06,1.21-.09,1.81c-.22-.65-.47-1.3-.69-2a31.14,31.14,0,0,1-1.27-5.15,21.93,21.93,0,0,1,.28-4.2c.16-.89.21-1.8.42-2.69a24.28,24.28,0,0,0,.72-3.19l.32.3a9.65,9.65,0,0,1,2.93,3.48c.21.52.28,1.09.44,1.63a14.76,14.76,0,0,1,0,6.74c-.21,1.1-.6,1.64-.83,2.89a9.4,9.4,0,0,1-.67,2.38c-.27.62-.61,1.22-.84,1.86,0-.22,0-.43-.08-.65,0,.31,0,.61,0,.92,0,.12-.07.24-.1.37v.06c.07-2.41.22-4.83.3-7.24a72.8,72.8,0,0,1,0-8.82A43.1,43.1,0,0,0,299.85,123.34Zm-8.15,22.58a25.26,25.26,0,0,1-2.7-3.08,5,5,0,0,1-.84-1.64,7.75,7.75,0,0,1-.49-1.5,4.35,4.35,0,0,1,.16-1.37c.09-.53.17-1.06.25-1.59a9.73,9.73,0,0,0-.06-4.05c-.15-.62-.46-1.19-.65-1.8a4.46,4.46,0,0,1,.88.6,11.73,11.73,0,0,1,1.1,1.44,35.61,35.61,0,0,1,2.46,4c.27.57.53,1.14.75,1.73.79,2.08,1.55,4.17,2.2,6.3a26.75,26.75,0,0,1,1.5,5.68c.39,2.53.66,4.85.88,7.37-.06-.28-.13-.57-.21-.85a50.13,50.13,0,0,0-1.18-7.56,20,20,0,0,0-2.29-4.6,16.61,16.61,0,0,0-1.52-1.89,19.61,19.61,0,0,1,1.2,2.05,33.63,33.63,0,0,1,1.74,4.4c.31,1.08.48,2.2.73,3.3l.14.63c-.25-.61-.57-1.19-.8-1.82a36.31,36.31,0,0,0-1.41-3.62A18.55,18.55,0,0,0,291.7,145.91Zm-3,49.85a24.84,24.84,0,0,0,0-5.67A43.91,43.91,0,0,0,287.6,183a22.75,22.75,0,0,0-1.61-4.4c-.61-1.2-1.32-2.33-1.93-3.53s-1.19-2.34-1.6-3.58a18.54,18.54,0,0,1-.41-2.1,9.87,9.87,0,0,1-.22-2.34,13.12,13.12,0,0,1,.46-2.63,10.42,10.42,0,0,1,.83-2.33c.52-1.14,1.1-2.26,1.54-3.44a8.45,8.45,0,0,0,.34-.87l.1.14a59,59,0,0,1,3.6,5.27,39,39,0,0,1,2.53,5.89,11.66,11.66,0,0,1,.75,2.65c.16,2.85,0,5.72,0,8.57-.1,2.25-.51,4.47-.83,6.69-.29,1.85-.74,3.68-1,5.53v.13c0-.8,0-1.6,0-2.41a68.7,68.7,0,0,0-1.37-12.33,104.62,104.62,0,0,0-2.36-10.41c.47,2.94.84,5.9,1.32,8.84.44,2.54,1,5.51,1.27,7.86.36,3.43.36,6.88.39,10.33-.11,1-.21,2.06-.33,3.09l-.2.7c-.15.5-.32,1-.51,1.52C288.53,198.49,288.59,197.12,288.74,195.76Zm3.6,18.28a2.42,2.42,0,0,0-.06-.31,2.65,2.65,0,0,0-.2-.52.88.88,0,0,1,.22.45.94.94,0,0,0,0,.14A1.81,1.81,0,0,1,292.33,214Zm-3,1.37.08-.05.09.15Zm-16.12,9.78-.09,0a1.54,1.54,0,0,0-.17-.42l.13.07A.53.53,0,0,1,273.26,225.2Zm-1.79,4.2,0,0,0,0a3.68,3.68,0,0,1-.36-.45l-.05-.16v0A1.89,1.89,0,0,0,271.48,229.4Zm4-.59v-.06c0-.08,0-.16,0-.24s0-.19,0-.28l0,.08A3.37,3.37,0,0,1,275.43,228.81Zm-20.26-31.94-.25.76.24-1C255.16,196.68,255.17,196.78,255.17,196.88Zm12,71.38a17.89,17.89,0,0,0,.09-2.36c.05-.28.1-.56.15-.84a50.85,50.85,0,0,0,.49-6.68,27.5,27.5,0,0,0,0-3.25c-.32-2.83-1-5.6-1.52-8.41a25,25,0,0,0-1-3.93,46.7,46.7,0,0,1,1,6c.19,1.3.44,2.58.66,3.87a25.39,25.39,0,0,1,.38,3c0,1-.05,2.08-.07,3.12-.05,1.54-.15,3.08-.34,4.61-.11-.67-.24-1.33-.35-2a39.58,39.58,0,0,0-1.28-5.44c-.5-1.55-1.16-3-1.79-4.55-1.42-3.44-2.38-7.06-3.65-10.55a18.52,18.52,0,0,0-2.07-4c-.88-1.36-1.78-2.71-2.66-4.07a47.63,47.63,0,0,1-4.56-9.13A29.16,29.16,0,0,1,249,215c-.08-.8-.13-1.6-.23-2.39a6.37,6.37,0,0,1-.15-2,10,10,0,0,1,.48-1.79,19.17,19.17,0,0,1,1-2.77,23.66,23.66,0,0,1,1.11-2.14c.5-1,.94-2,1.44-2.92.57-1.11,1.16-2.22,1.73-3.33a4.13,4.13,0,0,1,.8-1.32c0,.06,0,.12,0,.18a32,32,0,0,0-1.15,3.89,10.22,10.22,0,0,0-.62,3.11c0,1.28.21,2.56.34,3.84.07.75.06,1.5.13,2.25.12,1.16.31,2.3.47,3.45.11.59.25,1.18.4,1.76l0,.15v-.09c.18.68.37,1.37.55,2,.32.95.71,1.87,1.1,2.8.54,1.17,1.18,2.3,1.72,3.48.66,1.38,1.36,2.75,2,4.12s1.32,2.84,2,4.25a42.9,42.9,0,0,1,2.35,8.52,37.88,37.88,0,0,0-1.76-8c-.41-1.16-1-2.24-1.5-3.36-.88-2-1.9-3.94-2.83-5.91-.52-1.15-1.13-2.26-1.66-3.41-.09-.16-.48-1.22-.7-1.75a15.77,15.77,0,0,1-.69-2.25c-.17-.75-.4-1.49-.53-2.25s-.19-1.27-.27-1.84q-.13-2.21-.27-4.42c-.07-1.29-.23-2.68-.17-3.89,0-.74.12-1.47.22-2.19l.13-.48c.28-1,.5-2,.74-3.06v.17a27.46,27.46,0,0,0,.91,6c.53,1.78,1.17,3.52,1.77,5.27,1,2.37,2.31,4.66,3.47,7,1.08,2,2.2,3.91,3.16,5.93,1.19,2.36,2.37,4.72,3.41,7.15a19.87,19.87,0,0,1,1.36,5.07c.14,1.1.19,2.2.27,3.3.15,1.68.32,3.36.48,5,.21,1.87.54,3.73.61,5.61a26.46,26.46,0,0,1,.12,3.12c-.2,2-.51,4-.75,6-.22,1.53-.4,3.07-.72,4.58A44,44,0,0,1,267.14,268.26Zm8.51-17.2a25.47,25.47,0,0,1-.91,3.4q-.33,1-.7,1.93c.42-1.27.85-2.53,1.2-3.81C275.38,252,275.52,251.54,275.65,251.06Zm2.21-6.61c-.61,1.61-1.2,3.23-1.75,4.87.14-.53.29-1.07.45-1.67C277,246.57,277.41,245.51,277.85,244.45Zm1.09-1c.75-1.78,1.9-4,2.64-5.46a58.39,58.39,0,0,1,3.71-5.84c1.08-1.33,2-2.77,3.17-4a46.94,46.94,0,0,1,5.41-4.63,52.32,52.32,0,0,1,8.23-3.63,18.65,18.65,0,0,1,2.1-.24c1.38-.15,2.76-.27,4.14-.45a16.75,16.75,0,0,1,2.25-.28c1.15,0,2.29.15,3.43.28l-.67.27a12.55,12.55,0,0,0-2.89.13,29.48,29.48,0,0,0-5,1.79c-.72.32-1.42.68-2.12,1a9.14,9.14,0,0,0-1.38.78,65.34,65.34,0,0,0-6,5,28.44,28.44,0,0,0-3.13,3.69,43.29,43.29,0,0,1,4.74-4.16c1.61-1.22,3.53-2.81,4.95-3.89a38.46,38.46,0,0,1,3.58-1.85,46.1,46.1,0,0,1,4.34-1.88,13.36,13.36,0,0,1,2.36-.42,37.46,37.46,0,0,0-6.27,4.13,36.79,36.79,0,0,0-7.79,7.8,13.55,13.55,0,0,0-1.48,2.47c-.36.93-.63,1.9-1,2.82a54.42,54.42,0,0,1-2.73,5.39,23.33,23.33,0,0,1-2.71,4.08,69,69,0,0,1-4.83,5.44c-1,.93-2.1,1.69-3.14,2.55-1.94,1.55-3.9,3.09-5.78,4.72-1.12,1-2.19,2-3.25,3.09l.46-.71c.54-.83,1.16-1.6,1.74-2.4l2.86-4.15c1.11-1.64,2.2-3.28,3.31-4.91,1-1.36,1.94-2.72,2.81-4.14,1.81-2.8,3.39-5.74,4.9-8.71l.4-.79,0,.07c-1.81,2.61-3.55,5.27-5.27,7.93-1,1.64-2.08,3.23-3.2,4.79-2,2.91-3.9,5.83-5.89,8.71-.55.81-1.16,1.59-1.74,2.39-.94,1.45-1.87,2.91-2.8,4.37l0,0c.12-.29.24-.57.35-.87.33-.84.61-1.7.88-2.56l.12-.3c.2-.52.37-1.05.54-1.59a20.39,20.39,0,0,0,1.47-3.06,26.29,26.29,0,0,0,1.21-3.83,20.4,20.4,0,0,1,.8-3C277.42,247.48,278.16,245.47,278.95,243.48Zm-.15-5.32a.92.92,0,0,0,.05.22c-.06.28-.12.56-.16.85a16,16,0,0,0-.18,1.63c-.18.49-.38,1-.58,1.45h0v0C278.24,240.92,278.52,239.54,278.79,238.16Zm.44-2.26c-.09.61-.2,1.21-.34,1.81l0,.12Zm1.91-10.31a21.27,21.27,0,0,1-.38,2.9l-.09.53c0-.41.08-.81.1-1.22C280.89,227.08,281,226.33,281.14,225.59Zm.64-3.74.07-.36.38-1.61C282.08,220.63,281.94,221.23,281.78,221.86Zm-.37-1-.07.3c-.22,1.26-.43,2.52-.64,3.78-.07-1.56-.14-3.12-.12-4.68a57.64,57.64,0,0,0-.16-7.07,68.5,68.5,0,0,0-2.22-9.13c-.35-1.29-.87-3.28-1.34-5s-.88-3.37-1.3-5.18l0,.24c.32,1.95.67,3.9,1.14,5.81.66,2.95,1.51,5.85,2.33,8.76A27.74,27.74,0,0,1,280.1,215c.08,1.21,0,2.42,0,3.63,0,.36,0,.72,0,1.07-.18-1-.41-1.95-.68-2.9a34.83,34.83,0,0,0-1.52-3.79,26.34,26.34,0,0,0-2.14-4.21,13.82,13.82,0,0,1-1.6-3.09c-.45-1.06-1-2-1.57-3.07q-1.48-2.78-2.86-5.61a30,30,0,0,1-2.26-5.48,17.54,17.54,0,0,1-.7-3.43,63,63,0,0,1,.61-7.82,42.45,42.45,0,0,1,2-8.29,5.67,5.67,0,0,0,.22-.85c.37,1.89.64,3.79,1,5.68.61,3.36,1.35,6.7,2.13,10l.18.75,0-.21c-.58-4-1.26-7.91-2.12-11.83-.34-1.56-.67-3.12-1.1-4.66a5.5,5.5,0,0,1,.14-.61c.57,1.54,1.14,3.08,1.73,4.6.9,2.22,1.89,4.4,2.85,6.59,1.46,3.36,2.72,5.94,4,9.47.52,1.53.95,3.09,1.32,4.67s.42,2.92.64,4.37l.77,5c.2,1.23.47,2.45.59,3.69a37.52,37.52,0,0,1,.09,7C281.67,217.39,281.53,219.1,281.41,220.82Zm7.14-35.15a3.22,3.22,0,0,0-.21-.4l.09,0,.1.06C288.53,185.45,288.54,185.56,288.54,185.67Zm-.48,16.4c-.47,1-.91,2-1.34,3l-.24.51q.25-.77.48-1.55l.26-.65C287.49,202.93,287.76,202.49,288.07,202.06Zm37.47-45.48c-.1,1.39-.11,2.79-.31,4.18a8.86,8.86,0,0,1-.89,2.65,10.06,10.06,0,0,1-2.2,3.13,14.5,14.5,0,0,1-3.07,2.32,14,14,0,0,1-2.38,1.28,35.47,35.47,0,0,0-8.38,5,38.84,38.84,0,0,0-8,7.64,25.7,25.7,0,0,0-2.21,3,24.25,24.25,0,0,0-2.33,4.13l-.18.47c.2-.65.39-1.29.6-1.94l.19-.52a17.1,17.1,0,0,1,1.09-2c.67-1.06,1.45-2,2.16-3.09,1.14-1.63,2.24-3.28,3.44-4.86.87-1.08,1.88-2,2.82-3,1.18-1.31,2.34-2.65,3.49-4s2.4-2.88,3.75-4.18a41.11,41.11,0,0,0-3.62,3.51c-1.46,1.52-2.87,3.09-4.27,4.66-.88,1-1.83,1.86-2.67,2.87-1.28,1.66-2.44,3.41-3.64,5.12-.46.68-1,1.35-1.44,2,.38-1,.77-2.06,1.13-3s.8-2.11,1.29-3.13c.86-1.75,1.88-3.41,2.84-5.1a29.91,29.91,0,0,1,2.24-3.81,34.38,34.38,0,0,1,5.33-5.55,58.53,58.53,0,0,1,4.56-3.89c1.58-1.13,3.23-2.17,4.86-3.23a60.65,60.65,0,0,1,5.5-2.74l.88-.38A9.05,9.05,0,0,0,325.53,156.59Z"/><path class="cls-2" d="M303.65,161.14h0a1.52,1.52,0,0,0,.53.58,2.94,2.94,0,0,0,1.67.09c1.36-.19,2.16-2.08,2.22-3.69l.12,0,.06,0h0a1.58,1.58,0,0,0,1.29-1.25c.09-.49.09-1.09-.55-1.12a1.18,1.18,0,0,0-1.14.93l0,0a2,2,0,0,0-.11-.24,3.27,3.27,0,0,0-2.29-1.29,3.91,3.91,0,0,0-1.78.52,3.39,3.39,0,0,0-1,.72,2.44,2.44,0,0,0-.27,2.1,8.71,8.71,0,0,0-1.73,2.55,11.06,11.06,0,0,0-.32,1.78c-.17,1.14-.33,2.28-.5,3.43-.15,1-.24,2-.33,3a23.93,23.93,0,0,0-.14,3.61c.48-3.84,1.57-7.57,2-11.41a3.54,3.54,0,0,1,.73-1.62,7.17,7.17,0,0,1,.45-.62l0,0A2.83,2.83,0,0,0,303.65,161.14Zm5.5-4.39-.07-.11.11,0Zm.2,2.67-.25.07a1.53,1.53,0,0,1,.35-.26Zm-3.46,1.67a1.2,1.2,0,0,0,.22-.16,2.68,2.68,0,0,0,.4-.31c-.19.38-.38.63-.51.63l-.38,0A1.71,1.71,0,0,0,305.89,161.1Zm2.41,1-.1,0h0l.06-.12,0,0S308.29,162,308.3,162.05Z"/><circle class="cls-4" cx="175.39" cy="310.99" r="3.67"/><path class="cls-2" d="M260.74,63.39A136.9,136.9,0,1,0,151.22,305.92a1.39,1.39,0,0,1,1.05,1.65,1.38,1.38,0,0,1-1.65,1A139.66,139.66,0,1,1,260.74,59.92Z"/><path class="cls-2" d="M258.09,284.47c-17.52,13.25-35.63,20.83-58.23,24.6a1.27,1.27,0,0,1-1.51-1.07,1.37,1.37,0,0,1,1.06-1.62A135.14,135.14,0,0,0,256,282.18c1.81-1.34,7.11-5.43,9-11.19.44-1.58,1.17-2.86,1.48-4.42a13.92,13.92,0,0,0-.15-3,62.76,62.76,0,0,0-1.51-7.09c-.58-1.91-1.42-3.73-2.18-5.57-.5-1.39-1-2.78-1.47-4.18-.75-2.23-1.63-5.29-2.37-6.84a29.31,29.31,0,0,0-2.16-3.57,61,61,0,0,1-6.22-11.27A33.35,33.35,0,0,1,248.3,216c0-1-.19-3.17-.23-3.53a6.76,6.76,0,0,1,.11-3.76c.32-.88.56-1.79.91-2.66a18.23,18.23,0,0,1,1.45-2.79c1-1.94,2.35-4.29,3.49-6.46a3,3,0,0,1,1.07-1.5c.62-.37.65,2.46.68,2.83a26.3,26.3,0,0,0,.84,5.24c.45,1.55,1,3.06,1.55,4.6a17.22,17.22,0,0,0,1.16,2.59c.79,1.59,1.6,3.17,2.42,4.75s1.59,2.87,2.36,4.31,1.35,2.74,2,4.11c2.33,4.84,3.71,7.65,3.9,13.17.18,2.22.37,4.44.62,6.64a62.31,62.31,0,0,1,.6,6.61,18.15,18.15,0,0,1-.27,3.38l-.53,4a48.31,48.31,0,0,1-.91,5.27q-.3,1.17-.66,2.32l.23-.45c1.34-2.72,2.51-5.54,3.59-8.38.47-1.58,1-3.14,1.57-4.68,1.37-3.85,2.43-7.9,1.87-12a28.68,28.68,0,0,0-1.5-5.67c-.17-1-.31-2-.5-2.92a1.4,1.4,0,0,1-.92.14,4,4,0,0,1-1.71-.54,3.26,3.26,0,0,1-1.18-3.27,3.54,3.54,0,0,1,1.32-1.83l.29-.14v0a1,1,0,0,1,0-.43l.2-.24.08-.1a.46.46,0,0,1,.5-.12h0a1.12,1.12,0,0,1,.43.26.74.74,0,0,1,.14.5l.4.14a3.39,3.39,0,0,1,1.41,1,3.33,3.33,0,0,1,.31.79,8,8,0,0,1,.33,1.36,3.11,3.11,0,0,1-.25,1.16,1.16,1.16,0,0,1-.17.45,2.14,2.14,0,0,1-.39.43,3.16,3.16,0,0,1-.43.4c.13.66.25,1.32.36,2a8.13,8.13,0,0,0,.49,2.09c.33.89.6,1.8.84,2.71a20,20,0,0,1,.41,6.83v.09c.32-1,.65-2,.91-3.06.7-3.26,1.31-6.54,1.93-9.82.1-1,.25-1.92.32-2.88l0-.35q.05-1.2.12-2.4a47.43,47.43,0,0,0-.23-4.9v-.08c0-.17-.14-.8-.22-1.17-.21-1.06-.5-2.39-.67-2.9a44.55,44.55,0,0,0-1.85-4.48,32.84,32.84,0,0,0-2.48-4.49,19.3,19.3,0,0,1-.94-2.12c-.32-.7-.7-1.36-1.05-2q-1.75-3.29-3.38-6.64a31.25,31.25,0,0,1-2.29-5.74,21.62,21.62,0,0,1-.73-3.59,42.24,42.24,0,0,1,.24-4.87c.15-1.81.41-3.61.69-5.4a35,35,0,0,1,1-3.77c.29-1.07.85-2.62,1-3.32a5.62,5.62,0,0,1,.45-1.63c0-.09.12-.2.23-.2a.16.16,0,0,1,.13,0c.33.24.38.68.53,1s.31.88.47,1.31c.69,1.76,1.42,3.84,2,5.13,1.32,3.06,2.67,6.11,4,9.17a53.32,53.32,0,0,1,3.55,10.46c.41,3,.87,6.07,1.35,9.1a42.72,42.72,0,0,1,.84,7,32.59,32.59,0,0,1-.28,5.28c.36-1.47.74-2.93,1.2-4.37.47-1.62.77-3.29,1.34-4.89.08-.26.17-.51.26-.77l.91-2.07c.25-.5.49-1,.73-1.53l.09-.27c.26-.88.45-1.78.63-2.69.26-1.6.26-3.24.46-4.85a30.74,30.74,0,0,0-.11-6.76,35.62,35.62,0,0,0-1.7-8.11,31.42,31.42,0,0,0-2.41-4.84c-.68-1.28-1.28-2.59-1.86-3.92a11.55,11.55,0,0,1-.52-2.22,10.31,10.31,0,0,1-.23-3.51,17.29,17.29,0,0,1,.78-3.22c.51-1.33,1.22-2.57,1.74-3.89a6,6,0,0,0,.71-2.5c-.23-.25-.47-.5-.7-.73s-.55-.5-.82-.75a.1.1,0,0,1,0-.09c0-.19.23-.32.39-.39a1.5,1.5,0,0,1,1.65.59,1.82,1.82,0,0,1,.43.85,23,23,0,0,1,1.53,1.95c.91,1.28,1.88,2.51,2.71,3.85.59,1,1.08,2.08,1.57,3.13a27.41,27.41,0,0,1,1.29,3.33,11.42,11.42,0,0,1,.78,2.86c.17,2.84,0,5.7,0,8.54-.11,2.36-.54,4.68-.87,7-.34,2-.83,4-1,6a38.85,38.85,0,0,1-1.18,4.76c-.13.43-.27.85-.42,1.27a26.56,26.56,0,0,1-.67,2.63c.48-.91,1-1.82,1.44-2.73,1.06-2,2.14-4,3-6.16l1.3-2.93,1-2.61a51.69,51.69,0,0,0,1.66-4.95,28.26,28.26,0,0,0,.55-3.37c.06-1.33.06-2.66.09-4,.07-3.39-.2-6.77-.46-10.15,0-.72-.06-1.44-.08-2.15-.31-1.44-.64-2.88-1-4.31s-.88-2.9-1.37-4.33c-.26-.66-.6-1.29-.84-2a25.49,25.49,0,0,0-1.48-3.78c-.27-.3-.81-1-1.23-1.45-.76-.8-1.56-1.56-2.26-2.41a10.23,10.23,0,0,1-1.64-2.43,9,9,0,0,1-.66-2.24,45.08,45.08,0,0,0,.64-4.87,6.81,6.81,0,0,0-.31-2.3,5.7,5.7,0,0,1-.59-2.19.56.56,0,0,1,.52-.31c.23,0,.41.21.62.3a7.33,7.33,0,0,1,1.08.67,18.35,18.35,0,0,1,2,2.65,26.33,26.33,0,0,1,2.06,3.62c.71,1.69,1.35,3.43,1.95,5.16.62,2,1.36,4,1.91,6,.37,1.95.58,3.92.87,5.88.13,1.55.33,3.09.4,4.63.12,2.22.06,4.44.26,6.66.14,2,.32,4,.35,6,.28-4,.42-8,.57-12.05a.26.26,0,0,1-.25-.11,1.44,1.44,0,0,1,0-.32,6.87,6.87,0,0,1,.34-2.05c.11-2.51.27-5,.3-7.54.1-4.9.2-9.8.12-14.7v-.09a.25.25,0,0,1-.15-.07.08.08,0,0,1,0-.08q0-.13,0-.27h0c0-.4,0-.79,0-1.19s0-1,0-1.56a15.38,15.38,0,0,0-.11-1.59,18.58,18.58,0,0,0-1.11-3.84c-.28-.81-.5-1.65-.72-2.48a17,17,0,0,1-.62-2.85,24.5,24.5,0,0,1,.42-5.43,33.76,33.76,0,0,1,.88-4.16,6.58,6.58,0,0,0,.09-1.28c0-.28,0-.63.26-.77a.7.7,0,0,1,.5-.09,1.53,1.53,0,0,1,.32.33,6.64,6.64,0,0,0,.79.8,10.33,10.33,0,0,1,3,3.44,8.78,8.78,0,0,1,.43,1.42,13.45,13.45,0,0,1,.53,3,22.83,22.83,0,0,1-.39,4.22c-.2.91-.45,1.38-.66,2.07s-.33,1.71-.65,2.53-.71,1.54-1.05,2.31a16.51,16.51,0,0,0-.78,3.64c-.1.73-.2,1.46-.3,2.19,0,1.28,0,2.56,0,3.84-.07,5-.08,10-.3,15,.09-.53.18-1.05.25-1.58a51.9,51.9,0,0,1,1-5.56c.35-1.19.76-2.36,1.14-3.53a15.39,15.39,0,0,1,1-2.54c.72-1.35,1.46-2.69,2.27-4,.56-.87,1.21-1.67,1.84-2.49a26.63,26.63,0,0,1,5-5.1c.33-.25,1.17-.95,1.55-.55,0,.1,0,.17-.09.25a4.55,4.55,0,0,0-.41,1,13.39,13.39,0,0,0-.27,3.59,34.48,34.48,0,0,1-.37,4.07,17.21,17.21,0,0,1-1.42,3.19,6.18,6.18,0,0,1-1.2,1.88c-1.37,1.4-2.77,2.76-4,4.27-.3.33-.63.62-.91.9s-.56.71-.88,1a17.44,17.44,0,0,0-1.65,1.54,14.43,14.43,0,0,0-1.62,3.71c-.23.79-.75,2-.95,2.52l-.06.2v.09c-.19,1.42-.34,2.85-.5,4.28-.16,4.94-.31,9.88-.9,14.79-.2,1.57-.31,3.15-.57,4.7.21-.52.42-1,.65-1.56.77-1.63,1.71-3.17,2.59-4.74.73-1.25,1.33-2.58,2.14-3.78a29,29,0,0,1,4.18-4.83c1.94-1.69,3.78-3.5,5.81-5.09,1.18-.91,2.44-1.7,3.68-2.52a37.85,37.85,0,0,1,5.11-2.9c1.35-.67,2.74-1.27,4.13-1.84.28-.09.56-.26.85-.35h0a1.29,1.29,0,0,1,.3-.05c.09,0,.21.08.16.18a.35.35,0,0,1-.17.18c-.23.15-.53.2-.75.37a3.16,3.16,0,0,0-.61,1.77c-.38,2.17-.06,4.45-.8,6.55a13.92,13.92,0,0,1-1.51,3,13.45,13.45,0,0,1-2.37,2.53,29.24,29.24,0,0,1-3.61,2.37c-.71.43-1.51.66-2.26,1a47.63,47.63,0,0,0-14.06,10.86c-.62.78-1.33,1.49-1.89,2.32a48.78,48.78,0,0,0-2.77,4.32c-.56,1-1,2.08-1.45,3.12s-1,1.84-1.48,2.79c-.57,1.1-.79,2.4-1.65,3.35l-.28.28a4,4,0,0,0,.37-.46,10.43,10.43,0,0,0,1-2.69l-.16.34a47,47,0,0,1-3.44,6.11l-1,1.38-.13.25c.63-.83,1.38-1.83,1.81-2.37.81-1.12,1.54-2.3,2.43-3.38a35.91,35.91,0,0,1,2.78-2.85,15.48,15.48,0,0,1,1.78-1.42h0a2.5,2.5,0,0,1,.62-2.53,3.45,3.45,0,0,1,2.16-.92,2,2,0,0,1,.6-.13,2.1,2.1,0,0,1,.88.24l.42,0,.16-.18,0-.1c.19-.61,1.3-.89,1.59-.36a.31.31,0,0,1,.08.11.56.56,0,0,1,0,.41,1.67,1.67,0,0,1-.55,1,1.06,1.06,0,0,1-.35.18,2.77,2.77,0,0,1,.23.37,2.67,2.67,0,0,1-.45,2.05l0,.07-.13.26a1.84,1.84,0,0,1-.44.49,3.67,3.67,0,0,1-1,.81c-1.14.57-2.37.54-3-.54a2,2,0,0,1-.57-.69c-.27.2-.56.41-.87.67-.53.45-1.92,1.79-2.66,2.62-1.19,1.28-1.85,2.46-3,3.88-1,1.15-1.93,2.28-2.9,3.41l-.21.25c-.59,1.17-1.33,2.63-2,3.76s-1.11,2.41-1.57,3.65a47.74,47.74,0,0,0-1.39,5c-.23,1.3-.27,2.63-.55,3.92s-.59,2.38-.83,3.55a20.1,20.1,0,0,1,1.7-4.13,14.25,14.25,0,0,1,1.92-2.83c.43-.44.91-.82,1.37-1.22a12.64,12.64,0,0,1,1.41-1.06,2.09,2.09,0,0,1,.14-.92,1.11,1.11,0,0,1,.37-.83c.83-.8,2.37-1.57,3.34-.6a2.07,2.07,0,0,1,.34.49.52.52,0,0,1,.82.09c.18.25.34.67.08.92a1,1,0,0,1-.21.1l0,.06a.53.53,0,0,1-.35.18c0,.08,0,.16,0,.23a2.07,2.07,0,0,1-2.08,2,3,3,0,0,1-2-.86,14.58,14.58,0,0,0-1.69,1.29,9.17,9.17,0,0,0-1.53,1.49,23.52,23.52,0,0,0-3.84,7.42c0,.46-.07.92-.12,1.37-.24,1.5-.53,3-.78,4.48s-.45,2.83-.8,4.21l-.06.79a15.75,15.75,0,0,1-1.06,4.94,56.41,56.41,0,0,1,6.49-11.26c.8-1,1.5-2.1,2.34-3.08a31.1,31.1,0,0,1,3.71-3.41,19.73,19.73,0,0,1,4.75-3.12c1-.45,2-.77,3-1.14.77-.27,1.51-.66,2.3-.88a16.19,16.19,0,0,1,2.49-.32l3.54-.36a27.81,27.81,0,0,1,2.87-.34,33,33,0,0,1,3.94.37,5.51,5.51,0,0,1,1.29.33.87.87,0,0,1,.27.83.18.18,0,0,1-.1.11,5.4,5.4,0,0,1-1.25.61,16.76,16.76,0,0,0-1.8.77,22.83,22.83,0,0,0-3.28,2c-1.51,1.11-3,2.23-4.44,3.44-.86.73-1.64,1.54-2.46,2.31a27.1,27.1,0,0,0-4.47,5.94c-.41.89-.61,1.86-1,2.78a24.41,24.41,0,0,1-1.58,3.52c-.9,1.62-1.67,3.32-2.71,4.86a63.12,63.12,0,0,1-4.59,5.59c-.66.7-1.3,1.42-2,2.06s-1.41,1.12-2.12,1.67q-2.54,2-5,4c-1.92,1.56-3.69,3.29-5.44,5-1.29,1.21.1-.3-1.06,1a7.77,7.77,0,0,1-1.44,1.8c-.88,1.79-.64.67-1.57,2.63a7.77,7.77,0,0,1-1,2.47,6.15,6.15,0,0,1-1.09,2.45c-.38.83-1.29,2.07-1.67,2.72C264.36,279.55,261.24,282.1,258.09,284.47Z"/></svg>