<svg id="Layer_1" data-name="Layer 1" xmlns="http://www.w3.org/2000/svg" viewBox="0 0 455 327"><defs><style>.cls-1{fill:#fff;}</style></defs><title>Artboard 1</title><path class="cls-1" d="M134.27,262.15a7.54,7.54,0,0,0-1.67-1.88,7.8,7.8,0,0,0-4.9-1.71,8.72,8.72,0,0,0-4.28,1,8.08,8.08,0,0,0-2.85,2.62,11.47,11.47,0,0,0-1.59,3.74,18.6,18.6,0,0,0-.5,4.33,17.3,17.3,0,0,0,.5,4.16,11.25,11.25,0,0,0,1.59,3.64,8.16,8.16,0,0,0,2.85,2.59,8.71,8.71,0,0,0,4.28,1,6.91,6.91,0,0,0,5.35-2.09,9.68,9.68,0,0,0,2.36-5.52h7.23a17.28,17.28,0,0,1-1.48,5.76,13.8,13.8,0,0,1-3.14,4.38,13.34,13.34,0,0,1-4.57,2.76,16.73,16.73,0,0,1-5.76,1,17.42,17.42,0,0,1-7-1.36,15,15,0,0,1-5.26-3.74,16.54,16.54,0,0,1-3.28-5.59,20.53,20.53,0,0,1-1.14-6.92,21.24,21.24,0,0,1,1.14-7.07,17,17,0,0,1,3.28-5.69,15,15,0,0,1,5.26-3.81,18.22,18.22,0,0,1,12.32-.57,14.4,14.4,0,0,1,4.47,2.36,12.74,12.74,0,0,1,3.26,3.83,13.7,13.7,0,0,1,1.62,5.23h-7.23A6.11,6.11,0,0,0,134.27,262.15Z"/><path class="cls-1" d="M156.92,263.15a17,17,0,0,1,3.28-5.69,15,15,0,0,1,5.26-3.81,18.6,18.6,0,0,1,14.06,0,15.06,15.06,0,0,1,5.23,3.81,17,17,0,0,1,3.28,5.69,21.24,21.24,0,0,1,1.14,7.07,20.53,20.53,0,0,1-1.14,6.92,16.53,16.53,0,0,1-3.28,5.59,15.08,15.08,0,0,1-5.23,3.74,18.9,18.9,0,0,1-14.06,0,15,15,0,0,1-5.26-3.74,16.54,16.54,0,0,1-3.28-5.59,20.53,20.53,0,0,1-1.14-6.92A21.24,21.24,0,0,1,156.92,263.15Zm6.83,11.23a11.25,11.25,0,0,0,1.59,3.64,8.16,8.16,0,0,0,2.85,2.59,9.89,9.89,0,0,0,8.57,0,8.17,8.17,0,0,0,2.85-2.59,11.25,11.25,0,0,0,1.59-3.64,17.3,17.3,0,0,0,.5-4.16,18.6,18.6,0,0,0-.5-4.33,11.47,11.47,0,0,0-1.59-3.74,8.09,8.09,0,0,0-2.85-2.62,9.89,9.89,0,0,0-8.57,0,8.08,8.08,0,0,0-2.85,2.62,11.47,11.47,0,0,0-1.59,3.74,18.6,18.6,0,0,0-.5,4.33A17.3,17.3,0,0,0,163.75,274.38Z"/><path class="cls-1" d="M220.74,253.08l12.71,34h-7.76l-2.57-7.57H210.41l-2.67,7.57h-7.52l12.85-34Zm.43,20.84-4.28-12.47h-.1l-4.43,12.47Z"/><path class="cls-1" d="M267.7,262.15a7.55,7.55,0,0,0-1.67-1.88,7.8,7.8,0,0,0-4.9-1.71,8.71,8.71,0,0,0-4.28,1,8.08,8.08,0,0,0-2.86,2.62,11.43,11.43,0,0,0-1.59,3.74,18.55,18.55,0,0,0-.5,4.33,17.25,17.25,0,0,0,.5,4.16A11.21,11.21,0,0,0,254,278a8.16,8.16,0,0,0,2.86,2.59,8.7,8.7,0,0,0,4.28,1,6.91,6.91,0,0,0,5.35-2.09,9.68,9.68,0,0,0,2.36-5.52h7.23a17.3,17.3,0,0,1-1.48,5.76,13.78,13.78,0,0,1-3.14,4.38,13.32,13.32,0,0,1-4.57,2.76,16.73,16.73,0,0,1-5.76,1,17.41,17.41,0,0,1-7-1.36,15,15,0,0,1-5.26-3.74,16.54,16.54,0,0,1-3.28-5.59,20.53,20.53,0,0,1-1.14-6.92,21.24,21.24,0,0,1,1.14-7.07,17,17,0,0,1,3.28-5.69,15,15,0,0,1,5.26-3.81,18.22,18.22,0,0,1,12.32-.57,14.39,14.39,0,0,1,4.47,2.36,12.71,12.71,0,0,1,3.26,3.83,13.69,13.69,0,0,1,1.62,5.23h-7.23A6.11,6.11,0,0,0,267.7,262.15Z"/><path class="cls-1" d="M298.16,253.08v13h13.75v-13h7.47v34h-7.47V272.41H298.16v14.66h-7.47v-34Z"/><path class="cls-1" d="M342.94,253.08v34h-7.47v-34Z"/><path class="cls-1" d="M366.45,253.08l14.18,22.79h.09V253.08h7v34h-7.47l-14.13-22.75H366v22.75h-7v-34Z"/><path class="cls-1" d="M423.93,286.8a12.53,12.53,0,0,1-4.9,1,17.41,17.41,0,0,1-7-1.36,15,15,0,0,1-5.26-3.74,16.55,16.55,0,0,1-3.28-5.59,20.51,20.51,0,0,1-1.14-6.92,21.23,21.23,0,0,1,1.14-7.07,17,17,0,0,1,3.28-5.69,15,15,0,0,1,5.26-3.81,17.16,17.16,0,0,1,7-1.38,16.52,16.52,0,0,1,5.07.79,14.38,14.38,0,0,1,4.43,2.31,12.48,12.48,0,0,1,4.83,8.9h-7.14a7.15,7.15,0,0,0-2.57-4.28,7.47,7.47,0,0,0-4.62-1.43,8.72,8.72,0,0,0-4.28,1,8.08,8.08,0,0,0-2.86,2.62,11.45,11.45,0,0,0-1.59,3.74,18.6,18.6,0,0,0-.5,4.33,17.3,17.3,0,0,0,.5,4.16,11.23,11.23,0,0,0,1.59,3.64,8.16,8.16,0,0,0,2.86,2.59,8.7,8.7,0,0,0,4.28,1,7.29,7.29,0,0,0,8.09-7.33H419.6v-5.57h14.28v18.37h-4.76l-.76-3.85A11.19,11.19,0,0,1,423.93,286.8Z"/><path class="cls-1" d="M38.24,65.46c0,11.89,4,20.7,10.41,31.33v-.11c16.7,25.5,42,46.2,56.15,73.76,5.83-1,12.23-3.32,17.27-3.32.46,0,2.29.57,2.29,1.37,0,.23-14,3.2-18.41,3.89a62.38,62.38,0,0,1,6.4,27.9c0,17.84-3.55,35.1-13.72,51.57-13,18.41-33.85,30.87-54.43,30.87-10.18-.23-22.07-4-29.16-15.21-2.63-5.26-3.09-9.61-3.09-16.58,4.8-45.85,53.29-71.24,86.22-79.13-8.23-15-19.67-28.24-30.87-41.05C50.36,111.54,31.15,89.24,31.15,65.57c0-.23.11-.46.11-.69v-.46C34,27.72,77.8,11.71,99.76,11.71c12.46,0,30.3,4.92,30.87,24.93-.23,2.17-1.37,12.35-4.92,15.21l-.57-6.4c-.11-1.72-.11-3.66-.11-5.14l-.23-3.43c-2.75-16.35-14.18-20-25.27-20C77.23,16.86,38.24,32.41,38.24,65.46ZM99.3,173.75C67.62,182.33,19,210.11,17.77,255.62,19,268.09,29,277.46,44.41,278.49a50.67,50.67,0,0,0,16.58-3c28.24-10.18,44.71-36.82,44.71-74A58,58,0,0,0,99.3,174h.11Z"/><path class="cls-1" d="M176.61,160.48v.69c-2.63,14.18-4.69,31-4.69,45.51,0,2.63.23,5.37.34,9,.23,4.34.57,10.18,3.55,12.81l1.83,1.14-.11,2.17c-8-1.83-8.92-18.53-8.92-28.82a279.62,279.62,0,0,1,1.94-30h-.23c-.11,0-.11,0-.23-.11-7.32,13.84-12.47,26-23.44,41.74l-.11.23v-.12c-1.94,3.09-5,7.66-8.58,7.89-5.26,0-6.75-6.75-6.75-12.12,0-15.21,11.55-51.46,23.9-51.46,2.4,0,7.78,2.86,7.78,8.35v1a6.46,6.46,0,0,1-2.86-.91l-1.14-.57a5.82,5.82,0,0,0-1.94-.34C146.2,167.92,136,199.25,136,211.48c0,3.54,1.37,3.66,1.37,3.66,2.74.12,11.32-14.52,15.09-21.15l.46-.8v.12l.92-1.49c6.52-11.21,12.12-23.9,18.87-34.42v.11a2.29,2.29,0,0,1,1.26-1,2.91,2.91,0,0,1,2.51,2.4A8,8,0,0,1,176.61,160.48Z"/><path class="cls-1" d="M190.45,243.5c-1.26-.34-1.72-.8-1.94-1.6h.11a3.59,3.59,0,0,1-.8-2.4c1-39.22,2.51-97,5.14-140.08,1.14-14.64,2.74-33.5,5.49-48.14,1.26-7,4.69-21.84,11.55-21.84a2.91,2.91,0,0,1,1.49.57l-1,1.94v-.11l-1.26,1.49.12-.11-1.14,3v-.11c-5.26,18.75-7.78,45.05-9.15,64.38-2.29,33.16-3.54,69.41-4.57,102.8,0,2.29-.23,5.72-.23,8,.12,0,.12.23.46.23,5-19.32,10.29-39.22,19-55.92,3.2-6.06,7.66-13.38,13.84-14,5.72,0,7.55,9.38,7.89,15.21,0,23.67-9.15,56.37-26.41,66.21-.46,0-8,3.77-12.35,4.46l-3,13.49c-.34,1.37-1.26,2.63-2.63,2.63Zm7-19c20.47-5.95,33.39-38.08,33.39-63.81,0-.57-.11-1.14-.11-1.83v-1.94c0-1.72-.91-9.15-2.63-9.15C215.61,149.28,202.69,202.34,197.43,224.52Z"/><path class="cls-1" d="M246.49,227.15v.12c-1.95-.8-2.52-2.17-2.52-4.35,0-7.43,1-15.09,1-22.64.8-13-.34-42.54,4.8-44.48,2.29.69,2.63,4.92,2.86,8.23l.23,3.32c0,9.26-.8,18.41-1.26,27.56.11,0,.34.11.46.11,4.34-12.92,15.89-44.83,28.7-44.83h1c5.95,1.26,8.92,7.09,8.92,14.52a7.5,7.5,0,0,1-.68,3.54c-1.83-.57-1.37-2.4-1.83-4.69l-.34-1.83c-.69-3.54-3.09-6.4-6.06-6.75-13.49,1.6-27.9,54.2-31.56,69.75a3.05,3.05,0,0,1-2.86,2.63A1.72,1.72,0,0,1,246.49,227.15Z"/><path class="cls-1" d="M326.2,220.63c-.91-.68-1.6-2.51-1.83-4,.23-12.58.92-24.7,1.6-36.82a.42.42,0,0,1-.34-.11c-2.4,9.84-11,41.74-20.7,41.74-8.69,0-9.26-16-9.26-24.13,0-12.12,1.71-43.91,6.86-43.91,2.51,0,3.2,3,3.2,5a13.23,13.23,0,0,1-.11,2.06c-2.06,12.12-3.89,26.3-3.89,38.65,0,1.49,0,2.86.11,4.23v.8c.11,2.63,0,7.09,2.51,9.83,6.29-4.34,13.27-26.19,15.78-34.07l.69-3.2c2.17-8.8,8.35-28.59,9.61-29,1.26.23,2.4,3.89,2.4,7.66a32.31,32.31,0,0,1-.46,6.63c-.46,12.24-1.6,23.44-2.06,35.34.11,0,.11.23.34.23,1.6-6.63,4-14.06,5.95-19.55,3.66-10.75,9.26-28.25,18.3-28.25,6.29.8,7.32,9,7.66,15.21,0,5.6-.46,11.32-.92,16.81l-.91,7.78c-.92,7.2-2.29,15-2.17,23,0,3.2-.11,8.23,2.17,8.23,4.34,0,8.58-10.18,11.09-16.81v.11l1.6-4.92c2.29-7,4.8-17.15,5.14-18.3a3.56,3.56,0,0,1,1.26,2.4c0,3.43-3.77,21.38-5,22.64l-1,2.74c-2.52,6.86-6.17,18-12.69,17.84-5.37,0-6.75-9.38-6.75-14.52a92.06,92.06,0,0,1,.57-11.09l1.37-13.15c.69-6.63,1.83-14.41,1.72-21.61,0-2.86-.23-8.81-3-9.26-5.6,0-11.09,16.24-13.49,23.56l-.57,1.37c-1.37,3.2-1.83,7-3,10.52l-1.26,4.46c-2.28,8.12-7,24.24-9,24.24a2,2,0,0,1-1.26-.34Zm-17.84-93.08c0,1.83-1.6,4.92-2.86,5.14-1.71-.91-1.71-4.69-1.71-6.52,0-3.89,1.71-10.18,3-13.49a7.21,7.21,0,0,1,3.54,1.95v-.11a6,6,0,0,0,1.71,1.26,71.21,71.21,0,0,0-3.66,10.86Z"/><path class="cls-1" d="M417.8,160.48v.69c-2.63,14.18-4.69,31-4.69,45.51,0,2.63.23,5.37.34,9,.23,4.34.57,10.18,3.55,12.81l1.83,1.14-.11,2.17c-8-1.83-8.92-18.53-8.92-28.82a279.62,279.62,0,0,1,1.94-30h-.23c-.11,0-.11,0-.23-.11-7.32,13.84-12.47,26-23.44,41.74l-.11.23v-.12c-1.94,3.09-5,7.66-8.58,7.89-5.26,0-6.75-6.75-6.75-12.12,0-15.21,11.55-51.46,23.9-51.46,2.4,0,7.78,2.86,7.78,8.35v1a6.46,6.46,0,0,1-2.86-.91l-1.14-.57a5.82,5.82,0,0,0-1.94-.34c-10.75,1.26-20.93,32.59-20.93,44.83,0,3.54,1.37,3.66,1.37,3.66,2.74.12,11.32-14.52,15.09-21.15l.46-.8v.12l.92-1.49c6.52-11.21,12.12-23.9,18.87-34.42v.11a2.29,2.29,0,0,1,1.26-1,2.91,2.91,0,0,1,2.51,2.4A8,8,0,0,1,417.8,160.48Z"/></svg>