<svg xmlns="http://www.w3.org/2000/svg" viewBox="0 0 935 243"><defs><style>.cls-1,.cls-2{fill:#b07d92;}.cls-1{opacity:1;}.cls-3{fill:#fff;}</style></defs><title>Artboard 1</title><g id="Cercle_feuilles_copy_2" data-name="Cercle+feuilles copy 2"><circle class="cls-1" cx="133.66" cy="220.06" r="2.5" transform="translate(-76.33 71.09) rotate(-23.37)"/><path class="cls-2" d="M175.79,45a91.63,91.63,0,0,0-58.88-12.72,93.37,93.37,0,0,0,4.18,185.89,1,1,0,0,1,.84,1,.94.94,0,0,1-1,.83A95.25,95.25,0,0,1,116.7,30.37a97.16,97.16,0,0,1,59.93,12.91C178,44,177,45.71,175.79,45Z"/><path class="cls-2" d="M210.3,169.18c1.54-2.64,3.43-6.25,3.32-9.46a19.85,19.85,0,0,0-.27-3.16,5.66,5.66,0,0,0-.89-1.81,42.81,42.81,0,0,0-2.86-4c-.88-1-1.9-1.95-2.87-2.89-.69-.73-1.39-1.47-2.05-2.22-1.07-1.19-2.45-2.87-3.34-3.64A20,20,0,0,0,199,140.3a41.57,41.57,0,0,1-6.94-5.37,22.75,22.75,0,0,1-3.77-5.13c-.28-.62-1-1.93-1.1-2.15a4.61,4.61,0,0,1-1-2.39c0-.64-.13-1.27-.15-1.91a12.43,12.43,0,0,1,.15-2.14c.13-1.49.31-3.32.43-5a2.05,2.05,0,0,1,.26-1.23c.29-.4,1.07,1.37,1.19,1.58a17.94,17.94,0,0,0,1.94,3.05c.7.85,1.48,1.63,2.22,2.46a11.74,11.74,0,0,0,1.43,1.31c.93.78,1.86,1.55,2.8,2.32l2.64,2.06c.78.69,1.58,1.35,2.38,2,2.77,2.4,4.39,3.78,6,7.19.71,1.34,1.43,2.68,2.19,4a42.5,42.5,0,0,1,2.16,4,12.38,12.38,0,0,1,.75,2.19l.76,2.67a33,33,0,0,1,.86,3.54q.13.81.21,1.63l0-.35c.1-2.07.07-4.14,0-6.22-.13-1.12-.22-2.23-.29-3.36a17.44,17.44,0,0,0-2.08-8,19.56,19.56,0,0,0-2.47-3.14c-.38-.59-.73-1.16-1.1-1.69a1,1,0,0,1-.54.33,2.72,2.72,0,0,1-1.21.13,2.22,2.22,0,0,1-1.62-1.73,2.41,2.41,0,0,1,.33-1.51l.14-.16v0a.67.67,0,0,1-.1-.27c0-.07,0-.14.06-.2a.54.54,0,0,1,0-.09.31.31,0,0,1,.28-.21h0a.76.76,0,0,1,.34,0,.5.5,0,0,1,.22.27l.28,0a2.31,2.31,0,0,1,1.15.23,2.27,2.27,0,0,1,.41.41,5.49,5.49,0,0,1,.57.76,2.12,2.12,0,0,1,.15.79.79.79,0,0,1,0,.33,1.46,1.46,0,0,1-.13.37,2.16,2.16,0,0,1-.16.37c.26.38.51.76.76,1.14a5.54,5.54,0,0,0,.88,1.17c.44.47.86,1,1.26,1.47a13.62,13.62,0,0,1,2.11,4.16l0,.06c-.07-.72-.14-1.44-.26-2.16-.45-2.23-.95-4.45-1.45-6.67-.2-.63-.36-1.27-.58-1.89l-.08-.22-.58-1.53a32.35,32.35,0,0,0-1.47-3h0l0,0c-.07-.1-.31-.46-.46-.67-.42-.61-1-1.36-1.21-1.64a30.38,30.38,0,0,0-2.37-2.31,22.4,22.4,0,0,0-2.77-2.14,13.17,13.17,0,0,1-1.16-1.07c-.39-.35-.81-.66-1.21-1q-2-1.58-3.91-3.24a21.32,21.32,0,0,1-3-3,14.74,14.74,0,0,1-1.43-2,28.81,28.81,0,0,1-1.17-3.11c-.39-1.17-.72-2.37-1-3.57a23.83,23.83,0,0,1-.42-2.62c-.11-.75-.18-1.87-.26-2.35a3.83,3.83,0,0,1-.16-1.14.21.21,0,0,1,.09-.19.11.11,0,0,1,.09,0c.27.06.43.32.61.51l.65.7c.9.91,1.93,2,2.64,2.67,1.65,1.56,3.33,3.11,5,4.65a36.36,36.36,0,0,1,5.05,5.58c1.07,1.77,2.18,3.56,3.3,5.33a29.14,29.14,0,0,1,2.41,4.13,22.23,22.23,0,0,1,1.26,3.38c-.17-1-.33-2-.43-3.06s-.41-2.27-.49-3.42c0-.19,0-.36,0-.55,0-.52,0-1,0-1.55s0-.77,0-1.15l0-.19c-.08-.62-.2-1.24-.34-1.85-.27-1.08-.72-2.1-1-3.16a21,21,0,0,0-1.9-4.2,24.29,24.29,0,0,0-3.26-4.62,21.43,21.43,0,0,0-2.82-2.38c-.77-.61-1.5-1.28-2.23-1.95a7.88,7.88,0,0,1-.92-1.25,7,7,0,0,1-1.1-2.14A11.79,11.79,0,0,1,195,87.7c0-1,.07-1.94,0-2.9A4.08,4.08,0,0,0,194.8,83c-.21-.1-.43-.19-.64-.27l-.72-.25a.07.07,0,0,1-.05,0c-.06-.12.06-.27.14-.35a1,1,0,0,1,1.19-.08,1.24,1.24,0,0,1,.5.42,15.66,15.66,0,0,1,1.49.81c.92.55,1.86,1.06,2.74,1.67.64.47,1.24,1,1.83,1.54A18.69,18.69,0,0,1,203,88.23a7.79,7.79,0,0,1,1.27,1.58c.87,1.73,1.54,3.57,2.3,5.35.57,1.51.93,3.08,1.35,4.63.33,1.35.56,2.73,1,4.05a26.49,26.49,0,0,1,.55,3.3c0,.3.06.61.08.91a18.12,18.12,0,0,1,.3,1.83c.06-.7.12-1.4.16-2.1.11-1.56.25-3.11.23-4.67l0-2.19L210.11,99a35.25,35.25,0,0,0-.3-3.54,19.27,19.27,0,0,0-.56-2.26c-.32-.85-.68-1.68-1-2.53-.87-2.14-2-4.19-3-6.23-.22-.44-.43-.88-.63-1.33q-.87-1.23-1.79-2.43c-.66-.79-1.34-1.58-2-2.34-.34-.35-.72-.65-1.06-1a17.38,17.38,0,0,0-1.95-2c-.25-.11-.78-.41-1.16-.57-.69-.29-1.4-.55-2.07-.89a7,7,0,0,1-1.69-1.08,6.17,6.17,0,0,1-1-1.22,30.74,30.74,0,0,0-.92-3.22,4.64,4.64,0,0,0-.82-1.36c-.34-.39-.8-.7-1-1.21a.38.38,0,0,1,.24-.33c.15-.05.31,0,.47,0a5,5,0,0,1,.86.13,12.52,12.52,0,0,1,1.95,1.12,18,18,0,0,1,2.27,1.71c.9.87,1.77,1.78,2.62,2.7.94,1.09,1.93,2.13,2.83,3.26s1.42,2.3,2.13,3.45c.5.93,1,1.84,1.51,2.79.67,1.36,1.24,2.77,2,4.1s1.28,2.42,1.85,3.67c-.91-2.59-1.91-5.14-2.9-7.7a.18.18,0,0,1-.18,0,1,1,0,0,1-.09-.2,4.68,4.68,0,0,1-.34-1.38c-.61-1.6-1.19-3.22-1.85-4.8-1.26-3.09-2.53-6.19-3.9-9.23l0-.06a.17.17,0,0,1-.12,0,.06.06,0,0,1,0,0l-.08-.17h0c-.11-.25-.22-.49-.33-.74l-.41-1a10.49,10.49,0,0,0-.5-1,12.67,12.67,0,0,0-1.73-2.11c-.4-.43-.76-.9-1.12-1.36A11.6,11.6,0,0,1,193,57.09a16.71,16.71,0,0,1-1.21-3.51,23,23,0,0,1-.57-2.84,4.49,4.49,0,0,0-.29-.83c-.06-.18-.2-.38,0-.55a.48.48,0,0,1,.29-.19,1,1,0,0,1,.29.12,4.53,4.53,0,0,0,.71.28A7,7,0,0,1,195,50.91a6,6,0,0,1,.65.78,9.17,9.17,0,0,1,1.15,1.76,15.57,15.57,0,0,1,.9,2.75c.12.63.09,1,.15,1.48s.25,1.16.28,1.76,0,1.15,0,1.73a11.26,11.26,0,0,0,.5,2.49q.2.73.41,1.45l1.06,2.39c1.31,3.15,2.66,6.29,3.87,9.48-.09-.35-.17-.71-.27-1.06a35.39,35.39,0,0,1-.87-3.75c-.11-.84-.16-1.68-.24-2.52a10.49,10.49,0,0,1-.07-1.86c.09-1,.18-2.08.34-3.11.12-.7.31-1.38.48-2.06A18.16,18.16,0,0,1,205,58.06c.14-.24.47-.91.82-.76,0,.05,0,.12,0,.18a3.1,3.1,0,0,0,0,.74,9.13,9.13,0,0,0,.81,2.32,23.52,23.52,0,0,1,.87,2.65,11.74,11.74,0,0,1,0,2.38,4.22,4.22,0,0,1-.24,1.5c-.48,1.24-1,2.48-1.36,3.76-.1.29-.22.56-.32.81s-.16.59-.27.88a11.89,11.89,0,0,0-.62,1.41,9.84,9.84,0,0,0,0,2.76c.07.56.08,1.47.09,1.84l0,.14,0,.06c.27.94.56,1.88.84,2.82,1.23,3.14,2.48,6.27,3.44,9.5.3,1,.66,2.05.92,3.1,0-.38,0-.77,0-1.15,0-1.23.21-2.45.34-3.67.12-1,.14-2,.32-2.95A19.8,19.8,0,0,1,212,82.22c.76-1.58,1.42-3.22,2.26-4.76.49-.89,1.07-1.73,1.62-2.57a25.81,25.81,0,0,1,2.41-3.2c.66-.79,1.37-1.53,2.09-2.27.15-.14.28-.31.44-.45h0a.88.88,0,0,1,.17-.11c.06,0,.15,0,.15.07a.24.24,0,0,1-.05.16c-.1.16-.28.27-.37.43a2.15,2.15,0,0,0,.09,1.27c.35,1.46,1.17,2.8,1.27,4.32a9.5,9.5,0,0,1-.13,2.3,9.17,9.17,0,0,1-.8,2.22,19.94,19.94,0,0,1-1.62,2.46c-.33.46-.77.82-1.14,1.25A25,25,0,0,0,215.19,88a25.06,25.06,0,0,0-2.65,6c-.17.66-.43,1.29-.55,2a33.27,33.27,0,0,0-.56,3.46c-.08.78,0,1.56-.07,2.34s-.14,1.43-.17,2.14a9.63,9.63,0,0,1-.13,2.54c0,.09-.06.17-.1.25a2.69,2.69,0,0,0,.11-.39,7.12,7.12,0,0,0-.11-2c0,.09,0,.17,0,.26a32,32,0,0,1-.5,4.76c-.07.38-.15.75-.23,1.12v.19c.17-.69.37-1.52.49-2,.21-.92.34-1.86.61-2.77a24.49,24.49,0,0,1,1-2.53A10.56,10.56,0,0,1,213,102h0a1.7,1.7,0,0,1-.3-1.75,2.35,2.35,0,0,1,1.1-1.16,1.39,1.39,0,0,1,.34-.24,1.43,1.43,0,0,1,.62-.09l.26-.13.05-.16a.75.75,0,0,1,0-.08c0-.43.57-.91.9-.66l.08,0a.38.38,0,0,1,.09.27,1.14,1.14,0,0,1-.09.75.73.73,0,0,1-.17.21,1.89,1.89,0,0,1,.25.17,1.82,1.82,0,0,1,.27,1.41v.06c0,.07,0,.13,0,.2a1.25,1.25,0,0,1-.14.42,2.5,2.5,0,0,1-.42.78,1.48,1.48,0,0,1-2,.48,1.37,1.37,0,0,1-.54-.28c-.12.2-.24.41-.36.65-.21.43-.72,1.64-1,2.36-.4,1.12-.49,2-.81,3.23-.29,1-.59,1.95-.89,2.92l-.06.21c-.05.89-.12,2-.23,2.89s0,1.81,0,2.71a32.56,32.56,0,0,0,.49,3.53c.21.88.54,1.72.72,2.6s.28,1.65.44,2.45a13.71,13.71,0,0,1-.06-3,9.72,9.72,0,0,1,.44-2.29c.15-.39.35-.76.53-1.14a8.62,8.62,0,0,1,.6-1,1.43,1.43,0,0,1-.16-.61.76.76,0,0,1,0-.62c.3-.73,1.06-1.63,1.93-1.28a1.41,1.41,0,0,1,.35.22.35.35,0,0,1,.53-.17c.18.1.39.33.3.55a.65.65,0,0,1-.11.12v0a.36.36,0,0,1-.17.21l.06.15a1.41,1.41,0,0,1-.75,1.84,2.07,2.07,0,0,1-1.48,0,9.94,9.94,0,0,0-.71,1.26,6.25,6.25,0,0,0-.56,1.35,16,16,0,0,0-.39,5.68c.1.3.21.59.3.89.25,1,.48,2,.72,3s.49,1.89.64,2.85l.18.51a10.74,10.74,0,0,1,.68,3.38,38.47,38.47,0,0,1,1-8.81c.23-.85.37-1.72.63-2.56a21.21,21.21,0,0,1,1.4-3.14,13.45,13.45,0,0,1,2.13-3.24c.48-.54,1-1,1.54-1.51s.76-.82,1.2-1.17a11,11,0,0,1,1.47-.87l2.12-1.18a19,19,0,0,1,1.7-1,22.52,22.52,0,0,1,2.57-.83,3.76,3.76,0,0,1,.89-.14.59.59,0,0,1,.39.45.12.12,0,0,1,0,.1,3.68,3.68,0,0,1-.62.72,11.43,11.43,0,0,0-.92,1,15.57,15.57,0,0,0-1.51,2.14c-.64,1.1-1.28,2.21-1.85,3.36-.34.69-.61,1.41-.92,2.11a18.48,18.48,0,0,0-1.19,4.93c0,.67.12,1.33.14,2a16.65,16.65,0,0,1,0,2.63c-.12,1.26-.15,2.53-.38,3.78a43.05,43.05,0,0,1-1.36,4.74c-.23.62-.43,1.24-.72,1.84s-.58,1.08-.87,1.62q-1,1.93-2.07,3.88c-.78,1.5-1.42,3.06-2,4.62-.48,1.11-.31.44-.38.94s-.25.8-.41,1.52a10,10,0,0,0-.27,2.08c0,.81.08,1.25,0,2,0,.38,0,.91-.15,1.65a12.71,12.71,0,0,1-.71,2.17,72.85,72.85,0,0,1-3.62,7.2"/><path class="cls-2" d="M210.3,169.18a93.18,93.18,0,0,1-65,48.77,1,1,0,0,0-.71,1.13.94.94,0,0,0,1.13.7c29.24-5.75,52.85-23.34,65.85-49.15"/></g><g id="Typo_vect" data-name="Typo vect"><path class="cls-3" d="M106.26,105.08v28.54h17.06v6.47H98.56v-35Z"/><path class="cls-3" d="M136.41,122.53a8.08,8.08,0,0,1,1.23-4.07,8.35,8.35,0,0,1,2.75-2.6,12,12,0,0,1,3.75-1.4,21.31,21.31,0,0,1,4.19-.42,28.44,28.44,0,0,1,3.87.27,11.9,11.9,0,0,1,3.58,1.05,7.05,7.05,0,0,1,2.65,2.18,6.1,6.1,0,0,1,1,3.7v13.19a26.44,26.44,0,0,0,.2,3.29,5.92,5.92,0,0,0,.69,2.35h-7.06a9.79,9.79,0,0,1-.32-1.2,10.26,10.26,0,0,1-.17-1.25,9.05,9.05,0,0,1-3.92,2.4,15.75,15.75,0,0,1-4.61.69,12.46,12.46,0,0,1-3.38-.44,7.74,7.74,0,0,1-2.75-1.37,6.39,6.39,0,0,1-1.84-2.35,8,8,0,0,1-.66-3.38,7.38,7.38,0,0,1,.76-3.55,6.36,6.36,0,0,1,2-2.23,8.85,8.85,0,0,1,2.75-1.25,29.6,29.6,0,0,1,3.11-.66q1.57-.25,3.09-.39a18.54,18.54,0,0,0,2.7-.44,4.69,4.69,0,0,0,1.86-.86,1.88,1.88,0,0,0,.64-1.64,3.7,3.7,0,0,0-.37-1.79,2.72,2.72,0,0,0-1-1,3.86,3.86,0,0,0-1.42-.49,11.72,11.72,0,0,0-1.74-.12,5.29,5.29,0,0,0-3.24.88,3.94,3.94,0,0,0-1.37,2.94Zm16.08,5.15a3.11,3.11,0,0,1-1.1.61,11.27,11.27,0,0,1-1.42.37q-.76.15-1.59.24t-1.67.25a12.6,12.6,0,0,0-1.54.39,4.62,4.62,0,0,0-1.32.66,3.14,3.14,0,0,0-.91,1.05,3.38,3.38,0,0,0-.34,1.62,3.27,3.27,0,0,0,.34,1.57,2.63,2.63,0,0,0,.93,1,3.94,3.94,0,0,0,1.37.51,8.84,8.84,0,0,0,1.62.15,6.14,6.14,0,0,0,3.19-.69,4.6,4.6,0,0,0,1.67-1.64,5.26,5.26,0,0,0,.66-1.94,13.3,13.3,0,0,0,.12-1.57Z"/><path class="cls-3" d="M186.22,105.08l8.19,24.07h.1l7.75-24.07h10.84v35h-7.21V115.27h-.1l-8.58,24.81h-5.93l-8.58-24.56h-.1v24.56h-7.21v-35Z"/><path class="cls-3" d="M236.38,134a7.14,7.14,0,0,0,8.14.47,4.37,4.37,0,0,0,1.86-2.23h6.13a11.63,11.63,0,0,1-4.51,6.52,13.28,13.28,0,0,1-7.35,2,14.48,14.48,0,0,1-5.39-1,11.23,11.23,0,0,1-4.07-2.72,12.23,12.23,0,0,1-2.57-4.22,15.42,15.42,0,0,1-.91-5.39,14.78,14.78,0,0,1,.93-5.29,12.25,12.25,0,0,1,6.74-7.06,13.13,13.13,0,0,1,5.27-1,12.07,12.07,0,0,1,5.64,1.25,11.26,11.26,0,0,1,3.95,3.36,13.82,13.82,0,0,1,2.23,4.8,17.93,17.93,0,0,1,.49,5.64H234.66Q234.81,132.48,236.38,134Zm7.87-13.34a4.89,4.89,0,0,0-3.8-1.37,6.07,6.07,0,0,0-2.77.56,5.29,5.29,0,0,0-1.76,1.4A5.12,5.12,0,0,0,235,123a8,8,0,0,0-.32,1.67H246A8,8,0,0,0,244.25,120.67Z"/><path class="cls-3" d="M267.07,110.81v-5.74h7v5.74Zm7,3.92v25.35h-7V114.74Z"/><path class="cls-3" d="M296.49,105.08v35h-7v-35Z"/><path class="cls-3" d="M318.94,105.08v35h-7v-35Z"/><path class="cls-3" d="M341.69,134a7.14,7.14,0,0,0,8.14.47,4.37,4.37,0,0,0,1.86-2.23h6.13a11.63,11.63,0,0,1-4.51,6.52,13.28,13.28,0,0,1-7.35,2,14.48,14.48,0,0,1-5.39-1,11.23,11.23,0,0,1-4.07-2.72,12.23,12.23,0,0,1-2.57-4.22,15.42,15.42,0,0,1-.91-5.39,14.78,14.78,0,0,1,.93-5.29,12.25,12.25,0,0,1,6.74-7.06,13.13,13.13,0,0,1,5.27-1,12.07,12.07,0,0,1,5.64,1.25,11.26,11.26,0,0,1,3.95,3.36,13.82,13.82,0,0,1,2.23,4.8,17.93,17.93,0,0,1,.49,5.64H340Q340.12,132.48,341.69,134Zm7.87-13.34a4.89,4.89,0,0,0-3.8-1.37,6.07,6.07,0,0,0-2.77.56,5.29,5.29,0,0,0-1.76,1.4,5.12,5.12,0,0,0-.93,1.77,8,8,0,0,0-.32,1.67H351.3A8,8,0,0,0,349.56,120.67Z"/><path class="cls-3" d="M389.35,140.08v-3.53h-.15a7.83,7.83,0,0,1-3.43,3.19,10.12,10.12,0,0,1-4.31,1,12.2,12.2,0,0,1-4.58-.73A6.62,6.62,0,0,1,374,137.9a8.15,8.15,0,0,1-1.45-3.29,20.42,20.42,0,0,1-.42-4.29V114.74h7v14.32a8.87,8.87,0,0,0,1,4.68,3.8,3.8,0,0,0,3.48,1.55,4.82,4.82,0,0,0,4.12-1.69Q389,131.9,389,128V114.74h7v25.35Z"/><path class="cls-3" d="M417.68,114.74v4.71h.1a8.53,8.53,0,0,1,1.32-2.18,8.67,8.67,0,0,1,1.91-1.72,9.37,9.37,0,0,1,2.3-1.1,8.34,8.34,0,0,1,2.55-.39,5.43,5.43,0,0,1,1.52.25v6.47q-.49-.1-1.18-.17a12.39,12.39,0,0,0-1.32-.07,7.43,7.43,0,0,0-3.24.64,5.59,5.59,0,0,0-2.13,1.74,7,7,0,0,0-1.15,2.57,14,14,0,0,0-.34,3.19v11.42h-7V114.74Z"/><path class="cls-3" d="M446.51,134a7.14,7.14,0,0,0,8.14.47,4.37,4.37,0,0,0,1.86-2.23h6.13a11.63,11.63,0,0,1-4.51,6.52,13.28,13.28,0,0,1-7.35,2,14.48,14.48,0,0,1-5.39-1,11.23,11.23,0,0,1-4.07-2.72,12.23,12.23,0,0,1-2.57-4.22,15.42,15.42,0,0,1-.91-5.39,14.78,14.78,0,0,1,.93-5.29,12.25,12.25,0,0,1,6.74-7.06,13.13,13.13,0,0,1,5.27-1,12.07,12.07,0,0,1,5.64,1.25,11.26,11.26,0,0,1,3.95,3.36,13.82,13.82,0,0,1,2.23,4.8,17.93,17.93,0,0,1,.49,5.64H444.8Q444.94,132.48,446.51,134Zm7.87-13.34a4.89,4.89,0,0,0-3.8-1.37,6.07,6.07,0,0,0-2.77.56,5.29,5.29,0,0,0-1.76,1.4,5.12,5.12,0,0,0-.93,1.77,8,8,0,0,0-.32,1.67h11.33A8,8,0,0,0,454.38,120.67Z"/><path class="cls-3" d="M485.34,140.08l-11.33-35h7.89l7.8,24.61h.1l7.89-24.61h7.94l-11.62,35Z"/><path class="cls-3" d="M522.46,134a7.14,7.14,0,0,0,8.14.47,4.37,4.37,0,0,0,1.86-2.23h6.13a11.63,11.63,0,0,1-4.51,6.52,13.28,13.28,0,0,1-7.35,2,14.48,14.48,0,0,1-5.39-1,11.23,11.23,0,0,1-4.07-2.72,12.23,12.23,0,0,1-2.57-4.22,15.42,15.42,0,0,1-.91-5.39,14.78,14.78,0,0,1,.93-5.29,12.25,12.25,0,0,1,6.74-7.06,13.13,13.13,0,0,1,5.27-1,12.07,12.07,0,0,1,5.64,1.25,11.26,11.26,0,0,1,3.95,3.36,13.82,13.82,0,0,1,2.23,4.8,17.93,17.93,0,0,1,.49,5.64H520.74Q520.89,132.48,522.46,134Zm7.87-13.34a4.89,4.89,0,0,0-3.8-1.37,6.07,6.07,0,0,0-2.77.56,5.29,5.29,0,0,0-1.76,1.4,5.12,5.12,0,0,0-.93,1.77,8,8,0,0,0-.32,1.67h11.33A8,8,0,0,0,530.33,120.67Z"/><path class="cls-3" d="M559.57,114.74v4.71h.1a8.53,8.53,0,0,1,1.32-2.18,8.67,8.67,0,0,1,1.91-1.72,9.37,9.37,0,0,1,2.3-1.1,8.34,8.34,0,0,1,2.55-.39,5.43,5.43,0,0,1,1.52.25v6.47q-.49-.1-1.18-.17a12.39,12.39,0,0,0-1.32-.07,7.43,7.43,0,0,0-3.24.64,5.59,5.59,0,0,0-2.13,1.74,7,7,0,0,0-1.15,2.57,14,14,0,0,0-.34,3.19v11.42h-7V114.74Z"/><path class="cls-3" d="M587.69,133.78a4.06,4.06,0,0,0,1.2,1.32,5.15,5.15,0,0,0,1.69.76,8,8,0,0,0,2,.24,7.36,7.36,0,0,0,1.54-.17,5.27,5.27,0,0,0,1.47-.54,3.34,3.34,0,0,0,1.1-1,2.58,2.58,0,0,0,.44-1.54q0-1.57-2.08-2.35a41.83,41.83,0,0,0-5.81-1.57q-1.52-.34-3-.81a10.05,10.05,0,0,1-2.57-1.23,6,6,0,0,1-1.81-1.91,5.41,5.41,0,0,1-.69-2.82,7.63,7.63,0,0,1,1-4,7,7,0,0,1,2.52-2.48,11.07,11.07,0,0,1,3.53-1.27,21.8,21.8,0,0,1,4-.37,20.14,20.14,0,0,1,4,.39,10.58,10.58,0,0,1,3.46,1.32,7.94,7.94,0,0,1,2.52,2.48,8.32,8.32,0,0,1,1.2,3.9h-6.62a3,3,0,0,0-1.52-2.72,7,7,0,0,0-3.24-.71,12,12,0,0,0-1.27.07,4.29,4.29,0,0,0-1.25.32,2.59,2.59,0,0,0-1,.71,1.88,1.88,0,0,0-.39,1.25,1.91,1.91,0,0,0,.69,1.52,5.31,5.31,0,0,0,1.79,1,22.32,22.32,0,0,0,2.52.66q1.42.3,2.89.64a29.71,29.71,0,0,1,3,.83,9.81,9.81,0,0,1,2.57,1.3,6.3,6.3,0,0,1,1.81,2,5.9,5.9,0,0,1,.69,3,7.7,7.7,0,0,1-3.63,6.91,10.73,10.73,0,0,1-3.7,1.45,21.56,21.56,0,0,1-4.24.42,21,21,0,0,1-4.31-.44,11.38,11.38,0,0,1-3.75-1.47,8.4,8.4,0,0,1-2.7-2.72,8.51,8.51,0,0,1-1.15-4.24h6.62A3.81,3.81,0,0,0,587.69,133.78Z"/><path class="cls-3" d="M618.16,110.81v-5.74h7v5.74Zm7,3.92v25.35h-7V114.74Z"/><path class="cls-3" d="M640.57,121.92a11.6,11.6,0,0,1,6.77-6.91,14.49,14.49,0,0,1,5.39-1,14.68,14.68,0,0,1,5.42,1,11.55,11.55,0,0,1,6.79,6.91,15.59,15.59,0,0,1,.93,5.52,15.39,15.39,0,0,1-.93,5.49,11.91,11.91,0,0,1-2.65,4.19,11.52,11.52,0,0,1-4.14,2.67,15,15,0,0,1-5.42.93,14.82,14.82,0,0,1-5.39-.93,11.55,11.55,0,0,1-4.12-2.67,11.89,11.89,0,0,1-2.65-4.19,15.36,15.36,0,0,1-.93-5.49A15.56,15.56,0,0,1,640.57,121.92Zm6.33,8.48a7.89,7.89,0,0,0,1,2.6,5.35,5.35,0,0,0,1.89,1.84,5.76,5.76,0,0,0,2.94.69,5.9,5.9,0,0,0,3-.69A5.28,5.28,0,0,0,657.6,133a7.89,7.89,0,0,0,1-2.6,14.8,14.8,0,0,0,.29-3,15.15,15.15,0,0,0-.29-3,7.62,7.62,0,0,0-1-2.6,5.58,5.58,0,0,0-1.91-1.84,5.74,5.74,0,0,0-3-.71,5.35,5.35,0,0,0-4.83,2.55,7.62,7.62,0,0,0-1,2.6,15.15,15.15,0,0,0-.29,3A14.8,14.8,0,0,0,646.89,130.4Z"/><path class="cls-3" d="M686.8,114.74v3.53h.15a8,8,0,0,1,3.43-3.21,9.94,9.94,0,0,1,4.31-1,11.82,11.82,0,0,1,4.58.76,6.8,6.8,0,0,1,2.82,2.11,8.16,8.16,0,0,1,1.45,3.29,20.42,20.42,0,0,1,.42,4.29v15.59h-7V125.77a8.9,8.9,0,0,0-1-4.68,3.8,3.8,0,0,0-3.48-1.54,4.82,4.82,0,0,0-4.12,1.69q-1.28,1.69-1.28,5.56v13.29h-7V114.74Z"/><path class="cls-3" d="M734.9,105.08a18.05,18.05,0,0,1,6.3,1.08,13.69,13.69,0,0,1,5,3.24,14.94,14.94,0,0,1,3.33,5.39,21.82,21.82,0,0,1,1.2,7.6,24.23,24.23,0,0,1-1,7.06,15.54,15.54,0,0,1-3,5.59,13.87,13.87,0,0,1-5,3.7,16.73,16.73,0,0,1-7,1.35H719.8v-35Zm-.54,28.54a9.9,9.9,0,0,0,3.24-.54,7.11,7.11,0,0,0,2.79-1.79,9,9,0,0,0,2-3.26,14.33,14.33,0,0,0,.74-4.9,20.41,20.41,0,0,0-.51-4.78,9.53,9.53,0,0,0-1.69-3.65,7.5,7.5,0,0,0-3.11-2.33,12.43,12.43,0,0,0-4.78-.81h-5.49v22.06Z"/><path class="cls-3" d="M772.65,134a7.14,7.14,0,0,0,8.14.47,4.37,4.37,0,0,0,1.86-2.23h6.13a11.63,11.63,0,0,1-4.51,6.52,13.28,13.28,0,0,1-7.35,2,14.48,14.48,0,0,1-5.39-1,11.25,11.25,0,0,1-4.07-2.72,12.26,12.26,0,0,1-2.57-4.22,15.42,15.42,0,0,1-.91-5.39,14.78,14.78,0,0,1,.93-5.29,12.25,12.25,0,0,1,6.74-7.06,13.13,13.13,0,0,1,5.27-1,12.07,12.07,0,0,1,5.64,1.25,11.27,11.27,0,0,1,3.95,3.36,13.81,13.81,0,0,1,2.23,4.8,17.91,17.91,0,0,1,.49,5.64H770.93Q771.08,132.48,772.65,134Zm7.87-13.34a4.89,4.89,0,0,0-3.8-1.37,6.07,6.07,0,0,0-2.77.56,5.29,5.29,0,0,0-1.76,1.4,5.13,5.13,0,0,0-.93,1.77,7.94,7.94,0,0,0-.32,1.67h11.32A8.06,8.06,0,0,0,780.52,120.67Z"/><path class="cls-3" d="M814.72,105.08l8.19,24.07h.1l7.75-24.07h10.84v35h-7.21V115.27h-.1l-8.58,24.81h-5.93l-8.58-24.56h-.1v24.56h-7.21v-35Z"/><path class="cls-3" d="M857.57,121.92a11.6,11.6,0,0,1,6.77-6.91,14.49,14.49,0,0,1,5.39-1,14.68,14.68,0,0,1,5.42,1,11.55,11.55,0,0,1,6.79,6.91,15.59,15.59,0,0,1,.93,5.52,15.39,15.39,0,0,1-.93,5.49,11.91,11.91,0,0,1-2.65,4.19,11.52,11.52,0,0,1-4.14,2.67,15,15,0,0,1-5.42.93,14.82,14.82,0,0,1-5.39-.93,11.55,11.55,0,0,1-4.12-2.67,11.89,11.89,0,0,1-2.65-4.19,15.36,15.36,0,0,1-.93-5.49A15.56,15.56,0,0,1,857.57,121.92Zm6.33,8.48a7.89,7.89,0,0,0,1,2.6,5.35,5.35,0,0,0,1.89,1.84,5.76,5.76,0,0,0,2.94.69,5.9,5.9,0,0,0,3-.69,5.28,5.28,0,0,0,1.91-1.84,7.89,7.89,0,0,0,1-2.6,14.8,14.8,0,0,0,.29-3,15.15,15.15,0,0,0-.29-3,7.62,7.62,0,0,0-1-2.6,5.58,5.58,0,0,0-1.91-1.84,5.74,5.74,0,0,0-3-.71,5.35,5.35,0,0,0-4.83,2.55,7.62,7.62,0,0,0-1,2.6,15.15,15.15,0,0,0-.29,3A14.8,14.8,0,0,0,863.89,130.4Z"/><path class="cls-3" d="M897.38,110.81v-5.74h7v5.74Zm7,3.92v25.35h-7V114.74Z"/><path class="cls-3" d="M115.56,204.37a5.26,5.26,0,0,1-1.79-.54,4,4,0,0,1-1.35-1.12,4.37,4.37,0,0,1-.77-1.68,6.39,6.39,0,0,1-.07-2.25,7.1,7.1,0,0,1,.54-2,4.52,4.52,0,0,1,1.06-1.51,4.06,4.06,0,0,1,1.57-.89,4.88,4.88,0,0,1,2.07-.14l4.38.55-1.27,10.15Zm1.19-8.25a2.89,2.89,0,0,0-1,0,2.07,2.07,0,0,0-.87.42,2.61,2.61,0,0,0-.69.87,4.2,4.2,0,0,0-.39,1.39,5.93,5.93,0,0,0,0,1.4,2.78,2.78,0,0,0,.36,1.12,2.19,2.19,0,0,0,.82.79,3.63,3.63,0,0,0,1.36.41l1.59.2.8-6.39Z"/><path class="cls-3" d="M98.88,200.53l.54-1.81,5.18,1.53.62-2.1-4.75-1.41.5-1.68,4.75,1.41.71-2.4-5.29-1.57.54-1.81,7.44,2.2-2.9,9.8Zm2.43,4.32,2.18-2-1.36-.4-3,1.77Z"/><path class="cls-3" d="M96.73,188.59l-1.36,10.66-2.09-1,1-7.48h0l-5.15,5.53-2.1-1,7.42-7.81Z"/><path class="cls-3" d="M77.14,189l1.05-1.57,4.48,3,1.22-1.82-4.11-2.76,1-1.45,4.12,2.76,1.4-2.08L81.7,182l1.05-1.57,6.44,4.33-5.7,8.49Z"/><path class="cls-3" d="M71.73,184.44l5.62-6.15-3.68-3.36,1.27-1.4,5.34,4.88L73.39,186Z"/><path class="cls-3" d="M67.36,176a5.15,5.15,0,0,1-2,.28,4.49,4.49,0,0,1-1.88-.53,5.59,5.59,0,0,1-2.62-3.32,4.52,4.52,0,0,1-.08-1.95,5.07,5.07,0,0,1,.73-1.83A6.37,6.37,0,0,1,63,167a6.16,6.16,0,0,1,1.85-1,5,5,0,0,1,1.93-.27,4.55,4.55,0,0,1,1.86.54,5.68,5.68,0,0,1,2.62,3.32,4.5,4.5,0,0,1,.1,1.94,5,5,0,0,1-.71,1.82,6.22,6.22,0,0,1-1.42,1.56A6.47,6.47,0,0,1,67.36,176Zm1.38-3.71a3.4,3.4,0,0,0,.56-1.06,2.46,2.46,0,0,0,.08-1.16,3,3,0,0,0-1.6-2,2.47,2.47,0,0,0-1.15-.19,3.42,3.42,0,0,0-1.16.3,5.26,5.26,0,0,0-1.08.66,5.59,5.59,0,0,0-.93.92,3.48,3.48,0,0,0-.59,1.07A2.46,2.46,0,0,0,62.8,172a3,3,0,0,0,1.6,2,2.43,2.43,0,0,0,1.15.19,3.47,3.47,0,0,0,1.18-.32,5.65,5.65,0,0,0,1.12-.69A5.27,5.27,0,0,0,68.74,172.28Z"/><path class="cls-3" d="M54.17,162.07a4.25,4.25,0,0,1-.54-1.57,3.05,3.05,0,0,1,.12-1.31,2.85,2.85,0,0,1,.62-1A3.94,3.94,0,0,1,56.52,157a2.85,2.85,0,0,1,1.22,0,3.06,3.06,0,0,1,1.17.61,4.26,4.26,0,0,1,1,1.3L61.06,161l3.22-1.75,1.07,2-9,4.89Zm4.52-1.76a4.58,4.58,0,0,0-.41-.63,1.73,1.73,0,0,0-.5-.45,1.2,1.2,0,0,0-.62-.16,1.65,1.65,0,0,0-.77.23,1.63,1.63,0,0,0-.61.52,1.21,1.21,0,0,0-.2.61,1.74,1.74,0,0,0,.11.66,4.64,4.64,0,0,0,.3.68l.84,1.54,2.69-1.46Z"/><path class="cls-3" d="M49.08,150.36a4.28,4.28,0,0,1-.28-1.63,3.07,3.07,0,0,1,.33-1.28,2.86,2.86,0,0,1,.78-.93,3.92,3.92,0,0,1,2.29-.81,2.83,2.83,0,0,1,1.2.23,3.06,3.06,0,0,1,1.06.79,4.24,4.24,0,0,1,.81,1.44l.79,2.23,3.45-1.23.75,2.12-9.63,3.43Zm4.74-1a4.71,4.71,0,0,0-.3-.68,1.74,1.74,0,0,0-.42-.52,1.22,1.22,0,0,0-.58-.26,2,2,0,0,0-1.48.53,1.21,1.21,0,0,0-.29.57,1.73,1.73,0,0,0,0,.67,4.77,4.77,0,0,0,.2.72l.59,1.65,2.89-1Z"/><path class="cls-3" d="M45.32,135l1.86-.35,1,5.31,2.15-.41-.92-4.87,1.72-.32.92,4.87,2.46-.46-1-5.42,1.86-.35,1.44,7.63-10,1.9Z"/><path class="cls-3" d="M44.68,126.82l7-2.43v0l-7-2.22,0-3.17,10.23-.06V121l-7.25,0v0l7.26,2.46v1.73l-7.16,2.55v0l7.18,0v2.11L44.69,130Z"/><path class="cls-3" d="M46.59,106l1.86.33-.94,5.32,2.16.38.86-4.88,1.72.3-.86,4.88,2.47.44,1-5.43,1.86.33-1.35,7.64-10.07-1.78Z"/><path class="cls-3" d="M48.55,99.18l7.89-1.75v0L50,95.13l.7-2,9.65,3.39-.74,2.12-7.87,1.75v0l6.46,2.27-.7,2-9.65-3.39Z"/><path class="cls-3" d="M54.13,90l-1.66-.9,4-7.37,1.66.9-1.46,2.69,7.33,4-1.07,2-7.33-4Z"/><path class="cls-3" d="M65.92,69.31a4.26,4.26,0,0,1,1.3-1A3.06,3.06,0,0,1,68.5,68a2.84,2.84,0,0,1,1.19.24,3.9,3.9,0,0,1,1.81,1.62A2.8,2.8,0,0,1,71.87,71a3,3,0,0,1-.18,1.31,4.24,4.24,0,0,1-.88,1.4l-1.58,1.76L72,77.89l-1.5,1.67-7.62-6.82ZM69.09,73a4.7,4.7,0,0,0,.45-.59,1.71,1.71,0,0,0,.25-.62,1.2,1.2,0,0,0-.05-.64,2,2,0,0,0-1.17-1.05,1.21,1.21,0,0,0-.64,0,1.75,1.75,0,0,0-.59.32,4.69,4.69,0,0,0-.54.52l-1.17,1.3,2.28,2Z"/><path class="cls-3" d="M77.61,58.68l1.19,1.47-4.19,3.41L76,65.25l3.84-3.13,1.1,1.35L77.1,66.61l1.58,1.94L83,65.07l1.19,1.47-6,4.9-6.46-7.93Z"/><path class="cls-3" d="M86.44,53.13a3.3,3.3,0,0,1,1.18-.42,2.86,2.86,0,0,1,1.12.06,2.64,2.64,0,0,1,1,.48,2.9,2.9,0,0,1,.73.85,3.08,3.08,0,0,1,.45,1.54,2.38,2.38,0,0,1-.58,1.49v0a1.75,1.75,0,0,1,.77,0,1.93,1.93,0,0,1,.66.26,2.61,2.61,0,0,1,.57.49,6.15,6.15,0,0,1,.48.62l.31.48q.18.28.38.56a4.59,4.59,0,0,0,.42.51,1.48,1.48,0,0,0,.47.34l-2,1.12a4,4,0,0,1-.78-.89q-.37-.56-.75-1.05a2,2,0,0,0-1-.78,1.67,1.67,0,0,0-1.24.28l-2,1.12,2,3.47-2,1.12-5.09-8.87ZM88,57.55a1.7,1.7,0,0,0,.83-.87,1.43,1.43,0,0,0-.22-1.16,1.36,1.36,0,0,0-.87-.75,1.73,1.73,0,0,0-1.17.29l-2.14,1.23,1.43,2.5Z"/><path class="cls-3" d="M98,56.07a1.62,1.62,0,0,0,.66.38,2.12,2.12,0,0,0,.79.07,3.41,3.41,0,0,0,.85-.19,4.56,4.56,0,0,0,.59-.26,2.22,2.22,0,0,0,.54-.4,1.41,1.41,0,0,0,.34-.54,1,1,0,0,0,0-.67.89.89,0,0,0-.48-.54,2.09,2.09,0,0,0-.8-.17,6.87,6.87,0,0,0-1,0l-1.13.1a9.6,9.6,0,0,1-1.17,0,3.79,3.79,0,0,1-1.1-.18,2.53,2.53,0,0,1-.93-.54,2.49,2.49,0,0,1-.65-1,2.67,2.67,0,0,1-.14-1.4,3,3,0,0,1,.5-1.21,3.85,3.85,0,0,1,1-1A5.27,5.27,0,0,1,97.07,48a6.51,6.51,0,0,1,1.51-.35,3.84,3.84,0,0,1,1.43.1,2.94,2.94,0,0,1,1.2.66A3.14,3.14,0,0,1,102,49.7l-2,.73a1.83,1.83,0,0,0-.44-.65,1.27,1.27,0,0,0-.57-.3,1.86,1.86,0,0,0-.67,0,3.75,3.75,0,0,0-.75.19,2.63,2.63,0,0,0-.49.24,1.45,1.45,0,0,0-.4.35,1.24,1.24,0,0,0-.22.46,1,1,0,0,0,0,.56.91.91,0,0,0,.27.42,1,1,0,0,0,.54.17,5.7,5.7,0,0,0,1,0l1.6-.15c.19,0,.47-.05.82-.07a3.82,3.82,0,0,1,1.11.11,3.06,3.06,0,0,1,1.11.54,2.51,2.51,0,0,1,.82,1.21,3.12,3.12,0,0,1,.18,1.32,2.82,2.82,0,0,1-.41,1.25,3.91,3.91,0,0,1-1,1.09,6.34,6.34,0,0,1-1.65.85,6.46,6.46,0,0,1-1.61.36,4.13,4.13,0,0,1-1.54-.14,3.23,3.23,0,0,1-1.29-.74A3.36,3.36,0,0,1,95.53,56l2-.73A1.88,1.88,0,0,0,98,56.07Z"/><path class="cls-3" d="M106.09,48.4a5.11,5.11,0,0,1,.64-1.87,4.51,4.51,0,0,1,1.33-1.43,5.6,5.6,0,0,1,4.15-.82,4.53,4.53,0,0,1,1.77.82,5.09,5.09,0,0,1,1.3,1.49,6.4,6.4,0,0,1,.75,2,6.2,6.2,0,0,1,.07,2.11,5,5,0,0,1-.65,1.84A4.55,4.55,0,0,1,114.12,54a5.68,5.68,0,0,1-4.15.82,4.54,4.54,0,0,1-1.77-.8,5,5,0,0,1-1.29-1.46,6.16,6.16,0,0,1-.74-2A6.39,6.39,0,0,1,106.09,48.4Zm2.67,2.92a3.39,3.39,0,0,0,.68,1,2.45,2.45,0,0,0,1,.6,3,3,0,0,0,2.53-.5,2.45,2.45,0,0,0,.69-.93,3.38,3.38,0,0,0,.26-1.17,5.13,5.13,0,0,0-.09-1.26,5.54,5.54,0,0,0-.4-1.25,3.46,3.46,0,0,0-.69-1,2.43,2.43,0,0,0-1-.61,3,3,0,0,0-2.53.5,2.45,2.45,0,0,0-.69.94,3.45,3.45,0,0,0-.25,1.2,5.56,5.56,0,0,0,.1,1.31A5.2,5.2,0,0,0,108.76,51.32Z"/><path class="cls-3" d="M122.21,43.05l4.38,6.79h0L126.5,43l2.1,0,.17,10.22-2.25,0-4.37-6.77h0l.12,6.84-2.1,0L120,43.09Z"/><path class="cls-3" d="M136.15,43.67l3.15,7.44h0l1.07-6.78,2.08.33-1.59,10.1-2.22-.35L135.53,47h0l-1.07,6.76-2.08-.33,1.59-10.1Z"/><path class="cls-3" d="M154.84,48.36l-.59,1.79-5.13-1.69-.69,2.08,4.71,1.56-.55,1.66-4.71-1.56-.79,2.38,5.24,1.73-.59,1.79-7.37-2.44L147.57,46Z"/><path class="cls-3" d="M161.26,51.26l-3.76,7.44L162,61l-.85,1.69-6.46-3.26,4.61-9.13Z"/></g></svg>