<svg xmlns="http://www.w3.org/2000/svg" viewBox="0 0 639 170.37"><defs><style>.cls-1{fill:#421556;}.cls-2,.cls-3{fill:#fff;}.cls-3{stroke:#fff;stroke-miterlimit:10;}</style></defs><title>Artboard 1</title><g id="Feuille"><path class="cls-1" d="M411.06,64v0a2.1,2.1,0,0,0,0,1.08,4,4,0,0,0,1.56,1.69c1.52,1.12,4.13,0,5.73-1.52l.15.1.08,0,0,0a2.17,2.17,0,0,0,2.48,0c.55-.4,1.13-1,.53-1.63a1.62,1.62,0,0,0-2-.18l-.06,0a2.7,2.7,0,0,0,.12-.35,4.5,4.5,0,0,0-1-3.48,5.38,5.38,0,0,0-2.26-1.2,4.67,4.67,0,0,0-1.71-.27,3.36,3.36,0,0,0-2.28,1.82,12,12,0,0,0-4.15.86,15.23,15.23,0,0,0-2,1.46l-3.78,2.91c-1.09.83-2.14,1.72-3.17,2.62a33,33,0,0,0-3.61,3.43c4.16-3.33,8.82-6,13-9.31a4.87,4.87,0,0,1,2.28-.9,9.87,9.87,0,0,1,1-.18l0,.06A3.9,3.9,0,0,0,411.06,64Zm9.64.95a1.31,1.31,0,0,0,0-.18.34.34,0,0,1,.13.07Zm-2.37,2.83a2.25,2.25,0,0,0-.32-.17,2.1,2.1,0,0,1,.6.08Zm-5-1.67a1.65,1.65,0,0,0,.37.05,3.7,3.7,0,0,0,.69.08c-.55.2-1,.25-1.11.14l-.42-.33A2.35,2.35,0,0,0,413.32,66.13Zm1.47,3.26-.13-.06v0l.18-.06h.05Z"/><path class="cls-1" d="M247.71,142.06c-30-3.74-55.16-13.63-81.1-31.6a1.75,1.75,0,0,1-.46-2.51,1.89,1.89,0,0,1,2.6-.58,186.08,186.08,0,0,0,79.12,30.44c3.08.41,12.23,1.46,19.59-2.46,2-1.13,3.9-1.71,5.7-2.94a19.16,19.16,0,0,0,2.7-3.07,86.42,86.42,0,0,0,5.32-8.45c1.25-2.44,2.17-5,3.19-7.59.84-1.86,1.67-3.72,2.56-5.55,1.4-2.92,3.46-6.79,4.22-9a40.36,40.36,0,0,0,1.29-5.59A83.92,83.92,0,0,1,297.1,76a45.92,45.92,0,0,1,6.66-11c.94-1,2.86-3.31,3.16-3.71a9.31,9.31,0,0,1,3.72-3.61c1.16-.56,2.27-1.23,3.44-1.75a25.1,25.1,0,0,1,4.11-1.37c2.89-.91,6.44-2,9.65-3a4.15,4.15,0,0,1,2.49-.46c1,.23-1.72,3.05-2,3.45a36.22,36.22,0,0,0-4.2,6c-1,2-1.91,4-2.88,6a23.71,23.71,0,0,0-1.34,3.67c-.74,2.33-1.46,4.67-2.17,7-.6,2.18-1.19,4.35-1.8,6.52-.69,2-1.3,4-2,6-2.35,7-3.68,11.11-8.78,16.74-2,2.36-3.89,4.73-5.76,7.16a85.8,85.8,0,0,1-5.75,7.1,25,25,0,0,1-3.51,3.08l-4.39,3.47a66.52,66.52,0,0,1-6,4.33q-1.41.86-2.87,1.65l.67-.22c3.93-1.41,7.79-3.06,11.59-4.82q3-1.66,6-3.12c5-2.49,10-5.46,13.38-10.07,1.73-2.1,2.7-4.66,4-7,.8-1.16,1.6-2.26,2.31-3.36a1.93,1.93,0,0,1-1-.75,5.5,5.5,0,0,1-1.17-2.17,4.49,4.49,0,0,1,2-4.36,4.87,4.87,0,0,1,3.07-.54l.41.14,0,0c.13-.14.25-.33.44-.4l.42,0,.17,0a.63.63,0,0,1,.61.36v0a1.54,1.54,0,0,1,.18.67,1,1,0,0,1-.34.62c.1.17.18.34.26.51a4.66,4.66,0,0,1,.46,2.32,4.58,4.58,0,0,1-.45,1.07,11.08,11.08,0,0,1-1,1.66,4.29,4.29,0,0,1-1.36.9,1.6,1.6,0,0,1-.6.29,3,3,0,0,1-.79,0,4.36,4.36,0,0,1-.8,0c-.5.78-1,1.54-1.54,2.3a11.19,11.19,0,0,0-1.52,2.54c-.53,1.19-1.13,2.35-1.77,3.48a27.5,27.5,0,0,1-6.15,7.14l-.1.08c1.29-.69,2.59-1.37,3.83-2.15,3.82-2.55,7.58-5.2,11.34-7.84,1-.85,2.08-1.66,3.08-2.53l.36-.31,2.42-2.26a65.31,65.31,0,0,0,4.48-5.06l0,0,0-.06c.13-.2.63-.93.9-1.37.81-1.25,1.8-2.84,2.12-3.51a61.34,61.34,0,0,0,2.47-6.2,45.22,45.22,0,0,0,1.86-6.81,26.58,26.58,0,0,1,1.1-3c.35-1,.61-2,.92-3q1.42-4.93,3-9.8a43,43,0,0,1,3.25-7.87,29.77,29.77,0,0,1,2.72-4.25,58.16,58.16,0,0,1,4.91-4.58C355,48.2,357,46.67,359,45.17a48.12,48.12,0,0,1,4.58-2.8c1.32-.78,3.35-1.78,4.18-2.3a7.73,7.73,0,0,1,2-1.18.43.43,0,0,1,.42,0,.21.21,0,0,1,.1.15c.09.56-.27,1-.48,1.53s-.53,1.16-.8,1.75c-1,2.39-2.29,5.16-2.95,7-1.64,4.29-3.23,8.6-4.82,12.91A73.41,73.41,0,0,1,354.69,76c-2.47,3.36-5,6.82-7.41,10.28a58.83,58.83,0,0,1-5.86,7.68,44.87,44.87,0,0,1-5.34,5c1.76-1.1,3.55-2.18,5.38-3.16,2-1.15,3.92-2.51,6-3.54l1-.51,2.89-1.17,2.19-.81.34-.18c1.1-.63,2.16-1.33,3.2-2.05,1.8-1.33,3.36-3,5.11-4.35a42.32,42.32,0,0,0,6.38-6.79,49,49,0,0,0,6.11-9.64A43.26,43.26,0,0,0,377,59.59c.55-1.91,1.23-3.79,1.92-5.65a15.9,15.9,0,0,1,1.62-2.69,14.2,14.2,0,0,1,3.14-3.69,23.8,23.8,0,0,1,3.85-2.43c1.77-.83,3.67-1.37,5.45-2.17a8.24,8.24,0,0,0,3.1-1.79c0-.47,0-.95,0-1.39s-.06-1-.09-1.53a.14.14,0,0,1,0-.13c.18-.2.54-.09.76,0a2.06,2.06,0,0,1,1.06,2.16,2.5,2.5,0,0,1-.39,1.25,31.61,31.61,0,0,1-.36,3.39c-.33,2.13-.55,4.29-1,6.4-.39,1.56-.93,3.08-1.45,4.61a37.74,37.74,0,0,1-1.92,4.52,15.72,15.72,0,0,1-2,3.58c-2.56,3-5.47,5.62-8.22,8.41-2.37,2.23-5,4.1-7.59,6.09-2.26,1.66-4.66,3.15-6.8,5A53.49,53.49,0,0,1,362.35,87c-.54.3-1.08.58-1.63.86a36.57,36.57,0,0,1-3.18,2c1.35-.43,2.7-.86,4-1.31,3-1,6-1.94,8.9-3.18l4.1-1.65L378,82a71.17,71.17,0,0,0,6.38-3.29A38.91,38.91,0,0,0,388.19,76c1.33-1.26,2.62-2.57,3.92-3.86,3.33-3.28,6.3-6.88,9.29-10.47.65-.75,1.31-1.48,2-2.21q1.62-2.58,3.15-5.21c1-1.85,1.91-3.71,2.8-5.6.38-.9.65-1.85,1.06-2.74a35.09,35.09,0,0,0,2.18-5.15c0-.55.17-1.78.18-2.61,0-1.52,0-3,.07-4.55a14.09,14.09,0,0,1,.71-4,12.46,12.46,0,0,1,1.5-2.84c1.71-1.45,3.75-2.55,5.31-4.19a9.37,9.37,0,0,0,1.9-2.57,7.84,7.84,0,0,1,1.52-2.73.77.77,0,0,1,.81.19c.21.23.2.6.32.88a10.09,10.09,0,0,1,.42,1.7,25.27,25.27,0,0,1-.6,4.5,36.25,36.25,0,0,1-1.44,5.55c-.92,2.36-2,4.67-3,7-1.32,2.59-2.49,5.25-3.9,7.79-1.5,2.27-3.19,4.43-4.79,6.64-1.36,1.65-2.64,3.36-4,5-2,2.3-4.2,4.45-6.14,6.82-1.79,2.11-3.53,4.26-5.43,6.27,4.13-3.69,8.12-7.53,12.13-11.35a.36.36,0,0,1-.14-.34,2,2,0,0,1,.31-.31,9.45,9.45,0,0,1,2.31-1.69c2.52-2.37,5.09-4.7,7.53-7.15,4.8-4.74,9.6-9.48,14.23-14.39l.09-.09a.34.34,0,0,1-.09-.22.11.11,0,0,1,.05-.1l.25-.27h0c.37-.4.75-.8,1.13-1.19l1.52-1.52a21.18,21.18,0,0,0,1.42-1.67,25.58,25.58,0,0,0,2.6-4.86c.5-1.08,1.09-2.11,1.66-3.14a23.41,23.41,0,0,1,2.13-3.41,33.73,33.73,0,0,1,5.63-5,46.49,46.49,0,0,1,4.86-3.26,9.06,9.06,0,0,0,1.32-1.18c.3-.25.56-.67,1-.5a1,1,0,0,1,.58.39,2.11,2.11,0,0,1,0,.64,9.15,9.15,0,0,0,0,1.54c.18,2.1.42,4.27-.33,6.29a12.09,12.09,0,0,1-.95,1.81,18.52,18.52,0,0,1-2.39,3.5,31.44,31.44,0,0,1-4.44,3.79c-1.07.71-1.77.92-2.64,1.42-1,.6-2,1.37-3.07,1.87s-2.18.83-3.26,1.27a22.74,22.74,0,0,0-4.27,2.85l-2.4,1.88L429.11,39c-4.87,4.88-9.69,9.81-14.71,14.53.59-.43,1.18-.87,1.76-1.32a71.46,71.46,0,0,1,6.33-4.52c1.48-.84,3-1.6,4.52-2.39a21.19,21.19,0,0,1,3.41-1.55c2-.63,4-1.26,6.07-1.75,1.39-.32,2.8-.49,4.21-.69a36.67,36.67,0,0,1,9.83-.24c.56.07,2.06.18,2.06.94-.06.12-.21.13-.32.16a6.27,6.27,0,0,0-1.38.6c-1.54.79-2.43,2.13-3.71,3.29a47.48,47.48,0,0,1-4.27,3.66,23.7,23.7,0,0,1-4.46,1.79,8.51,8.51,0,0,1-3,.71c-2.69.06-5.38.07-8.07.35-.61,0-1.22,0-1.75,0s-1.23.16-1.85.17a24,24,0,0,0-3.11-.07,19.87,19.87,0,0,0-5.16,2.11c-1,.55-2.69,1.28-3.36,1.58l-.24.14-.09.07c-1.56,1.22-3.08,2.49-4.61,3.74-4.9,4.72-9.79,9.46-15.08,13.74-1.7,1.36-3.33,2.81-5.08,4.1.71-.32,1.42-.63,2.14-.91,2.32-.87,4.73-1.49,7.11-2.19,1.92-.54,3.79-1.27,5.74-1.68a40,40,0,0,1,8.76-.75c3.54.19,7.1.18,10.62.55,2,.24,4,.67,6.06,1a52.12,52.12,0,0,1,7.82,2c2,.63,3.92,1.37,5.85,2.14.37.18.8.28,1.17.47h0a1.78,1.78,0,0,1,.34.23c.1.08.13.28,0,.33a.48.48,0,0,1-.34,0c-.38-.07-.71-.31-1.09-.35a4.35,4.35,0,0,0-2.3,1.16c-2.45,1.77-4.33,4.34-7.07,5.7a19.17,19.17,0,0,1-4.4,1.54,18.52,18.52,0,0,1-4.77.22,40.26,40.26,0,0,1-5.84-1.13c-1.12-.26-2.13-.8-3.21-1.16a65.59,65.59,0,0,0-24.31-2.77c-1.36.18-2.74.2-4.09.48a67.17,67.17,0,0,0-6.88,1.62c-1.52.45-2.95,1.13-4.43,1.68s-2.77.84-4.13,1.33c-1.62.54-3.09,1.62-4.84,1.72h-.55a5.44,5.44,0,0,0,.8-.1,14.36,14.36,0,0,0,3.56-1.71l-.49.18a64.64,64.64,0,0,1-9.26,2.73l-2.28.44-.36.12,4.06-.6c1.88-.33,3.73-.79,5.63-1a49.44,49.44,0,0,1,5.48-.14,21.31,21.31,0,0,1,3.12.3h0a3.44,3.44,0,0,1,3-1.91,4.75,4.75,0,0,1,3,1.16,2.8,2.8,0,0,1,.72.46,2.89,2.89,0,0,1,.64,1.09,5.06,5.06,0,0,1,.44.38l.34,0,.14-.07c.78-.42,2.13.37,1.92,1.17a.42.42,0,0,1,0,.19.78.78,0,0,1-.43.37,2.3,2.3,0,0,1-1.47.42,1.46,1.46,0,0,1-.52-.16,3.81,3.81,0,0,1-.13.59A3.68,3.68,0,0,1,380,95l-.12,0-.37.14a2.53,2.53,0,0,1-.9.06,5.05,5.05,0,0,1-1.79-.18c-1.67-.54-2.86-1.74-2.48-3.44a2.77,2.77,0,0,1,.1-1.22c-.46-.07-.95-.13-1.5-.17-1-.06-3.62-.07-5.14,0-2.41.12-4.2.65-6.66,1-2,.22-4.09.4-6.14.59l-.44,0c-1.7.59-3.84,1.32-5.57,1.8-1.71.64-3.4,1.31-5,2.1a65.74,65.74,0,0,0-6.2,3.64c-1.47,1.07-2.79,2.34-4.31,3.34s-2.86,1.78-4.23,2.71a27.68,27.68,0,0,1,5.64-2.45,19.63,19.63,0,0,1,4.61-1c.84,0,1.68.07,2.52.11a17.41,17.41,0,0,1,2.41.3,2.88,2.88,0,0,1,1-.77,1.53,1.53,0,0,1,1.16-.46c1.59,0,3.85.72,3.88,2.61a2.85,2.85,0,0,1-.14.82.71.71,0,0,1,.72.87c-.06.42-.31,1-.8,1a1.31,1.31,0,0,1-.31-.1l-.1,0a.73.73,0,0,1-.51-.16l-.23.23a2.84,2.84,0,0,1-4,0,4.17,4.17,0,0,1-1.14-2.76,20.07,20.07,0,0,0-2.9-.35,12.63,12.63,0,0,0-2.94,0A32.38,32.38,0,0,0,327.19,107c-.47.42-.95.84-1.43,1.24-1.67,1.25-3.39,2.44-5.07,3.67s-3.16,2.37-4.83,3.4L315,116a21.68,21.68,0,0,1-5.79,3.86,77.67,77.67,0,0,1,17.21-4.9c1.76-.23,3.5-.64,5.27-.79a42.83,42.83,0,0,1,6.94.19,27.16,27.16,0,0,1,7.69,1.48c1.38.47,2.68,1.12,4,1.71,1,.47,2.12.79,3.12,1.34a22.29,22.29,0,0,1,2.76,2.07l3.84,3a38.29,38.29,0,0,1,3.15,2.42,45.46,45.46,0,0,1,3.54,4.15,7.59,7.59,0,0,1,1,1.56,1.19,1.19,0,0,1-.54,1.08.24.24,0,0,1-.21,0,7.44,7.44,0,0,1-1.81-.6,23.08,23.08,0,0,0-2.51-1,31.43,31.43,0,0,0-5.16-1.17c-2.55-.35-5.11-.69-7.69-.86-1.55-.11-3.1,0-4.65-.08a37.31,37.31,0,0,0-10.11,1.57c-1.27.49-2.39,1.25-3.63,1.81a33.61,33.61,0,0,1-4.94,2c-2.44.74-4.84,1.67-7.34,2.2a86.91,86.91,0,0,1-9.9,1.11c-1.33.05-2.65.15-4,.08s-2.47-.25-3.7-.38c-2.94-.31-5.89-.6-8.83-.87-3.39-.29-6.8-.29-10.2-.25-2.43,0,.38-.2-2,0a10.7,10.7,0,0,1-3.15.4c-2.59.92-1.27,0-4.08,1.09a10.69,10.69,0,0,1-3.4,1.45,8.47,8.47,0,0,1-3.43,1.37c-1.17.45-3.26.81-4.26,1.09C258.62,143.22,253.1,142.74,247.71,142.06Z"/></g><g id="Long_violet_copy" data-name="Long violet copy"><path class="cls-2" d="M25.25,93.1v21H37.78v4.75H19.6V93.1Z"/><path class="cls-2" d="M47.39,105.92a5.93,5.93,0,0,1,.9-3,6.13,6.13,0,0,1,2-1.91,8.79,8.79,0,0,1,2.75-1,15.65,15.65,0,0,1,3.08-.31,20.88,20.88,0,0,1,2.84.2,8.74,8.74,0,0,1,2.63.77,5.18,5.18,0,0,1,1.94,1.6,4.48,4.48,0,0,1,.76,2.72v9.68a19.41,19.41,0,0,0,.14,2.41,4.34,4.34,0,0,0,.5,1.73H59.78a7.19,7.19,0,0,1-.23-.88,7.54,7.54,0,0,1-.13-.92,6.65,6.65,0,0,1-2.88,1.76,11.56,11.56,0,0,1-3.38.5,9.15,9.15,0,0,1-2.48-.32,5.69,5.69,0,0,1-2-1,4.69,4.69,0,0,1-1.35-1.73,5.84,5.84,0,0,1-.49-2.48,5.42,5.42,0,0,1,.56-2.61,4.67,4.67,0,0,1,1.44-1.64,6.49,6.49,0,0,1,2-.92,21.73,21.73,0,0,1,2.29-.49q1.15-.18,2.27-.29a13.61,13.61,0,0,0,2-.32,3.44,3.44,0,0,0,1.37-.63,1.38,1.38,0,0,0,.47-1.21,2.72,2.72,0,0,0-.27-1.31,2,2,0,0,0-.72-.76,2.83,2.83,0,0,0-1-.36,8.6,8.6,0,0,0-1.28-.09,3.88,3.88,0,0,0-2.38.65,2.89,2.89,0,0,0-1,2.16ZM59.2,109.7a2.28,2.28,0,0,1-.81.45,8.28,8.28,0,0,1-1,.27q-.56.11-1.17.18t-1.22.18a9.25,9.25,0,0,0-1.13.29,3.39,3.39,0,0,0-1,.49,2.31,2.31,0,0,0-.67.77,2.48,2.48,0,0,0-.25,1.19,2.4,2.4,0,0,0,.25,1.15,1.93,1.93,0,0,0,.68.74,2.89,2.89,0,0,0,1,.38,6.49,6.49,0,0,0,1.19.11,4.51,4.51,0,0,0,2.34-.5,3.38,3.38,0,0,0,1.22-1.21,3.86,3.86,0,0,0,.49-1.42,9.76,9.76,0,0,0,.09-1.15Z"/><path class="cls-2" d="M84,93.1l6,17.68h.07L95.74,93.1h8v25.7H98.4V100.59h-.07L92,118.8H87.68l-6.3-18H81.3v18H76V93.1Z"/><path class="cls-2" d="M120.8,114.34a5.24,5.24,0,0,0,6,.34,3.21,3.21,0,0,0,1.37-1.64h4.5a8.54,8.54,0,0,1-3.31,4.79,9.75,9.75,0,0,1-5.4,1.44,10.63,10.63,0,0,1-4-.7,8.24,8.24,0,0,1-3-2,9,9,0,0,1-1.89-3.1,11.32,11.32,0,0,1-.67-4,10.85,10.85,0,0,1,.68-3.89,9,9,0,0,1,5-5.18,9.64,9.64,0,0,1,3.87-.76,8.86,8.86,0,0,1,4.14.92,8.27,8.27,0,0,1,2.9,2.47,10.15,10.15,0,0,1,1.64,3.53,13.17,13.17,0,0,1,.36,4.14H119.54A5.17,5.17,0,0,0,120.8,114.34Zm5.78-9.79a3.59,3.59,0,0,0-2.79-1,4.45,4.45,0,0,0-2,.41,3.88,3.88,0,0,0-1.3,1,3.76,3.76,0,0,0-.68,1.3,5.84,5.84,0,0,0-.23,1.22h8.32A5.91,5.91,0,0,0,126.57,104.55Z"/><path class="cls-2" d="M143.33,97.31V93.1h5.11v4.21Zm5.11,2.88V118.8h-5.11V100.19Z"/><path class="cls-2" d="M164.93,93.1v25.7h-5.11V93.1Z"/><path class="cls-2" d="M181.42,93.1v25.7h-5.11V93.1Z"/><path class="cls-2" d="M198.12,114.34a5.24,5.24,0,0,0,6,.34,3.21,3.21,0,0,0,1.37-1.64H210a8.54,8.54,0,0,1-3.31,4.79,9.75,9.75,0,0,1-5.4,1.44,10.63,10.63,0,0,1-4-.7,8.24,8.24,0,0,1-3-2,9,9,0,0,1-1.89-3.1,11.32,11.32,0,0,1-.67-4,10.85,10.85,0,0,1,.68-3.89,9,9,0,0,1,5-5.18,9.64,9.64,0,0,1,3.87-.76,8.86,8.86,0,0,1,4.14.92,8.27,8.27,0,0,1,2.9,2.47,10.15,10.15,0,0,1,1.64,3.53,13.17,13.17,0,0,1,.36,4.14H196.86A5.17,5.17,0,0,0,198.12,114.34Zm5.78-9.79a3.59,3.59,0,0,0-2.79-1,4.45,4.45,0,0,0-2,.41,3.88,3.88,0,0,0-1.3,1,3.76,3.76,0,0,0-.68,1.3,5.84,5.84,0,0,0-.23,1.22h8.32A5.91,5.91,0,0,0,203.9,104.55Z"/><path class="cls-2" d="M233.12,118.8v-2.59H233a5.75,5.75,0,0,1-2.52,2.34,7.43,7.43,0,0,1-3.17.72,9,9,0,0,1-3.37-.54,4.86,4.86,0,0,1-2.07-1.53,6,6,0,0,1-1.06-2.41,15,15,0,0,1-.31-3.15V100.19h5.11V110.7a6.52,6.52,0,0,0,.72,3.44,2.79,2.79,0,0,0,2.56,1.13,3.54,3.54,0,0,0,3-1.24,6.91,6.91,0,0,0,.94-4.09v-9.76H238V118.8Z"/><path class="cls-2" d="M253.92,100.19v3.46H254a6.26,6.26,0,0,1,1-1.6,6.36,6.36,0,0,1,1.4-1.26,6.88,6.88,0,0,1,1.69-.81,6.12,6.12,0,0,1,1.87-.29,4,4,0,0,1,1.12.18v4.75q-.36-.07-.86-.13a9.1,9.1,0,0,0-1-.05,5.45,5.45,0,0,0-2.38.47,4.11,4.11,0,0,0-1.57,1.28,5.11,5.11,0,0,0-.85,1.89,10.26,10.26,0,0,0-.25,2.34v8.39h-5.11V100.19Z"/><path class="cls-2" d="M275.09,114.34a5.24,5.24,0,0,0,6,.34,3.21,3.21,0,0,0,1.37-1.64h4.5a8.54,8.54,0,0,1-3.31,4.79,9.75,9.75,0,0,1-5.4,1.44,10.63,10.63,0,0,1-4-.7,8.24,8.24,0,0,1-3-2,9,9,0,0,1-1.89-3.1,11.32,11.32,0,0,1-.67-4,10.85,10.85,0,0,1,.68-3.89,9,9,0,0,1,5-5.18,9.64,9.64,0,0,1,3.87-.76,8.86,8.86,0,0,1,4.14.92,8.27,8.27,0,0,1,2.9,2.47,10.15,10.15,0,0,1,1.64,3.53,13.17,13.17,0,0,1,.36,4.14H273.83A5.17,5.17,0,0,0,275.09,114.34Zm5.78-9.79a3.59,3.59,0,0,0-2.79-1,4.45,4.45,0,0,0-2,.41,3.88,3.88,0,0,0-1.3,1,3.76,3.76,0,0,0-.68,1.3,5.84,5.84,0,0,0-.23,1.22h8.32A5.91,5.91,0,0,0,280.87,104.55Z"/><path class="cls-2" d="M303.6,118.8l-8.32-25.7h5.8l5.72,18.07h.07l5.8-18.07h5.83L310,118.8Z"/><path class="cls-2" d="M330.85,114.34a5.24,5.24,0,0,0,6,.34A3.21,3.21,0,0,0,338.2,113h4.5a8.54,8.54,0,0,1-3.31,4.79,9.75,9.75,0,0,1-5.4,1.44,10.63,10.63,0,0,1-4-.7,8.24,8.24,0,0,1-3-2,9,9,0,0,1-1.89-3.1,11.32,11.32,0,0,1-.67-4,10.85,10.85,0,0,1,.68-3.89,9,9,0,0,1,5-5.18,9.64,9.64,0,0,1,3.87-.76,8.86,8.86,0,0,1,4.14.92,8.27,8.27,0,0,1,2.9,2.47,10.15,10.15,0,0,1,1.64,3.53,13.17,13.17,0,0,1,.36,4.14H329.59A5.17,5.17,0,0,0,330.85,114.34Zm5.78-9.79a3.59,3.59,0,0,0-2.79-1,4.45,4.45,0,0,0-2,.41,3.88,3.88,0,0,0-1.3,1,3.76,3.76,0,0,0-.68,1.3,5.84,5.84,0,0,0-.23,1.22h8.32A5.91,5.91,0,0,0,336.63,104.55Z"/><path class="cls-2" d="M358.11,100.19v3.46h.07a6.26,6.26,0,0,1,1-1.6,6.36,6.36,0,0,1,1.4-1.26,6.88,6.88,0,0,1,1.69-.81,6.12,6.12,0,0,1,1.87-.29,4,4,0,0,1,1.12.18v4.75q-.36-.07-.86-.13a9.1,9.1,0,0,0-1-.05,5.45,5.45,0,0,0-2.38.47,4.11,4.11,0,0,0-1.57,1.28,5.11,5.11,0,0,0-.85,1.89,10.26,10.26,0,0,0-.25,2.34v8.39h-5.11V100.19Z"/><path class="cls-2" d="M378.75,114.18a3,3,0,0,0,.88,1,3.78,3.78,0,0,0,1.24.56,5.84,5.84,0,0,0,1.46.18,5.4,5.4,0,0,0,1.13-.13,3.87,3.87,0,0,0,1.08-.4,2.45,2.45,0,0,0,.81-.72,1.89,1.89,0,0,0,.32-1.13q0-1.15-1.53-1.73a30.72,30.72,0,0,0-4.27-1.15q-1.12-.25-2.18-.59a7.38,7.38,0,0,1-1.89-.9,4.37,4.37,0,0,1-1.33-1.4,4,4,0,0,1-.5-2.07,5.6,5.6,0,0,1,.7-3,5.18,5.18,0,0,1,1.85-1.82,8.13,8.13,0,0,1,2.59-.94,16,16,0,0,1,3-.27A14.79,14.79,0,0,1,385,100a7.77,7.77,0,0,1,2.54,1,5.83,5.83,0,0,1,1.85,1.82,6.11,6.11,0,0,1,.88,2.86h-4.86a2.24,2.24,0,0,0-1.12-2,5.11,5.11,0,0,0-2.38-.52,8.78,8.78,0,0,0-.94.05,3.15,3.15,0,0,0-.92.23,1.91,1.91,0,0,0-.7.52,1.38,1.38,0,0,0-.29.92,1.4,1.4,0,0,0,.5,1.12,3.9,3.9,0,0,0,1.31.7,16.39,16.39,0,0,0,1.85.49l2.12.47a21.81,21.81,0,0,1,2.18.61,7.21,7.21,0,0,1,1.89,1,4.63,4.63,0,0,1,1.33,1.48,4.34,4.34,0,0,1,.5,2.18,5.65,5.65,0,0,1-2.66,5.08,7.88,7.88,0,0,1-2.72,1.06,15.83,15.83,0,0,1-3.11.31,15.43,15.43,0,0,1-3.17-.32,8.36,8.36,0,0,1-2.75-1.08,6.16,6.16,0,0,1-2-2,6.25,6.25,0,0,1-.85-3.11h4.86A2.79,2.79,0,0,0,378.75,114.18Z"/><path class="cls-2" d="M401.13,97.31V93.1h5.11v4.21Zm5.11,2.88V118.8h-5.11V100.19Z"/><path class="cls-2" d="M417.58,105.47a8.52,8.52,0,0,1,5-5.08,10.64,10.64,0,0,1,4-.7,10.78,10.78,0,0,1,4,.7,8.48,8.48,0,0,1,5,5.08,11.45,11.45,0,0,1,.68,4,11.3,11.3,0,0,1-.68,4,8.75,8.75,0,0,1-1.94,3.08,8.46,8.46,0,0,1-3,2,11,11,0,0,1-4,.68,10.88,10.88,0,0,1-4-.68,8.48,8.48,0,0,1-3-2,8.73,8.73,0,0,1-1.94-3.08,11.28,11.28,0,0,1-.68-4A11.43,11.43,0,0,1,417.58,105.47Zm4.64,6.23a5.79,5.79,0,0,0,.74,1.91,3.93,3.93,0,0,0,1.39,1.35,4.23,4.23,0,0,0,2.16.5,4.34,4.34,0,0,0,2.18-.5,3.88,3.88,0,0,0,1.4-1.35,5.79,5.79,0,0,0,.74-1.91,10.87,10.87,0,0,0,.22-2.18,11.13,11.13,0,0,0-.22-2.2,5.59,5.59,0,0,0-.74-1.91,4.1,4.1,0,0,0-1.4-1.35,4.22,4.22,0,0,0-2.18-.52,3.93,3.93,0,0,0-3.55,1.87,5.59,5.59,0,0,0-.74,1.91,11.13,11.13,0,0,0-.22,2.2A10.87,10.87,0,0,0,422.22,111.69Z"/><path class="cls-2" d="M451.52,100.19v2.59h.11a5.86,5.86,0,0,1,2.52-2.36,7.3,7.3,0,0,1,3.17-.74,8.68,8.68,0,0,1,3.37.56,5,5,0,0,1,2.07,1.55,6,6,0,0,1,1.06,2.41,15,15,0,0,1,.31,3.15V118.8H459V108.29a6.53,6.53,0,0,0-.72-3.44,2.79,2.79,0,0,0-2.56-1.13,3.54,3.54,0,0,0-3,1.24,6.9,6.9,0,0,0-.94,4.09v9.76h-5.11V100.19Z"/><path class="cls-2" d="M486.84,93.1a13.26,13.26,0,0,1,4.63.79,10.05,10.05,0,0,1,3.71,2.38,11,11,0,0,1,2.45,4,16,16,0,0,1,.88,5.58,17.79,17.79,0,0,1-.72,5.18,11.41,11.41,0,0,1-2.18,4.1,10.19,10.19,0,0,1-3.64,2.72,12.29,12.29,0,0,1-5.13,1H475.75V93.1Zm-.4,21a7.27,7.27,0,0,0,2.38-.4,5.22,5.22,0,0,0,2.05-1.31,6.6,6.6,0,0,0,1.44-2.39,10.52,10.52,0,0,0,.54-3.6,15,15,0,0,0-.38-3.51,7,7,0,0,0-1.24-2.68,5.51,5.51,0,0,0-2.29-1.71,9.13,9.13,0,0,0-3.51-.59h-4v16.2Z"/><path class="cls-2" d="M514.56,114.34a5.24,5.24,0,0,0,6,.34A3.21,3.21,0,0,0,521.9,113h4.5a8.54,8.54,0,0,1-3.31,4.79,9.75,9.75,0,0,1-5.4,1.44,10.63,10.63,0,0,1-4-.7,8.26,8.26,0,0,1-3-2,9,9,0,0,1-1.89-3.1,11.32,11.32,0,0,1-.67-4,10.85,10.85,0,0,1,.68-3.89,9,9,0,0,1,5-5.18,9.64,9.64,0,0,1,3.87-.76,8.86,8.86,0,0,1,4.14.92,8.27,8.27,0,0,1,2.9,2.47,10.14,10.14,0,0,1,1.64,3.53,13.15,13.15,0,0,1,.36,4.14H513.3A5.16,5.16,0,0,0,514.56,114.34Zm5.78-9.79a3.59,3.59,0,0,0-2.79-1,4.45,4.45,0,0,0-2,.41,3.89,3.89,0,0,0-1.3,1,3.77,3.77,0,0,0-.68,1.3,5.83,5.83,0,0,0-.23,1.22h8.32A5.92,5.92,0,0,0,520.34,104.55Z"/><path class="cls-2" d="M545.45,93.1l6,17.68h.07l5.69-17.68h8v25.7h-5.29V100.59h-.07l-6.3,18.22h-4.36l-6.3-18h-.07v18h-5.29V93.1Z"/><path class="cls-2" d="M576.91,105.47a8.52,8.52,0,0,1,5-5.08,10.64,10.64,0,0,1,4-.7,10.78,10.78,0,0,1,4,.7,8.48,8.48,0,0,1,5,5.08,11.45,11.45,0,0,1,.68,4,11.3,11.3,0,0,1-.68,4,8.75,8.75,0,0,1-1.94,3.08,8.46,8.46,0,0,1-3,2,11,11,0,0,1-4,.68,10.88,10.88,0,0,1-4-.68,8.48,8.48,0,0,1-3-2,8.73,8.73,0,0,1-1.94-3.08,11.28,11.28,0,0,1-.68-4A11.43,11.43,0,0,1,576.91,105.47Zm4.64,6.23a5.79,5.79,0,0,0,.74,1.91,3.93,3.93,0,0,0,1.39,1.35,4.23,4.23,0,0,0,2.16.5A4.34,4.34,0,0,0,588,115a3.88,3.88,0,0,0,1.4-1.35,5.79,5.79,0,0,0,.74-1.91,10.87,10.87,0,0,0,.22-2.18,11.13,11.13,0,0,0-.22-2.2,5.59,5.59,0,0,0-.74-1.91,4.1,4.1,0,0,0-1.4-1.35,4.22,4.22,0,0,0-2.18-.52,3.93,3.93,0,0,0-3.55,1.87,5.59,5.59,0,0,0-.74,1.91,11.13,11.13,0,0,0-.22,2.2A10.87,10.87,0,0,0,581.56,111.69Z"/><path class="cls-2" d="M606.14,97.31V93.1h5.11v4.21Zm5.11,2.88V118.8h-5.11V100.19Z"/></g><g id="Cartouche"><rect class="cls-3" x="310.4" y="135" width="298.3" height="23.65"/></g><g id="Texte_sur_cartouche" data-name="Texte sur cartouche"><path class="cls-2" d="M320.89,153.77V141.31h5.05a5.29,5.29,0,0,1,4.1,1.46q1.34,1.46,1.34,4.85a6.91,6.91,0,0,1-1.32,4.67,5.24,5.24,0,0,1-4.12,1.48Zm2.11-1.62h2.61a5,5,0,0,0,2-.36,2.36,2.36,0,0,0,1.22-1.34,7.7,7.7,0,0,0,.41-2.83,8.63,8.63,0,0,0-.37-2.84,2.43,2.43,0,0,0-1.17-1.41,4.7,4.7,0,0,0-2.12-.41H323Z"/><path class="cls-2" d="M334.42,153.77V141.31h8.69V143h-6.58v3.77h5.86v1.63h-5.86v3.79h6.58v1.63Zm3.23-13.31L339.1,137H341l-1.63,3.43Z"/><path class="cls-2" d="M350.13,153.77l-4.76-12.46h2.19l3.73,10.2,3.73-10.2h2.19l-4.72,12.46Z"/><path class="cls-2" d="M360,153.77V141.31h8.69V143h-6.58v3.77h5.86v1.63h-5.86v3.79h6.58v1.63Z"/><path class="cls-2" d="M371.57,153.77V141.31h2.11v10.84h6.39v1.63Z"/><path class="cls-2" d="M387.63,154a5.81,5.81,0,0,1-4.43-1.56,6.83,6.83,0,0,1-1.47-4.83q0-3.4,1.47-4.93a7.2,7.2,0,0,1,8.87,0q1.46,1.53,1.46,4.93a6.86,6.86,0,0,1-1.46,4.83A5.81,5.81,0,0,1,387.63,154Zm0-1.78a3.58,3.58,0,0,0,2.87-1.07,5.42,5.42,0,0,0,.92-3.53,5.51,5.51,0,0,0-.92-3.63,4.48,4.48,0,0,0-5.73,0,5.5,5.5,0,0,0-.92,3.63,5.42,5.42,0,0,0,.92,3.53A3.55,3.55,0,0,0,387.63,152.19Z"/><path class="cls-2" d="M396.55,153.77V141.31h5.55a4.64,4.64,0,0,1,2.36.54,3.35,3.35,0,0,1,1.37,1.48,4.93,4.93,0,0,1,.45,2.14,4,4,0,0,1-1.15,3,4.26,4.26,0,0,1-3.11,1.12h-3.37v4.2Zm2.11-5.86h3a2.53,2.53,0,0,0,1.9-.66,2.45,2.45,0,0,0,.64-1.78,2.64,2.64,0,0,0-.61-1.86,2.37,2.37,0,0,0-1.83-.66h-3.08Z"/><path class="cls-2" d="M408.93,153.77V141.31h5.55a4.64,4.64,0,0,1,2.36.54,3.35,3.35,0,0,1,1.37,1.48,4.93,4.93,0,0,1,.45,2.14,4,4,0,0,1-1.15,3,4.26,4.26,0,0,1-3.11,1.12H411v4.2Zm2.11-5.86h3a2.53,2.53,0,0,0,1.9-.66,2.45,2.45,0,0,0,.64-1.78,2.64,2.64,0,0,0-.61-1.86,2.37,2.37,0,0,0-1.83-.66H411Z"/><path class="cls-2" d="M421.32,153.77V141.31H430V143h-6.58v3.77h5.86v1.63h-5.86v3.79H430v1.63Z"/><path class="cls-2" d="M432.93,153.77V141.31h2.17l3.95,8.07,3.93-8.07h2.17v12.46H443v-9l-3.37,6.89H438.4L435,144.74v9Z"/><path class="cls-2" d="M448.54,153.77V141.31h8.69V143h-6.58v3.77h5.86v1.63h-5.86v3.79h6.58v1.63Z"/><path class="cls-2" d="M460.15,153.77V141.31H462l6.5,9.17v-9.17h2.09v12.46h-1.86l-6.48-9.15v9.15Z"/><path class="cls-2" d="M477.26,153.77V143h-4v-1.65h10.06V143h-4v10.82Z"/><path class="cls-2" d="M491.4,153.77V141.31H497a4.64,4.64,0,0,1,2.36.54,3.35,3.35,0,0,1,1.37,1.48,4.93,4.93,0,0,1,.45,2.14,4,4,0,0,1-1.15,3,4.26,4.26,0,0,1-3.11,1.12h-3.37v4.2Zm2.11-5.86h3a2.53,2.53,0,0,0,1.9-.66,2.45,2.45,0,0,0,.64-1.78,2.64,2.64,0,0,0-.61-1.86,2.37,2.37,0,0,0-1.83-.66h-3.08Z"/><path class="cls-2" d="M503.78,153.77V141.31h8.69V143h-6.58v3.77h5.86v1.63h-5.86v3.79h6.58v1.63Z"/><path class="cls-2" d="M515.39,153.77V141.31h5.73a3.89,3.89,0,0,1,3,1.07,4.21,4.21,0,0,1,1,2.91,3.78,3.78,0,0,1-.66,2.25,3.42,3.42,0,0,1-1.9,1.3,2.16,2.16,0,0,1,.54.54,4.37,4.37,0,0,1,.39.77l1.57,3.62H522.9l-1.53-3.48a1.64,1.64,0,0,0-.51-.72,1.82,1.82,0,0,0-1-.21H517.5v4.41Zm2.11-6.11h3.06a2.69,2.69,0,0,0,1.8-.56,2.25,2.25,0,0,0,.66-1.8,2,2,0,0,0-2.26-2.34H517.5Z"/><path class="cls-2" d="M531.94,154a10.18,10.18,0,0,1-3.89-.62v-1.86a11.89,11.89,0,0,0,1.79.5,9.62,9.62,0,0,0,1.91.19,5.53,5.53,0,0,0,2.24-.35,1.38,1.38,0,0,0,.74-1.39,1.59,1.59,0,0,0-.31-1,2.42,2.42,0,0,0-1-.67,16.43,16.43,0,0,0-2-.59,6.33,6.33,0,0,1-2.83-1.33,3,3,0,0,1-.81-2.22A3.07,3.07,0,0,1,529,142a5.78,5.78,0,0,1,3.58-.93,12.77,12.77,0,0,1,2,.16,8.91,8.91,0,0,1,1.5.35v1.86a9.05,9.05,0,0,0-3.25-.56,5.16,5.16,0,0,0-2.17.37,1.35,1.35,0,0,0-.77,1.33,1.44,1.44,0,0,0,.27.91,2.1,2.1,0,0,0,.94.6q.67.25,1.85.56a8.37,8.37,0,0,1,2.37.92,3.08,3.08,0,0,1,1.18,1.24,3.65,3.65,0,0,1,.34,1.6,3.08,3.08,0,0,1-1.22,2.58A6,6,0,0,1,531.94,154Z"/><path class="cls-2" d="M545.39,154a5.81,5.81,0,0,1-4.43-1.56,6.83,6.83,0,0,1-1.47-4.83q0-3.4,1.47-4.93a7.2,7.2,0,0,1,8.87,0q1.46,1.53,1.46,4.93a6.86,6.86,0,0,1-1.46,4.83A5.81,5.81,0,0,1,545.39,154Zm0-1.78a3.58,3.58,0,0,0,2.87-1.07,5.42,5.42,0,0,0,.92-3.53,5.51,5.51,0,0,0-.92-3.63,4.48,4.48,0,0,0-5.73,0,5.5,5.5,0,0,0-.92,3.63,5.42,5.42,0,0,0,.92,3.53A3.55,3.55,0,0,0,545.39,152.19Z"/><path class="cls-2" d="M554.31,153.77V141.31h1.86l6.5,9.17v-9.17h2.09v12.46H562.9l-6.48-9.15v9.15Z"/><path class="cls-2" d="M568.18,153.77V141.31H570l6.5,9.17v-9.17h2.09v12.46h-1.86l-6.48-9.15v9.15Z"/><path class="cls-2" d="M582.05,153.77V141.31h8.69V143h-6.58v3.77H590v1.63h-5.86v3.79h6.58v1.63Z"/><path class="cls-2" d="M593.66,153.77V141.31h2.11v10.84h6.39v1.63Z"/></g></svg>