<svg xmlns="http://www.w3.org/2000/svg" viewBox="0 0 935 243"><defs><style>.cls-1,.cls-2{fill:#b07d92;}.cls-1{opacity:1;}.cls-3{font-size:14.32px;font-family:HelveticaNeue-Bold, Helvetica Neue;font-weight:700;}.cls-3,.cls-4,.cls-5{fill:#421556;}.cls-4{stroke:#fff;stroke-miterlimit:10;stroke-width:3px;}</style></defs><title>Artboard 1</title><g id="Cercle_feuilles_copy_2" data-name="Cercle+feuilles copy 2"><circle class="cls-1" cx="129.63" cy="220.03" r="2.5" transform="translate(-70 60.77) rotate(-20.91)"/><path class="cls-2" d="M179.63,47.16a93.37,93.37,0,1,0-62.48,170.4,1,1,0,0,1,.8,1.07.94.94,0,0,1-1.07.78A95.25,95.25,0,1,1,179.46,44.8Z"/><path class="cls-2" d="M208.38,172.49c3.27-4.72,4.14-7.61,3.72-9.31-.1-1.11,0-2.11-.13-3.17a9.49,9.49,0,0,0-.82-1.85,42.81,42.81,0,0,0-2.69-4.15c-.84-1.07-1.81-2-2.75-3-.66-.76-1.32-1.52-2-2.31-1-1.24-2.33-3-3.18-3.78a20,20,0,0,0-2.24-1.75,41.57,41.57,0,0,1-6.71-5.67,22.75,22.75,0,0,1-3.54-5.28c-.25-.63-.89-2-1-2.19a4.61,4.61,0,0,1-.85-2.42c0-.64-.08-1.27-.07-1.91a12.43,12.43,0,0,1,.24-2.13c.19-1.49.45-3.3.65-5a2.05,2.05,0,0,1,.31-1.22c.31-.39,1,1.41,1.12,1.63a17.94,17.94,0,0,0,1.81,3.13c.67.88,1.41,1.7,2.11,2.55a11.74,11.74,0,0,0,1.37,1.37c.89.82,1.8,1.63,2.7,2.44s1.71,1.44,2.55,2.17,1.52,1.42,2.29,2.13c2.66,2.52,4.23,4,5.69,7.44.65,1.37,1.31,2.74,2,4.08a42.5,42.5,0,0,1,2,4.07,12.38,12.38,0,0,1,.65,2.22l.64,2.7a33,33,0,0,1,.7,3.58q.09.82.14,1.64l0-.35c.19-2.06.25-4.14.25-6.21-.08-1.12-.13-2.24-.14-3.37a17.44,17.44,0,0,0-1.74-8.11,19.56,19.56,0,0,0-2.33-3.25c-.35-.6-.68-1.19-1-1.74a1,1,0,0,1-.55.31,2.72,2.72,0,0,1-1.22.07,2.22,2.22,0,0,1-1.55-1.79,2.41,2.41,0,0,1,.4-1.49l.15-.16v0a.67.67,0,0,1-.09-.28l.07-.2a.54.54,0,0,1,0-.08.31.31,0,0,1,.29-.2h0a.76.76,0,0,1,.34.06.5.5,0,0,1,.21.28h.29a2.31,2.31,0,0,1,1.14.28,2.27,2.27,0,0,1,.39.43,5.49,5.49,0,0,1,.54.79,2.12,2.12,0,0,1,.12.8.79.79,0,0,1,0,.33,1.46,1.46,0,0,1-.15.37,2.16,2.16,0,0,1-.17.36c.24.39.48.78.71,1.17a5.54,5.54,0,0,0,.82,1.21c.42.49.82,1,1.2,1.52a13.62,13.62,0,0,1,1.92,4.25v.06c0-.72-.08-1.45-.17-2.17-.35-2.25-.76-4.49-1.16-6.73-.17-.64-.31-1.28-.5-1.91l-.07-.23-.51-1.56a32.35,32.35,0,0,0-1.34-3.07h0l0,0c-.06-.1-.29-.48-.43-.69-.39-.62-.9-1.4-1.14-1.69A30.38,30.38,0,0,0,205.5,123a22.4,22.4,0,0,0-2.67-2.26,13.17,13.17,0,0,1-1.12-1.12c-.37-.37-.78-.7-1.17-1q-1.92-1.67-3.77-3.41a21.32,21.32,0,0,1-2.86-3.1,14.74,14.74,0,0,1-1.34-2.11,28.81,28.81,0,0,1-1-3.16c-.34-1.19-.62-2.4-.87-3.61a23.83,23.83,0,0,1-.3-2.64c-.07-.76-.1-1.88-.16-2.36a3.83,3.83,0,0,1-.11-1.15.21.21,0,0,1,.1-.18.11.11,0,0,1,.09,0c.27.07.41.34.59.53l.62.72c.86,1,1.84,2.1,2.53,2.78,1.59,1.63,3.19,3.24,4.79,4.86a36.36,36.36,0,0,1,4.81,5.8c1,1.81,2,3.65,3.07,5.47a29.14,29.14,0,0,1,2.23,4.23,22.23,22.23,0,0,1,1.11,3.43c-.13-1-.24-2-.3-3.08s-.31-2.29-.34-3.44c0-.19,0-.36,0-.55l.08-1.54c0-.38.06-.76.09-1.15v-.19c-.05-.63-.15-1.25-.26-1.87-.22-1.09-.63-2.13-.89-3.2a21,21,0,0,0-1.72-4.28,24.29,24.29,0,0,0-3.06-4.75,21.43,21.43,0,0,0-2.71-2.5c-.74-.65-1.45-1.34-2.14-2a7.88,7.88,0,0,1-.87-1.29,7,7,0,0,1-1-2.18,11.79,11.79,0,0,1-.29-2.24c0-1,.15-1.93.16-2.9a4.08,4.08,0,0,0-.16-1.77c-.21-.11-.42-.21-.62-.29l-.71-.28a.07.07,0,0,1-.05,0c-.05-.12.07-.26.15-.34a1,1,0,0,1,1.19,0,1.24,1.24,0,0,1,.48.44,15.66,15.66,0,0,1,1.45.87c.89.59,1.81,1.14,2.66,1.79.62.5,1.19,1.06,1.77,1.61a18.69,18.69,0,0,1,1.63,1.81,7.79,7.79,0,0,1,1.2,1.63c.8,1.77,1.39,3.63,2.07,5.45.51,1.53.8,3.11,1.15,4.68.27,1.36.44,2.75.81,4.09a26.49,26.49,0,0,1,.41,3.32c0,.3,0,.61,0,.91a18.12,18.12,0,0,1,.22,1.84c.09-.7.18-1.39.25-2.09.18-1.55.38-3.1.43-4.66l.12-2.19q0-.95,0-1.9a35.25,35.25,0,0,0-.15-3.55,19.27,19.27,0,0,0-.47-2.28c-.29-.86-.61-1.71-.92-2.57-.78-2.18-1.78-4.27-2.77-6.36-.2-.45-.39-.9-.58-1.35q-.82-1.27-1.68-2.5c-.63-.82-1.27-1.63-1.93-2.43-.32-.36-.7-.68-1-1a17.38,17.38,0,0,0-1.86-2.05c-.24-.13-.76-.45-1.13-.62-.68-.32-1.37-.61-2-1A7,7,0,0,1,195,75.49a6.17,6.17,0,0,1-1-1.27A30.74,30.74,0,0,0,193.3,71a4.64,4.64,0,0,0-.76-1.39,3.89,3.89,0,0,1-.91-1.25.38.38,0,0,1,.25-.32c.15,0,.31,0,.46,0a5,5,0,0,1,.85.17,12.52,12.52,0,0,1,1.9,1.21,18,18,0,0,1,2.19,1.8c.87.91,1.69,1.86,2.5,2.81.89,1.13,1.84,2.22,2.68,3.38s1.32,2.36,2,3.54c.46,1,1,1.89,1.38,2.85.61,1.39,1.12,2.82,1.79,4.18s1.18,2.48,1.69,3.75c-.8-2.62-1.69-5.22-2.57-7.82a.18.18,0,0,1-.18,0,1,1,0,0,1-.08-.21,4.68,4.68,0,0,1-.28-1.39c-.54-1.63-1.05-3.27-1.64-4.87-1.13-3.14-2.26-6.29-3.5-9.39l0-.06a.17.17,0,0,1-.12,0,.06.06,0,0,1,0,0l-.07-.17h0c-.1-.25-.2-.5-.3-.75l-.37-1a10.49,10.49,0,0,0-.45-1,12.67,12.67,0,0,0-1.64-2.18c-.38-.45-.72-.93-1.06-1.4a11.6,11.6,0,0,1-1.09-1.67,16.71,16.71,0,0,1-1.05-3.56,23,23,0,0,1-.45-2.86,4.49,4.49,0,0,0-.26-.84c0-.19-.18-.39,0-.55a.48.48,0,0,1,.29-.18,1,1,0,0,1,.29.13,4.53,4.53,0,0,0,.7.31,7,7,0,0,1,2.75,1.46,6,6,0,0,1,.62.8,9.17,9.17,0,0,1,1.07,1.8,15.57,15.57,0,0,1,.78,2.79c.1.63,0,1,.09,1.48s.2,1.17.2,1.77-.08,1.15-.11,1.73a11.26,11.26,0,0,0,.39,2.51c.11.49.23,1,.34,1.47l1,2.44c1.18,3.2,2.39,6.4,3.46,9.64-.07-.36-.14-.71-.23-1.07a35.39,35.39,0,0,1-.71-3.79c-.07-.84-.09-1.69-.13-2.53a10.49,10.49,0,0,1,0-1.86c.13-1,.27-2.07.48-3.09.15-.69.37-1.36.57-2a18.16,18.16,0,0,1,1.94-4.47c.15-.24.51-.89.85-.73,0,.05,0,.12,0,.18a3.1,3.1,0,0,0,0,.74,9.13,9.13,0,0,0,.71,2.35,23.52,23.52,0,0,1,.75,2.68,11.74,11.74,0,0,1-.13,2.38,4.22,4.22,0,0,1-.3,1.49c-.53,1.22-1.09,2.43-1.52,3.7-.11.28-.25.55-.36.79s-.18.59-.31.86a11.89,11.89,0,0,0-.68,1.38,9.84,9.84,0,0,0-.13,2.76c0,.56,0,1.48,0,1.84,0,0,0,.09,0,.14v.06c.23,1,.48,1.9.72,2.85,1.1,3.19,2.21,6.37,3,9.64.26,1,.57,2.08.78,3.14,0-.38,0-.77,0-1.15.09-1.23.32-2.44.5-3.65.16-1,.22-2,.44-2.93a19.8,19.8,0,0,1,1.49-4.09c.82-1.55,1.56-3.15,2.46-4.66.53-.87,1.14-1.68,1.73-2.5a25.81,25.81,0,0,1,2.55-3.09c.7-.76,1.43-1.47,2.18-2.18.16-.13.29-.3.45-.43h0a.88.88,0,0,1,.18-.11c.06,0,.15,0,.15.07a.24.24,0,0,1-.06.16c-.11.15-.29.25-.39.42a2.15,2.15,0,0,0,0,1.28c.28,1.47,1,2.85,1.08,4.37a9.5,9.5,0,0,1-.23,2.3,9.17,9.17,0,0,1-.9,2.19,19.94,19.94,0,0,1-1.73,2.39c-.35.45-.8.79-1.19,1.2a25,25,0,0,0-3.41,4.5,25.06,25.06,0,0,0-2.9,5.84c-.2.65-.48,1.27-.64,1.94a33.27,33.27,0,0,0-.71,3.43c-.11.78-.11,1.56-.17,2.34s-.2,1.42-.26,2.13a9.63,9.63,0,0,1-.23,2.53c0,.08-.07.17-.11.25a2.69,2.69,0,0,0,.12-.38,7.12,7.12,0,0,0,0-2l0,.26a32,32,0,0,1-.7,4.73c-.09.37-.18.74-.28,1.11l0,.19c.2-.68.44-1.5.58-2,.24-.91.42-1.84.72-2.74a24.49,24.49,0,0,1,1.08-2.49,10.56,10.56,0,0,1,.79-1.34h0a1.7,1.7,0,0,1-.22-1.76,2.35,2.35,0,0,1,1.15-1.11,1.39,1.39,0,0,1,.35-.23,1.43,1.43,0,0,1,.62-.06l.26-.12.06-.16a.75.75,0,0,1,0-.08c0-.44.61-.88.93-.62l.08,0a.38.38,0,0,1,.08.27,1.14,1.14,0,0,1-.12.75.73.73,0,0,1-.18.2,1.89,1.89,0,0,1,.24.18,1.82,1.82,0,0,1,.21,1.42v.06c0,.07,0,.13,0,.2a1.25,1.25,0,0,1-.16.42,2.5,2.5,0,0,1-.46.76,1.48,1.48,0,0,1-2.06.39,1.37,1.37,0,0,1-.53-.3c-.13.19-.25.4-.39.64-.23.42-.79,1.61-1.06,2.31-.45,1.11-.58,2-1,3.19-.33,1-.67,1.92-1,2.88l-.07.21c-.09.89-.21,2-.35,2.88s-.12,1.8-.11,2.71a32.56,32.56,0,0,0,.34,3.55c.17.88.47,1.74.6,2.63s.2,1.66.33,2.47a13.71,13.71,0,0,1,.07-3,9.72,9.72,0,0,1,.53-2.27c.17-.38.38-.74.58-1.11a8.62,8.62,0,0,1,.64-1,1.43,1.43,0,0,1-.14-.62.76.76,0,0,1,0-.62c.33-.71,1.13-1.58,2-1.2a1.41,1.41,0,0,1,.34.23.35.35,0,0,1,.54-.14c.18.11.38.34.28.56a.65.65,0,0,1-.11.12v0a.36.36,0,0,1-.18.2l.05.15a1.41,1.41,0,0,1-.83,1.8,2.07,2.07,0,0,1-1.48-.06,9.94,9.94,0,0,0-.76,1.23,6.25,6.25,0,0,0-.61,1.32,16,16,0,0,0-.64,5.66c.09.3.18.6.26.9.21,1,.39,2,.59,3s.4,1.91.52,2.88l.16.52a10.74,10.74,0,0,1,.53,3.41,38.47,38.47,0,0,1,1.39-8.75c.26-.84.44-1.7.74-2.53a21.21,21.21,0,0,1,1.53-3.08,13.45,13.45,0,0,1,2.27-3.15c.5-.52,1.06-1,1.6-1.44s.8-.79,1.25-1.12a11,11,0,0,1,1.51-.81l2.17-1.09a19,19,0,0,1,1.74-.91,22.52,22.52,0,0,1,2.6-.72,3.76,3.76,0,0,1,.9-.11.59.59,0,0,1,.37.47.12.12,0,0,1,0,.1,3.68,3.68,0,0,1-.65.69,11.43,11.43,0,0,0-1,.93,15.57,15.57,0,0,0-1.6,2.07c-.69,1.07-1.38,2.15-2,3.27-.37.67-.67,1.38-1,2.07a18.48,18.48,0,0,0-1.4,4.87c0,.67.06,1.34.05,2a16.65,16.65,0,0,1-.15,2.63c-.18,1.25-.26,2.52-.54,3.76a43.05,43.05,0,0,1-1.56,4.68c-.25.61-.48,1.22-.79,1.8s-.63,1.05-.94,1.58q-1.13,1.89-2.23,3.79c-.84,1.46-1.55,3-2.24,4.53-.53,1.08,0-.21-.42.92a5.3,5.3,0,0,1-.48,1.5c-.13,1.36-.24.58-.36,2.06a5.3,5.3,0,0,1-.06,1.83,2.81,2.81,0,0,1-.23,1.81,10.37,10.37,0,0,1-.59,2.13,25.08,25.08,0,0,1-3.28,5.55"/></g><g id="Layer_3" data-name="Layer 3"><path class="cls-2" d="M208.38,172.49a93.18,93.18,0,0,1-67,45.94,1,1,0,0,0-.76,1.1.94.94,0,0,0,1.1.74,95.39,95.39,0,0,0,68.75-47.78"/></g><g id="Textes_copy_2" data-name="Textes copy 2"><text class="cls-3" transform="translate(143.45 192.7) rotate(169.73)">D</text><text class="cls-3" transform="matrix(-1, 0, 0, -1, 130.55, 194.76)">É</text><text class="cls-3" transform="translate(118.79 194.58) rotate(-170.74)">V</text><text class="cls-3" transform="translate(107.48 192.54) rotate(-161.39)">E</text><text class="cls-3" transform="translate(96.39 188.56) rotate(-152.22)">L</text><text class="cls-3" transform="translate(86.74 183.37) rotate(-142.3)">O</text><text class="cls-3" transform="translate(76.18 174.83) rotate(-131.89)">P</text><text class="cls-3" transform="matrix(-0.53, -0.85, 0.85, -0.53, 68.32, 165.75)">P</text><text class="cls-3" transform="matrix(-0.38, -0.92, 0.92, -0.38, 62.11, 155.45)">E</text><text class="cls-3" transform="translate(57.65 144.6) rotate(-101.65)">M</text><text class="cls-3" transform="translate(54.94 129.44) rotate(-90.61)">E</text><text class="cls-3" transform="translate(54.98 117.68) rotate(-80.55)">N</text><text class="cls-3" transform="matrix(0.33, -0.94, 0.94, 0.33, 57.41, 104.83)">T</text><text class="cls-3" transform="matrix(0.44, -0.9, 0.9, 0.44, 61.42, 94.28)"> </text><text class="cls-3" transform="matrix(0.56, -0.83, 0.83, 0.56, 64.32, 88.41)">P</text><text class="cls-3" transform="translate(71.23 78.54) rotate(-46.39)">E</text><text class="cls-3" transform="translate(79.45 70.15) rotate(-36.39)">R</text><text class="cls-3" transform="translate(89.88 62.78) rotate(-26.51)">S</text><text class="cls-3" transform="matrix(0.96, -0.28, 0.28, 0.96, 100.48, 57.65)">O</text><text class="cls-3" transform="translate(113.58 54.07) rotate(-5.52)">N</text><text class="cls-3" transform="translate(126.56 53.04) rotate(5.07)">N</text><text class="cls-3" transform="matrix(0.97, 0.26, -0.26, 0.97, 139.56, 54.47)">E</text><text class="cls-3" transform="matrix(0.91, 0.41, -0.41, 0.91, 150.88, 57.76)">L</text><path class="cls-4" d="M103.42,102.24v28.54h17.06v6.47H95.72v-35Z"/><path class="cls-4" d="M133.57,119.7a8.08,8.08,0,0,1,1.23-4.07,8.35,8.35,0,0,1,2.75-2.6,12,12,0,0,1,3.75-1.4,21.31,21.31,0,0,1,4.19-.42,28.44,28.44,0,0,1,3.87.27,11.9,11.9,0,0,1,3.58,1.05,7.05,7.05,0,0,1,2.65,2.18,6.1,6.1,0,0,1,1,3.7v13.19a26.44,26.44,0,0,0,.2,3.29,5.92,5.92,0,0,0,.69,2.35h-7.06a9.79,9.79,0,0,1-.32-1.2,10.26,10.26,0,0,1-.17-1.25,9.05,9.05,0,0,1-3.92,2.4,15.75,15.75,0,0,1-4.61.69,12.46,12.46,0,0,1-3.38-.44,7.74,7.74,0,0,1-2.75-1.37,6.39,6.39,0,0,1-1.84-2.35,8,8,0,0,1-.66-3.38,7.38,7.38,0,0,1,.76-3.55,6.36,6.36,0,0,1,2-2.23,8.85,8.85,0,0,1,2.75-1.25,29.6,29.6,0,0,1,3.11-.66q1.57-.25,3.09-.39a18.54,18.54,0,0,0,2.7-.44,4.69,4.69,0,0,0,1.86-.86,1.88,1.88,0,0,0,.64-1.64,3.7,3.7,0,0,0-.37-1.79,2.72,2.72,0,0,0-1-1,3.86,3.86,0,0,0-1.42-.49,11.72,11.72,0,0,0-1.74-.12,5.29,5.29,0,0,0-3.24.88,3.94,3.94,0,0,0-1.37,2.94Zm16.08,5.15a3.11,3.11,0,0,1-1.1.61,11.27,11.27,0,0,1-1.42.37q-.76.15-1.59.24t-1.67.25a12.6,12.6,0,0,0-1.54.39,4.62,4.62,0,0,0-1.32.66,3.14,3.14,0,0,0-.91,1.05,3.38,3.38,0,0,0-.34,1.62,3.27,3.27,0,0,0,.34,1.57,2.63,2.63,0,0,0,.93,1,3.94,3.94,0,0,0,1.37.51,8.84,8.84,0,0,0,1.62.15,6.14,6.14,0,0,0,3.19-.69,4.6,4.6,0,0,0,1.67-1.64,5.26,5.26,0,0,0,.66-1.94,13.3,13.3,0,0,0,.12-1.57Z"/><path class="cls-4" d="M183.39,102.24l8.19,24.07h.1l7.75-24.07h10.84v35H203V112.44h-.1l-8.58,24.81h-5.93l-8.58-24.56h-.1v24.56h-7.21v-35Z"/><path class="cls-4" d="M233.54,131.17a7.14,7.14,0,0,0,8.14.47,4.37,4.37,0,0,0,1.86-2.23h6.13a11.63,11.63,0,0,1-4.51,6.52,13.28,13.28,0,0,1-7.35,2,14.48,14.48,0,0,1-5.39-1,11.23,11.23,0,0,1-4.07-2.72,12.23,12.23,0,0,1-2.57-4.22,15.42,15.42,0,0,1-.91-5.39,14.78,14.78,0,0,1,.93-5.29,12.25,12.25,0,0,1,6.74-7.06,13.13,13.13,0,0,1,5.27-1,12.07,12.07,0,0,1,5.64,1.25,11.26,11.26,0,0,1,3.95,3.36,13.82,13.82,0,0,1,2.23,4.8,17.93,17.93,0,0,1,.49,5.64H231.83Q232,129.65,233.54,131.17Zm7.87-13.34a4.89,4.89,0,0,0-3.8-1.37,6.07,6.07,0,0,0-2.77.56,5.29,5.29,0,0,0-1.76,1.4,5.12,5.12,0,0,0-.93,1.77,8,8,0,0,0-.32,1.67h11.33A8,8,0,0,0,241.41,117.83Z"/><path class="cls-4" d="M264.23,108v-5.74h7V108Zm7,3.92v25.35h-7V111.9Z"/><path class="cls-4" d="M293.65,102.24v35h-7v-35Z"/><path class="cls-4" d="M316.11,102.24v35h-7v-35Z"/><path class="cls-4" d="M338.86,131.17a7.14,7.14,0,0,0,8.14.47,4.37,4.37,0,0,0,1.86-2.23H355a11.63,11.63,0,0,1-4.51,6.52,13.28,13.28,0,0,1-7.35,2,14.48,14.48,0,0,1-5.39-1,11.23,11.23,0,0,1-4.07-2.72,12.23,12.23,0,0,1-2.57-4.22,15.42,15.42,0,0,1-.91-5.39,14.78,14.78,0,0,1,.93-5.29,12.25,12.25,0,0,1,6.74-7.06,13.13,13.13,0,0,1,5.27-1,12.07,12.07,0,0,1,5.64,1.25,11.26,11.26,0,0,1,3.95,3.36,13.82,13.82,0,0,1,2.23,4.8,17.93,17.93,0,0,1,.49,5.64H337.14Q337.29,129.65,338.86,131.17Zm7.87-13.34a4.89,4.89,0,0,0-3.8-1.37,6.07,6.07,0,0,0-2.77.56,5.29,5.29,0,0,0-1.76,1.4,5.12,5.12,0,0,0-.93,1.77,8,8,0,0,0-.32,1.67h11.33A8,8,0,0,0,346.72,117.83Z"/><path class="cls-4" d="M386.51,137.25v-3.53h-.15a7.83,7.83,0,0,1-3.43,3.19,10.12,10.12,0,0,1-4.31,1,12.2,12.2,0,0,1-4.58-.73,6.62,6.62,0,0,1-2.82-2.08,8.15,8.15,0,0,1-1.45-3.29,20.42,20.42,0,0,1-.42-4.29V111.9h7v14.32a8.87,8.87,0,0,0,1,4.68,3.8,3.8,0,0,0,3.48,1.55,4.82,4.82,0,0,0,4.12-1.69q1.27-1.69,1.27-5.56V111.9h7v25.35Z"/><path class="cls-4" d="M414.85,111.9v4.71h.1a8.53,8.53,0,0,1,1.32-2.18,8.67,8.67,0,0,1,1.91-1.72,9.37,9.37,0,0,1,2.3-1.1,8.34,8.34,0,0,1,2.55-.39,5.43,5.43,0,0,1,1.52.25v6.47q-.49-.1-1.18-.17a12.39,12.39,0,0,0-1.32-.07,7.43,7.43,0,0,0-3.24.64,5.59,5.59,0,0,0-2.13,1.74,7,7,0,0,0-1.15,2.57,14,14,0,0,0-.34,3.19v11.42h-7V111.9Z"/><path class="cls-4" d="M443.68,131.17a7.14,7.14,0,0,0,8.14.47,4.37,4.37,0,0,0,1.86-2.23h6.13a11.63,11.63,0,0,1-4.51,6.52,13.28,13.28,0,0,1-7.35,2,14.48,14.48,0,0,1-5.39-1,11.23,11.23,0,0,1-4.07-2.72,12.23,12.23,0,0,1-2.57-4.22,15.42,15.42,0,0,1-.91-5.39,14.78,14.78,0,0,1,.93-5.29,12.25,12.25,0,0,1,6.74-7.06,13.13,13.13,0,0,1,5.27-1,12.07,12.07,0,0,1,5.64,1.25,11.26,11.26,0,0,1,3.95,3.36,13.82,13.82,0,0,1,2.23,4.8,17.93,17.93,0,0,1,.49,5.64H442Q442.11,129.65,443.68,131.17Zm7.87-13.34a4.89,4.89,0,0,0-3.8-1.37A6.07,6.07,0,0,0,445,117a5.29,5.29,0,0,0-1.76,1.4,5.12,5.12,0,0,0-.93,1.77,8,8,0,0,0-.32,1.67h11.33A8,8,0,0,0,451.55,117.83Z"/><path class="cls-4" d="M482.51,137.25l-11.33-35h7.89l7.8,24.61h.1l7.89-24.61h7.94l-11.62,35Z"/><path class="cls-4" d="M519.62,131.17a7.14,7.14,0,0,0,8.14.47,4.37,4.37,0,0,0,1.86-2.23h6.13a11.63,11.63,0,0,1-4.51,6.52,13.28,13.28,0,0,1-7.35,2,14.48,14.48,0,0,1-5.39-1,11.23,11.23,0,0,1-4.07-2.72,12.23,12.23,0,0,1-2.57-4.22,15.42,15.42,0,0,1-.91-5.39,14.78,14.78,0,0,1,.93-5.29,12.25,12.25,0,0,1,6.74-7.06,13.13,13.13,0,0,1,5.27-1,12.07,12.07,0,0,1,5.64,1.25,11.26,11.26,0,0,1,3.95,3.36,13.82,13.82,0,0,1,2.23,4.8,17.93,17.93,0,0,1,.49,5.64H517.91Q518.05,129.65,519.62,131.17Zm7.87-13.34a4.89,4.89,0,0,0-3.8-1.37,6.07,6.07,0,0,0-2.77.56,5.29,5.29,0,0,0-1.76,1.4,5.12,5.12,0,0,0-.93,1.77,8,8,0,0,0-.32,1.67h11.33A8,8,0,0,0,527.49,117.83Z"/><path class="cls-4" d="M556.74,111.9v4.71h.1a8.53,8.53,0,0,1,1.32-2.18,8.67,8.67,0,0,1,1.91-1.72,9.37,9.37,0,0,1,2.3-1.1,8.34,8.34,0,0,1,2.55-.39,5.43,5.43,0,0,1,1.52.25v6.47q-.49-.1-1.18-.17a12.39,12.39,0,0,0-1.32-.07,7.43,7.43,0,0,0-3.24.64,5.59,5.59,0,0,0-2.13,1.74,7,7,0,0,0-1.15,2.57,14,14,0,0,0-.34,3.19v11.42h-7V111.9Z"/><path class="cls-4" d="M584.86,130.95a4.06,4.06,0,0,0,1.2,1.32,5.15,5.15,0,0,0,1.69.76,8,8,0,0,0,2,.24,7.36,7.36,0,0,0,1.54-.17,5.27,5.27,0,0,0,1.47-.54,3.34,3.34,0,0,0,1.1-1,2.58,2.58,0,0,0,.44-1.54q0-1.57-2.08-2.35a41.83,41.83,0,0,0-5.81-1.57q-1.52-.34-3-.81a10.05,10.05,0,0,1-2.57-1.23,6,6,0,0,1-1.81-1.91,5.41,5.41,0,0,1-.69-2.82,7.63,7.63,0,0,1,1-4,7,7,0,0,1,2.52-2.48,11.07,11.07,0,0,1,3.53-1.27,21.8,21.8,0,0,1,4-.37,20.14,20.14,0,0,1,4,.39,10.58,10.58,0,0,1,3.46,1.32,7.94,7.94,0,0,1,2.52,2.48,8.32,8.32,0,0,1,1.2,3.9H594a3,3,0,0,0-1.52-2.72,7,7,0,0,0-3.24-.71,12,12,0,0,0-1.27.07,4.29,4.29,0,0,0-1.25.32,2.59,2.59,0,0,0-1,.71,1.88,1.88,0,0,0-.39,1.25,1.91,1.91,0,0,0,.69,1.52,5.31,5.31,0,0,0,1.79,1,22.32,22.32,0,0,0,2.52.66q1.42.3,2.89.64a29.71,29.71,0,0,1,3,.83,9.81,9.81,0,0,1,2.57,1.3,6.3,6.3,0,0,1,1.81,2,5.9,5.9,0,0,1,.69,3,7.7,7.7,0,0,1-3.63,6.91,10.73,10.73,0,0,1-3.7,1.45,21.56,21.56,0,0,1-4.24.42,21,21,0,0,1-4.31-.44,11.38,11.38,0,0,1-3.75-1.47,8.4,8.4,0,0,1-2.7-2.72,8.51,8.51,0,0,1-1.15-4.24h6.62A3.81,3.81,0,0,0,584.86,130.95Z"/><path class="cls-4" d="M615.33,108v-5.74h7V108Zm7,3.92v25.35h-7V111.9Z"/><path class="cls-4" d="M637.73,119.08a11.6,11.6,0,0,1,6.77-6.91,14.49,14.49,0,0,1,5.39-1,14.68,14.68,0,0,1,5.42,1,11.55,11.55,0,0,1,6.79,6.91,15.59,15.59,0,0,1,.93,5.52,15.39,15.39,0,0,1-.93,5.49,11.91,11.91,0,0,1-2.65,4.19,11.52,11.52,0,0,1-4.14,2.67,15,15,0,0,1-5.42.93,14.82,14.82,0,0,1-5.39-.93,11.55,11.55,0,0,1-4.12-2.67,11.89,11.89,0,0,1-2.65-4.19,15.36,15.36,0,0,1-.93-5.49A15.56,15.56,0,0,1,637.73,119.08Zm6.33,8.48a7.89,7.89,0,0,0,1,2.6A5.35,5.35,0,0,0,647,132a5.76,5.76,0,0,0,2.94.69,5.9,5.9,0,0,0,3-.69,5.28,5.28,0,0,0,1.91-1.84,7.89,7.89,0,0,0,1-2.6,14.8,14.8,0,0,0,.29-3,15.15,15.15,0,0,0-.29-3,7.62,7.62,0,0,0-1-2.6,5.58,5.58,0,0,0-1.91-1.84,5.74,5.74,0,0,0-3-.71,5.35,5.35,0,0,0-4.83,2.55,7.62,7.62,0,0,0-1,2.6,15.15,15.15,0,0,0-.29,3A14.8,14.8,0,0,0,644.06,127.57Z"/><path class="cls-4" d="M684,111.9v3.53h.15a8,8,0,0,1,3.43-3.21,9.94,9.94,0,0,1,4.31-1,11.82,11.82,0,0,1,4.58.76,6.8,6.8,0,0,1,2.82,2.11,8.16,8.16,0,0,1,1.45,3.29,20.42,20.42,0,0,1,.42,4.29v15.59h-7V122.93a8.9,8.9,0,0,0-1-4.68,3.8,3.8,0,0,0-3.48-1.54,4.82,4.82,0,0,0-4.12,1.69q-1.28,1.69-1.28,5.56v13.29h-7V111.9Z"/><path class="cls-4" d="M732.06,102.24a18.05,18.05,0,0,1,6.3,1.08,13.69,13.69,0,0,1,5,3.24,14.94,14.94,0,0,1,3.33,5.39,21.82,21.82,0,0,1,1.2,7.6,24.23,24.23,0,0,1-1,7.06,15.54,15.54,0,0,1-3,5.59,13.87,13.87,0,0,1-5,3.7,16.73,16.73,0,0,1-7,1.35H717v-35Zm-.54,28.54a9.9,9.9,0,0,0,3.24-.54,7.11,7.11,0,0,0,2.79-1.79,9,9,0,0,0,2-3.26,14.33,14.33,0,0,0,.74-4.9,20.41,20.41,0,0,0-.51-4.78,9.53,9.53,0,0,0-1.69-3.65,7.5,7.5,0,0,0-3.11-2.33,12.43,12.43,0,0,0-4.78-.81h-5.49v22.06Z"/><path class="cls-4" d="M769.82,131.17a7.14,7.14,0,0,0,8.14.47,4.37,4.37,0,0,0,1.86-2.23h6.13a11.63,11.63,0,0,1-4.51,6.52,13.28,13.28,0,0,1-7.35,2,14.48,14.48,0,0,1-5.39-1,11.25,11.25,0,0,1-4.07-2.72A12.26,12.26,0,0,1,762,130a15.42,15.42,0,0,1-.91-5.39,14.78,14.78,0,0,1,.93-5.29,12.25,12.25,0,0,1,6.74-7.06,13.13,13.13,0,0,1,5.27-1,12.07,12.07,0,0,1,5.64,1.25,11.27,11.27,0,0,1,3.95,3.36,13.81,13.81,0,0,1,2.23,4.8,17.91,17.91,0,0,1,.49,5.64H768.1Q768.25,129.65,769.82,131.17Zm7.87-13.34a4.89,4.89,0,0,0-3.8-1.37,6.07,6.07,0,0,0-2.77.56,5.29,5.29,0,0,0-1.76,1.4,5.13,5.13,0,0,0-.93,1.77,7.94,7.94,0,0,0-.32,1.67h11.32A8.06,8.06,0,0,0,777.69,117.83Z"/><path class="cls-4" d="M811.88,102.24l8.19,24.07h.1l7.75-24.07h10.84v35h-7.21V112.44h-.1l-8.58,24.81h-5.93l-8.58-24.56h-.1v24.56H801v-35Z"/><path class="cls-4" d="M854.73,119.08a11.6,11.6,0,0,1,6.77-6.91,14.49,14.49,0,0,1,5.39-1,14.68,14.68,0,0,1,5.42,1,11.55,11.55,0,0,1,6.79,6.91,15.59,15.59,0,0,1,.93,5.52,15.39,15.39,0,0,1-.93,5.49,11.91,11.91,0,0,1-2.65,4.19,11.52,11.52,0,0,1-4.14,2.67,15,15,0,0,1-5.42.93,14.82,14.82,0,0,1-5.39-.93,11.55,11.55,0,0,1-4.12-2.67,11.89,11.89,0,0,1-2.65-4.19,15.36,15.36,0,0,1-.93-5.49A15.56,15.56,0,0,1,854.73,119.08Zm6.33,8.48a7.89,7.89,0,0,0,1,2.6A5.35,5.35,0,0,0,864,132a5.76,5.76,0,0,0,2.94.69,5.9,5.9,0,0,0,3-.69,5.28,5.28,0,0,0,1.91-1.84,7.89,7.89,0,0,0,1-2.6,14.8,14.8,0,0,0,.29-3,15.15,15.15,0,0,0-.29-3,7.62,7.62,0,0,0-1-2.6,5.58,5.58,0,0,0-1.91-1.84,5.74,5.74,0,0,0-3-.71,5.35,5.35,0,0,0-4.83,2.55,7.62,7.62,0,0,0-1,2.6,15.15,15.15,0,0,0-.29,3A14.8,14.8,0,0,0,861.06,127.57Z"/><path class="cls-4" d="M894.54,108v-5.74h7V108Zm7,3.92v25.35h-7V111.9Z"/><path class="cls-5" d="M103.42,102.24v28.54h17.06v6.47H95.72v-35Z"/><path class="cls-5" d="M133.57,119.7a8.08,8.08,0,0,1,1.23-4.07,8.35,8.35,0,0,1,2.75-2.6,12,12,0,0,1,3.75-1.4,21.31,21.31,0,0,1,4.19-.42,28.44,28.44,0,0,1,3.87.27,11.9,11.9,0,0,1,3.58,1.05,7.05,7.05,0,0,1,2.65,2.18,6.1,6.1,0,0,1,1,3.7v13.19a26.44,26.44,0,0,0,.2,3.29,5.92,5.92,0,0,0,.69,2.35h-7.06a9.79,9.79,0,0,1-.32-1.2,10.26,10.26,0,0,1-.17-1.25,9.05,9.05,0,0,1-3.92,2.4,15.75,15.75,0,0,1-4.61.69,12.46,12.46,0,0,1-3.38-.44,7.74,7.74,0,0,1-2.75-1.37,6.39,6.39,0,0,1-1.84-2.35,8,8,0,0,1-.66-3.38,7.38,7.38,0,0,1,.76-3.55,6.36,6.36,0,0,1,2-2.23,8.85,8.85,0,0,1,2.75-1.25,29.6,29.6,0,0,1,3.11-.66q1.57-.25,3.09-.39a18.54,18.54,0,0,0,2.7-.44,4.69,4.69,0,0,0,1.86-.86,1.88,1.88,0,0,0,.64-1.64,3.7,3.7,0,0,0-.37-1.79,2.72,2.72,0,0,0-1-1,3.86,3.86,0,0,0-1.42-.49,11.72,11.72,0,0,0-1.74-.12,5.29,5.29,0,0,0-3.24.88,3.94,3.94,0,0,0-1.37,2.94Zm16.08,5.15a3.11,3.11,0,0,1-1.1.61,11.27,11.27,0,0,1-1.42.37q-.76.15-1.59.24t-1.67.25a12.6,12.6,0,0,0-1.54.39,4.62,4.62,0,0,0-1.32.66,3.14,3.14,0,0,0-.91,1.05,3.38,3.38,0,0,0-.34,1.62,3.27,3.27,0,0,0,.34,1.57,2.63,2.63,0,0,0,.93,1,3.94,3.94,0,0,0,1.37.51,8.84,8.84,0,0,0,1.62.15,6.14,6.14,0,0,0,3.19-.69,4.6,4.6,0,0,0,1.67-1.64,5.26,5.26,0,0,0,.66-1.94,13.3,13.3,0,0,0,.12-1.57Z"/><path class="cls-5" d="M183.39,102.24l8.19,24.07h.1l7.75-24.07h10.84v35H203V112.44h-.1l-8.58,24.81h-5.93l-8.58-24.56h-.1v24.56h-7.21v-35Z"/><path class="cls-5" d="M233.54,131.17a7.14,7.14,0,0,0,8.14.47,4.37,4.37,0,0,0,1.86-2.23h6.13a11.63,11.63,0,0,1-4.51,6.52,13.28,13.28,0,0,1-7.35,2,14.48,14.48,0,0,1-5.39-1,11.23,11.23,0,0,1-4.07-2.72,12.23,12.23,0,0,1-2.57-4.22,15.42,15.42,0,0,1-.91-5.39,14.78,14.78,0,0,1,.93-5.29,12.25,12.25,0,0,1,6.74-7.06,13.13,13.13,0,0,1,5.27-1,12.07,12.07,0,0,1,5.64,1.25,11.26,11.26,0,0,1,3.95,3.36,13.82,13.82,0,0,1,2.23,4.8,17.93,17.93,0,0,1,.49,5.64H231.83Q232,129.65,233.54,131.17Zm7.87-13.34a4.89,4.89,0,0,0-3.8-1.37,6.07,6.07,0,0,0-2.77.56,5.29,5.29,0,0,0-1.76,1.4,5.12,5.12,0,0,0-.93,1.77,8,8,0,0,0-.32,1.67h11.33A8,8,0,0,0,241.41,117.83Z"/><path class="cls-5" d="M264.23,108v-5.74h7V108Zm7,3.92v25.35h-7V111.9Z"/><path class="cls-5" d="M293.65,102.24v35h-7v-35Z"/><path class="cls-5" d="M316.11,102.24v35h-7v-35Z"/><path class="cls-5" d="M338.86,131.17a7.14,7.14,0,0,0,8.14.47,4.37,4.37,0,0,0,1.86-2.23H355a11.63,11.63,0,0,1-4.51,6.52,13.28,13.28,0,0,1-7.35,2,14.48,14.48,0,0,1-5.39-1,11.23,11.23,0,0,1-4.07-2.72,12.23,12.23,0,0,1-2.57-4.22,15.42,15.42,0,0,1-.91-5.39,14.78,14.78,0,0,1,.93-5.29,12.25,12.25,0,0,1,6.74-7.06,13.13,13.13,0,0,1,5.27-1,12.07,12.07,0,0,1,5.64,1.25,11.26,11.26,0,0,1,3.95,3.36,13.82,13.82,0,0,1,2.23,4.8,17.93,17.93,0,0,1,.49,5.64H337.14Q337.29,129.65,338.86,131.17Zm7.87-13.34a4.89,4.89,0,0,0-3.8-1.37,6.07,6.07,0,0,0-2.77.56,5.29,5.29,0,0,0-1.76,1.4,5.12,5.12,0,0,0-.93,1.77,8,8,0,0,0-.32,1.67h11.33A8,8,0,0,0,346.72,117.83Z"/><path class="cls-5" d="M386.51,137.25v-3.53h-.15a7.83,7.83,0,0,1-3.43,3.19,10.12,10.12,0,0,1-4.31,1,12.2,12.2,0,0,1-4.58-.73,6.62,6.62,0,0,1-2.82-2.08,8.15,8.15,0,0,1-1.45-3.29,20.42,20.42,0,0,1-.42-4.29V111.9h7v14.32a8.87,8.87,0,0,0,1,4.68,3.8,3.8,0,0,0,3.48,1.55,4.82,4.82,0,0,0,4.12-1.69q1.27-1.69,1.27-5.56V111.9h7v25.35Z"/><path class="cls-5" d="M414.85,111.9v4.71h.1a8.53,8.53,0,0,1,1.32-2.18,8.67,8.67,0,0,1,1.91-1.72,9.37,9.37,0,0,1,2.3-1.1,8.34,8.34,0,0,1,2.55-.39,5.43,5.43,0,0,1,1.52.25v6.47q-.49-.1-1.18-.17a12.39,12.39,0,0,0-1.32-.07,7.43,7.43,0,0,0-3.24.64,5.59,5.59,0,0,0-2.13,1.74,7,7,0,0,0-1.15,2.57,14,14,0,0,0-.34,3.19v11.42h-7V111.9Z"/><path class="cls-5" d="M443.68,131.17a7.14,7.14,0,0,0,8.14.47,4.37,4.37,0,0,0,1.86-2.23h6.13a11.63,11.63,0,0,1-4.51,6.52,13.28,13.28,0,0,1-7.35,2,14.48,14.48,0,0,1-5.39-1,11.23,11.23,0,0,1-4.07-2.72,12.23,12.23,0,0,1-2.57-4.22,15.42,15.42,0,0,1-.91-5.39,14.78,14.78,0,0,1,.93-5.29,12.25,12.25,0,0,1,6.74-7.06,13.13,13.13,0,0,1,5.27-1,12.07,12.07,0,0,1,5.64,1.25,11.26,11.26,0,0,1,3.95,3.36,13.82,13.82,0,0,1,2.23,4.8,17.93,17.93,0,0,1,.49,5.64H442Q442.11,129.65,443.68,131.17Zm7.87-13.34a4.89,4.89,0,0,0-3.8-1.37A6.07,6.07,0,0,0,445,117a5.29,5.29,0,0,0-1.76,1.4,5.12,5.12,0,0,0-.93,1.77,8,8,0,0,0-.32,1.67h11.33A8,8,0,0,0,451.55,117.83Z"/><path class="cls-5" d="M482.51,137.25l-11.33-35h7.89l7.8,24.61h.1l7.89-24.61h7.94l-11.62,35Z"/><path class="cls-5" d="M519.62,131.17a7.14,7.14,0,0,0,8.14.47,4.37,4.37,0,0,0,1.86-2.23h6.13a11.63,11.63,0,0,1-4.51,6.52,13.28,13.28,0,0,1-7.35,2,14.48,14.48,0,0,1-5.39-1,11.23,11.23,0,0,1-4.07-2.72,12.23,12.23,0,0,1-2.57-4.22,15.42,15.42,0,0,1-.91-5.39,14.78,14.78,0,0,1,.93-5.29,12.25,12.25,0,0,1,6.74-7.06,13.13,13.13,0,0,1,5.27-1,12.07,12.07,0,0,1,5.64,1.25,11.26,11.26,0,0,1,3.95,3.36,13.82,13.82,0,0,1,2.23,4.8,17.93,17.93,0,0,1,.49,5.64H517.91Q518.05,129.65,519.62,131.17Zm7.87-13.34a4.89,4.89,0,0,0-3.8-1.37,6.07,6.07,0,0,0-2.77.56,5.29,5.29,0,0,0-1.76,1.4,5.12,5.12,0,0,0-.93,1.77,8,8,0,0,0-.32,1.67h11.33A8,8,0,0,0,527.49,117.83Z"/><path class="cls-5" d="M556.74,111.9v4.71h.1a8.53,8.53,0,0,1,1.32-2.18,8.67,8.67,0,0,1,1.91-1.72,9.37,9.37,0,0,1,2.3-1.1,8.34,8.34,0,0,1,2.55-.39,5.43,5.43,0,0,1,1.52.25v6.47q-.49-.1-1.18-.17a12.39,12.39,0,0,0-1.32-.07,7.43,7.43,0,0,0-3.24.64,5.59,5.59,0,0,0-2.13,1.74,7,7,0,0,0-1.15,2.57,14,14,0,0,0-.34,3.19v11.42h-7V111.9Z"/><path class="cls-5" d="M584.86,130.95a4.06,4.06,0,0,0,1.2,1.32,5.15,5.15,0,0,0,1.69.76,8,8,0,0,0,2,.24,7.36,7.36,0,0,0,1.54-.17,5.27,5.27,0,0,0,1.47-.54,3.34,3.34,0,0,0,1.1-1,2.58,2.58,0,0,0,.44-1.54q0-1.57-2.08-2.35a41.83,41.83,0,0,0-5.81-1.57q-1.52-.34-3-.81a10.05,10.05,0,0,1-2.57-1.23,6,6,0,0,1-1.81-1.91,5.41,5.41,0,0,1-.69-2.82,7.63,7.63,0,0,1,1-4,7,7,0,0,1,2.52-2.48,11.07,11.07,0,0,1,3.53-1.27,21.8,21.8,0,0,1,4-.37,20.14,20.14,0,0,1,4,.39,10.58,10.58,0,0,1,3.46,1.32,7.94,7.94,0,0,1,2.52,2.48,8.32,8.32,0,0,1,1.2,3.9H594a3,3,0,0,0-1.52-2.72,7,7,0,0,0-3.24-.71,12,12,0,0,0-1.27.07,4.29,4.29,0,0,0-1.25.32,2.59,2.59,0,0,0-1,.71,1.88,1.88,0,0,0-.39,1.25,1.91,1.91,0,0,0,.69,1.52,5.31,5.31,0,0,0,1.79,1,22.32,22.32,0,0,0,2.52.66q1.42.3,2.89.64a29.71,29.71,0,0,1,3,.83,9.81,9.81,0,0,1,2.57,1.3,6.3,6.3,0,0,1,1.81,2,5.9,5.9,0,0,1,.69,3,7.7,7.7,0,0,1-3.63,6.91,10.73,10.73,0,0,1-3.7,1.45,21.56,21.56,0,0,1-4.24.42,21,21,0,0,1-4.31-.44,11.38,11.38,0,0,1-3.75-1.47,8.4,8.4,0,0,1-2.7-2.72,8.51,8.51,0,0,1-1.15-4.24h6.62A3.81,3.81,0,0,0,584.86,130.95Z"/><path class="cls-5" d="M615.33,108v-5.74h7V108Zm7,3.92v25.35h-7V111.9Z"/><path class="cls-5" d="M637.73,119.08a11.6,11.6,0,0,1,6.77-6.91,14.49,14.49,0,0,1,5.39-1,14.68,14.68,0,0,1,5.42,1,11.55,11.55,0,0,1,6.79,6.91,15.59,15.59,0,0,1,.93,5.52,15.39,15.39,0,0,1-.93,5.49,11.91,11.91,0,0,1-2.65,4.19,11.52,11.52,0,0,1-4.14,2.67,15,15,0,0,1-5.42.93,14.82,14.82,0,0,1-5.39-.93,11.55,11.55,0,0,1-4.12-2.67,11.89,11.89,0,0,1-2.65-4.19,15.36,15.36,0,0,1-.93-5.49A15.56,15.56,0,0,1,637.73,119.08Zm6.33,8.48a7.89,7.89,0,0,0,1,2.6A5.35,5.35,0,0,0,647,132a5.76,5.76,0,0,0,2.94.69,5.9,5.9,0,0,0,3-.69,5.28,5.28,0,0,0,1.91-1.84,7.89,7.89,0,0,0,1-2.6,14.8,14.8,0,0,0,.29-3,15.15,15.15,0,0,0-.29-3,7.62,7.62,0,0,0-1-2.6,5.58,5.58,0,0,0-1.91-1.84,5.74,5.74,0,0,0-3-.71,5.35,5.35,0,0,0-4.83,2.55,7.62,7.62,0,0,0-1,2.6,15.15,15.15,0,0,0-.29,3A14.8,14.8,0,0,0,644.06,127.57Z"/><path class="cls-5" d="M684,111.9v3.53h.15a8,8,0,0,1,3.43-3.21,9.94,9.94,0,0,1,4.31-1,11.82,11.82,0,0,1,4.58.76,6.8,6.8,0,0,1,2.82,2.11,8.16,8.16,0,0,1,1.45,3.29,20.42,20.42,0,0,1,.42,4.29v15.59h-7V122.93a8.9,8.9,0,0,0-1-4.68,3.8,3.8,0,0,0-3.48-1.54,4.82,4.82,0,0,0-4.12,1.69q-1.28,1.69-1.28,5.56v13.29h-7V111.9Z"/><path class="cls-5" d="M732.06,102.24a18.05,18.05,0,0,1,6.3,1.08,13.69,13.69,0,0,1,5,3.24,14.94,14.94,0,0,1,3.33,5.39,21.82,21.82,0,0,1,1.2,7.6,24.23,24.23,0,0,1-1,7.06,15.54,15.54,0,0,1-3,5.59,13.87,13.87,0,0,1-5,3.7,16.73,16.73,0,0,1-7,1.35H717v-35Zm-.54,28.54a9.9,9.9,0,0,0,3.24-.54,7.11,7.11,0,0,0,2.79-1.79,9,9,0,0,0,2-3.26,14.33,14.33,0,0,0,.74-4.9,20.41,20.41,0,0,0-.51-4.78,9.53,9.53,0,0,0-1.69-3.65,7.5,7.5,0,0,0-3.11-2.33,12.43,12.43,0,0,0-4.78-.81h-5.49v22.06Z"/><path class="cls-5" d="M769.82,131.17a7.14,7.14,0,0,0,8.14.47,4.37,4.37,0,0,0,1.86-2.23h6.13a11.63,11.63,0,0,1-4.51,6.52,13.28,13.28,0,0,1-7.35,2,14.48,14.48,0,0,1-5.39-1,11.25,11.25,0,0,1-4.07-2.72A12.26,12.26,0,0,1,762,130a15.42,15.42,0,0,1-.91-5.39,14.78,14.78,0,0,1,.93-5.29,12.25,12.25,0,0,1,6.74-7.06,13.13,13.13,0,0,1,5.27-1,12.07,12.07,0,0,1,5.64,1.25,11.27,11.27,0,0,1,3.95,3.36,13.81,13.81,0,0,1,2.23,4.8,17.91,17.91,0,0,1,.49,5.64H768.1Q768.25,129.65,769.82,131.17Zm7.87-13.34a4.89,4.89,0,0,0-3.8-1.37,6.07,6.07,0,0,0-2.77.56,5.29,5.29,0,0,0-1.76,1.4,5.13,5.13,0,0,0-.93,1.77,7.94,7.94,0,0,0-.32,1.67h11.32A8.06,8.06,0,0,0,777.69,117.83Z"/><path class="cls-5" d="M811.88,102.24l8.19,24.07h.1l7.75-24.07h10.84v35h-7.21V112.44h-.1l-8.58,24.81h-5.93l-8.58-24.56h-.1v24.56H801v-35Z"/><path class="cls-5" d="M854.73,119.08a11.6,11.6,0,0,1,6.77-6.91,14.49,14.49,0,0,1,5.39-1,14.68,14.68,0,0,1,5.42,1,11.55,11.55,0,0,1,6.79,6.91,15.59,15.59,0,0,1,.93,5.52,15.39,15.39,0,0,1-.93,5.49,11.91,11.91,0,0,1-2.65,4.19,11.52,11.52,0,0,1-4.14,2.67,15,15,0,0,1-5.42.93,14.82,14.82,0,0,1-5.39-.93,11.55,11.55,0,0,1-4.12-2.67,11.89,11.89,0,0,1-2.65-4.19,15.36,15.36,0,0,1-.93-5.49A15.56,15.56,0,0,1,854.73,119.08Zm6.33,8.48a7.89,7.89,0,0,0,1,2.6A5.35,5.35,0,0,0,864,132a5.76,5.76,0,0,0,2.94.69,5.9,5.9,0,0,0,3-.69,5.28,5.28,0,0,0,1.91-1.84,7.89,7.89,0,0,0,1-2.6,14.8,14.8,0,0,0,.29-3,15.15,15.15,0,0,0-.29-3,7.62,7.62,0,0,0-1-2.6,5.58,5.58,0,0,0-1.91-1.84,5.74,5.74,0,0,0-3-.71,5.35,5.35,0,0,0-4.83,2.55,7.62,7.62,0,0,0-1,2.6,15.15,15.15,0,0,0-.29,3A14.8,14.8,0,0,0,861.06,127.57Z"/><path class="cls-5" d="M894.54,108v-5.74h7V108Zm7,3.92v25.35h-7V111.9Z"/></g></svg>