<svg xmlns="http://www.w3.org/2000/svg" width="375" viewBox="0 0 375 375" height="375" version="1.0"><defs><clipPath id="a"><path d="M 30.582031 27.925781 L 366 27.925781 L 366 347.425781 L 30.582031 347.425781 Z M 30.582031 27.925781"/></clipPath></defs><g clip-path="url(#a)"><path fill="#FFF" d="M 354.609375 201.25 C 354.691406 199.730469 353.933594 198.136719 352.539062 196.976562 C 351.699219 196.300781 350.78125 195.820312 349.945312 195.460938 C 350.066406 192.90625 350.144531 190.269531 350.144531 187.675781 C 350.144531 166.121094 345.917969 145.203125 337.621094 125.484375 C 329.566406 106.445312 318.082031 89.359375 303.40625 74.710938 C 288.730469 60.058594 271.703125 48.523438 252.679688 40.460938 C 232.980469 32.15625 212.082031 27.925781 190.546875 27.925781 C 169.011719 27.925781 148.078125 32.15625 128.417969 40.460938 C 109.394531 48.523438 92.324219 60.019531 77.691406 74.710938 C 63.054688 89.398438 51.53125 106.445312 43.472656 125.484375 C 35.179688 145.164062 30.953125 166.121094 30.953125 187.675781 C 30.953125 209.230469 35.179688 230.148438 43.472656 249.867188 C 51.53125 268.910156 63.015625 285.992188 77.691406 300.644531 C 92.367188 315.292969 109.394531 326.828125 128.417969 334.894531 C 148.078125 343.234375 168.972656 347.425781 190.546875 347.425781 C 244.1875 347.425781 293.953125 320.683594 323.625 275.855469 C 323.625 275.855469 323.625 275.855469 323.664062 275.816406 C 323.664062 275.773438 323.703125 275.773438 323.703125 275.773438 C 324.902344 273.976562 326.097656 272.101562 327.214844 270.226562 C 332.957031 261.445312 338.0625 255.058594 341.890625 250.746094 C 341.890625 250.867188 341.890625 250.945312 341.929688 251.066406 C 342.089844 252.742188 343.363281 254.578125 345.238281 254.660156 C 345.320312 254.660156 345.359375 254.660156 345.4375 254.660156 C 346.59375 254.660156 347.75 253.980469 348.507812 252.863281 C 349.148438 251.902344 349.425781 250.828125 349.664062 249.707031 L 349.785156 249.109375 C 350.023438 247.953125 350.265625 246.714844 350.503906 245.476562 C 350.78125 246.636719 351.0625 247.792969 351.421875 248.910156 C 351.898438 250.507812 352.457031 252.144531 353.09375 253.660156 C 353.972656 255.777344 355.128906 256.855469 356.566406 256.855469 C 357.28125 256.855469 357.960938 256.535156 358.519531 255.976562 C 359.195312 255.296875 359.554688 254.300781 359.476562 253.339844 C 359.4375 252.820312 359.316406 252.34375 359.15625 251.863281 L 359.953125 252.222656 C 360.273438 252.382812 360.753906 252.582031 361.308594 252.542969 C 362.386719 252.421875 363.023438 251.34375 362.984375 250.425781 C 362.945312 249.628906 362.546875 248.910156 362.148438 248.351562 C 362.027344 248.152344 361.867188 247.992188 361.75 247.792969 C 361.390625 247.3125 360.992188 246.875 360.554688 246.433594 C 361.152344 246.753906 361.789062 247.035156 362.46875 247.113281 C 362.625 247.152344 362.785156 247.152344 362.945312 247.152344 C 363.984375 247.152344 365.140625 246.714844 365.65625 245.636719 C 366.214844 244.441406 365.738281 242.921875 364.382812 241.605469 C 362.746094 240.046875 360.671875 238.929688 358.480469 238.371094 C 358.636719 236.417969 358.160156 234.421875 357.082031 232.742188 C 356.804688 232.304688 356.484375 231.90625 356.167969 231.507812 C 355.007812 230.230469 353.496094 229.3125 351.859375 228.871094 C 350.464844 228.472656 348.46875 228.550781 347.59375 230.070312 C 346.992188 231.105469 347.234375 232.226562 347.671875 233.222656 C 346.753906 232.382812 345.636719 231.546875 344.28125 230.707031 C 345.636719 225.839844 346.792969 220.847656 347.671875 215.820312 C 349.027344 215.660156 350.144531 215.058594 350.902344 214.101562 C 352.378906 212.144531 351.820312 209.351562 350.464844 207.59375 C 349.984375 206.996094 349.425781 206.4375 348.75 205.917969 C 348.707031 205.917969 348.707031 205.878906 348.667969 205.878906 C 349.347656 205.878906 349.984375 205.757812 350.621094 205.601562 C 352.816406 205.082031 354.492188 203.246094 354.609375 201.25 Z M 332.996094 236.816406 C 333.117188 237.132812 333.316406 237.453125 333.515625 237.734375 C 333.914062 238.253906 334.472656 238.652344 335.109375 238.890625 C 336.226562 239.328125 337.34375 239.289062 338.460938 239.289062 L 338.898438 239.289062 C 339.257812 239.289062 339.578125 239.289062 339.933594 239.289062 C 339.816406 239.6875 339.65625 240.089844 339.496094 240.527344 C 339.457031 240.527344 339.457031 240.566406 339.417969 240.566406 C 339.097656 240.648438 338.777344 240.765625 338.5 240.886719 C 338.460938 240.886719 338.421875 240.925781 338.339844 240.925781 C 338.019531 241.046875 337.703125 241.167969 337.382812 241.324219 C 336.625 241.683594 335.667969 242.242188 335.230469 243.203125 C 334.789062 244.121094 334.910156 245.316406 335.507812 246.234375 C 335.589844 246.394531 335.707031 246.515625 335.789062 246.59375 C 335.867188 246.675781 335.949219 246.753906 336.027344 246.875 C 336.066406 246.914062 336.066406 246.914062 336.105469 246.953125 C 336.148438 246.996094 336.226562 247.074219 336.304688 247.113281 C 336.347656 247.152344 336.386719 247.195312 336.425781 247.195312 C 336.464844 247.234375 336.546875 247.273438 336.625 247.3125 C 336.664062 247.351562 336.707031 247.394531 336.746094 247.394531 C 336.785156 247.433594 336.824219 247.433594 336.863281 247.472656 C 333.832031 254.9375 330.164062 262.203125 326.015625 269.109375 L 325.9375 269.1875 C 325.9375 269.226562 325.898438 269.226562 325.898438 269.269531 C 324.78125 270.984375 323.664062 272.742188 322.507812 274.617188 C 326.015625 267.792969 328.808594 261.003906 330.363281 255.136719 C 331.960938 249.269531 332.835938 243.082031 332.996094 236.816406 Z M 342.726562 239.53125 C 343.207031 239.609375 343.683594 239.6875 344.164062 239.808594 C 343.207031 239.808594 342.25 239.929688 341.332031 240.089844 C 341.410156 239.847656 341.492188 239.609375 341.570312 239.410156 C 341.929688 239.410156 342.328125 239.449219 342.726562 239.53125 Z M 338.261719 248.191406 C 339.417969 248.550781 340.652344 248.628906 341.808594 248.390625 C 339.617188 250.785156 336.945312 253.980469 333.875 257.972656 C 335.46875 254.738281 336.90625 251.503906 338.261719 248.191406 Z M 321.472656 196.617188 C 321.511719 196.65625 321.589844 196.699219 321.628906 196.738281 C 321.550781 196.738281 321.472656 196.738281 321.390625 196.777344 C 321.429688 196.699219 321.429688 196.65625 321.472656 196.617188 Z M 190.546875 345.828125 C 103.414062 345.828125 32.546875 274.855469 32.546875 187.675781 C 32.546875 100.457031 103.414062 29.523438 190.546875 29.523438 C 277.683594 29.523438 348.550781 100.457031 348.550781 187.675781 C 348.550781 190.070312 348.507812 192.46875 348.390625 194.863281 C 348.308594 194.820312 348.230469 194.78125 348.152344 194.78125 C 348.03125 194.742188 347.871094 194.664062 347.75 194.621094 C 347.632812 194.582031 347.472656 194.503906 347.351562 194.460938 C 347.234375 194.421875 347.074219 194.34375 346.953125 194.304688 C 346.792969 194.261719 346.675781 194.183594 346.515625 194.144531 C 346.394531 194.101562 346.234375 194.0625 346.117188 193.984375 C 345.957031 193.945312 345.835938 193.863281 345.679688 193.824219 C 345.558594 193.785156 345.398438 193.746094 345.277344 193.664062 C 345.121094 193.625 345 193.542969 344.839844 193.503906 C 344.722656 193.464844 344.5625 193.425781 344.441406 193.386719 C 344.28125 193.34375 344.164062 193.265625 344.003906 193.226562 C 343.882812 193.183594 343.722656 193.144531 343.605469 193.105469 C 343.445312 193.066406 343.285156 193.027344 343.164062 192.945312 C 343.046875 192.90625 342.886719 192.867188 342.765625 192.824219 C 342.605469 192.785156 342.449219 192.746094 342.328125 192.707031 C 342.207031 192.667969 342.050781 192.625 341.929688 192.585938 C 341.769531 192.546875 341.609375 192.507812 341.492188 192.46875 C 341.371094 192.425781 341.210938 192.386719 341.09375 192.347656 C 340.933594 192.308594 340.773438 192.265625 340.613281 192.226562 C 340.492188 192.1875 340.335938 192.148438 340.214844 192.109375 C 340.054688 192.066406 339.894531 192.027344 339.734375 191.988281 C 339.617188 191.949219 339.457031 191.90625 339.335938 191.90625 C 339.175781 191.867188 339.019531 191.828125 338.859375 191.789062 C 338.738281 191.75 338.578125 191.707031 338.460938 191.707031 C 338.300781 191.667969 338.140625 191.628906 337.980469 191.628906 C 337.863281 191.589844 337.703125 191.589844 337.582031 191.546875 C 337.421875 191.507812 337.222656 191.507812 337.0625 191.46875 C 336.945312 191.429688 336.824219 191.429688 336.664062 191.390625 C 336.464844 191.347656 336.265625 191.347656 336.066406 191.308594 C 335.949219 191.308594 335.867188 191.269531 335.75 191.269531 C 335.429688 191.230469 335.148438 191.191406 334.832031 191.191406 C 334.511719 191.148438 334.191406 191.148438 333.914062 191.109375 C 332.917969 191.070312 331.917969 191.070312 331.003906 191.109375 C 331.917969 190.871094 332.796875 190.710938 333.714844 190.550781 C 336.386719 190.113281 339.734375 189.59375 340.773438 186.796875 C 341.769531 184.085938 339.734375 181.410156 337.703125 179.972656 C 335.230469 178.175781 332.160156 177.136719 329.046875 176.9375 C 328.132812 176.898438 327.175781 176.898438 326.257812 177.019531 C 322.546875 177.457031 318.960938 179.253906 316.367188 181.929688 C 312.976562 179.175781 308.789062 177.378906 304.441406 176.859375 C 301.210938 176.460938 298.699219 177.378906 297.742188 179.375 C 296.785156 181.410156 297.824219 183.726562 299.179688 184.960938 C 300.496094 186.160156 302.128906 186.796875 303.683594 187.398438 L 303.964844 187.515625 C 305.679688 188.15625 307.355469 188.875 309.027344 189.671875 C 308.828125 189.632812 308.628906 189.554688 308.429688 189.511719 C 304.960938 188.515625 301.613281 188.035156 298.539062 188.117188 C 298.101562 188.117188 297.664062 188.15625 297.265625 188.15625 C 296.070312 188.234375 294.710938 188.433594 293.636719 189.273438 C 292.480469 190.152344 291.800781 191.949219 292.71875 193.304688 C 293.195312 194.023438 293.953125 194.382812 294.511719 194.664062 L 297.863281 196.300781 C 296.347656 196.5 294.832031 196.976562 293.554688 197.894531 C 292.28125 198.855469 291.324219 200.410156 291.125 201.96875 C 290.964844 203.246094 291.28125 204.441406 292.039062 205.359375 C 292.957031 206.476562 294.355469 207.078125 296.1875 207.078125 C 297.34375 207.078125 298.621094 206.835938 300.097656 206.398438 C 303.128906 205.480469 306.117188 204.402344 309.027344 203.203125 C 311.980469 202.007812 314.890625 200.609375 317.683594 199.132812 C 317.921875 199.011719 318.203125 198.855469 318.441406 198.734375 C 318.28125 198.894531 318.160156 199.054688 318.003906 199.214844 C 317.84375 199.371094 317.722656 199.570312 317.5625 199.730469 C 315.449219 202.085938 313.414062 204.523438 311.460938 206.917969 C 311.222656 207.234375 310.984375 207.515625 310.742188 207.835938 C 309.46875 209.472656 308.230469 211.109375 307.632812 213.0625 C 306.914062 215.417969 307.355469 217.816406 308.75 219.332031 C 310.863281 221.648438 314.652344 221.367188 317.085938 219.769531 C 318.917969 218.574219 320.195312 216.777344 321.273438 215.058594 C 322.269531 218.09375 324.460938 220.726562 327.253906 222.207031 C 327.691406 222.445312 328.171875 222.644531 328.609375 222.84375 C 329.289062 223.082031 329.925781 223.242188 330.5625 223.324219 C 332.121094 233.902344 331.519531 244.796875 328.769531 254.898438 C 326.175781 264.558594 320.273438 276.8125 313.015625 287.628906 C 283.148438 324.273438 238.441406 345.828125 190.546875 345.828125 Z M 342.847656 229.910156 C 342.765625 229.871094 342.6875 229.828125 342.648438 229.789062 C 342.605469 229.75 342.566406 229.75 342.527344 229.710938 C 342.40625 229.628906 342.25 229.550781 342.089844 229.46875 C 341.96875 229.390625 341.808594 229.3125 341.691406 229.269531 C 341.171875 228.992188 340.535156 228.671875 339.816406 228.511719 C 338.777344 228.3125 337.742188 228.550781 337.0625 229.191406 C 336.1875 230.027344 335.949219 231.464844 336.503906 232.785156 C 336.546875 232.863281 336.585938 232.941406 336.625 232.984375 C 336.425781 232.984375 336.265625 232.941406 336.066406 232.984375 C 334.871094 233.023438 333.554688 233.660156 333.035156 234.820312 C 333.035156 230.949219 332.757812 227.074219 332.199219 223.242188 C 334.03125 223.003906 335.589844 221.925781 336.304688 220.449219 C 337.0625 218.851562 336.746094 216.976562 336.386719 215.539062 C 335.789062 213.105469 334.871094 210.75 333.632812 208.472656 C 332.476562 206.359375 331.082031 204.363281 329.488281 202.566406 C 329.40625 202.484375 329.367188 202.40625 329.289062 202.328125 L 329.207031 202.207031 C 327.972656 200.847656 326.773438 199.691406 325.578125 198.773438 C 326.375 199.253906 327.175781 199.730469 327.933594 200.210938 L 328.089844 200.289062 C 328.210938 200.371094 328.332031 200.449219 328.449219 200.53125 C 330.324219 201.769531 332.117188 203.203125 333.832031 204.761719 C 335.667969 206.4375 337.34375 208.234375 338.898438 210.148438 C 339.058594 210.351562 339.257812 210.589844 339.417969 210.828125 C 340.335938 212.027344 341.292969 213.222656 342.488281 214.222656 C 342.886719 214.542969 343.324219 214.859375 343.765625 215.101562 C 343.921875 215.179688 344.082031 215.257812 344.242188 215.339844 C 344.28125 215.378906 344.320312 215.378906 344.363281 215.378906 C 344.480469 215.460938 344.640625 215.5 344.800781 215.539062 C 344.839844 215.539062 344.839844 215.578125 344.878906 215.578125 C 345.039062 215.617188 345.238281 215.699219 345.398438 215.738281 C 345.4375 215.738281 345.480469 215.777344 345.519531 215.777344 C 345.679688 215.820312 345.796875 215.859375 345.957031 215.859375 C 345.996094 215.859375 345.996094 215.859375 346.035156 215.859375 C 345.160156 220.609375 344.121094 225.320312 342.847656 229.910156 Z M 342.847656 229.910156"/></g><g fill="#FFF"><g><g><path d="M -21.6875 -8.34375 C -20.882812 -8.988281 -20.128906 -9.550781 -19.421875 -10.03125 C -18.710938 -10.507812 -18.015625 -10.851562 -17.328125 -11.0625 C -16.648438 -11.269531 -15.972656 -11.300781 -15.296875 -11.15625 C -14.628906 -11.019531 -13.9375 -10.65625 -13.21875 -10.0625 L -6.9375 -4.890625 L -23.109375 14.71875 L -26.015625 12.328125 L -26.421875 12.828125 L -17.90625 19.859375 L -17.5 19.359375 L -20.140625 17.171875 L -3.96875 -2.4375 L -1.328125 -0.25 L -0.921875 -0.75 L -16.71875 -13.765625 C -17.3125 -14.265625 -17.878906 -14.1875 -18.421875 -13.53125 L -22.203125 -8.9375 C -22.609375 -8.445312 -22.722656 -8.128906 -22.546875 -7.984375 C -22.410156 -7.867188 -22.125 -7.988281 -21.6875 -8.34375 Z M -21.6875 -8.34375" transform="translate(121.907 292.28)"/></g></g></g><g fill="#FFF"><g><g><path d="M -14.34375 6.71875 C -13.375 6.976562 -12.601562 6.851562 -12.03125 6.34375 C -11.757812 6.101562 -11.59375 5.785156 -11.53125 5.390625 C -11.46875 4.992188 -11.585938 4.625 -11.890625 4.28125 C -12.191406 3.945312 -12.53125 3.765625 -12.90625 3.734375 C -13.289062 3.710938 -13.628906 3.835938 -13.921875 4.109375 C -14.054688 4.234375 -14.175781 4.382812 -14.28125 4.5625 C -14.394531 4.738281 -14.457031 4.957031 -14.46875 5.21875 C -14.488281 5.414062 -14.488281 5.554688 -14.46875 5.640625 C -14.457031 5.734375 -14.476562 5.804688 -14.53125 5.859375 C -14.625 5.929688 -14.757812 5.945312 -14.9375 5.90625 C -15.125 5.863281 -15.320312 5.773438 -15.53125 5.640625 C -15.75 5.515625 -15.976562 5.351562 -16.21875 5.15625 C -16.46875 4.96875 -16.6875 4.769531 -16.875 4.5625 C -17.414062 3.945312 -17.726562 3.351562 -17.8125 2.78125 C -17.90625 2.21875 -17.617188 1.632812 -16.953125 1.03125 L -13.453125 -2.09375 C -12.640625 -1.1875 -11.785156 -0.421875 -10.890625 0.203125 C -9.992188 0.828125 -9.101562 1.273438 -8.21875 1.546875 C -7.332031 1.816406 -6.472656 1.882812 -5.640625 1.75 C -4.816406 1.625 -4.082031 1.269531 -3.4375 0.6875 C -2.957031 0.257812 -2.617188 -0.191406 -2.421875 -0.671875 C -2.234375 -1.148438 -2.171875 -1.628906 -2.234375 -2.109375 C -2.296875 -2.585938 -2.445312 -3.0625 -2.6875 -3.53125 C -2.925781 -4.007812 -3.242188 -4.46875 -3.640625 -4.90625 C -4.046875 -5.363281 -4.46875 -5.722656 -4.90625 -5.984375 C -5.34375 -6.253906 -5.769531 -6.453125 -6.1875 -6.578125 C -6.613281 -6.710938 -7.007812 -6.796875 -7.375 -6.828125 C -7.738281 -6.859375 -8.066406 -6.859375 -8.359375 -6.828125 C -7.984375 -7.253906 -7.765625 -7.78125 -7.703125 -8.40625 C -7.640625 -9.03125 -7.960938 -9.738281 -8.671875 -10.53125 C -9.128906 -11.039062 -9.59375 -11.394531 -10.0625 -11.59375 C -10.53125 -11.800781 -10.96875 -11.914062 -11.375 -11.9375 C -11.789062 -11.957031 -12.148438 -11.910156 -12.453125 -11.796875 C -12.765625 -11.679688 -12.984375 -11.570312 -13.109375 -11.46875 C -13.191406 -11.382812 -13.207031 -11.316406 -13.15625 -11.265625 C -13.101562 -11.203125 -12.96875 -11.195312 -12.75 -11.25 C -12.269531 -11.394531 -11.820312 -11.4375 -11.40625 -11.375 C -10.988281 -11.320312 -10.65625 -11.160156 -10.40625 -10.890625 C -10.050781 -10.492188 -10 -10.113281 -10.25 -9.75 C -10.507812 -9.382812 -10.925781 -8.945312 -11.5 -8.4375 L -18.671875 -2.015625 C -19.515625 -1.253906 -19.882812 -0.351562 -19.78125 0.6875 C -19.675781 1.738281 -19.039062 2.914062 -17.875 4.21875 C -17.320312 4.832031 -16.726562 5.363281 -16.09375 5.8125 C -15.46875 6.257812 -14.882812 6.5625 -14.34375 6.71875 Z M -13.15625 -2.359375 L -9.046875 -6.046875 C -8.867188 -6.203125 -8.601562 -6.285156 -8.25 -6.296875 C -7.90625 -6.304688 -7.535156 -6.257812 -7.140625 -6.15625 C -6.753906 -6.0625 -6.390625 -5.921875 -6.046875 -5.734375 C -5.710938 -5.554688 -5.472656 -5.382812 -5.328125 -5.21875 C -4.773438 -4.601562 -4.59375 -3.925781 -4.78125 -3.1875 C -4.96875 -2.445312 -5.460938 -1.71875 -6.265625 -1 C -6.921875 -0.40625 -7.550781 -0.0507812 -8.15625 0.0625 C -8.757812 0.175781 -9.34375 0.132812 -9.90625 -0.0625 C -10.476562 -0.257812 -11.03125 -0.566406 -11.5625 -0.984375 C -12.101562 -1.398438 -12.632812 -1.859375 -13.15625 -2.359375 Z M -13.15625 -2.359375" transform="translate(105.105 278.322)"/></g></g></g><g fill="#FFF"><g><g><path d="M -1.25 -0.8125 L -0.703125 -1.140625 L -4.359375 -7.109375 L -4.90625 -6.78125 L -3.25 -4.078125 L -24.34375 8.875 L -7.34375 -11.953125 L -7.609375 -12.390625 L -34.015625 -6.578125 L -12.796875 -19.625 L -11.125 -16.90625 L -10.578125 -17.234375 L -15.921875 -25.9375 L -16.46875 -25.609375 L -14.8125 -22.890625 L -36.46875 -9.578125 L -38.125 -12.296875 L -38.671875 -11.96875 L -34.828125 -5.703125 L -13.734375 -10.359375 L -27.296875 6.546875 L -23.453125 12.828125 L -22.90625 12.5 L -24.578125 9.78125 L -2.921875 -3.53125 Z M -1.25 -0.8125" transform="translate(94.226 267.426)"/></g></g></g><g fill="#FFF"><g><g><path d="M -14.671875 -11.03125 C -15.066406 -10.851562 -15.5625 -10.515625 -16.15625 -10.015625 C -16.75 -9.515625 -17.269531 -8.890625 -17.71875 -8.140625 C -18.164062 -7.398438 -18.46875 -6.53125 -18.625 -5.53125 C -18.789062 -4.53125 -18.644531 -3.4375 -18.1875 -2.25 C -17.789062 -1.257812 -17.195312 -0.429688 -16.40625 0.234375 C -15.613281 0.898438 -14.722656 1.394531 -13.734375 1.71875 C -12.753906 2.050781 -11.726562 2.210938 -10.65625 2.203125 C -9.582031 2.191406 -8.5625 2 -7.59375 1.625 C -6.632812 1.25 -5.765625 0.707031 -4.984375 0 C -4.210938 -0.71875 -3.585938 -1.523438 -3.109375 -2.421875 C -2.640625 -3.316406 -2.347656 -4.285156 -2.234375 -5.328125 C -2.128906 -6.367188 -2.28125 -7.410156 -2.6875 -8.453125 C -3.019531 -9.296875 -3.4375 -10.015625 -3.9375 -10.609375 C -4.445312 -11.203125 -5.007812 -11.6875 -5.625 -12.0625 C -6.238281 -12.4375 -6.890625 -12.703125 -7.578125 -12.859375 C -8.273438 -13.023438 -8.960938 -13.097656 -9.640625 -13.078125 C -9.828125 -13.097656 -10.007812 -13.070312 -10.1875 -13 C -10.363281 -12.9375 -10.425781 -12.832031 -10.375 -12.6875 C -10.320312 -12.5625 -10.15625 -12.492188 -9.875 -12.484375 C -9.257812 -12.460938 -8.628906 -12.382812 -7.984375 -12.25 C -7.335938 -12.125 -6.722656 -11.894531 -6.140625 -11.5625 C -5.554688 -11.238281 -5.019531 -10.816406 -4.53125 -10.296875 C -4.050781 -9.773438 -3.648438 -9.109375 -3.328125 -8.296875 C -2.941406 -7.304688 -3 -6.363281 -3.5 -5.46875 C -4.007812 -4.582031 -5.082031 -3.816406 -6.71875 -3.171875 L -10.484375 -1.703125 L -13.96875 -10.625 C -14.113281 -11.019531 -14.347656 -11.15625 -14.671875 -11.03125 Z M -11.078125 -1.46875 L -12.546875 -0.90625 C -13.359375 -0.582031 -14.050781 -0.414062 -14.625 -0.40625 C -15.207031 -0.394531 -15.691406 -0.484375 -16.078125 -0.671875 C -16.472656 -0.867188 -16.789062 -1.128906 -17.03125 -1.453125 C -17.269531 -1.773438 -17.460938 -2.125 -17.609375 -2.5 C -17.835938 -3.09375 -17.921875 -3.617188 -17.859375 -4.078125 C -17.804688 -4.546875 -17.648438 -4.957031 -17.390625 -5.3125 C -17.128906 -5.675781 -16.800781 -5.972656 -16.40625 -6.203125 C -16.019531 -6.441406 -15.601562 -6.648438 -15.15625 -6.828125 C -14 -7.273438 -13.351562 -7.316406 -13.21875 -6.953125 Z M -11.078125 -1.46875" transform="translate(79.249 242.195)"/></g></g></g><g fill="#FFF"><g><g><path d="M -17.09375 -3.4375 L -15.40625 2.71875 L -14.78125 2.546875 L -15.5625 -0.3125 L -1.78125 -4.078125 L -1 -1.21875 L -0.375 -1.390625 L -2.84375 -10.4375 L -3.46875 -10.265625 L -2.6875 -7.375 Z M -24.25 -1.8125 C -24.8125 -1.664062 -25.234375 -1.34375 -25.515625 -0.84375 C -25.796875 -0.351562 -25.863281 0.171875 -25.71875 0.734375 C -25.5625 1.296875 -25.238281 1.710938 -24.75 1.984375 C -24.257812 2.253906 -23.734375 2.316406 -23.171875 2.171875 C -22.609375 2.015625 -22.1875 1.691406 -21.90625 1.203125 C -21.632812 0.722656 -21.578125 0.203125 -21.734375 -0.359375 C -21.878906 -0.921875 -22.191406 -1.34375 -22.671875 -1.625 C -23.160156 -1.90625 -23.6875 -1.96875 -24.25 -1.8125 Z M -24.25 -1.8125" transform="translate(73.546 227.39)"/></g></g></g><g fill="#FFF"><g><g><path d="M -2 -7.359375 L -27.640625 -2.609375 L -26.515625 3.484375 L -25.875 3.359375 L -26.390625 0.625 L -1.390625 -4 L -0.875 -1.265625 L -0.25 -1.375 L -1.890625 -10.203125 L -2.515625 -10.09375 Z M -2 -7.359375" transform="translate(70.721 217.189)"/></g></g></g><g fill="#FFF"><g><g><path d="M -1.40625 -7.5 L -27.328125 -4.890625 L -26.703125 1.28125 L -26.078125 1.21875 L -26.359375 -1.546875 L -1.0625 -4.09375 L -0.78125 -1.328125 L -0.140625 -1.390625 L -1.03125 -10.328125 L -1.671875 -10.265625 Z M -1.40625 -7.5" transform="translate(68.815 207.122)"/></g></g></g><g fill="#FFF"><g><g><path d="M -9.59375 -15.65625 C -10.019531 -15.632812 -10.601562 -15.5 -11.34375 -15.25 C -12.082031 -15 -12.796875 -14.609375 -13.484375 -14.078125 C -14.179688 -13.554688 -14.785156 -12.859375 -15.296875 -11.984375 C -15.816406 -11.109375 -16.082031 -10.035156 -16.09375 -8.765625 C -16.09375 -7.703125 -15.84375 -6.710938 -15.34375 -5.796875 C -14.851562 -4.890625 -14.207031 -4.101562 -13.40625 -3.4375 C -12.613281 -2.769531 -11.71875 -2.242188 -10.71875 -1.859375 C -9.71875 -1.484375 -8.703125 -1.296875 -7.671875 -1.296875 C -6.640625 -1.296875 -5.628906 -1.476562 -4.640625 -1.84375 C -3.648438 -2.21875 -2.769531 -2.734375 -2 -3.390625 C -1.238281 -4.046875 -0.613281 -4.84375 -0.125 -5.78125 C 0.351562 -6.71875 0.59375 -7.742188 0.59375 -8.859375 C 0.601562 -9.765625 0.476562 -10.585938 0.21875 -11.328125 C -0.03125 -12.066406 -0.367188 -12.71875 -0.796875 -13.28125 C -1.234375 -13.851562 -1.742188 -14.34375 -2.328125 -14.75 C -2.910156 -15.15625 -3.519531 -15.472656 -4.15625 -15.703125 C -4.332031 -15.785156 -4.515625 -15.828125 -4.703125 -15.828125 C -4.890625 -15.828125 -4.984375 -15.75 -4.984375 -15.59375 C -4.984375 -15.457031 -4.851562 -15.335938 -4.59375 -15.234375 C -4.03125 -14.992188 -3.46875 -14.691406 -2.90625 -14.328125 C -2.351562 -13.972656 -1.867188 -13.535156 -1.453125 -13.015625 C -1.035156 -12.492188 -0.691406 -11.898438 -0.421875 -11.234375 C -0.160156 -10.578125 -0.0351562 -9.8125 -0.046875 -8.9375 C -0.046875 -7.875 -0.445312 -7.019531 -1.25 -6.375 C -2.050781 -5.738281 -3.328125 -5.421875 -5.078125 -5.421875 L -9.125 -5.4375 L -9.078125 -15.015625 C -9.078125 -15.429688 -9.25 -15.644531 -9.59375 -15.65625 Z M -9.765625 -5.453125 L -11.34375 -5.453125 C -12.21875 -5.453125 -12.921875 -5.550781 -13.453125 -5.75 C -13.992188 -5.957031 -14.410156 -6.21875 -14.703125 -6.53125 C -14.992188 -6.851562 -15.191406 -7.210938 -15.296875 -7.609375 C -15.410156 -8.003906 -15.46875 -8.398438 -15.46875 -8.796875 C -15.457031 -9.429688 -15.335938 -9.953125 -15.109375 -10.359375 C -14.890625 -10.773438 -14.59375 -11.101562 -14.21875 -11.34375 C -13.84375 -11.582031 -13.429688 -11.738281 -12.984375 -11.8125 C -12.535156 -11.882812 -12.070312 -11.921875 -11.59375 -11.921875 C -10.351562 -11.921875 -9.734375 -11.722656 -9.734375 -11.328125 Z M -9.765625 -5.453125" transform="translate(67.593 197.217)"/></g></g></g><g fill="#FFF"><g><g><path d="M -0.921875 -14.328125 L 2.03125 -13.890625 L 2.921875 -20 L 2.28125 -20.09375 L 1.890625 -17.34375 L -12.875 -19.5 L -13.78125 -13.375 L -13.15625 -13.28125 L -12.75 -16.046875 L -2.96875 -14.625 C -2.539062 -14.5625 -2.097656 -14.363281 -1.640625 -14.03125 C -1.179688 -13.707031 -0.765625 -13.304688 -0.390625 -12.828125 C -0.0234375 -12.347656 0.257812 -11.8125 0.46875 -11.21875 C 0.675781 -10.625 0.738281 -10.039062 0.65625 -9.46875 C 0.519531 -8.550781 0.210938 -7.988281 -0.265625 -7.78125 C -0.753906 -7.582031 -1.5 -7.554688 -2.5 -7.703125 L -14.359375 -9.4375 L -15.25 -3.3125 L -14.625 -3.21875 L -14.21875 -5.96875 L -3.25 -4.375 C -2.40625 -4.25 -1.691406 -4.25 -1.109375 -4.375 C -0.523438 -4.5 -0.0507812 -4.722656 0.3125 -5.046875 C 0.675781 -5.378906 0.957031 -5.773438 1.15625 -6.234375 C 1.363281 -6.703125 1.503906 -7.203125 1.578125 -7.734375 C 1.773438 -9.109375 1.65625 -10.351562 1.21875 -11.46875 C 0.78125 -12.59375 0.0664062 -13.546875 -0.921875 -14.328125 Z M -0.921875 -14.328125" transform="translate(67.378 181.779)"/></g></g></g><g fill="#FFF"><g><g><path d="M -10.78125 -10.484375 L -13 -11.125 L -14.71875 -5.171875 L -14.09375 -5 L -13.328125 -7.671875 L 0.40625 -3.6875 L -0.359375 -1.015625 L 0.25 -0.84375 L 2.734375 -9.46875 L 2.125 -9.640625 L 1.359375 -6.96875 L -9.09375 -10 C -9.5 -10.113281 -9.882812 -10.351562 -10.25 -10.71875 C -10.625 -11.082031 -10.929688 -11.515625 -11.171875 -12.015625 C -11.410156 -12.515625 -11.566406 -13.035156 -11.640625 -13.578125 C -11.710938 -14.117188 -11.679688 -14.625 -11.546875 -15.09375 C -11.472656 -15.363281 -11.382812 -15.601562 -11.28125 -15.8125 C -11.1875 -16.019531 -11.0625 -16.101562 -10.90625 -16.0625 C -10.78125 -16.019531 -10.707031 -15.929688 -10.6875 -15.796875 C -10.625 -15.609375 -10.503906 -15.375 -10.328125 -15.09375 C -10.148438 -14.820312 -9.804688 -14.613281 -9.296875 -14.46875 C -8.765625 -14.320312 -8.273438 -14.375 -7.828125 -14.625 C -7.378906 -14.882812 -7.070312 -15.300781 -6.90625 -15.875 C -6.757812 -16.382812 -6.800781 -16.882812 -7.03125 -17.375 C -7.257812 -17.863281 -7.679688 -18.195312 -8.296875 -18.375 C -8.804688 -18.519531 -9.257812 -18.539062 -9.65625 -18.4375 C -10.0625 -18.332031 -10.414062 -18.148438 -10.71875 -17.890625 C -11.03125 -17.628906 -11.300781 -17.300781 -11.53125 -16.90625 C -11.757812 -16.519531 -11.9375 -16.109375 -12.0625 -15.671875 C -12.238281 -15.066406 -12.300781 -14.5 -12.25 -13.96875 C -12.207031 -13.4375 -12.113281 -12.941406 -11.96875 -12.484375 C -11.832031 -12.023438 -11.65625 -11.625 -11.4375 -11.28125 C -11.226562 -10.945312 -11.007812 -10.679688 -10.78125 -10.484375 Z M -10.78125 -10.484375" transform="translate(70.296 162.31)"/></g></g></g><g fill="#FFF"><g><g><path d="M -2.78125 -18.140625 C -3.175781 -18.285156 -3.757812 -18.390625 -4.53125 -18.453125 C -5.3125 -18.515625 -6.117188 -18.429688 -6.953125 -18.203125 C -7.796875 -17.984375 -8.628906 -17.570312 -9.453125 -16.96875 C -10.273438 -16.375 -10.9375 -15.488281 -11.4375 -14.3125 C -11.851562 -13.34375 -12.003906 -12.34375 -11.890625 -11.3125 C -11.785156 -10.28125 -11.492188 -9.300781 -11.015625 -8.375 C -10.546875 -7.457031 -9.921875 -6.628906 -9.140625 -5.890625 C -8.367188 -5.148438 -7.507812 -4.578125 -6.5625 -4.171875 C -5.613281 -3.773438 -4.613281 -3.554688 -3.5625 -3.515625 C -2.507812 -3.472656 -1.5 -3.601562 -0.53125 -3.90625 C 0.425781 -4.21875 1.304688 -4.707031 2.109375 -5.375 C 2.921875 -6.050781 3.546875 -6.90625 3.984375 -7.9375 C 4.335938 -8.769531 4.539062 -9.570312 4.59375 -10.34375 C 4.65625 -11.125 4.59375 -11.863281 4.40625 -12.5625 C 4.226562 -13.257812 3.953125 -13.90625 3.578125 -14.5 C 3.203125 -15.101562 2.765625 -15.632812 2.265625 -16.09375 C 2.128906 -16.226562 1.972656 -16.332031 1.796875 -16.40625 C 1.628906 -16.488281 1.515625 -16.457031 1.453125 -16.3125 C 1.398438 -16.1875 1.472656 -16.023438 1.671875 -15.828125 C 2.085938 -15.390625 2.484375 -14.894531 2.859375 -14.34375 C 3.234375 -13.800781 3.515625 -13.207031 3.703125 -12.5625 C 3.890625 -11.914062 3.972656 -11.238281 3.953125 -10.53125 C 3.941406 -9.820312 3.765625 -9.0625 3.421875 -8.25 C 3.003906 -7.269531 2.304688 -6.640625 1.328125 -6.359375 C 0.347656 -6.078125 -0.945312 -6.28125 -2.5625 -6.96875 L -6.28125 -8.546875 L -2.53125 -17.359375 C -2.375 -17.742188 -2.457031 -18.003906 -2.78125 -18.140625 Z M -6.875 -8.796875 L -8.328125 -9.421875 C -9.128906 -9.765625 -9.742188 -10.128906 -10.171875 -10.515625 C -10.597656 -10.910156 -10.878906 -11.3125 -11.015625 -11.71875 C -11.160156 -12.125 -11.207031 -12.53125 -11.15625 -12.9375 C -11.101562 -13.351562 -11 -13.742188 -10.84375 -14.109375 C -10.59375 -14.691406 -10.28125 -15.128906 -9.90625 -15.421875 C -9.539062 -15.710938 -9.140625 -15.890625 -8.703125 -15.953125 C -8.265625 -16.023438 -7.820312 -16.007812 -7.375 -15.90625 C -6.9375 -15.8125 -6.492188 -15.671875 -6.046875 -15.484375 C -4.910156 -14.992188 -4.421875 -14.566406 -4.578125 -14.203125 Z M -6.875 -8.796875" transform="translate(74.148 148.507)"/></g></g></g><g fill="#FFF"><g><g><path d="M -16.765625 -23.59375 L -22.4375 -14.484375 L -21.890625 -14.15625 L -20.078125 -17.0625 L 7.09375 -10.65625 L 7.46875 -11.265625 L -10.484375 -32.46875 L -8.96875 -34.890625 L -9.515625 -35.21875 L -13.28125 -29.1875 L -12.734375 -28.859375 L -10.9375 -31.75 L 3.015625 -15.296875 L -18.109375 -20.234375 L -16.21875 -23.265625 Z M -16.765625 -23.59375" transform="translate(79.715 134.263)"/></g></g></g><g fill="#FFF"><g><g><path d="M 2.875 -18.140625 C 2.539062 -18.390625 2.007812 -18.660156 1.28125 -18.953125 C 0.5625 -19.253906 -0.226562 -19.425781 -1.09375 -19.46875 C -1.96875 -19.507812 -2.882812 -19.367188 -3.84375 -19.046875 C -4.8125 -18.722656 -5.707031 -18.082031 -6.53125 -17.125 C -7.226562 -16.320312 -7.679688 -15.410156 -7.890625 -14.390625 C -8.109375 -13.367188 -8.128906 -12.347656 -7.953125 -11.328125 C -7.785156 -10.304688 -7.441406 -9.320312 -6.921875 -8.375 C -6.410156 -7.4375 -5.765625 -6.632812 -4.984375 -5.96875 C -4.203125 -5.289062 -3.316406 -4.773438 -2.328125 -4.421875 C -1.335938 -4.066406 -0.335938 -3.890625 0.671875 -3.890625 C 1.691406 -3.890625 2.6875 -4.082031 3.65625 -4.46875 C 4.625 -4.863281 5.472656 -5.484375 6.203125 -6.328125 C 6.796875 -7.015625 7.238281 -7.722656 7.53125 -8.453125 C 7.820312 -9.179688 7.988281 -9.898438 8.03125 -10.609375 C 8.070312 -11.328125 8 -12.03125 7.8125 -12.71875 C 7.632812 -13.40625 7.382812 -14.039062 7.0625 -14.625 C 6.976562 -14.800781 6.863281 -14.953125 6.71875 -15.078125 C 6.570312 -15.203125 6.445312 -15.207031 6.34375 -15.09375 C 6.257812 -14.988281 6.28125 -14.816406 6.40625 -14.578125 C 6.675781 -14.015625 6.90625 -13.414062 7.09375 -12.78125 C 7.28125 -12.144531 7.363281 -11.492188 7.34375 -10.828125 C 7.332031 -10.171875 7.207031 -9.503906 6.96875 -8.828125 C 6.738281 -8.148438 6.335938 -7.476562 5.765625 -6.8125 C 5.078125 -6.007812 4.21875 -5.625 3.1875 -5.65625 C 2.164062 -5.6875 0.992188 -6.273438 -0.328125 -7.421875 L -3.390625 -10.0625 L 2.859375 -17.3125 C 3.128906 -17.632812 3.132812 -17.910156 2.875 -18.140625 Z M -3.875 -10.484375 L -5.078125 -11.515625 C -5.734375 -12.085938 -6.203125 -12.625 -6.484375 -13.125 C -6.765625 -13.625 -6.910156 -14.085938 -6.921875 -14.515625 C -6.929688 -14.953125 -6.847656 -15.359375 -6.671875 -15.734375 C -6.503906 -16.109375 -6.289062 -16.441406 -6.03125 -16.734375 C -5.613281 -17.222656 -5.1875 -17.546875 -4.75 -17.703125 C -4.320312 -17.867188 -3.882812 -17.921875 -3.4375 -17.859375 C -3 -17.796875 -2.582031 -17.644531 -2.1875 -17.40625 C -1.800781 -17.175781 -1.425781 -16.90625 -1.0625 -16.59375 C -0.125 -15.789062 0.210938 -15.238281 -0.046875 -14.9375 Z M -3.875 -10.484375" transform="translate(92.056 114.728)"/></g></g></g><g fill="#FFF"><g><g><path d="M -3.6875 -14.578125 L -5.25 -16.28125 L -9.84375 -12.109375 L -9.40625 -11.640625 L -7.34375 -13.515625 L 2.265625 -2.9375 L 0.203125 -1.0625 L 0.640625 -0.59375 L 7.296875 -6.640625 L 6.859375 -7.109375 L 4.796875 -5.234375 L -2.515625 -13.28125 C -2.804688 -13.59375 -3.007812 -14 -3.125 -14.5 C -3.238281 -15.007812 -3.269531 -15.535156 -3.21875 -16.078125 C -3.164062 -16.628906 -3.03125 -17.15625 -2.8125 -17.65625 C -2.59375 -18.164062 -2.304688 -18.582031 -1.953125 -18.90625 C -1.734375 -19.101562 -1.53125 -19.257812 -1.34375 -19.375 C -1.15625 -19.5 -1.003906 -19.503906 -0.890625 -19.390625 C -0.804688 -19.285156 -0.785156 -19.175781 -0.828125 -19.0625 C -0.890625 -18.863281 -0.910156 -18.601562 -0.890625 -18.28125 C -0.878906 -17.957031 -0.695312 -17.597656 -0.34375 -17.203125 C 0.03125 -16.796875 0.472656 -16.582031 0.984375 -16.5625 C 1.503906 -16.550781 1.988281 -16.75 2.4375 -17.15625 C 2.820312 -17.507812 3.039062 -17.953125 3.09375 -18.484375 C 3.15625 -19.023438 2.972656 -19.53125 2.546875 -20 C 2.179688 -20.394531 1.800781 -20.648438 1.40625 -20.765625 C 1.019531 -20.878906 0.628906 -20.90625 0.234375 -20.84375 C -0.160156 -20.789062 -0.5625 -20.65625 -0.96875 -20.4375 C -1.375 -20.226562 -1.738281 -19.972656 -2.0625 -19.671875 C -2.53125 -19.242188 -2.882812 -18.789062 -3.125 -18.3125 C -3.363281 -17.84375 -3.539062 -17.375 -3.65625 -16.90625 C -3.78125 -16.4375 -3.835938 -16 -3.828125 -15.59375 C -3.828125 -15.195312 -3.78125 -14.859375 -3.6875 -14.578125 Z M -3.6875 -14.578125" transform="translate(102.252 102.82)"/></g></g></g><g fill="#FFF"><g><g><path d="M -0.25 -19.53125 L -0.4375 -18.25 C -1.539062 -18.363281 -2.578125 -18.066406 -3.546875 -17.359375 C -4.222656 -16.867188 -4.75 -16.316406 -5.125 -15.703125 C -5.5 -15.085938 -5.722656 -14.457031 -5.796875 -13.8125 C -5.867188 -13.175781 -5.816406 -12.546875 -5.640625 -11.921875 C -5.460938 -11.296875 -5.1875 -10.71875 -4.8125 -10.1875 C -4.238281 -9.394531 -3.503906 -8.867188 -2.609375 -8.609375 C -1.710938 -8.359375 -0.726562 -8.457031 0.34375 -8.90625 C 0.675781 -9.050781 1.039062 -9.207031 1.4375 -9.375 C 1.832031 -9.539062 2.238281 -9.707031 2.65625 -9.875 C 3.082031 -10.039062 3.503906 -10.179688 3.921875 -10.296875 C 4.347656 -10.421875 4.742188 -10.5 5.109375 -10.53125 C 5.703125 -10.625 6.195312 -10.5625 6.59375 -10.34375 C 7 -10.132812 7.320312 -9.863281 7.5625 -9.53125 C 7.894531 -9.070312 8.066406 -8.59375 8.078125 -8.09375 C 8.097656 -7.601562 8.007812 -7.132812 7.8125 -6.6875 C 7.613281 -6.238281 7.359375 -5.820312 7.046875 -5.4375 C 6.734375 -5.0625 6.40625 -4.75 6.0625 -4.5 C 5.070312 -3.78125 4.003906 -3.421875 2.859375 -3.421875 C 1.710938 -3.429688 0.578125 -3.894531 -0.546875 -4.8125 C -0.753906 -4.945312 -0.910156 -4.976562 -1.015625 -4.90625 C -1.140625 -4.8125 -1.140625 -4.679688 -1.015625 -4.515625 L 1.484375 -1.078125 C 1.609375 -0.910156 1.734375 -0.875 1.859375 -0.96875 C 1.941406 -1.03125 1.976562 -1.132812 1.96875 -1.28125 L 1.90625 -2.75 C 2.582031 -2.632812 3.304688 -2.664062 4.078125 -2.84375 C 4.859375 -3.03125 5.675781 -3.4375 6.53125 -4.0625 C 7.238281 -4.570312 7.773438 -5.132812 8.140625 -5.75 C 8.515625 -6.375 8.742188 -7.019531 8.828125 -7.6875 C 8.921875 -8.351562 8.875 -9.015625 8.6875 -9.671875 C 8.5 -10.335938 8.179688 -10.984375 7.734375 -11.609375 C 7.140625 -12.421875 6.367188 -13.039062 5.421875 -13.46875 C 4.484375 -13.90625 3.304688 -13.90625 1.890625 -13.46875 C 1.660156 -13.382812 1.363281 -13.269531 1 -13.125 C 0.644531 -12.988281 0.269531 -12.84375 -0.125 -12.6875 C -0.519531 -12.53125 -0.914062 -12.375 -1.3125 -12.21875 C -1.707031 -12.070312 -2.03125 -11.945312 -2.28125 -11.84375 C -2.820312 -11.6875 -3.265625 -11.65625 -3.609375 -11.75 C -3.953125 -11.851562 -4.273438 -12.101562 -4.578125 -12.5 C -4.984375 -13.0625 -5.078125 -13.757812 -4.859375 -14.59375 C -4.648438 -15.425781 -4.140625 -16.140625 -3.328125 -16.734375 C -2.804688 -17.109375 -2.273438 -17.34375 -1.734375 -17.4375 C -1.203125 -17.539062 -0.695312 -17.539062 -0.21875 -17.4375 C 0.257812 -17.332031 0.71875 -17.148438 1.15625 -16.890625 C 1.59375 -16.640625 1.972656 -16.351562 2.296875 -16.03125 C 2.410156 -15.90625 2.519531 -15.878906 2.625 -15.953125 C 2.71875 -16.023438 2.71875 -16.128906 2.625 -16.265625 L 0.125 -19.703125 C 0.0195312 -19.847656 -0.0664062 -19.894531 -0.140625 -19.84375 C -0.179688 -19.8125 -0.21875 -19.707031 -0.25 -19.53125 Z M -0.25 -19.53125" transform="translate(112.93 93.06)"/></g></g></g><g fill="#FFF"><g><g><path d="M -1.203125 -17.390625 L -6.703125 -14.140625 L -6.375 -13.59375 L -3.8125 -15.109375 L 3.46875 -2.796875 L 0.90625 -1.28125 L 1.234375 -0.734375 L 9.296875 -5.515625 L 8.96875 -6.0625 L 6.40625 -4.53125 Z M -4.671875 -23.859375 C -4.972656 -24.367188 -5.394531 -24.695312 -5.9375 -24.84375 C -6.476562 -24.988281 -7 -24.910156 -7.5 -24.609375 C -8 -24.316406 -8.316406 -23.894531 -8.453125 -23.34375 C -8.597656 -22.800781 -8.519531 -22.273438 -8.21875 -21.765625 C -7.925781 -21.265625 -7.503906 -20.945312 -6.953125 -20.8125 C -6.410156 -20.675781 -5.890625 -20.753906 -5.390625 -21.046875 C -4.890625 -21.347656 -4.570312 -21.765625 -4.4375 -22.296875 C -4.300781 -22.835938 -4.378906 -23.359375 -4.671875 -23.859375 Z M -4.671875 -23.859375" transform="translate(123.375 85.464)"/></g></g></g><g fill="#FFF"><g><g><path d="M 8.4375 -3.21875 C 9.53125 -3.71875 10.398438 -4.414062 11.046875 -5.3125 C 11.691406 -6.207031 12.15625 -7.164062 12.4375 -8.1875 C 12.71875 -9.21875 12.820312 -10.257812 12.75 -11.3125 C 12.675781 -12.363281 12.460938 -13.28125 12.109375 -14.0625 C 11.742188 -14.863281 11.191406 -15.632812 10.453125 -16.375 C 9.710938 -17.113281 8.863281 -17.710938 7.90625 -18.171875 C 6.945312 -18.640625 5.914062 -18.921875 4.8125 -19.015625 C 3.707031 -19.109375 2.609375 -18.90625 1.515625 -18.40625 C 0.429688 -17.914062 -0.429688 -17.222656 -1.078125 -16.328125 C -1.734375 -15.441406 -2.203125 -14.484375 -2.484375 -13.453125 C -2.773438 -12.421875 -2.882812 -11.378906 -2.8125 -10.328125 C -2.75 -9.285156 -2.535156 -8.363281 -2.171875 -7.5625 C -1.816406 -6.78125 -1.265625 -6.015625 -0.515625 -5.265625 C 0.222656 -4.523438 1.070312 -3.925781 2.03125 -3.46875 C 3 -3.007812 4.035156 -2.726562 5.140625 -2.625 C 6.253906 -2.53125 7.351562 -2.726562 8.4375 -3.21875 Z M 1.21875 -10.0625 C 0.757812 -11.082031 0.394531 -11.992188 0.125 -12.796875 C -0.132812 -13.609375 -0.265625 -14.335938 -0.265625 -14.984375 C -0.273438 -15.628906 -0.117188 -16.1875 0.203125 -16.65625 C 0.535156 -17.125 1.0625 -17.519531 1.78125 -17.84375 C 2.507812 -18.175781 3.15625 -18.3125 3.71875 -18.25 C 4.289062 -18.1875 4.8125 -17.941406 5.28125 -17.515625 C 5.75 -17.085938 6.203125 -16.503906 6.640625 -15.765625 C 7.078125 -15.035156 7.523438 -14.160156 7.984375 -13.140625 L 8.703125 -11.59375 C 9.191406 -10.507812 9.570312 -9.554688 9.84375 -8.734375 C 10.113281 -7.910156 10.25 -7.191406 10.25 -6.578125 C 10.257812 -5.972656 10.097656 -5.441406 9.765625 -4.984375 C 9.429688 -4.535156 8.898438 -4.144531 8.171875 -3.8125 C 7.453125 -3.488281 6.8125 -3.347656 6.25 -3.390625 C 5.6875 -3.441406 5.171875 -3.660156 4.703125 -4.046875 C 4.234375 -4.441406 3.773438 -5.015625 3.328125 -5.765625 C 2.890625 -6.515625 2.425781 -7.429688 1.9375 -8.515625 Z M 1.21875 -10.0625" transform="translate(132.112 80.013)"/></g></g></g><g fill="#FFF"><g><g><path d="M 3.78125 -14.1875 L 2.921875 -17.09375 L -3.015625 -15.359375 L -2.828125 -14.734375 L -0.15625 -15.515625 L 3.859375 -1.796875 L 1.1875 -1.015625 L 1.375 -0.40625 L 9.984375 -2.921875 L 9.796875 -3.53125 L 7.125 -2.75 L 4.359375 -12.203125 C 4.234375 -12.640625 4.210938 -13.140625 4.296875 -13.703125 C 4.378906 -14.265625 4.539062 -14.816406 4.78125 -15.359375 C 5.03125 -15.898438 5.347656 -16.378906 5.734375 -16.796875 C 6.128906 -17.210938 6.582031 -17.492188 7.09375 -17.640625 C 7.820312 -17.859375 8.421875 -17.789062 8.890625 -17.4375 C 9.367188 -17.082031 9.757812 -16.40625 10.0625 -15.40625 L 13.234375 -4.546875 L 10.5625 -3.765625 L 10.75 -3.15625 L 19.375 -5.6875 L 19.1875 -6.296875 L 16.515625 -5.515625 L 13.265625 -16.640625 C 12.867188 -17.960938 12.222656 -18.765625 11.328125 -19.046875 C 10.429688 -19.335938 9.398438 -19.3125 8.234375 -18.96875 C 6.828125 -18.5625 5.773438 -17.910156 5.078125 -17.015625 C 4.390625 -16.117188 3.957031 -15.175781 3.78125 -14.1875 Z M 3.78125 -14.1875" transform="translate(146.52 73.181)"/></g></g></g><g fill="#FFF"><g><g><path d="M 9.921875 -27.984375 L -1.75 -26.671875 L -1.671875 -26.03125 L 1.8125 -26.421875 L 4.65625 -1.171875 L 1.171875 -0.78125 L 1.25 -0.140625 L 12.921875 -1.453125 C 14.765625 -1.660156 16.410156 -2.171875 17.859375 -2.984375 C 19.316406 -3.804688 20.515625 -4.867188 21.453125 -6.171875 C 22.390625 -7.484375 23.0625 -9.007812 23.46875 -10.75 C 23.882812 -12.488281 23.976562 -14.382812 23.75 -16.4375 C 23.53125 -18.351562 23.023438 -20.070312 22.234375 -21.59375 C 21.441406 -23.125 20.4375 -24.398438 19.21875 -25.421875 C 18 -26.441406 16.597656 -27.175781 15.015625 -27.625 C 13.429688 -28.070312 11.734375 -28.191406 9.921875 -27.984375 Z M 19.28125 -16.921875 L 19.5 -14.953125 C 19.757812 -12.609375 19.757812 -10.640625 19.5 -9.046875 C 19.25 -7.460938 18.800781 -6.175781 18.15625 -5.1875 C 17.519531 -4.195312 16.734375 -3.460938 15.796875 -2.984375 C 14.867188 -2.515625 13.851562 -2.21875 12.75 -2.09375 L 8.5 -1.609375 L 5.65625 -26.859375 L 9.90625 -27.34375 C 10.988281 -27.457031 12.035156 -27.378906 13.046875 -27.109375 C 14.066406 -26.847656 15 -26.316406 15.84375 -25.515625 C 16.695312 -24.722656 17.421875 -23.625 18.015625 -22.21875 C 18.617188 -20.820312 19.039062 -19.054688 19.28125 -16.921875 Z M 19.28125 -16.921875" transform="translate(164.553 67.458)"/></g></g></g><g fill="#FFF"><g><g><path d="M 16.046875 -8.921875 C 16.046875 -9.347656 15.9375 -9.9375 15.71875 -10.6875 C 15.5 -11.4375 15.140625 -12.164062 14.640625 -12.875 C 14.140625 -13.59375 13.460938 -14.226562 12.609375 -14.78125 C 11.765625 -15.332031 10.707031 -15.640625 9.4375 -15.703125 C 8.382812 -15.753906 7.390625 -15.550781 6.453125 -15.09375 C 5.515625 -14.632812 4.695312 -14.019531 4 -13.25 C 3.300781 -12.488281 2.738281 -11.613281 2.3125 -10.625 C 1.894531 -9.632812 1.664062 -8.625 1.625 -7.59375 C 1.570312 -6.570312 1.707031 -5.5625 2.03125 -4.5625 C 2.363281 -3.5625 2.84375 -2.660156 3.46875 -1.859375 C 4.101562 -1.066406 4.875 -0.410156 5.78125 0.109375 C 6.695312 0.628906 7.707031 0.914062 8.8125 0.96875 C 9.71875 1.007812 10.546875 0.921875 11.296875 0.703125 C 12.054688 0.484375 12.726562 0.171875 13.3125 -0.234375 C 13.90625 -0.648438 14.414062 -1.140625 14.84375 -1.703125 C 15.269531 -2.265625 15.613281 -2.859375 15.875 -3.484375 C 15.957031 -3.660156 16.003906 -3.84375 16.015625 -4.03125 C 16.023438 -4.21875 15.953125 -4.316406 15.796875 -4.328125 C 15.660156 -4.328125 15.535156 -4.203125 15.421875 -3.953125 C 15.148438 -3.398438 14.820312 -2.851562 14.4375 -2.3125 C 14.050781 -1.769531 13.59375 -1.300781 13.0625 -0.90625 C 12.53125 -0.507812 11.925781 -0.195312 11.25 0.03125 C 10.570312 0.269531 9.796875 0.375 8.921875 0.34375 C 7.859375 0.289062 7.023438 -0.144531 6.421875 -0.96875 C 5.816406 -1.800781 5.554688 -3.09375 5.640625 -4.84375 L 5.828125 -8.875 L 15.390625 -8.4375 C 15.804688 -8.414062 16.023438 -8.578125 16.046875 -8.921875 Z M 5.859375 -9.515625 L 5.9375 -11.09375 C 5.976562 -11.96875 6.109375 -12.671875 6.328125 -13.203125 C 6.546875 -13.734375 6.820312 -14.132812 7.15625 -14.40625 C 7.488281 -14.6875 7.851562 -14.875 8.25 -14.96875 C 8.644531 -15.0625 9.039062 -15.097656 9.4375 -15.078125 C 10.070312 -15.046875 10.585938 -14.910156 10.984375 -14.671875 C 11.390625 -14.429688 11.703125 -14.113281 11.921875 -13.71875 C 12.148438 -13.332031 12.289062 -12.914062 12.34375 -12.46875 C 12.40625 -12.019531 12.425781 -11.554688 12.40625 -11.078125 C 12.34375 -9.835938 12.113281 -9.222656 11.71875 -9.234375 Z M 5.859375 -9.515625" transform="translate(188.662 64.933)"/></g></g></g><g fill="#FFF"><g><g><path d="M 1.453125 -0.328125 L 1.3125 0.296875 L 8.140625 1.859375 L 8.28125 1.234375 L 5.1875 0.53125 L 10.703125 -23.59375 L 13.671875 3.125 L 14.1875 3.25 L 28.515625 -19.6875 L 22.953125 4.59375 L 19.84375 3.890625 L 19.703125 4.515625 L 29.671875 6.78125 L 29.8125 6.15625 L 26.703125 5.453125 L 32.375 -19.328125 L 35.484375 -18.625 L 35.625 -19.25 L 28.453125 -20.890625 L 17.015625 -2.546875 L 14.4375 -24.09375 L 7.265625 -25.734375 L 7.125 -25.109375 L 10.234375 -24.390625 L 4.5625 0.390625 Z M 1.453125 -0.328125" transform="translate(203.72 64.791)"/></g></g></g><g fill="#FFF"><g><g><path d="M 8.0625 4.0625 C 9.164062 4.539062 10.265625 4.71875 11.359375 4.59375 C 12.460938 4.476562 13.484375 4.175781 14.421875 3.6875 C 15.367188 3.195312 16.207031 2.570312 16.9375 1.8125 C 17.675781 1.0625 18.210938 0.285156 18.546875 -0.515625 C 18.890625 -1.316406 19.082031 -2.242188 19.125 -3.296875 C 19.175781 -4.347656 19.050781 -5.378906 18.75 -6.390625 C 18.457031 -7.410156 17.972656 -8.359375 17.296875 -9.234375 C 16.628906 -10.109375 15.742188 -10.785156 14.640625 -11.265625 C 13.554688 -11.722656 12.460938 -11.894531 11.359375 -11.78125 C 10.253906 -11.675781 9.222656 -11.382812 8.265625 -10.90625 C 7.304688 -10.425781 6.460938 -9.804688 5.734375 -9.046875 C 5.003906 -8.285156 4.46875 -7.503906 4.125 -6.703125 C 3.789062 -5.898438 3.597656 -4.972656 3.546875 -3.921875 C 3.492188 -2.878906 3.625 -1.84375 3.9375 -0.8125 C 4.25 0.207031 4.742188 1.160156 5.421875 2.046875 C 6.097656 2.929688 6.976562 3.601562 8.0625 4.0625 Z M 8.265625 -5.875 C 8.710938 -6.894531 9.144531 -7.773438 9.5625 -8.515625 C 9.976562 -9.265625 10.421875 -9.851562 10.890625 -10.28125 C 11.367188 -10.71875 11.890625 -10.972656 12.453125 -11.046875 C 13.015625 -11.128906 13.660156 -11.015625 14.390625 -10.703125 C 15.128906 -10.378906 15.664062 -9.984375 16 -9.515625 C 16.332031 -9.054688 16.5 -8.507812 16.5 -7.875 C 16.507812 -7.238281 16.390625 -6.507812 16.140625 -5.6875 C 15.890625 -4.875 15.539062 -3.957031 15.09375 -2.9375 L 14.421875 -1.375 C 13.953125 -0.28125 13.503906 0.640625 13.078125 1.390625 C 12.660156 2.148438 12.222656 2.738281 11.765625 3.15625 C 11.316406 3.570312 10.8125 3.804688 10.25 3.859375 C 9.695312 3.921875 9.050781 3.789062 8.3125 3.46875 C 7.582031 3.15625 7.046875 2.773438 6.703125 2.328125 C 6.367188 1.890625 6.1875 1.359375 6.15625 0.734375 C 6.132812 0.117188 6.25 -0.597656 6.5 -1.421875 C 6.757812 -2.253906 7.125 -3.21875 7.59375 -4.3125 Z M 8.265625 -5.875" transform="translate(232.206 71.731)"/></g></g></g><g fill="#FFF"><g><g><path d="M 14.46875 -9.734375 L 8.890625 -12.875 L 8.578125 -12.3125 L 11.171875 -10.859375 L 4.15625 1.59375 L 1.5625 0.140625 L 1.25 0.703125 L 9.421875 5.296875 L 9.734375 4.734375 L 7.140625 3.28125 Z M 18.328125 -15.96875 C 18.617188 -16.476562 18.691406 -17.003906 18.546875 -17.546875 C 18.398438 -18.097656 18.070312 -18.515625 17.5625 -18.796875 C 17.050781 -19.085938 16.523438 -19.15625 15.984375 -19 C 15.441406 -18.84375 15.023438 -18.507812 14.734375 -18 C 14.453125 -17.5 14.382812 -16.976562 14.53125 -16.4375 C 14.6875 -15.894531 15.019531 -15.476562 15.53125 -15.1875 C 16.039062 -14.90625 16.5625 -14.835938 17.09375 -14.984375 C 17.632812 -15.140625 18.046875 -15.46875 18.328125 -15.96875 Z M 18.328125 -15.96875" transform="translate(247.203 78.262)"/></g></g></g><g fill="#FFF"><g><g><path d="M 32.609375 -11.21875 L 37.015625 -11.28125 L 37.015625 -8.734375 C 36.515625 -8.816406 35.929688 -8.859375 35.265625 -8.859375 C 34.609375 -8.859375 33.867188 -8.816406 33.046875 -8.734375 C 33.046875 -5.554688 31.515625 -2.335938 28.453125 0.921875 C 25.398438 4.191406 21.710938 6.847656 17.390625 8.890625 C 13.066406 10.941406 9.046875 11.96875 5.328125 11.96875 C 3.390625 11.96875 1.8125 11.46875 0.59375 10.46875 C -0.625 9.476562 -1.234375 8.179688 -1.234375 6.578125 C -1.234375 4.171875 0.351562 1.664062 3.53125 -0.9375 C 6.71875 -3.539062 10.4375 -5.6875 14.6875 -7.375 C 18.945312 -9.070312 22.789062 -10.066406 26.21875 -10.359375 C 25.8125 -10.972656 25.171875 -11.503906 24.296875 -11.953125 C 23.429688 -12.410156 21.65625 -13.125 18.96875 -14.09375 C 16.28125 -15.070312 14.378906 -16.148438 13.265625 -17.328125 C 12.148438 -18.503906 11.59375 -20.164062 11.59375 -22.3125 C 11.59375 -24.46875 12.75 -26.929688 15.0625 -29.703125 C 17.375 -32.472656 20.113281 -34.796875 23.28125 -36.671875 C 26.445312 -38.554688 29.226562 -39.5 31.625 -39.5 C 32.695312 -39.5 33.582031 -39.113281 34.28125 -38.34375 C 34.988281 -37.582031 35.34375 -36.644531 35.34375 -35.53125 C 35.34375 -33.707031 34.242188 -31.421875 32.046875 -28.671875 C 29.859375 -25.921875 27.421875 -23.820312 24.734375 -22.375 L 23.25 -24.484375 C 24.863281 -25.316406 26.28125 -26.609375 27.5 -28.359375 C 28.71875 -30.117188 29.328125 -31.640625 29.328125 -32.921875 C 29.328125 -34.203125 28.644531 -34.84375 27.28125 -34.84375 C 25.332031 -34.84375 23.109375 -33.632812 20.609375 -31.21875 C 18.109375 -28.800781 16.859375 -26.535156 16.859375 -24.421875 C 16.859375 -22.984375 17.226562 -21.847656 17.96875 -21.015625 C 18.71875 -20.191406 20.597656 -19.171875 23.609375 -17.953125 C 26.628906 -16.734375 28.78125 -15.65625 30.0625 -14.71875 C 31.34375 -13.789062 32.191406 -12.625 32.609375 -11.21875 Z M 4.953125 4.953125 C 4.953125 6.941406 6.566406 7.9375 9.796875 7.9375 C 11.578125 7.9375 13.878906 7.285156 16.703125 5.984375 C 19.535156 4.679688 22.035156 2.863281 24.203125 0.53125 C 26.378906 -1.800781 27.46875 -4.191406 27.46875 -6.640625 C 27.46875 -6.921875 27.40625 -7.351562 27.28125 -7.9375 C 21.613281 -7.394531 16.472656 -5.800781 11.859375 -3.15625 C 7.253906 -0.507812 4.953125 2.191406 4.953125 4.953125 Z M 4.953125 4.953125" transform="translate(91.519 172.277)"/></g></g></g><g fill="#FFF"><g><g><path d="M 27.21875 -6.265625 L 28.640625 -5.203125 C 28.066406 -3.960938 27.003906 -2.785156 25.453125 -1.671875 C 23.898438 -0.554688 22.484375 0 21.203125 0 C 18.765625 0 17.546875 -1.28125 17.546875 -3.84375 C 17.546875 -5.039062 17.851562 -6.46875 18.46875 -8.125 L 16.1875 -5.765625 C 13.945312 -3.492188 12.007812 -1.960938 10.375 -1.171875 C 8.75 -0.390625 7.148438 0 5.578125 0 C 4.003906 0 2.816406 -0.441406 2.015625 -1.328125 C 1.210938 -2.222656 0.8125 -3.453125 0.8125 -5.015625 C 0.8125 -7.910156 1.925781 -10.773438 4.15625 -13.609375 C 6.382812 -16.441406 9.234375 -18.742188 12.703125 -20.515625 C 16.179688 -22.296875 19.65625 -23.207031 23.125 -23.25 L 23.25 -21.203125 L 20.640625 -20.640625 C 16.878906 -19.816406 13.5625 -18.164062 10.6875 -15.6875 C 7.820312 -13.207031 6.390625 -10.738281 6.390625 -8.28125 C 6.390625 -5.820312 7.378906 -4.59375 9.359375 -4.59375 C 11.222656 -4.59375 13.519531 -5.894531 16.25 -8.5 C 18.976562 -11.101562 21.25 -14.160156 23.0625 -17.671875 L 25.671875 -16.125 C 23.109375 -10.957031 21.828125 -7.671875 21.828125 -6.265625 C 21.828125 -5.679688 22.019531 -5.191406 22.40625 -4.796875 C 22.800781 -4.410156 23.195312 -4.21875 23.59375 -4.21875 C 23.988281 -4.21875 24.242188 -4.238281 24.359375 -4.28125 C 24.484375 -4.320312 24.609375 -4.375 24.734375 -4.4375 C 24.859375 -4.5 25.015625 -4.585938 25.203125 -4.703125 C 25.390625 -4.828125 25.554688 -4.953125 25.703125 -5.078125 C 25.847656 -5.203125 26.082031 -5.390625 26.40625 -5.640625 C 26.738281 -5.890625 27.007812 -6.097656 27.21875 -6.265625 Z M 27.21875 -6.265625" transform="translate(130.388 172.277)"/></g></g></g><g fill="#FFF"><g><g><path d="M 11.53125 -17.046875 C 13.519531 -19.078125 15.265625 -20.472656 16.765625 -21.234375 C 18.273438 -21.992188 19.703125 -22.375 21.046875 -22.375 C 22.390625 -22.375 23.503906 -21.910156 24.390625 -20.984375 C 25.285156 -20.054688 25.734375 -18.847656 25.734375 -17.359375 C 25.734375 -13.515625 24.117188 -9.472656 20.890625 -5.234375 C 17.671875 -1.003906 14.203125 1.109375 10.484375 1.109375 C 9.359375 1.109375 8.300781 0.90625 7.3125 0.5 L 8.796875 -2.234375 C 9.460938 -2.066406 9.984375 -1.984375 10.359375 -1.984375 C 12.878906 -1.984375 15.171875 -3.390625 17.234375 -6.203125 C 19.304688 -9.015625 20.34375 -11.785156 20.34375 -14.515625 C 20.34375 -15.378906 20.0625 -16.085938 19.5 -16.640625 C 18.9375 -17.203125 18.222656 -17.484375 17.359375 -17.484375 C 15.460938 -17.484375 13.238281 -15.953125 10.6875 -12.890625 C 8.144531 -9.835938 5.925781 -5.851562 4.03125 -0.9375 L 0.25 -2.484375 C 1.488281 -8.804688 3.96875 -16.515625 7.6875 -25.609375 C 11.40625 -34.703125 14.503906 -41.128906 16.984375 -44.890625 L 20.15625 -43.765625 C 17.425781 -38.679688 14.519531 -32.378906 11.4375 -24.859375 C 8.351562 -17.335938 6.546875 -12.234375 6.015625 -9.546875 C 7.710938 -12.523438 9.550781 -15.023438 11.53125 -17.046875 Z M 11.53125 -17.046875" transform="translate(159.462 172.277)"/></g></g></g><g fill="#FFF"><g><g><path d="M 17.984375 -21.953125 C 19.015625 -21.953125 19.859375 -21.597656 20.515625 -20.890625 C 21.179688 -20.191406 21.515625 -19.285156 21.515625 -18.171875 C 21.515625 -15.929688 20.234375 -13.570312 17.671875 -11.09375 L 16.1875 -12.28125 C 16.757812 -13.5625 17.046875 -14.488281 17.046875 -15.0625 C 17.046875 -16.175781 16.425781 -16.734375 15.1875 -16.734375 C 13.945312 -16.734375 12.769531 -15.945312 11.65625 -14.375 C 10.539062 -12.8125 9.226562 -10.382812 7.71875 -7.09375 C 6.207031 -3.8125 5.0625 -1.488281 4.28125 -0.125 L 0.75 -1.671875 C 3.019531 -6.835938 4.320312 -9.875 4.65625 -10.78125 C 5.769531 -14.007812 6.328125 -18.101562 6.328125 -23.0625 L 9.796875 -24 C 9.671875 -21.3125 9.484375 -19.234375 9.234375 -17.765625 C 8.984375 -16.296875 8.382812 -13.910156 7.4375 -10.609375 C 11.613281 -18.171875 15.128906 -21.953125 17.984375 -21.953125 Z M 17.984375 -21.953125" transform="translate(186.18 172.277)"/></g></g></g><g fill="#FFF"><g><g><path d="M 13.265625 -26.28125 C 10.953125 -26.28125 9.796875 -27.210938 9.796875 -29.078125 C 9.796875 -30.109375 10.082031 -30.972656 10.65625 -31.671875 C 11.238281 -32.378906 11.984375 -32.734375 12.890625 -32.734375 C 13.804688 -32.734375 14.550781 -32.460938 15.125 -31.921875 C 15.707031 -31.390625 16 -30.6875 16 -29.8125 C 16 -28.945312 15.75 -28.140625 15.25 -27.390625 C 14.757812 -26.648438 14.097656 -26.28125 13.265625 -26.28125 Z M 12.46875 -8 L 13.703125 -6.9375 C 12.710938 -5.039062 11.398438 -3.421875 9.765625 -2.078125 C 8.128906 -0.734375 6.648438 -0.0625 5.328125 -0.0625 C 3.015625 -0.0625 1.859375 -1.671875 1.859375 -4.890625 C 1.859375 -8.898438 3.507812 -14.128906 6.8125 -20.578125 C 7.5625 -21.984375 8 -22.8125 8.125 -23.0625 L 10.78125 -21.453125 C 9.914062 -19.878906 8.851562 -17.375 7.59375 -13.9375 C 6.332031 -10.507812 5.703125 -8.3125 5.703125 -7.34375 C 5.703125 -6.375 5.90625 -5.679688 6.3125 -5.265625 C 6.726562 -4.859375 7.226562 -4.65625 7.8125 -4.65625 C 8.925781 -4.65625 10.476562 -5.769531 12.46875 -8 Z M 12.46875 -8" transform="translate(208.188 172.277)"/></g></g></g><g fill="#FFF"><g><g><path d="M 26.59375 -7.5 L 27.90625 -6.515625 C 26.988281 -4.691406 25.734375 -3.160156 24.140625 -1.921875 C 22.554688 -0.679688 21.125 -0.0625 19.84375 -0.0625 C 18.5625 -0.0625 17.546875 -0.429688 16.796875 -1.171875 C 16.054688 -1.921875 15.6875 -2.851562 15.6875 -3.96875 C 15.6875 -5.082031 16.398438 -7.035156 17.828125 -9.828125 C 19.253906 -12.617188 19.96875 -14.675781 19.96875 -16 C 19.96875 -16.570312 19.726562 -17.097656 19.25 -17.578125 C 18.769531 -18.054688 18.203125 -18.296875 17.546875 -18.296875 C 15.441406 -18.296875 13.3125 -16.691406 11.15625 -13.484375 C 9.007812 -10.285156 6.613281 -5.664062 3.96875 0.375 L 0.25 -0.9375 C 1.03125 -5.726562 2.15625 -10.40625 3.625 -14.96875 C 5.09375 -19.539062 6.445312 -22.816406 7.6875 -24.796875 L 10.234375 -24 C 9.078125 -21.0625 7.609375 -15.992188 5.828125 -8.796875 C 11.535156 -18.554688 16.785156 -23.4375 21.578125 -23.4375 C 22.609375 -23.4375 23.460938 -23.082031 24.140625 -22.375 C 24.828125 -21.675781 25.171875 -20.847656 25.171875 -19.890625 C 25.171875 -18.941406 25.046875 -18.085938 24.796875 -17.328125 C 24.546875 -16.566406 23.769531 -14.789062 22.46875 -12 C 21.164062 -9.207031 20.515625 -7.457031 20.515625 -6.75 C 20.515625 -6.050781 20.722656 -5.503906 21.140625 -5.109375 C 21.554688 -4.722656 21.945312 -4.53125 22.3125 -4.53125 C 22.6875 -4.53125 23 -4.585938 23.25 -4.703125 C 23.5 -4.828125 23.773438 -5.015625 24.078125 -5.265625 C 24.390625 -5.515625 24.671875 -5.742188 24.921875 -5.953125 C 25.171875 -6.160156 25.46875 -6.4375 25.8125 -6.78125 C 26.164062 -7.132812 26.425781 -7.375 26.59375 -7.5 Z M 26.59375 -7.5" transform="translate(224.802 172.277)"/></g></g></g><g fill="#FFF"><g><g><path d="M 27.21875 -6.265625 L 28.640625 -5.203125 C 28.066406 -3.960938 27.003906 -2.785156 25.453125 -1.671875 C 23.898438 -0.554688 22.484375 0 21.203125 0 C 18.765625 0 17.546875 -1.28125 17.546875 -3.84375 C 17.546875 -5.039062 17.851562 -6.46875 18.46875 -8.125 L 16.1875 -5.765625 C 13.945312 -3.492188 12.007812 -1.960938 10.375 -1.171875 C 8.75 -0.390625 7.148438 0 5.578125 0 C 4.003906 0 2.816406 -0.441406 2.015625 -1.328125 C 1.210938 -2.222656 0.8125 -3.453125 0.8125 -5.015625 C 0.8125 -7.910156 1.925781 -10.773438 4.15625 -13.609375 C 6.382812 -16.441406 9.234375 -18.742188 12.703125 -20.515625 C 16.179688 -22.296875 19.65625 -23.207031 23.125 -23.25 L 23.25 -21.203125 L 20.640625 -20.640625 C 16.878906 -19.816406 13.5625 -18.164062 10.6875 -15.6875 C 7.820312 -13.207031 6.390625 -10.738281 6.390625 -8.28125 C 6.390625 -5.820312 7.378906 -4.59375 9.359375 -4.59375 C 11.222656 -4.59375 13.519531 -5.894531 16.25 -8.5 C 18.976562 -11.101562 21.25 -14.160156 23.0625 -17.671875 L 25.671875 -16.125 C 23.109375 -10.957031 21.828125 -7.671875 21.828125 -6.265625 C 21.828125 -5.679688 22.019531 -5.191406 22.40625 -4.796875 C 22.800781 -4.410156 23.195312 -4.21875 23.59375 -4.21875 C 23.988281 -4.21875 24.242188 -4.238281 24.359375 -4.28125 C 24.484375 -4.320312 24.609375 -4.375 24.734375 -4.4375 C 24.859375 -4.5 25.015625 -4.585938 25.203125 -4.703125 C 25.390625 -4.828125 25.554688 -4.953125 25.703125 -5.078125 C 25.847656 -5.203125 26.082031 -5.390625 26.40625 -5.640625 C 26.738281 -5.890625 27.007812 -6.097656 27.21875 -6.265625 Z M 27.21875 -6.265625" transform="translate(253.566 172.277)"/></g></g></g><g fill="#FFF"><g><g><path d="M 21.703125 -7.71875 C 21.578125 -7.71875 21.445312 -7.578125 21.3125 -7.296875 C 20.863281 -6.253906 20.367188 -5.285156 19.828125 -4.390625 C 19.296875 -3.492188 18.6875 -2.710938 18 -2.046875 C 17.320312 -1.390625 16.566406 -0.878906 15.734375 -0.515625 C 14.898438 -0.148438 13.972656 0.03125 12.953125 0.03125 C 10.648438 0.03125 8.941406 -0.863281 7.828125 -2.65625 C 6.710938 -4.457031 6.15625 -7.09375 6.15625 -10.5625 L 6.15625 -14.8125 C 6.15625 -18.164062 6.722656 -20.742188 7.859375 -22.546875 C 9.003906 -24.359375 10.765625 -25.265625 13.140625 -25.265625 C 14.128906 -25.265625 15.03125 -25.101562 15.84375 -24.78125 C 16.65625 -24.46875 17.390625 -24.03125 18.046875 -23.46875 C 18.703125 -22.914062 19.269531 -22.25 19.75 -21.46875 C 20.238281 -20.6875 20.632812 -19.835938 20.9375 -18.921875 C 21.007812 -18.671875 21.097656 -18.546875 21.203125 -18.546875 C 21.328125 -18.546875 21.390625 -18.695312 21.390625 -19 L 21.390625 -25.1875 C 21.390625 -25.414062 21.363281 -25.566406 21.3125 -25.640625 C 21.257812 -25.722656 21.1875 -25.765625 21.09375 -25.765625 C 20.96875 -25.765625 20.800781 -25.660156 20.59375 -25.453125 L 19.109375 -23.9375 C 18.296875 -24.59375 17.382812 -25.09375 16.375 -25.4375 C 15.363281 -25.78125 14.285156 -25.953125 13.140625 -25.953125 C 11.472656 -25.953125 9.921875 -25.570312 8.484375 -24.8125 C 7.054688 -24.050781 5.816406 -23.050781 4.765625 -21.8125 C 3.710938 -20.570312 2.894531 -19.160156 2.3125 -17.578125 C 1.726562 -15.992188 1.4375 -14.390625 1.4375 -12.765625 C 1.4375 -10.890625 1.769531 -9.132812 2.4375 -7.5 C 3.113281 -5.863281 3.992188 -4.4375 5.078125 -3.21875 C 6.171875 -2.007812 7.398438 -1.050781 8.765625 -0.34375 C 10.140625 0.363281 11.535156 0.71875 12.953125 0.71875 C 14.148438 0.71875 15.289062 0.484375 16.375 0.015625 C 17.46875 -0.453125 18.441406 -1.164062 19.296875 -2.125 L 21.3125 0.078125 C 21.445312 0.203125 21.5625 0.265625 21.65625 0.265625 C 21.8125 0.265625 21.890625 0.175781 21.890625 0 L 21.890625 -7.328125 C 21.890625 -7.585938 21.828125 -7.71875 21.703125 -7.71875 Z M 21.703125 -7.71875" transform="translate(138.806 230.177)"/></g></g></g><g fill="#FFF"><g><g><path d="M 8.625 0.53125 C 9.769531 0.53125 10.800781 0.269531 11.71875 -0.25 C 12.644531 -0.769531 13.429688 -1.421875 14.078125 -2.203125 C 14.722656 -2.984375 15.222656 -3.84375 15.578125 -4.78125 C 15.929688 -5.71875 16.109375 -6.609375 16.109375 -7.453125 C 16.109375 -8.285156 15.929688 -9.171875 15.578125 -10.109375 C 15.222656 -11.046875 14.722656 -11.90625 14.078125 -12.6875 C 13.429688 -13.476562 12.644531 -14.128906 11.71875 -14.640625 C 10.800781 -15.160156 9.769531 -15.421875 8.625 -15.421875 C 7.488281 -15.421875 6.457031 -15.160156 5.53125 -14.640625 C 4.601562 -14.128906 3.8125 -13.476562 3.15625 -12.6875 C 2.5 -11.90625 1.992188 -11.046875 1.640625 -10.109375 C 1.285156 -9.171875 1.109375 -8.285156 1.109375 -7.453125 C 1.109375 -6.609375 1.285156 -5.71875 1.640625 -4.78125 C 1.992188 -3.84375 2.5 -2.984375 3.15625 -2.203125 C 3.8125 -1.421875 4.601562 -0.769531 5.53125 -0.25 C 6.457031 0.269531 7.488281 0.53125 8.625 0.53125 Z M 5.046875 -8.28125 C 5.046875 -9.34375 5.085938 -10.28125 5.171875 -11.09375 C 5.265625 -11.90625 5.4375 -12.585938 5.6875 -13.140625 C 5.945312 -13.703125 6.3125 -14.117188 6.78125 -14.390625 C 7.25 -14.671875 7.863281 -14.8125 8.625 -14.8125 C 9.382812 -14.8125 10 -14.671875 10.46875 -14.390625 C 10.9375 -14.117188 11.289062 -13.703125 11.53125 -13.140625 C 11.769531 -12.585938 11.929688 -11.90625 12.015625 -11.09375 C 12.109375 -10.28125 12.15625 -9.34375 12.15625 -8.28125 L 12.15625 -6.65625 C 12.15625 -5.507812 12.109375 -4.523438 12.015625 -3.703125 C 11.929688 -2.878906 11.769531 -2.203125 11.53125 -1.671875 C 11.289062 -1.140625 10.9375 -0.738281 10.46875 -0.46875 C 10 -0.207031 9.382812 -0.078125 8.625 -0.078125 C 7.863281 -0.078125 7.25 -0.207031 6.78125 -0.46875 C 6.3125 -0.738281 5.945312 -1.140625 5.6875 -1.671875 C 5.4375 -2.203125 5.265625 -2.878906 5.171875 -3.703125 C 5.085938 -4.523438 5.046875 -5.507812 5.046875 -6.65625 Z M 5.046875 -8.28125" transform="translate(162.096 230.177)"/></g></g></g><g fill="#FFF"><g><g><path d="M 4.375 -14.515625 C 3.5625 -13.984375 3.15625 -13.347656 3.15625 -12.609375 C 3.15625 -12.253906 3.273438 -11.929688 3.515625 -11.640625 C 3.753906 -11.347656 4.085938 -11.203125 4.515625 -11.203125 C 4.953125 -11.203125 5.300781 -11.328125 5.5625 -11.578125 C 5.832031 -11.835938 5.96875 -12.160156 5.96875 -12.546875 C 5.96875 -12.722656 5.9375 -12.90625 5.875 -13.09375 C 5.8125 -13.28125 5.691406 -13.460938 5.515625 -13.640625 C 5.378906 -13.765625 5.273438 -13.851562 5.203125 -13.90625 C 5.128906 -13.957031 5.09375 -14.019531 5.09375 -14.09375 C 5.09375 -14.195312 5.164062 -14.296875 5.3125 -14.390625 C 5.46875 -14.492188 5.660156 -14.582031 5.890625 -14.65625 C 6.117188 -14.738281 6.378906 -14.804688 6.671875 -14.859375 C 6.960938 -14.910156 7.25 -14.9375 7.53125 -14.9375 C 8.3125 -14.9375 8.925781 -14.78125 9.375 -14.46875 C 9.832031 -14.164062 10.0625 -13.585938 10.0625 -12.734375 L 10.0625 -8.25 C 8.90625 -8.25 7.816406 -8.128906 6.796875 -7.890625 C 5.785156 -7.648438 4.898438 -7.300781 4.140625 -6.84375 C 3.378906 -6.382812 2.78125 -5.816406 2.34375 -5.140625 C 1.914062 -4.472656 1.703125 -3.722656 1.703125 -2.890625 C 1.703125 -2.273438 1.8125 -1.742188 2.03125 -1.296875 C 2.25 -0.859375 2.546875 -0.503906 2.921875 -0.234375 C 3.304688 0.0234375 3.742188 0.21875 4.234375 0.34375 C 4.734375 0.46875 5.257812 0.53125 5.8125 0.53125 C 6.394531 0.53125 6.921875 0.457031 7.390625 0.3125 C 7.859375 0.175781 8.273438 0.00390625 8.640625 -0.203125 C 9.015625 -0.421875 9.328125 -0.648438 9.578125 -0.890625 C 9.828125 -1.128906 10.03125 -1.363281 10.1875 -1.59375 C 10.257812 -1.0625 10.5 -0.570312 10.90625 -0.125 C 11.3125 0.3125 12.019531 0.53125 13.03125 0.53125 C 13.6875 0.53125 14.238281 0.425781 14.6875 0.21875 C 15.132812 0.0195312 15.492188 -0.210938 15.765625 -0.484375 C 16.046875 -0.765625 16.242188 -1.050781 16.359375 -1.34375 C 16.472656 -1.632812 16.53125 -1.859375 16.53125 -2.015625 C 16.53125 -2.140625 16.492188 -2.203125 16.421875 -2.203125 C 16.335938 -2.203125 16.25 -2.101562 16.15625 -1.90625 C 15.945312 -1.46875 15.691406 -1.113281 15.390625 -0.84375 C 15.085938 -0.582031 14.757812 -0.453125 14.40625 -0.453125 C 13.894531 -0.453125 13.585938 -0.660156 13.484375 -1.078125 C 13.390625 -1.492188 13.34375 -2.070312 13.34375 -2.8125 L 13.34375 -12.015625 C 13.34375 -13.097656 12.9375 -13.9375 12.125 -14.53125 C 11.3125 -15.125 10.066406 -15.421875 8.390625 -15.421875 C 7.609375 -15.421875 6.851562 -15.335938 6.125 -15.171875 C 5.40625 -15.015625 4.820312 -14.796875 4.375 -14.515625 Z M 10.0625 -7.859375 L 10.0625 -2.578125 C 10.0625 -2.347656 9.953125 -2.109375 9.734375 -1.859375 C 9.523438 -1.609375 9.257812 -1.375 8.9375 -1.15625 C 8.625 -0.945312 8.296875 -0.773438 7.953125 -0.640625 C 7.617188 -0.515625 7.335938 -0.453125 7.109375 -0.453125 C 6.316406 -0.453125 5.71875 -0.753906 5.3125 -1.359375 C 4.914062 -1.972656 4.71875 -2.800781 4.71875 -3.84375 C 4.71875 -4.675781 4.867188 -5.34375 5.171875 -5.84375 C 5.472656 -6.351562 5.867188 -6.75 6.359375 -7.03125 C 6.859375 -7.3125 7.429688 -7.507812 8.078125 -7.625 C 8.722656 -7.738281 9.382812 -7.816406 10.0625 -7.859375 Z M 10.0625 -7.859375" transform="translate(179.078 230.177)"/></g></g></g><g fill="#FFF"><g><g><path d="M 5.203125 -6.578125 L 5.203125 -8.25 C 5.203125 -9.488281 5.273438 -10.523438 5.421875 -11.359375 C 5.578125 -12.191406 5.8125 -12.867188 6.125 -13.390625 C 6.445312 -13.910156 6.847656 -14.273438 7.328125 -14.484375 C 7.816406 -14.703125 8.390625 -14.8125 9.046875 -14.8125 C 9.984375 -14.8125 10.617188 -14.691406 10.953125 -14.453125 C 11.296875 -14.210938 11.46875 -14.046875 11.46875 -13.953125 C 11.46875 -13.847656 11.429688 -13.757812 11.359375 -13.6875 C 11.179688 -13.476562 11.046875 -13.265625 10.953125 -13.046875 C 10.867188 -12.835938 10.828125 -12.566406 10.828125 -12.234375 C 10.828125 -11.722656 10.988281 -11.332031 11.3125 -11.0625 C 11.644531 -10.800781 12.03125 -10.671875 12.46875 -10.671875 C 12.96875 -10.671875 13.367188 -10.820312 13.671875 -11.125 C 13.984375 -11.4375 14.140625 -11.832031 14.140625 -12.3125 C 14.140625 -12.789062 13.972656 -13.226562 13.640625 -13.625 C 13.304688 -14.019531 12.894531 -14.347656 12.40625 -14.609375 C 11.914062 -14.878906 11.378906 -15.082031 10.796875 -15.21875 C 10.210938 -15.351562 9.65625 -15.421875 9.125 -15.421875 C 8.132812 -15.421875 7.171875 -15.222656 6.234375 -14.828125 C 5.296875 -14.441406 4.457031 -13.898438 3.71875 -13.203125 C 2.988281 -12.503906 2.394531 -11.660156 1.9375 -10.671875 C 1.476562 -9.691406 1.25 -8.601562 1.25 -7.40625 C 1.25 -6.195312 1.46875 -5.101562 1.90625 -4.125 C 2.351562 -3.144531 2.9375 -2.304688 3.65625 -1.609375 C 4.382812 -0.910156 5.210938 -0.378906 6.140625 -0.015625 C 7.066406 0.347656 8 0.53125 8.9375 0.53125 C 9.875 0.53125 10.695312 0.382812 11.40625 0.09375 C 12.113281 -0.195312 12.707031 -0.5625 13.1875 -1 C 13.664062 -1.445312 14.046875 -1.914062 14.328125 -2.40625 C 14.609375 -2.90625 14.8125 -3.359375 14.9375 -3.765625 C 14.988281 -3.910156 15.015625 -4.007812 15.015625 -4.0625 C 15.015625 -4.289062 14.910156 -4.40625 14.703125 -4.40625 C 14.554688 -4.40625 14.441406 -4.28125 14.359375 -4.03125 C 14.210938 -3.550781 13.984375 -3.078125 13.671875 -2.609375 C 13.367188 -2.140625 12.992188 -1.710938 12.546875 -1.328125 C 12.109375 -0.953125 11.59375 -0.648438 11 -0.421875 C 10.40625 -0.191406 9.753906 -0.078125 9.046875 -0.078125 C 8.253906 -0.078125 7.613281 -0.191406 7.125 -0.421875 C 6.632812 -0.648438 6.242188 -1.019531 5.953125 -1.53125 C 5.660156 -2.050781 5.460938 -2.722656 5.359375 -3.546875 C 5.253906 -4.367188 5.203125 -5.378906 5.203125 -6.578125 Z M 5.203125 -6.578125" transform="translate(195.909 230.177)"/></g></g></g><g fill="#FFF"><g><g><path d="M 7.0625 -12.234375 L 7.0625 -25.53125 L 1.140625 -25.53125 L 1.140625 -24.921875 L 3.796875 -24.921875 L 3.796875 -0.609375 L 1.140625 -0.609375 L 1.140625 0 L 9.734375 0 L 9.734375 -0.609375 L 7.0625 -0.609375 L 7.0625 -10.109375 C 7.0625 -10.515625 7.171875 -10.960938 7.390625 -11.453125 C 7.609375 -11.953125 7.921875 -12.421875 8.328125 -12.859375 C 8.734375 -13.304688 9.203125 -13.679688 9.734375 -13.984375 C 10.265625 -14.285156 10.859375 -14.4375 11.515625 -14.4375 C 12.046875 -14.4375 12.460938 -14.347656 12.765625 -14.171875 C 13.066406 -13.992188 13.296875 -13.765625 13.453125 -13.484375 C 13.609375 -13.210938 13.703125 -12.90625 13.734375 -12.5625 C 13.773438 -12.21875 13.796875 -11.867188 13.796875 -11.515625 L 13.796875 -0.609375 L 11.171875 -0.609375 L 11.171875 0 L 19.71875 0 L 19.71875 -0.609375 L 17.0625 -0.609375 L 17.0625 -11.9375 C 17.0625 -13.070312 16.675781 -13.9375 15.90625 -14.53125 C 15.132812 -15.125 14.0625 -15.421875 12.6875 -15.421875 C 11.195312 -15.421875 10 -15.101562 9.09375 -14.46875 C 8.195312 -13.84375 7.519531 -13.097656 7.0625 -12.234375 Z M 7.0625 -12.234375" transform="translate(211.485 230.177)"/></g></g></g><g fill="#FFF"><g><g><path d="M 7.484375 -14.890625 L 1.375 -14.890625 L 1.375 -14.28125 L 4.21875 -14.28125 L 4.21875 -0.609375 L 1.375 -0.609375 L 1.375 0 L 10.34375 0 L 10.34375 -0.609375 L 7.484375 -0.609375 Z M 7.796875 -21.921875 C 7.796875 -22.484375 7.601562 -22.953125 7.21875 -23.328125 C 6.84375 -23.710938 6.375 -23.90625 5.8125 -23.90625 C 5.257812 -23.90625 4.789062 -23.710938 4.40625 -23.328125 C 4.03125 -22.953125 3.84375 -22.484375 3.84375 -21.921875 C 3.84375 -21.367188 4.03125 -20.898438 4.40625 -20.515625 C 4.789062 -20.140625 5.257812 -19.953125 5.8125 -19.953125 C 6.375 -19.953125 6.84375 -20.140625 7.21875 -20.515625 C 7.601562 -20.898438 7.796875 -21.367188 7.796875 -21.921875 Z M 7.796875 -21.921875" transform="translate(231.963 230.177)"/></g></g></g><g fill="#FFF"><g><g><path d="M 7.296875 -12.015625 L 7.296875 -14.890625 L 1.375 -14.890625 L 1.375 -14.28125 L 4.03125 -14.28125 L 4.03125 -0.609375 L 1.375 -0.609375 L 1.375 0 L 9.953125 0 L 9.953125 -0.609375 L 7.296875 -0.609375 L 7.296875 -10.03125 C 7.296875 -10.457031 7.410156 -10.914062 7.640625 -11.40625 C 7.867188 -11.90625 8.164062 -12.367188 8.53125 -12.796875 C 8.894531 -13.234375 9.3125 -13.585938 9.78125 -13.859375 C 10.25 -14.140625 10.738281 -14.28125 11.25 -14.28125 C 11.976562 -14.28125 12.515625 -14.050781 12.859375 -13.59375 C 13.203125 -13.144531 13.375 -12.425781 13.375 -11.4375 L 13.375 -0.609375 L 10.71875 -0.609375 L 10.71875 0 L 19.296875 0 L 19.296875 -0.609375 L 16.640625 -0.609375 L 16.640625 -11.703125 C 16.640625 -13.023438 16.265625 -13.9375 15.515625 -14.4375 C 14.773438 -14.945312 13.820312 -15.203125 12.65625 -15.203125 C 11.257812 -15.203125 10.125 -14.882812 9.25 -14.25 C 8.375 -13.613281 7.722656 -12.867188 7.296875 -12.015625 Z M 7.296875 -12.015625" transform="translate(243.133 230.177)"/></g></g></g><g fill="#FFF"><g><g><path d="M 4.984375 -9.5 L 4.984375 -10.796875 C 4.984375 -12.335938 5.195312 -13.390625 5.625 -13.953125 C 6.050781 -14.523438 6.722656 -14.8125 7.640625 -14.8125 C 8.546875 -14.8125 9.210938 -14.523438 9.640625 -13.953125 C 10.078125 -13.390625 10.296875 -12.335938 10.296875 -10.796875 L 10.296875 -9.5 C 10.296875 -8.207031 10.117188 -7.21875 9.765625 -6.53125 C 9.410156 -5.851562 8.703125 -5.515625 7.640625 -5.515625 C 6.578125 -5.515625 5.867188 -5.851562 5.515625 -6.53125 C 5.160156 -7.21875 4.984375 -8.207031 4.984375 -9.5 Z M 5.46875 -5.203125 C 5.695312 -5.128906 5.992188 -5.0625 6.359375 -5 C 6.734375 -4.9375 7.160156 -4.90625 7.640625 -4.90625 C 8.773438 -4.90625 9.734375 -5.09375 10.515625 -5.46875 C 11.304688 -5.851562 11.941406 -6.316406 12.421875 -6.859375 C 12.898438 -7.398438 13.238281 -7.972656 13.4375 -8.578125 C 13.644531 -9.191406 13.75 -9.726562 13.75 -10.1875 C 13.75 -11.707031 13.15625 -13 11.96875 -14.0625 C 12.550781 -14.75 13.097656 -15.203125 13.609375 -15.421875 C 13.503906 -15.222656 13.453125 -15.019531 13.453125 -14.8125 C 13.453125 -14.507812 13.554688 -14.253906 13.765625 -14.046875 C 13.984375 -13.847656 14.285156 -13.75 14.671875 -13.75 C 15.078125 -13.75 15.367188 -13.867188 15.546875 -14.109375 C 15.722656 -14.359375 15.8125 -14.609375 15.8125 -14.859375 C 15.8125 -15.234375 15.671875 -15.519531 15.390625 -15.71875 C 15.109375 -15.925781 14.78125 -16.03125 14.40625 -16.03125 C 13.4375 -16.03125 12.472656 -15.488281 11.515625 -14.40625 C 11.160156 -14.707031 10.628906 -14.953125 9.921875 -15.140625 C 9.210938 -15.328125 8.453125 -15.421875 7.640625 -15.421875 C 6.648438 -15.421875 5.769531 -15.273438 5 -14.984375 C 4.226562 -14.691406 3.585938 -14.300781 3.078125 -13.8125 C 2.566406 -13.320312 2.175781 -12.757812 1.90625 -12.125 C 1.644531 -11.488281 1.515625 -10.84375 1.515625 -10.1875 C 1.515625 -9.070312 1.835938 -8.109375 2.484375 -7.296875 C 3.128906 -6.484375 3.859375 -5.875 4.671875 -5.46875 C 3.453125 -5.113281 2.597656 -4.65625 2.109375 -4.09375 C 1.617188 -3.539062 1.375 -2.820312 1.375 -1.9375 C 1.375 -1.351562 1.46875 -0.84375 1.65625 -0.40625 C 1.84375 0.0195312 2.09375 0.382812 2.40625 0.6875 C 2.726562 0.988281 3.082031 1.222656 3.46875 1.390625 C 3.863281 1.554688 4.253906 1.660156 4.640625 1.703125 C 3.578125 2.085938 2.753906 2.617188 2.171875 3.296875 C 1.585938 3.984375 1.296875 4.820312 1.296875 5.8125 C 1.296875 6.519531 1.457031 7.140625 1.78125 7.671875 C 2.113281 8.203125 2.582031 8.640625 3.1875 8.984375 C 3.800781 9.328125 4.523438 9.585938 5.359375 9.765625 C 6.191406 9.941406 7.113281 10.03125 8.125 10.03125 C 9.144531 10.03125 10.097656 9.890625 10.984375 9.609375 C 11.867188 9.335938 12.644531 8.925781 13.3125 8.375 C 13.988281 7.832031 14.515625 7.164062 14.890625 6.375 C 15.273438 5.59375 15.46875 4.679688 15.46875 3.640625 C 15.46875 2.046875 15.039062 0.875 14.1875 0.125 C 13.34375 -0.613281 12.238281 -0.984375 10.875 -0.984375 L 4.75 -0.984375 C 3.15625 -0.984375 2.359375 -1.53125 2.359375 -2.625 C 2.359375 -3.351562 2.648438 -3.898438 3.234375 -4.265625 C 3.816406 -4.640625 4.5625 -4.953125 5.46875 -5.203125 Z M 14.0625 5.203125 C 14.0625 5.960938 13.875 6.609375 13.5 7.140625 C 13.132812 7.671875 12.671875 8.109375 12.109375 8.453125 C 11.554688 8.796875 10.929688 9.039062 10.234375 9.1875 C 9.546875 9.34375 8.882812 9.421875 8.25 9.421875 C 7.207031 9.421875 6.359375 9.28125 5.703125 9 C 5.046875 8.726562 4.523438 8.378906 4.140625 7.953125 C 3.765625 7.535156 3.5 7.066406 3.34375 6.546875 C 3.1875 6.035156 3.109375 5.550781 3.109375 5.09375 C 3.109375 4.613281 3.191406 4.160156 3.359375 3.734375 C 3.523438 3.316406 3.726562 2.960938 3.96875 2.671875 C 4.207031 2.378906 4.457031 2.148438 4.71875 1.984375 C 4.988281 1.828125 5.226562 1.75 5.4375 1.75 L 10.265625 1.75 C 10.867188 1.75 11.40625 1.84375 11.875 2.03125 C 12.34375 2.21875 12.738281 2.476562 13.0625 2.8125 C 13.394531 3.144531 13.644531 3.507812 13.8125 3.90625 C 13.976562 4.3125 14.0625 4.742188 14.0625 5.203125 Z M 14.0625 5.203125" transform="translate(263.307 230.177)"/></g></g></g></svg>