<svg xmlns="http://www.w3.org/2000/svg" width="375" viewBox="0 0 375 75" height="75" version="1.0"><g fill="#FFF"><g><g><path d="M 33.09375 -11.390625 L 37.5625 -11.453125 L 37.5625 -8.875 C 37.0625 -8.957031 36.472656 -9 35.796875 -9 C 35.128906 -9 34.375 -8.957031 33.53125 -8.875 C 33.53125 -5.644531 31.976562 -2.375 28.875 0.9375 C 25.769531 4.257812 22.023438 6.957031 17.640625 9.03125 C 13.265625 11.101562 9.1875 12.140625 5.40625 12.140625 C 3.4375 12.140625 1.832031 11.632812 0.59375 10.625 C -0.644531 9.625 -1.265625 8.304688 -1.265625 6.671875 C -1.265625 4.234375 0.347656 1.695312 3.578125 -0.9375 C 6.816406 -3.582031 10.59375 -5.765625 14.90625 -7.484375 C 19.226562 -9.203125 23.128906 -10.210938 26.609375 -10.515625 C 26.191406 -11.140625 25.539062 -11.679688 24.65625 -12.140625 C 23.78125 -12.609375 21.976562 -13.332031 19.25 -14.3125 C 16.53125 -15.300781 14.601562 -16.390625 13.46875 -17.578125 C 12.332031 -18.773438 11.765625 -20.460938 11.765625 -22.640625 C 11.765625 -24.828125 12.9375 -27.328125 15.28125 -30.140625 C 17.632812 -32.953125 20.414062 -35.3125 23.625 -37.21875 C 26.832031 -39.125 29.65625 -40.078125 32.09375 -40.078125 C 33.175781 -40.078125 34.070312 -39.6875 34.78125 -38.90625 C 35.5 -38.132812 35.859375 -37.179688 35.859375 -36.046875 C 35.859375 -34.203125 34.75 -31.882812 32.53125 -29.09375 C 30.3125 -26.3125 27.835938 -24.1875 25.109375 -22.71875 L 23.59375 -24.859375 C 25.226562 -25.691406 26.664062 -27 27.90625 -28.78125 C 29.144531 -30.5625 29.765625 -32.101562 29.765625 -33.40625 C 29.765625 -34.707031 29.070312 -35.359375 27.6875 -35.359375 C 25.71875 -35.359375 23.460938 -34.128906 20.921875 -31.671875 C 18.378906 -29.222656 17.109375 -26.929688 17.109375 -24.796875 C 17.109375 -23.328125 17.484375 -22.171875 18.234375 -21.328125 C 18.992188 -20.492188 20.90625 -19.457031 23.96875 -18.21875 C 27.03125 -16.976562 29.210938 -15.882812 30.515625 -14.9375 C 31.816406 -14 32.675781 -12.816406 33.09375 -11.390625 Z M 5.03125 5.03125 C 5.03125 7.039062 6.664062 8.046875 9.9375 8.046875 C 11.738281 8.046875 14.078125 7.382812 16.953125 6.0625 C 19.828125 4.75 22.363281 2.90625 24.5625 0.53125 C 26.769531 -1.832031 27.875 -4.253906 27.875 -6.734375 C 27.875 -7.023438 27.8125 -7.460938 27.6875 -8.046875 C 21.9375 -7.503906 16.722656 -5.890625 12.046875 -3.203125 C 7.367188 -0.523438 5.03125 2.21875 5.03125 5.03125 Z M 5.03125 5.03125" transform="translate(0 52.042)"/></g></g></g><g fill="#FFF"><g><g><path d="M 27.625 -6.359375 L 29.0625 -5.28125 C 28.476562 -4.019531 27.398438 -2.820312 25.828125 -1.6875 C 24.253906 -0.5625 22.816406 0 21.515625 0 C 19.046875 0 17.8125 -1.300781 17.8125 -3.90625 C 17.8125 -5.113281 18.125 -6.5625 18.75 -8.25 L 16.421875 -5.859375 C 14.160156 -3.546875 12.195312 -1.988281 10.53125 -1.1875 C 8.875 -0.394531 7.25 0 5.65625 0 C 4.0625 0 2.851562 -0.445312 2.03125 -1.34375 C 1.21875 -2.25 0.8125 -3.5 0.8125 -5.09375 C 0.8125 -8.03125 1.941406 -10.9375 4.203125 -13.8125 C 6.472656 -16.6875 9.367188 -19.023438 12.890625 -20.828125 C 16.421875 -22.628906 19.945312 -23.550781 23.46875 -23.59375 L 23.59375 -21.515625 L 20.953125 -20.953125 C 17.140625 -20.109375 13.773438 -18.425781 10.859375 -15.90625 C 7.941406 -13.394531 6.484375 -10.890625 6.484375 -8.390625 C 6.484375 -5.898438 7.488281 -4.65625 9.5 -4.65625 C 11.382812 -4.65625 13.710938 -5.972656 16.484375 -8.609375 C 19.253906 -11.253906 21.5625 -14.363281 23.40625 -17.9375 L 26.046875 -16.359375 C 23.453125 -11.117188 22.15625 -7.785156 22.15625 -6.359375 C 22.15625 -5.765625 22.351562 -5.269531 22.75 -4.875 C 23.144531 -4.476562 23.539062 -4.28125 23.9375 -4.28125 C 24.34375 -4.28125 24.609375 -4.300781 24.734375 -4.34375 C 24.859375 -4.382812 24.984375 -4.4375 25.109375 -4.5 C 25.234375 -4.5625 25.390625 -4.65625 25.578125 -4.78125 C 25.765625 -4.90625 25.929688 -5.03125 26.078125 -5.15625 C 26.222656 -5.28125 26.460938 -5.46875 26.796875 -5.71875 C 27.140625 -5.976562 27.414062 -6.191406 27.625 -6.359375 Z M 27.625 -6.359375" transform="translate(39.442 52.042)"/></g></g></g><g fill="#FFF"><g><g><path d="M 11.703125 -17.296875 C 13.710938 -19.359375 15.484375 -20.773438 17.015625 -21.546875 C 18.546875 -22.328125 19.992188 -22.71875 21.359375 -22.71875 C 22.722656 -22.71875 23.851562 -22.242188 24.75 -21.296875 C 25.65625 -20.359375 26.109375 -19.132812 26.109375 -17.625 C 26.109375 -13.71875 24.472656 -9.613281 21.203125 -5.3125 C 17.929688 -1.019531 14.410156 1.125 10.640625 1.125 C 9.503906 1.125 8.429688 0.914062 7.421875 0.5 L 8.9375 -2.265625 C 9.601562 -2.097656 10.128906 -2.015625 10.515625 -2.015625 C 13.066406 -2.015625 15.390625 -3.441406 17.484375 -6.296875 C 19.585938 -9.148438 20.640625 -11.957031 20.640625 -14.71875 C 20.640625 -15.601562 20.351562 -16.328125 19.78125 -16.890625 C 19.21875 -17.460938 18.5 -17.75 17.625 -17.75 C 15.6875 -17.75 13.425781 -16.195312 10.84375 -13.09375 C 8.269531 -9.988281 6.019531 -5.9375 4.09375 -0.9375 L 0.25 -2.515625 C 1.507812 -8.929688 4.023438 -16.753906 7.796875 -25.984375 C 11.578125 -35.210938 14.722656 -41.738281 17.234375 -45.5625 L 20.453125 -44.421875 C 17.679688 -39.265625 14.734375 -32.867188 11.609375 -25.234375 C 8.484375 -17.597656 6.648438 -12.414062 6.109375 -9.6875 C 7.828125 -12.707031 9.691406 -15.242188 11.703125 -17.296875 Z M 11.703125 -17.296875" transform="translate(68.945 52.042)"/></g></g></g><g fill="#FFF"><g><g><path d="M 18.25 -22.28125 C 19.300781 -22.28125 20.160156 -21.921875 20.828125 -21.203125 C 21.492188 -20.492188 21.828125 -19.570312 21.828125 -18.4375 C 21.828125 -16.164062 20.53125 -13.773438 17.9375 -11.265625 L 16.421875 -12.453125 C 17.003906 -13.753906 17.296875 -14.703125 17.296875 -15.296875 C 17.296875 -16.421875 16.664062 -16.984375 15.40625 -16.984375 C 14.15625 -16.984375 12.960938 -16.1875 11.828125 -14.59375 C 10.691406 -13 9.359375 -10.535156 7.828125 -7.203125 C 6.296875 -3.867188 5.132812 -1.507812 4.34375 -0.125 L 0.75 -1.703125 C 3.0625 -6.941406 4.382812 -10.023438 4.71875 -10.953125 C 5.851562 -14.222656 6.421875 -18.375 6.421875 -23.40625 L 9.9375 -24.34375 C 9.8125 -21.625 9.625 -19.519531 9.375 -18.03125 C 9.125 -16.539062 8.515625 -14.117188 7.546875 -10.765625 C 11.785156 -18.441406 15.351562 -22.28125 18.25 -22.28125 Z M 18.25 -22.28125" transform="translate(96.058 52.042)"/></g></g></g><g fill="#FFF"><g><g><path d="M 13.46875 -26.671875 C 11.113281 -26.671875 9.9375 -27.617188 9.9375 -29.515625 C 9.9375 -30.554688 10.226562 -31.429688 10.8125 -32.140625 C 11.40625 -32.859375 12.160156 -33.21875 13.078125 -33.21875 C 14.003906 -33.21875 14.757812 -32.945312 15.34375 -32.40625 C 15.9375 -31.863281 16.234375 -31.148438 16.234375 -30.265625 C 16.234375 -29.378906 15.976562 -28.554688 15.46875 -27.796875 C 14.96875 -27.046875 14.300781 -26.671875 13.46875 -26.671875 Z M 12.640625 -8.109375 L 13.90625 -7.046875 C 12.894531 -5.117188 11.5625 -3.472656 9.90625 -2.109375 C 8.25 -0.742188 6.75 -0.0625 5.40625 -0.0625 C 3.0625 -0.0625 1.890625 -1.695312 1.890625 -4.96875 C 1.890625 -9.039062 3.566406 -14.347656 6.921875 -20.890625 C 7.671875 -22.316406 8.113281 -23.15625 8.25 -23.40625 L 10.953125 -21.765625 C 10.066406 -20.171875 8.984375 -17.632812 7.703125 -14.15625 C 6.421875 -10.675781 5.78125 -8.441406 5.78125 -7.453125 C 5.78125 -6.472656 5.988281 -5.769531 6.40625 -5.34375 C 6.832031 -4.925781 7.335938 -4.71875 7.921875 -4.71875 C 9.054688 -4.71875 10.628906 -5.847656 12.640625 -8.109375 Z M 12.640625 -8.109375" transform="translate(118.39 52.042)"/></g></g></g><g fill="#FFF"><g><g><path d="M 27 -7.609375 L 28.3125 -6.609375 C 27.394531 -4.765625 26.125 -3.210938 24.5 -1.953125 C 22.882812 -0.691406 21.425781 -0.0625 20.125 -0.0625 C 18.832031 -0.0625 17.804688 -0.4375 17.046875 -1.1875 C 16.296875 -1.945312 15.921875 -2.890625 15.921875 -4.015625 C 15.921875 -5.148438 16.644531 -7.132812 18.09375 -9.96875 C 19.539062 -12.800781 20.265625 -14.890625 20.265625 -16.234375 C 20.265625 -16.816406 20.019531 -17.347656 19.53125 -17.828125 C 19.050781 -18.316406 18.476562 -18.5625 17.8125 -18.5625 C 15.664062 -18.5625 13.5 -16.9375 11.3125 -13.6875 C 9.132812 -10.4375 6.707031 -5.75 4.03125 0.375 L 0.25 -0.9375 C 1.050781 -5.8125 2.195312 -10.566406 3.6875 -15.203125 C 5.175781 -19.835938 6.546875 -23.160156 7.796875 -25.171875 L 10.375 -24.34375 C 9.207031 -21.375 7.722656 -16.238281 5.921875 -8.9375 C 11.703125 -18.832031 17.023438 -23.78125 21.890625 -23.78125 C 22.941406 -23.78125 23.8125 -23.421875 24.5 -22.703125 C 25.195312 -21.992188 25.546875 -21.15625 25.546875 -20.1875 C 25.546875 -19.226562 25.421875 -18.359375 25.171875 -17.578125 C 24.921875 -16.804688 24.132812 -15.003906 22.8125 -12.171875 C 21.488281 -9.335938 20.828125 -7.5625 20.828125 -6.84375 C 20.828125 -6.132812 21.035156 -5.582031 21.453125 -5.1875 C 21.867188 -4.789062 22.265625 -4.59375 22.640625 -4.59375 C 23.023438 -4.59375 23.34375 -4.65625 23.59375 -4.78125 C 23.84375 -4.90625 24.125 -5.09375 24.4375 -5.34375 C 24.757812 -5.59375 25.046875 -5.820312 25.296875 -6.03125 C 25.546875 -6.25 25.847656 -6.535156 26.203125 -6.890625 C 26.554688 -7.242188 26.820312 -7.484375 27 -7.609375 Z M 27 -7.609375" transform="translate(135.248 52.042)"/></g></g></g><g fill="#FFF"><g><g><path d="M 27.625 -6.359375 L 29.0625 -5.28125 C 28.476562 -4.019531 27.398438 -2.820312 25.828125 -1.6875 C 24.253906 -0.5625 22.816406 0 21.515625 0 C 19.046875 0 17.8125 -1.300781 17.8125 -3.90625 C 17.8125 -5.113281 18.125 -6.5625 18.75 -8.25 L 16.421875 -5.859375 C 14.160156 -3.546875 12.195312 -1.988281 10.53125 -1.1875 C 8.875 -0.394531 7.25 0 5.65625 0 C 4.0625 0 2.851562 -0.445312 2.03125 -1.34375 C 1.21875 -2.25 0.8125 -3.5 0.8125 -5.09375 C 0.8125 -8.03125 1.941406 -10.9375 4.203125 -13.8125 C 6.472656 -16.6875 9.367188 -19.023438 12.890625 -20.828125 C 16.421875 -22.628906 19.945312 -23.550781 23.46875 -23.59375 L 23.59375 -21.515625 L 20.953125 -20.953125 C 17.140625 -20.109375 13.773438 -18.425781 10.859375 -15.90625 C 7.941406 -13.394531 6.484375 -10.890625 6.484375 -8.390625 C 6.484375 -5.898438 7.488281 -4.65625 9.5 -4.65625 C 11.382812 -4.65625 13.710938 -5.972656 16.484375 -8.609375 C 19.253906 -11.253906 21.5625 -14.363281 23.40625 -17.9375 L 26.046875 -16.359375 C 23.453125 -11.117188 22.15625 -7.785156 22.15625 -6.359375 C 22.15625 -5.765625 22.351562 -5.269531 22.75 -4.875 C 23.144531 -4.476562 23.539062 -4.28125 23.9375 -4.28125 C 24.34375 -4.28125 24.609375 -4.300781 24.734375 -4.34375 C 24.859375 -4.382812 24.984375 -4.4375 25.109375 -4.5 C 25.234375 -4.5625 25.390625 -4.65625 25.578125 -4.78125 C 25.765625 -4.90625 25.929688 -5.03125 26.078125 -5.15625 C 26.222656 -5.28125 26.460938 -5.46875 26.796875 -5.71875 C 27.140625 -5.976562 27.414062 -6.191406 27.625 -6.359375 Z M 27.625 -6.359375" transform="translate(164.437 52.042)"/></g></g></g><g fill="#FFF"><g><g><path d="M 24.03125 -8.546875 C 23.894531 -8.546875 23.753906 -8.390625 23.609375 -8.078125 C 23.109375 -6.929688 22.5625 -5.859375 21.96875 -4.859375 C 21.382812 -3.867188 20.710938 -3.003906 19.953125 -2.265625 C 19.191406 -1.535156 18.347656 -0.96875 17.421875 -0.5625 C 16.492188 -0.15625 15.472656 0.046875 14.359375 0.046875 C 11.804688 0.046875 9.910156 -0.945312 8.671875 -2.9375 C 7.429688 -4.9375 6.8125 -7.859375 6.8125 -11.703125 L 6.8125 -16.421875 C 6.8125 -20.117188 7.441406 -22.972656 8.703125 -24.984375 C 9.972656 -26.992188 11.925781 -28 14.5625 -28 C 15.65625 -28 16.648438 -27.820312 17.546875 -27.46875 C 18.453125 -27.113281 19.269531 -26.628906 20 -26.015625 C 20.726562 -25.398438 21.359375 -24.65625 21.890625 -23.78125 C 22.421875 -22.914062 22.851562 -21.976562 23.1875 -20.96875 C 23.269531 -20.6875 23.367188 -20.546875 23.484375 -20.546875 C 23.628906 -20.546875 23.703125 -20.710938 23.703125 -21.046875 L 23.703125 -27.90625 C 23.703125 -28.15625 23.671875 -28.320312 23.609375 -28.40625 C 23.554688 -28.5 23.472656 -28.546875 23.359375 -28.546875 C 23.222656 -28.546875 23.039062 -28.429688 22.8125 -28.203125 L 21.171875 -26.515625 C 20.273438 -27.242188 19.265625 -27.796875 18.140625 -28.171875 C 17.015625 -28.554688 15.820312 -28.75 14.5625 -28.75 C 12.707031 -28.75 10.988281 -28.328125 9.40625 -27.484375 C 7.820312 -26.640625 6.445312 -25.53125 5.28125 -24.15625 C 4.113281 -22.78125 3.207031 -21.21875 2.5625 -19.46875 C 1.914062 -17.71875 1.59375 -15.941406 1.59375 -14.140625 C 1.59375 -12.066406 1.960938 -10.125 2.703125 -8.3125 C 3.453125 -6.5 4.429688 -4.921875 5.640625 -3.578125 C 6.847656 -2.234375 8.207031 -1.164062 9.71875 -0.375 C 11.238281 0.40625 12.785156 0.796875 14.359375 0.796875 C 15.671875 0.796875 16.929688 0.535156 18.140625 0.015625 C 19.347656 -0.492188 20.429688 -1.285156 21.390625 -2.359375 L 23.609375 0.078125 C 23.753906 0.222656 23.882812 0.296875 24 0.296875 C 24.164062 0.296875 24.25 0.195312 24.25 0 L 24.25 -8.125 C 24.25 -8.40625 24.175781 -8.546875 24.03125 -8.546875 Z M 24.03125 -8.546875" transform="translate(211.37 51.705)"/></g></g></g><g fill="#FFF"><g><g><path d="M 9.5625 0.59375 C 10.820312 0.59375 11.960938 0.304688 12.984375 -0.265625 C 14.003906 -0.847656 14.875 -1.570312 15.59375 -2.4375 C 16.3125 -3.3125 16.863281 -4.265625 17.25 -5.296875 C 17.644531 -6.335938 17.84375 -7.320312 17.84375 -8.25 C 17.84375 -9.175781 17.644531 -10.15625 17.25 -11.1875 C 16.863281 -12.226562 16.3125 -13.179688 15.59375 -14.046875 C 14.875 -14.921875 14.003906 -15.644531 12.984375 -16.21875 C 11.960938 -16.800781 10.820312 -17.09375 9.5625 -17.09375 C 8.289062 -17.09375 7.144531 -16.800781 6.125 -16.21875 C 5.101562 -15.644531 4.226562 -14.921875 3.5 -14.046875 C 2.769531 -13.179688 2.207031 -12.226562 1.8125 -11.1875 C 1.414062 -10.15625 1.21875 -9.175781 1.21875 -8.25 C 1.21875 -7.320312 1.414062 -6.335938 1.8125 -5.296875 C 2.207031 -4.265625 2.769531 -3.3125 3.5 -2.4375 C 4.226562 -1.570312 5.101562 -0.847656 6.125 -0.265625 C 7.144531 0.304688 8.289062 0.59375 9.5625 0.59375 Z M 5.59375 -9.171875 C 5.59375 -10.347656 5.640625 -11.382812 5.734375 -12.28125 C 5.835938 -13.1875 6.03125 -13.945312 6.3125 -14.5625 C 6.59375 -15.175781 6.992188 -15.640625 7.515625 -15.953125 C 8.035156 -16.265625 8.71875 -16.421875 9.5625 -16.421875 C 10.394531 -16.421875 11.070312 -16.265625 11.59375 -15.953125 C 12.113281 -15.640625 12.503906 -15.175781 12.765625 -14.5625 C 13.035156 -13.945312 13.21875 -13.1875 13.3125 -12.28125 C 13.414062 -11.382812 13.46875 -10.347656 13.46875 -9.171875 L 13.46875 -7.359375 C 13.46875 -6.097656 13.414062 -5.007812 13.3125 -4.09375 C 13.21875 -3.1875 13.035156 -2.4375 12.765625 -1.84375 C 12.503906 -1.257812 12.113281 -0.816406 11.59375 -0.515625 C 11.070312 -0.222656 10.394531 -0.078125 9.5625 -0.078125 C 8.71875 -0.078125 8.035156 -0.222656 7.515625 -0.515625 C 6.992188 -0.816406 6.59375 -1.257812 6.3125 -1.84375 C 6.03125 -2.4375 5.835938 -3.1875 5.734375 -4.09375 C 5.640625 -5.007812 5.59375 -6.097656 5.59375 -7.359375 Z M 5.59375 -9.171875" transform="translate(237.168 51.705)"/></g></g></g><g fill="#FFF"><g><g><path d="M 4.84375 -16.078125 C 3.945312 -15.492188 3.5 -14.789062 3.5 -13.96875 C 3.5 -13.582031 3.628906 -13.226562 3.890625 -12.90625 C 4.160156 -12.582031 4.535156 -12.421875 5.015625 -12.421875 C 5.484375 -12.421875 5.863281 -12.5625 6.15625 -12.84375 C 6.457031 -13.125 6.609375 -13.472656 6.609375 -13.890625 C 6.609375 -14.085938 6.570312 -14.289062 6.5 -14.5 C 6.425781 -14.707031 6.296875 -14.910156 6.109375 -15.109375 C 5.960938 -15.253906 5.847656 -15.351562 5.765625 -15.40625 C 5.679688 -15.457031 5.640625 -15.523438 5.640625 -15.609375 C 5.640625 -15.722656 5.722656 -15.835938 5.890625 -15.953125 C 6.054688 -16.066406 6.265625 -16.164062 6.515625 -16.25 C 6.773438 -16.332031 7.066406 -16.398438 7.390625 -16.453125 C 7.710938 -16.515625 8.023438 -16.546875 8.328125 -16.546875 C 9.203125 -16.546875 9.890625 -16.375 10.390625 -16.03125 C 10.898438 -15.695312 11.15625 -15.050781 11.15625 -14.09375 L 11.15625 -9.140625 C 9.863281 -9.140625 8.65625 -9.003906 7.53125 -8.734375 C 6.40625 -8.460938 5.421875 -8.070312 4.578125 -7.5625 C 3.742188 -7.0625 3.085938 -6.441406 2.609375 -5.703125 C 2.128906 -4.960938 1.890625 -4.128906 1.890625 -3.203125 C 1.890625 -2.523438 2.007812 -1.941406 2.25 -1.453125 C 2.488281 -0.960938 2.816406 -0.566406 3.234375 -0.265625 C 3.660156 0.0234375 4.144531 0.238281 4.6875 0.375 C 5.238281 0.519531 5.820312 0.59375 6.4375 0.59375 C 7.082031 0.59375 7.664062 0.515625 8.1875 0.359375 C 8.707031 0.203125 9.171875 0.00390625 9.578125 -0.234375 C 9.984375 -0.472656 10.328125 -0.722656 10.609375 -0.984375 C 10.890625 -1.253906 11.113281 -1.515625 11.28125 -1.765625 C 11.363281 -1.179688 11.628906 -0.640625 12.078125 -0.140625 C 12.523438 0.347656 13.3125 0.59375 14.4375 0.59375 C 15.164062 0.59375 15.773438 0.476562 16.265625 0.25 C 16.753906 0.03125 17.15625 -0.234375 17.46875 -0.546875 C 17.78125 -0.859375 18 -1.175781 18.125 -1.5 C 18.25 -1.820312 18.3125 -2.066406 18.3125 -2.234375 C 18.3125 -2.367188 18.269531 -2.4375 18.1875 -2.4375 C 18.101562 -2.4375 18.003906 -2.328125 17.890625 -2.109375 C 17.660156 -1.628906 17.378906 -1.238281 17.046875 -0.9375 C 16.710938 -0.644531 16.347656 -0.5 15.953125 -0.5 C 15.390625 -0.5 15.050781 -0.726562 14.9375 -1.1875 C 14.832031 -1.65625 14.78125 -2.296875 14.78125 -3.109375 L 14.78125 -13.296875 C 14.78125 -14.503906 14.328125 -15.4375 13.421875 -16.09375 C 12.523438 -16.757812 11.148438 -17.09375 9.296875 -17.09375 C 8.429688 -17.09375 7.597656 -17 6.796875 -16.8125 C 5.992188 -16.632812 5.34375 -16.390625 4.84375 -16.078125 Z M 11.15625 -8.71875 L 11.15625 -2.859375 C 11.15625 -2.609375 11.035156 -2.34375 10.796875 -2.0625 C 10.554688 -1.78125 10.257812 -1.519531 9.90625 -1.28125 C 9.5625 -1.039062 9.195312 -0.847656 8.8125 -0.703125 C 8.4375 -0.566406 8.125 -0.5 7.875 -0.5 C 7 -0.5 6.335938 -0.835938 5.890625 -1.515625 C 5.441406 -2.191406 5.21875 -3.101562 5.21875 -4.25 C 5.21875 -5.175781 5.382812 -5.921875 5.71875 -6.484375 C 6.0625 -7.046875 6.503906 -7.476562 7.046875 -7.78125 C 7.597656 -8.09375 8.226562 -8.3125 8.9375 -8.4375 C 9.65625 -8.5625 10.394531 -8.65625 11.15625 -8.71875 Z M 11.15625 -8.71875" transform="translate(255.98 51.705)"/></g></g></g><g fill="#FFF"><g><g><path d="M 5.765625 -7.28125 L 5.765625 -9.140625 C 5.765625 -10.515625 5.847656 -11.660156 6.015625 -12.578125 C 6.179688 -13.503906 6.441406 -14.253906 6.796875 -14.828125 C 7.148438 -15.410156 7.59375 -15.820312 8.125 -16.0625 C 8.65625 -16.300781 9.285156 -16.421875 10.015625 -16.421875 C 11.054688 -16.421875 11.765625 -16.285156 12.140625 -16.015625 C 12.523438 -15.742188 12.71875 -15.554688 12.71875 -15.453125 C 12.71875 -15.335938 12.675781 -15.238281 12.59375 -15.15625 C 12.394531 -14.925781 12.242188 -14.691406 12.140625 -14.453125 C 12.046875 -14.210938 12 -13.910156 12 -13.546875 C 12 -12.992188 12.179688 -12.566406 12.546875 -12.265625 C 12.910156 -11.972656 13.332031 -11.828125 13.8125 -11.828125 C 14.375 -11.828125 14.820312 -11.992188 15.15625 -12.328125 C 15.488281 -12.671875 15.65625 -13.109375 15.65625 -13.640625 C 15.65625 -14.171875 15.472656 -14.65625 15.109375 -15.09375 C 14.742188 -15.53125 14.285156 -15.894531 13.734375 -16.1875 C 13.191406 -16.476562 12.597656 -16.703125 11.953125 -16.859375 C 11.304688 -17.015625 10.691406 -17.09375 10.109375 -17.09375 C 9.003906 -17.09375 7.929688 -16.875 6.890625 -16.4375 C 5.859375 -16 4.9375 -15.394531 4.125 -14.625 C 3.3125 -13.851562 2.648438 -12.921875 2.140625 -11.828125 C 1.640625 -10.734375 1.390625 -9.523438 1.390625 -8.203125 C 1.390625 -6.859375 1.632812 -5.644531 2.125 -4.5625 C 2.613281 -3.488281 3.257812 -2.5625 4.0625 -1.78125 C 4.863281 -1.007812 5.773438 -0.421875 6.796875 -0.015625 C 7.816406 0.390625 8.847656 0.59375 9.890625 0.59375 C 10.929688 0.59375 11.84375 0.429688 12.625 0.109375 C 13.414062 -0.210938 14.078125 -0.617188 14.609375 -1.109375 C 15.140625 -1.609375 15.554688 -2.128906 15.859375 -2.671875 C 16.171875 -3.222656 16.398438 -3.722656 16.546875 -4.171875 C 16.597656 -4.335938 16.625 -4.445312 16.625 -4.5 C 16.625 -4.757812 16.515625 -4.890625 16.296875 -4.890625 C 16.117188 -4.890625 15.988281 -4.75 15.90625 -4.46875 C 15.738281 -3.925781 15.488281 -3.394531 15.15625 -2.875 C 14.820312 -2.363281 14.40625 -1.894531 13.90625 -1.46875 C 13.414062 -1.050781 12.84375 -0.710938 12.1875 -0.453125 C 11.53125 -0.203125 10.804688 -0.078125 10.015625 -0.078125 C 9.148438 -0.078125 8.441406 -0.203125 7.890625 -0.453125 C 7.347656 -0.710938 6.914062 -1.128906 6.59375 -1.703125 C 6.269531 -2.273438 6.050781 -3.015625 5.9375 -3.921875 C 5.820312 -4.835938 5.765625 -5.957031 5.765625 -7.28125 Z M 5.765625 -7.28125" transform="translate(274.625 51.705)"/></g></g></g><g fill="#FFF"><g><g><path d="M 7.828125 -13.546875 L 7.828125 -28.28125 L 1.265625 -28.28125 L 1.265625 -27.609375 L 4.203125 -27.609375 L 4.203125 -0.671875 L 1.265625 -0.671875 L 1.265625 0 L 10.78125 0 L 10.78125 -0.671875 L 7.828125 -0.671875 L 7.828125 -11.203125 C 7.828125 -11.648438 7.945312 -12.144531 8.1875 -12.6875 C 8.425781 -13.238281 8.769531 -13.757812 9.21875 -14.25 C 9.664062 -14.738281 10.179688 -15.148438 10.765625 -15.484375 C 11.359375 -15.828125 12.019531 -16 12.75 -16 C 13.34375 -16 13.804688 -15.898438 14.140625 -15.703125 C 14.484375 -15.503906 14.738281 -15.25 14.90625 -14.9375 C 15.070312 -14.632812 15.175781 -14.289062 15.21875 -13.90625 C 15.257812 -13.53125 15.28125 -13.144531 15.28125 -12.75 L 15.28125 -0.671875 L 12.375 -0.671875 L 12.375 0 L 21.84375 0 L 21.84375 -0.671875 L 18.90625 -0.671875 L 18.90625 -13.21875 C 18.90625 -14.476562 18.472656 -15.4375 17.609375 -16.09375 C 16.753906 -16.757812 15.570312 -17.09375 14.0625 -17.09375 C 12.40625 -17.09375 11.078125 -16.738281 10.078125 -16.03125 C 9.085938 -15.332031 8.335938 -14.503906 7.828125 -13.546875 Z M 7.828125 -13.546875" transform="translate(291.88 51.705)"/></g></g></g><g fill="#FFF"><g><g><path d="M 8.296875 -16.5 L 1.515625 -16.5 L 1.515625 -15.828125 L 4.671875 -15.828125 L 4.671875 -0.671875 L 1.515625 -0.671875 L 1.515625 0 L 11.453125 0 L 11.453125 -0.671875 L 8.296875 -0.671875 Z M 8.625 -24.28125 C 8.625 -24.90625 8.410156 -25.425781 7.984375 -25.84375 C 7.566406 -26.269531 7.050781 -26.484375 6.4375 -26.484375 C 5.820312 -26.484375 5.300781 -26.269531 4.875 -25.84375 C 4.457031 -25.425781 4.25 -24.90625 4.25 -24.28125 C 4.25 -23.664062 4.457031 -23.144531 4.875 -22.71875 C 5.300781 -22.300781 5.820312 -22.09375 6.4375 -22.09375 C 7.050781 -22.09375 7.566406 -22.300781 7.984375 -22.71875 C 8.410156 -23.144531 8.625 -23.664062 8.625 -24.28125 Z M 8.625 -24.28125" transform="translate(314.564 51.705)"/></g></g></g><g fill="#FFF"><g><g><path d="M 8.078125 -13.296875 L 8.078125 -16.5 L 1.515625 -16.5 L 1.515625 -15.828125 L 4.46875 -15.828125 L 4.46875 -0.671875 L 1.515625 -0.671875 L 1.515625 0 L 11.03125 0 L 11.03125 -0.671875 L 8.078125 -0.671875 L 8.078125 -11.109375 C 8.078125 -11.585938 8.203125 -12.097656 8.453125 -12.640625 C 8.710938 -13.191406 9.046875 -13.707031 9.453125 -14.1875 C 9.859375 -14.664062 10.320312 -15.054688 10.84375 -15.359375 C 11.363281 -15.671875 11.898438 -15.828125 12.453125 -15.828125 C 13.273438 -15.828125 13.875 -15.570312 14.25 -15.0625 C 14.625 -14.5625 14.8125 -13.765625 14.8125 -12.671875 L 14.8125 -0.671875 L 11.875 -0.671875 L 11.875 0 L 21.390625 0 L 21.390625 -0.671875 L 18.4375 -0.671875 L 18.4375 -12.96875 C 18.4375 -14.425781 18.019531 -15.4375 17.1875 -16 C 16.363281 -16.5625 15.304688 -16.84375 14.015625 -16.84375 C 12.472656 -16.84375 11.21875 -16.488281 10.25 -15.78125 C 9.28125 -15.082031 8.554688 -14.253906 8.078125 -13.296875 Z M 8.078125 -13.296875" transform="translate(326.937 51.705)"/></g></g></g><g fill="#FFF"><g><g><path d="M 5.515625 -10.53125 L 5.515625 -11.953125 C 5.515625 -13.660156 5.753906 -14.832031 6.234375 -15.46875 C 6.710938 -16.101562 7.453125 -16.421875 8.453125 -16.421875 C 9.460938 -16.421875 10.207031 -16.101562 10.6875 -15.46875 C 11.164062 -14.832031 11.40625 -13.660156 11.40625 -11.953125 L 11.40625 -10.53125 C 11.40625 -9.09375 11.207031 -7.992188 10.8125 -7.234375 C 10.425781 -6.484375 9.640625 -6.109375 8.453125 -6.109375 C 7.273438 -6.109375 6.488281 -6.484375 6.09375 -7.234375 C 5.707031 -7.992188 5.515625 -9.09375 5.515625 -10.53125 Z M 6.0625 -5.765625 C 6.3125 -5.679688 6.640625 -5.601562 7.046875 -5.53125 C 7.453125 -5.46875 7.921875 -5.4375 8.453125 -5.4375 C 9.722656 -5.4375 10.789062 -5.644531 11.65625 -6.0625 C 12.53125 -6.476562 13.234375 -6.988281 13.765625 -7.59375 C 14.296875 -8.195312 14.671875 -8.835938 14.890625 -9.515625 C 15.117188 -10.191406 15.234375 -10.78125 15.234375 -11.28125 C 15.234375 -12.96875 14.578125 -14.398438 13.265625 -15.578125 C 13.910156 -16.335938 14.507812 -16.84375 15.0625 -17.09375 C 14.957031 -16.863281 14.90625 -16.640625 14.90625 -16.421875 C 14.90625 -16.078125 15.019531 -15.789062 15.25 -15.5625 C 15.488281 -15.34375 15.820312 -15.234375 16.25 -15.234375 C 16.695312 -15.234375 17.019531 -15.363281 17.21875 -15.625 C 17.414062 -15.894531 17.515625 -16.171875 17.515625 -16.453125 C 17.515625 -16.878906 17.359375 -17.203125 17.046875 -17.421875 C 16.734375 -17.648438 16.367188 -17.765625 15.953125 -17.765625 C 14.890625 -17.765625 13.820312 -17.160156 12.75 -15.953125 C 12.363281 -16.285156 11.773438 -16.554688 10.984375 -16.765625 C 10.203125 -16.984375 9.359375 -17.09375 8.453125 -17.09375 C 7.359375 -17.09375 6.382812 -16.929688 5.53125 -16.609375 C 4.675781 -16.285156 3.96875 -15.847656 3.40625 -15.296875 C 2.84375 -14.753906 2.414062 -14.128906 2.125 -13.421875 C 1.832031 -12.722656 1.6875 -12.007812 1.6875 -11.28125 C 1.6875 -10.039062 2.039062 -8.972656 2.75 -8.078125 C 3.46875 -7.179688 4.273438 -6.507812 5.171875 -6.0625 C 3.828125 -5.664062 2.878906 -5.160156 2.328125 -4.546875 C 1.785156 -3.929688 1.515625 -3.128906 1.515625 -2.140625 C 1.515625 -1.492188 1.617188 -0.929688 1.828125 -0.453125 C 2.035156 0.015625 2.316406 0.414062 2.671875 0.75 C 3.023438 1.09375 3.414062 1.351562 3.84375 1.53125 C 4.28125 1.71875 4.710938 1.835938 5.140625 1.890625 C 3.960938 2.316406 3.050781 2.90625 2.40625 3.65625 C 1.757812 4.414062 1.4375 5.34375 1.4375 6.4375 C 1.4375 7.226562 1.617188 7.914062 1.984375 8.5 C 2.347656 9.09375 2.863281 9.578125 3.53125 9.953125 C 4.207031 10.335938 5.007812 10.625 5.9375 10.8125 C 6.863281 11.007812 7.890625 11.109375 9.015625 11.109375 C 10.128906 11.109375 11.175781 10.953125 12.15625 10.640625 C 13.144531 10.335938 14.007812 9.882812 14.75 9.28125 C 15.5 8.675781 16.082031 7.9375 16.5 7.0625 C 16.914062 6.195312 17.125 5.191406 17.125 4.046875 C 17.125 2.273438 16.65625 0.972656 15.71875 0.140625 C 14.78125 -0.679688 13.550781 -1.09375 12.03125 -1.09375 L 5.265625 -1.09375 C 3.492188 -1.09375 2.609375 -1.695312 2.609375 -2.90625 C 2.609375 -3.71875 2.929688 -4.328125 3.578125 -4.734375 C 4.222656 -5.140625 5.050781 -5.484375 6.0625 -5.765625 Z M 15.578125 5.765625 C 15.578125 6.609375 15.375 7.320312 14.96875 7.90625 C 14.5625 8.5 14.046875 8.984375 13.421875 9.359375 C 12.804688 9.742188 12.113281 10.019531 11.34375 10.1875 C 10.570312 10.351562 9.835938 10.4375 9.140625 10.4375 C 7.984375 10.4375 7.039062 10.28125 6.3125 9.96875 C 5.582031 9.664062 5.003906 9.28125 4.578125 8.8125 C 4.160156 8.351562 3.867188 7.832031 3.703125 7.25 C 3.535156 6.675781 3.453125 6.140625 3.453125 5.640625 C 3.453125 5.109375 3.539062 4.609375 3.71875 4.140625 C 3.90625 3.679688 4.128906 3.289062 4.390625 2.96875 C 4.660156 2.644531 4.941406 2.390625 5.234375 2.203125 C 5.535156 2.023438 5.796875 1.9375 6.015625 1.9375 L 11.359375 1.9375 C 12.035156 1.9375 12.632812 2.039062 13.15625 2.25 C 13.675781 2.457031 14.117188 2.742188 14.484375 3.109375 C 14.847656 3.472656 15.117188 3.878906 15.296875 4.328125 C 15.484375 4.785156 15.578125 5.265625 15.578125 5.765625 Z M 15.578125 5.765625" transform="translate(349.285 51.705)"/></g></g></g></svg>