<svg xmlns="http://www.w3.org/2000/svg" width="375" viewBox="0 0 375 375" height="375" version="1.0"><defs><clipPath id="a"><path d="M 0 0 L 375 0 L 375 356.25 L 0 356.25 Z M 0 0"/></clipPath></defs><g clip-path="url(#a)"><path fill="#FFF" d="M 361.640625 193.257812 C 361.730469 191.566406 360.882812 189.785156 359.328125 188.496094 C 358.390625 187.738281 357.367188 187.203125 356.433594 186.804688 C 356.566406 183.957031 356.65625 181.019531 356.65625 178.125 C 356.65625 154.089844 351.9375 130.765625 342.679688 108.78125 C 333.691406 87.550781 320.871094 68.5 304.492188 52.164062 C 288.113281 35.828125 269.105469 22.964844 247.875 13.976562 C 225.890625 4.71875 202.566406 0 178.53125 0 C 154.496094 0 131.128906 4.71875 109.1875 13.976562 C 87.957031 22.964844 68.90625 35.785156 52.570312 52.164062 C 36.234375 68.542969 23.375 87.550781 14.382812 108.78125 C 5.125 130.722656 0.40625 154.089844 0.40625 178.125 C 0.40625 202.160156 5.125 225.484375 14.382812 247.46875 C 23.375 268.699219 36.191406 287.75 52.570312 304.085938 C 68.949219 320.421875 87.957031 333.285156 109.1875 342.273438 C 131.128906 351.578125 154.453125 356.25 178.53125 356.25 C 238.394531 356.25 293.941406 326.429688 327.058594 276.445312 C 327.058594 276.445312 327.058594 276.445312 327.101562 276.402344 C 327.101562 276.355469 327.148438 276.355469 327.148438 276.355469 C 328.480469 274.351562 329.816406 272.261719 331.0625 270.167969 C 337.472656 260.378906 343.171875 253.257812 347.441406 248.449219 C 347.441406 248.582031 347.441406 248.671875 347.488281 248.804688 C 347.664062 250.675781 349.089844 252.722656 351.183594 252.8125 C 351.269531 252.8125 351.316406 252.8125 351.402344 252.8125 C 352.695312 252.8125 353.984375 252.054688 354.832031 250.808594 C 355.542969 249.738281 355.855469 248.539062 356.121094 247.292969 L 356.253906 246.625 C 356.523438 245.332031 356.789062 243.953125 357.058594 242.574219 C 357.367188 243.863281 357.679688 245.15625 358.082031 246.402344 C 358.613281 248.183594 359.238281 250.007812 359.949219 251.699219 C 360.929688 254.058594 362.21875 255.257812 363.824219 255.257812 C 364.625 255.257812 365.378906 254.902344 366.003906 254.28125 C 366.761719 253.523438 367.160156 252.410156 367.070312 251.34375 C 367.027344 250.765625 366.894531 250.230469 366.714844 249.695312 L 367.605469 250.097656 C 367.960938 250.273438 368.496094 250.496094 369.117188 250.453125 C 370.320312 250.320312 371.03125 249.117188 370.988281 248.09375 C 370.945312 247.203125 370.5 246.402344 370.054688 245.777344 C 369.921875 245.554688 369.742188 245.378906 369.609375 245.15625 C 369.207031 244.621094 368.761719 244.132812 368.273438 243.640625 C 368.941406 244 369.652344 244.308594 370.410156 244.398438 C 370.585938 244.445312 370.765625 244.445312 370.945312 244.445312 C 372.101562 244.445312 373.390625 243.953125 373.96875 242.753906 C 374.59375 241.417969 374.058594 239.726562 372.546875 238.257812 C 370.722656 236.519531 368.40625 235.273438 365.957031 234.652344 C 366.136719 232.46875 365.601562 230.246094 364.402344 228.375 C 364.089844 227.886719 363.734375 227.441406 363.378906 226.996094 C 362.085938 225.570312 360.394531 224.546875 358.570312 224.058594 C 357.011719 223.613281 354.785156 223.703125 353.808594 225.394531 C 353.140625 226.550781 353.40625 227.796875 353.898438 228.910156 C 352.875 227.976562 351.625 227.039062 350.113281 226.105469 C 351.625 220.675781 352.917969 215.113281 353.898438 209.503906 C 355.410156 209.324219 356.65625 208.65625 357.503906 207.589844 C 359.148438 205.410156 358.527344 202.292969 357.011719 200.335938 C 356.476562 199.667969 355.855469 199.042969 355.097656 198.464844 C 355.054688 198.464844 355.054688 198.421875 355.007812 198.421875 C 355.765625 198.421875 356.476562 198.289062 357.191406 198.109375 C 359.636719 197.53125 361.507812 195.484375 361.640625 193.257812 Z M 337.515625 232.914062 C 337.652344 233.273438 337.875 233.628906 338.097656 233.9375 C 338.542969 234.519531 339.164062 234.964844 339.875 235.230469 C 341.121094 235.71875 342.367188 235.675781 343.617188 235.675781 L 344.105469 235.675781 C 344.503906 235.675781 344.863281 235.675781 345.261719 235.675781 C 345.128906 236.121094 344.949219 236.566406 344.773438 237.054688 C 344.726562 237.054688 344.726562 237.097656 344.683594 237.097656 C 344.328125 237.1875 343.972656 237.320312 343.660156 237.457031 C 343.617188 237.457031 343.570312 237.5 343.480469 237.5 C 343.125 237.632812 342.769531 237.765625 342.414062 237.945312 C 341.566406 238.34375 340.5 238.96875 340.011719 240.035156 C 339.519531 241.0625 339.652344 242.394531 340.320312 243.417969 C 340.410156 243.597656 340.542969 243.730469 340.632812 243.820312 C 340.722656 243.910156 340.8125 244 340.898438 244.132812 C 340.945312 244.175781 340.945312 244.175781 340.988281 244.222656 C 341.035156 244.265625 341.121094 244.355469 341.210938 244.398438 C 341.257812 244.441406 341.300781 244.488281 341.34375 244.488281 C 341.390625 244.53125 341.480469 244.578125 341.566406 244.621094 C 341.613281 244.664062 341.65625 244.710938 341.703125 244.710938 C 341.746094 244.753906 341.789062 244.753906 341.835938 244.800781 C 338.453125 253.121094 334.355469 261.222656 329.726562 268.921875 L 329.640625 269.011719 C 329.640625 269.058594 329.59375 269.058594 329.59375 269.101562 C 328.347656 271.015625 327.101562 272.972656 325.8125 275.066406 C 329.726562 267.453125 332.84375 259.886719 334.578125 253.34375 C 336.359375 246.800781 337.339844 239.902344 337.515625 232.914062 Z M 348.378906 235.941406 C 348.910156 236.03125 349.445312 236.121094 349.980469 236.253906 C 348.910156 236.253906 347.84375 236.386719 346.820312 236.566406 C 346.910156 236.296875 346.996094 236.03125 347.085938 235.808594 C 347.488281 235.808594 347.933594 235.851562 348.378906 235.941406 Z M 343.394531 245.601562 C 344.683594 246 346.0625 246.089844 347.355469 245.824219 C 344.90625 248.492188 341.925781 252.054688 338.496094 256.503906 C 340.277344 252.898438 341.878906 249.292969 343.394531 245.601562 Z M 324.65625 188.09375 C 324.699219 188.140625 324.789062 188.183594 324.832031 188.226562 C 324.742188 188.226562 324.65625 188.226562 324.566406 188.273438 C 324.609375 188.183594 324.609375 188.140625 324.65625 188.09375 Z M 178.53125 354.46875 C 81.277344 354.46875 2.1875 275.332031 2.1875 178.125 C 2.1875 80.871094 81.277344 1.78125 178.53125 1.78125 C 275.785156 1.78125 354.875 80.871094 354.875 178.125 C 354.875 180.796875 354.832031 183.464844 354.699219 186.136719 C 354.609375 186.09375 354.519531 186.046875 354.429688 186.046875 C 354.296875 186.003906 354.121094 185.914062 353.984375 185.871094 C 353.851562 185.824219 353.675781 185.734375 353.539062 185.691406 C 353.40625 185.648438 353.230469 185.558594 353.09375 185.511719 C 352.917969 185.46875 352.785156 185.378906 352.605469 185.335938 C 352.472656 185.289062 352.292969 185.246094 352.160156 185.15625 C 351.984375 185.113281 351.847656 185.023438 351.671875 184.980469 C 351.539062 184.933594 351.359375 184.890625 351.226562 184.800781 C 351.046875 184.757812 350.914062 184.667969 350.738281 184.625 C 350.601562 184.578125 350.425781 184.535156 350.292969 184.488281 C 350.113281 184.445312 349.980469 184.355469 349.800781 184.3125 C 349.667969 184.265625 349.492188 184.222656 349.355469 184.179688 C 349.179688 184.132812 349 184.089844 348.867188 184 C 348.734375 183.957031 348.554688 183.910156 348.421875 183.867188 C 348.246094 183.820312 348.066406 183.777344 347.933594 183.734375 C 347.800781 183.6875 347.621094 183.644531 347.488281 183.601562 C 347.308594 183.554688 347.132812 183.511719 346.996094 183.464844 C 346.863281 183.421875 346.6875 183.378906 346.554688 183.332031 C 346.375 183.289062 346.195312 183.242188 346.019531 183.199219 C 345.886719 183.15625 345.707031 183.109375 345.574219 183.066406 C 345.394531 183.019531 345.21875 182.976562 345.039062 182.933594 C 344.90625 182.886719 344.726562 182.84375 344.59375 182.84375 C 344.417969 182.796875 344.238281 182.753906 344.058594 182.710938 C 343.925781 182.664062 343.75 182.621094 343.617188 182.621094 C 343.4375 182.574219 343.257812 182.53125 343.082031 182.53125 C 342.949219 182.488281 342.769531 182.488281 342.636719 182.441406 C 342.457031 182.398438 342.234375 182.398438 342.058594 182.351562 C 341.925781 182.308594 341.789062 182.308594 341.613281 182.265625 C 341.390625 182.21875 341.167969 182.21875 340.945312 182.175781 C 340.8125 182.175781 340.722656 182.128906 340.589844 182.128906 C 340.234375 182.085938 339.921875 182.042969 339.566406 182.042969 C 339.207031 181.996094 338.851562 181.996094 338.542969 181.953125 C 337.429688 181.910156 336.316406 181.910156 335.292969 181.953125 C 336.316406 181.6875 337.296875 181.507812 338.320312 181.328125 C 341.300781 180.839844 345.039062 180.261719 346.195312 177.144531 C 347.308594 174.121094 345.039062 171.136719 342.769531 169.535156 C 340.011719 167.53125 336.582031 166.375 333.109375 166.152344 C 332.085938 166.109375 331.019531 166.109375 329.996094 166.242188 C 325.855469 166.730469 321.851562 168.734375 318.957031 171.714844 C 315.175781 168.644531 310.5 166.640625 305.648438 166.0625 C 302.042969 165.617188 299.238281 166.640625 298.171875 168.867188 C 297.101562 171.136719 298.261719 173.71875 299.773438 175.097656 C 301.242188 176.433594 303.066406 177.144531 304.804688 177.8125 L 305.113281 177.945312 C 307.027344 178.660156 308.898438 179.460938 310.769531 180.351562 C 310.546875 180.304688 310.324219 180.21875 310.101562 180.171875 C 306.226562 179.058594 302.488281 178.527344 299.0625 178.613281 C 298.570312 178.613281 298.082031 178.660156 297.636719 178.660156 C 296.300781 178.75 294.789062 178.96875 293.585938 179.90625 C 292.296875 180.882812 291.539062 182.886719 292.5625 184.402344 C 293.097656 185.203125 293.941406 185.601562 294.566406 185.914062 L 298.304688 187.738281 C 296.613281 187.960938 294.921875 188.496094 293.5 189.519531 C 292.074219 190.585938 291.003906 192.324219 290.785156 194.058594 C 290.605469 195.484375 290.960938 196.820312 291.808594 197.84375 C 292.832031 199.089844 294.386719 199.757812 296.4375 199.757812 C 297.726562 199.757812 299.152344 199.488281 300.796875 199 C 304.179688 197.976562 307.519531 196.773438 310.769531 195.4375 C 314.0625 194.105469 317.3125 192.546875 320.425781 190.898438 C 320.691406 190.765625 321.003906 190.585938 321.273438 190.453125 C 321.09375 190.632812 320.960938 190.808594 320.78125 190.988281 C 320.605469 191.167969 320.472656 191.386719 320.292969 191.566406 C 317.933594 194.191406 315.664062 196.90625 313.484375 199.578125 C 313.214844 199.933594 312.949219 200.246094 312.683594 200.601562 C 311.257812 202.425781 309.878906 204.25 309.210938 206.433594 C 308.410156 209.058594 308.898438 211.730469 310.457031 213.421875 C 312.816406 216.003906 317.042969 215.691406 319.757812 213.910156 C 321.804688 212.574219 323.230469 210.570312 324.433594 208.65625 C 325.542969 212.039062 327.992188 214.976562 331.109375 216.625 C 331.597656 216.890625 332.132812 217.113281 332.621094 217.335938 C 333.378906 217.605469 334.089844 217.78125 334.800781 217.871094 C 336.539062 229.667969 335.871094 241.816406 332.800781 253.078125 C 329.90625 263.847656 323.320312 277.511719 315.21875 289.574219 C 281.882812 330.433594 231.988281 354.46875 178.53125 354.46875 Z M 348.511719 225.214844 C 348.421875 225.171875 348.332031 225.125 348.289062 225.082031 C 348.246094 225.039062 348.199219 225.039062 348.15625 224.992188 C 348.023438 224.902344 347.84375 224.816406 347.664062 224.726562 C 347.53125 224.636719 347.355469 224.546875 347.21875 224.503906 C 346.640625 224.191406 345.929688 223.835938 345.128906 223.65625 C 343.972656 223.433594 342.8125 223.703125 342.058594 224.414062 C 341.078125 225.347656 340.8125 226.953125 341.433594 228.421875 C 341.480469 228.507812 341.523438 228.597656 341.566406 228.644531 C 341.34375 228.644531 341.167969 228.597656 340.945312 228.644531 C 339.609375 228.6875 338.140625 229.398438 337.5625 230.691406 C 337.5625 226.371094 337.25 222.054688 336.628906 217.78125 C 338.675781 217.515625 340.410156 216.3125 341.210938 214.667969 C 342.058594 212.886719 341.703125 210.792969 341.300781 209.191406 C 340.632812 206.476562 339.609375 203.851562 338.230469 201.3125 C 336.9375 198.957031 335.382812 196.730469 333.601562 194.726562 C 333.511719 194.636719 333.46875 194.546875 333.378906 194.460938 L 333.289062 194.328125 C 331.910156 192.8125 330.574219 191.523438 329.238281 190.5 C 330.128906 191.03125 331.019531 191.566406 331.863281 192.101562 L 332.042969 192.191406 C 332.175781 192.277344 332.308594 192.367188 332.445312 192.457031 C 334.535156 193.835938 336.539062 195.4375 338.453125 197.175781 C 340.5 199.042969 342.367188 201.046875 344.105469 203.183594 C 344.28125 203.40625 344.503906 203.671875 344.683594 203.941406 C 345.707031 205.277344 346.777344 206.609375 348.109375 207.722656 C 348.554688 208.078125 349.046875 208.4375 349.535156 208.703125 C 349.714844 208.792969 349.890625 208.878906 350.070312 208.96875 C 350.113281 209.015625 350.15625 209.015625 350.203125 209.015625 C 350.335938 209.101562 350.515625 209.148438 350.691406 209.191406 C 350.738281 209.191406 350.738281 209.238281 350.78125 209.238281 C 350.960938 209.28125 351.183594 209.371094 351.359375 209.414062 C 351.40625 209.414062 351.449219 209.460938 351.492188 209.460938 C 351.671875 209.503906 351.804688 209.546875 351.984375 209.546875 C 352.027344 209.546875 352.027344 209.546875 352.070312 209.546875 C 351.09375 214.84375 349.933594 220.097656 348.511719 225.214844 Z M 348.511719 225.214844"/></g><g fill="#FFF"><g><g><path d="M -21.6875 -8.34375 C -20.882812 -8.988281 -20.128906 -9.550781 -19.421875 -10.03125 C -18.710938 -10.507812 -18.015625 -10.851562 -17.328125 -11.0625 C -16.648438 -11.269531 -15.972656 -11.300781 -15.296875 -11.15625 C -14.628906 -11.019531 -13.9375 -10.65625 -13.21875 -10.0625 L -6.9375 -4.890625 L -23.109375 14.71875 L -26.015625 12.328125 L -26.421875 12.828125 L -17.90625 19.859375 L -17.5 19.359375 L -20.140625 17.171875 L -3.96875 -2.4375 L -1.328125 -0.25 L -0.921875 -0.75 L -16.71875 -13.765625 C -17.3125 -14.265625 -17.878906 -14.1875 -18.421875 -13.53125 L -22.203125 -8.9375 C -22.609375 -8.445312 -22.722656 -8.128906 -22.546875 -7.984375 C -22.410156 -7.867188 -22.125 -7.988281 -21.6875 -8.34375 Z M -21.6875 -8.34375" transform="translate(106.48 281.6)"/></g></g></g><g fill="#FFF"><g><g><path d="M -14.34375 6.71875 C -13.375 6.976562 -12.601562 6.851562 -12.03125 6.34375 C -11.757812 6.101562 -11.59375 5.785156 -11.53125 5.390625 C -11.46875 4.992188 -11.585938 4.625 -11.890625 4.28125 C -12.191406 3.945312 -12.53125 3.765625 -12.90625 3.734375 C -13.289062 3.710938 -13.628906 3.835938 -13.921875 4.109375 C -14.054688 4.234375 -14.175781 4.382812 -14.28125 4.5625 C -14.394531 4.738281 -14.457031 4.957031 -14.46875 5.21875 C -14.488281 5.414062 -14.488281 5.554688 -14.46875 5.640625 C -14.457031 5.734375 -14.476562 5.804688 -14.53125 5.859375 C -14.625 5.929688 -14.757812 5.945312 -14.9375 5.90625 C -15.125 5.863281 -15.320312 5.773438 -15.53125 5.640625 C -15.75 5.515625 -15.976562 5.351562 -16.21875 5.15625 C -16.46875 4.96875 -16.6875 4.769531 -16.875 4.5625 C -17.414062 3.945312 -17.726562 3.351562 -17.8125 2.78125 C -17.90625 2.21875 -17.617188 1.632812 -16.953125 1.03125 L -13.453125 -2.09375 C -12.640625 -1.1875 -11.785156 -0.421875 -10.890625 0.203125 C -9.992188 0.828125 -9.101562 1.273438 -8.21875 1.546875 C -7.332031 1.816406 -6.472656 1.882812 -5.640625 1.75 C -4.816406 1.625 -4.082031 1.269531 -3.4375 0.6875 C -2.957031 0.257812 -2.617188 -0.191406 -2.421875 -0.671875 C -2.234375 -1.148438 -2.171875 -1.628906 -2.234375 -2.109375 C -2.296875 -2.585938 -2.445312 -3.0625 -2.6875 -3.53125 C -2.925781 -4.007812 -3.242188 -4.46875 -3.640625 -4.90625 C -4.046875 -5.363281 -4.46875 -5.722656 -4.90625 -5.984375 C -5.34375 -6.253906 -5.769531 -6.453125 -6.1875 -6.578125 C -6.613281 -6.710938 -7.007812 -6.796875 -7.375 -6.828125 C -7.738281 -6.859375 -8.066406 -6.859375 -8.359375 -6.828125 C -7.984375 -7.253906 -7.765625 -7.78125 -7.703125 -8.40625 C -7.640625 -9.03125 -7.960938 -9.738281 -8.671875 -10.53125 C -9.128906 -11.039062 -9.59375 -11.394531 -10.0625 -11.59375 C -10.53125 -11.800781 -10.96875 -11.914062 -11.375 -11.9375 C -11.789062 -11.957031 -12.148438 -11.910156 -12.453125 -11.796875 C -12.765625 -11.679688 -12.984375 -11.570312 -13.109375 -11.46875 C -13.191406 -11.382812 -13.207031 -11.316406 -13.15625 -11.265625 C -13.101562 -11.203125 -12.96875 -11.195312 -12.75 -11.25 C -12.269531 -11.394531 -11.820312 -11.4375 -11.40625 -11.375 C -10.988281 -11.320312 -10.65625 -11.160156 -10.40625 -10.890625 C -10.050781 -10.492188 -10 -10.113281 -10.25 -9.75 C -10.507812 -9.382812 -10.925781 -8.945312 -11.5 -8.4375 L -18.671875 -2.015625 C -19.515625 -1.253906 -19.882812 -0.351562 -19.78125 0.6875 C -19.675781 1.738281 -19.039062 2.914062 -17.875 4.21875 C -17.320312 4.832031 -16.726562 5.363281 -16.09375 5.8125 C -15.46875 6.257812 -14.882812 6.5625 -14.34375 6.71875 Z M -13.15625 -2.359375 L -9.046875 -6.046875 C -8.867188 -6.203125 -8.601562 -6.285156 -8.25 -6.296875 C -7.90625 -6.304688 -7.535156 -6.257812 -7.140625 -6.15625 C -6.753906 -6.0625 -6.390625 -5.921875 -6.046875 -5.734375 C -5.710938 -5.554688 -5.472656 -5.382812 -5.328125 -5.21875 C -4.773438 -4.601562 -4.59375 -3.925781 -4.78125 -3.1875 C -4.96875 -2.445312 -5.460938 -1.71875 -6.265625 -1 C -6.921875 -0.40625 -7.550781 -0.0507812 -8.15625 0.0625 C -8.757812 0.175781 -9.34375 0.132812 -9.90625 -0.0625 C -10.476562 -0.257812 -11.03125 -0.566406 -11.5625 -0.984375 C -12.101562 -1.398438 -12.632812 -1.859375 -13.15625 -2.359375 Z M -13.15625 -2.359375" transform="translate(89.678 267.641)"/></g></g></g><g fill="#FFF"><g><g><path d="M -1.25 -0.8125 L -0.703125 -1.140625 L -4.359375 -7.109375 L -4.90625 -6.78125 L -3.25 -4.078125 L -24.34375 8.875 L -7.34375 -11.953125 L -7.609375 -12.390625 L -34.015625 -6.578125 L -12.796875 -19.625 L -11.125 -16.90625 L -10.578125 -17.234375 L -15.921875 -25.9375 L -16.46875 -25.609375 L -14.8125 -22.890625 L -36.46875 -9.578125 L -38.125 -12.296875 L -38.671875 -11.96875 L -34.828125 -5.703125 L -13.734375 -10.359375 L -27.296875 6.546875 L -23.453125 12.828125 L -22.90625 12.5 L -24.578125 9.78125 L -2.921875 -3.53125 Z M -1.25 -0.8125" transform="translate(78.798 256.745)"/></g></g></g><g fill="#FFF"><g><g><path d="M -14.671875 -11.03125 C -15.066406 -10.851562 -15.5625 -10.515625 -16.15625 -10.015625 C -16.75 -9.515625 -17.269531 -8.890625 -17.71875 -8.140625 C -18.164062 -7.398438 -18.46875 -6.53125 -18.625 -5.53125 C -18.789062 -4.53125 -18.644531 -3.4375 -18.1875 -2.25 C -17.789062 -1.257812 -17.195312 -0.429688 -16.40625 0.234375 C -15.613281 0.898438 -14.722656 1.394531 -13.734375 1.71875 C -12.753906 2.050781 -11.726562 2.210938 -10.65625 2.203125 C -9.582031 2.191406 -8.5625 2 -7.59375 1.625 C -6.632812 1.25 -5.765625 0.707031 -4.984375 0 C -4.210938 -0.71875 -3.585938 -1.523438 -3.109375 -2.421875 C -2.640625 -3.316406 -2.347656 -4.285156 -2.234375 -5.328125 C -2.128906 -6.367188 -2.28125 -7.410156 -2.6875 -8.453125 C -3.019531 -9.296875 -3.4375 -10.015625 -3.9375 -10.609375 C -4.445312 -11.203125 -5.007812 -11.6875 -5.625 -12.0625 C -6.238281 -12.4375 -6.890625 -12.703125 -7.578125 -12.859375 C -8.273438 -13.023438 -8.960938 -13.097656 -9.640625 -13.078125 C -9.828125 -13.097656 -10.007812 -13.070312 -10.1875 -13 C -10.363281 -12.9375 -10.425781 -12.832031 -10.375 -12.6875 C -10.320312 -12.5625 -10.15625 -12.492188 -9.875 -12.484375 C -9.257812 -12.460938 -8.628906 -12.382812 -7.984375 -12.25 C -7.335938 -12.125 -6.722656 -11.894531 -6.140625 -11.5625 C -5.554688 -11.238281 -5.019531 -10.816406 -4.53125 -10.296875 C -4.050781 -9.773438 -3.648438 -9.109375 -3.328125 -8.296875 C -2.941406 -7.304688 -3 -6.363281 -3.5 -5.46875 C -4.007812 -4.582031 -5.082031 -3.816406 -6.71875 -3.171875 L -10.484375 -1.703125 L -13.96875 -10.625 C -14.113281 -11.019531 -14.347656 -11.15625 -14.671875 -11.03125 Z M -11.078125 -1.46875 L -12.546875 -0.90625 C -13.359375 -0.582031 -14.050781 -0.414062 -14.625 -0.40625 C -15.207031 -0.394531 -15.691406 -0.484375 -16.078125 -0.671875 C -16.472656 -0.867188 -16.789062 -1.128906 -17.03125 -1.453125 C -17.269531 -1.773438 -17.460938 -2.125 -17.609375 -2.5 C -17.835938 -3.09375 -17.921875 -3.617188 -17.859375 -4.078125 C -17.804688 -4.546875 -17.648438 -4.957031 -17.390625 -5.3125 C -17.128906 -5.675781 -16.800781 -5.972656 -16.40625 -6.203125 C -16.019531 -6.441406 -15.601562 -6.648438 -15.15625 -6.828125 C -14 -7.273438 -13.351562 -7.316406 -13.21875 -6.953125 Z M -11.078125 -1.46875" transform="translate(63.822 231.514)"/></g></g></g><g fill="#FFF"><g><g><path d="M -17.09375 -3.4375 L -15.40625 2.71875 L -14.78125 2.546875 L -15.5625 -0.3125 L -1.78125 -4.078125 L -1 -1.21875 L -0.375 -1.390625 L -2.84375 -10.4375 L -3.46875 -10.265625 L -2.6875 -7.375 Z M -24.25 -1.8125 C -24.8125 -1.664062 -25.234375 -1.34375 -25.515625 -0.84375 C -25.796875 -0.351562 -25.863281 0.171875 -25.71875 0.734375 C -25.5625 1.296875 -25.238281 1.710938 -24.75 1.984375 C -24.257812 2.253906 -23.734375 2.316406 -23.171875 2.171875 C -22.609375 2.015625 -22.1875 1.691406 -21.90625 1.203125 C -21.632812 0.722656 -21.578125 0.203125 -21.734375 -0.359375 C -21.878906 -0.921875 -22.191406 -1.34375 -22.671875 -1.625 C -23.160156 -1.90625 -23.6875 -1.96875 -24.25 -1.8125 Z M -24.25 -1.8125" transform="translate(58.119 216.71)"/></g></g></g><g fill="#FFF"><g><g><path d="M -2 -7.359375 L -27.640625 -2.609375 L -26.515625 3.484375 L -25.875 3.359375 L -26.390625 0.625 L -1.390625 -4 L -0.875 -1.265625 L -0.25 -1.375 L -1.890625 -10.203125 L -2.515625 -10.09375 Z M -2 -7.359375" transform="translate(55.294 206.508)"/></g></g></g><g fill="#FFF"><g><g><path d="M -1.40625 -7.5 L -27.328125 -4.890625 L -26.703125 1.28125 L -26.078125 1.21875 L -26.359375 -1.546875 L -1.0625 -4.09375 L -0.78125 -1.328125 L -0.140625 -1.390625 L -1.03125 -10.328125 L -1.671875 -10.265625 Z M -1.40625 -7.5" transform="translate(53.388 196.442)"/></g></g></g><g fill="#FFF"><g><g><path d="M -9.59375 -15.65625 C -10.019531 -15.632812 -10.601562 -15.5 -11.34375 -15.25 C -12.082031 -15 -12.796875 -14.609375 -13.484375 -14.078125 C -14.179688 -13.554688 -14.785156 -12.859375 -15.296875 -11.984375 C -15.816406 -11.109375 -16.082031 -10.035156 -16.09375 -8.765625 C -16.09375 -7.703125 -15.84375 -6.710938 -15.34375 -5.796875 C -14.851562 -4.890625 -14.207031 -4.101562 -13.40625 -3.4375 C -12.613281 -2.769531 -11.71875 -2.242188 -10.71875 -1.859375 C -9.71875 -1.484375 -8.703125 -1.296875 -7.671875 -1.296875 C -6.640625 -1.296875 -5.628906 -1.476562 -4.640625 -1.84375 C -3.648438 -2.21875 -2.769531 -2.734375 -2 -3.390625 C -1.238281 -4.046875 -0.613281 -4.84375 -0.125 -5.78125 C 0.351562 -6.71875 0.59375 -7.742188 0.59375 -8.859375 C 0.601562 -9.765625 0.476562 -10.585938 0.21875 -11.328125 C -0.03125 -12.066406 -0.367188 -12.71875 -0.796875 -13.28125 C -1.234375 -13.851562 -1.742188 -14.34375 -2.328125 -14.75 C -2.910156 -15.15625 -3.519531 -15.472656 -4.15625 -15.703125 C -4.332031 -15.785156 -4.515625 -15.828125 -4.703125 -15.828125 C -4.890625 -15.828125 -4.984375 -15.75 -4.984375 -15.59375 C -4.984375 -15.457031 -4.851562 -15.335938 -4.59375 -15.234375 C -4.03125 -14.992188 -3.46875 -14.691406 -2.90625 -14.328125 C -2.351562 -13.972656 -1.867188 -13.535156 -1.453125 -13.015625 C -1.035156 -12.492188 -0.691406 -11.898438 -0.421875 -11.234375 C -0.160156 -10.578125 -0.0351562 -9.8125 -0.046875 -8.9375 C -0.046875 -7.875 -0.445312 -7.019531 -1.25 -6.375 C -2.050781 -5.738281 -3.328125 -5.421875 -5.078125 -5.421875 L -9.125 -5.4375 L -9.078125 -15.015625 C -9.078125 -15.429688 -9.25 -15.644531 -9.59375 -15.65625 Z M -9.765625 -5.453125 L -11.34375 -5.453125 C -12.21875 -5.453125 -12.921875 -5.550781 -13.453125 -5.75 C -13.992188 -5.957031 -14.410156 -6.21875 -14.703125 -6.53125 C -14.992188 -6.851562 -15.191406 -7.210938 -15.296875 -7.609375 C -15.410156 -8.003906 -15.46875 -8.398438 -15.46875 -8.796875 C -15.457031 -9.429688 -15.335938 -9.953125 -15.109375 -10.359375 C -14.890625 -10.773438 -14.59375 -11.101562 -14.21875 -11.34375 C -13.84375 -11.582031 -13.429688 -11.738281 -12.984375 -11.8125 C -12.535156 -11.882812 -12.070312 -11.921875 -11.59375 -11.921875 C -10.351562 -11.921875 -9.734375 -11.722656 -9.734375 -11.328125 Z M -9.765625 -5.453125" transform="translate(52.166 186.537)"/></g></g></g><g fill="#FFF"><g><g><path d="M -0.921875 -14.328125 L 2.03125 -13.890625 L 2.921875 -20 L 2.28125 -20.09375 L 1.890625 -17.34375 L -12.875 -19.5 L -13.78125 -13.375 L -13.15625 -13.28125 L -12.75 -16.046875 L -2.96875 -14.625 C -2.539062 -14.5625 -2.097656 -14.363281 -1.640625 -14.03125 C -1.179688 -13.707031 -0.765625 -13.304688 -0.390625 -12.828125 C -0.0234375 -12.347656 0.257812 -11.8125 0.46875 -11.21875 C 0.675781 -10.625 0.738281 -10.039062 0.65625 -9.46875 C 0.519531 -8.550781 0.210938 -7.988281 -0.265625 -7.78125 C -0.753906 -7.582031 -1.5 -7.554688 -2.5 -7.703125 L -14.359375 -9.4375 L -15.25 -3.3125 L -14.625 -3.21875 L -14.21875 -5.96875 L -3.25 -4.375 C -2.40625 -4.25 -1.691406 -4.25 -1.109375 -4.375 C -0.523438 -4.5 -0.0507812 -4.722656 0.3125 -5.046875 C 0.675781 -5.378906 0.957031 -5.773438 1.15625 -6.234375 C 1.363281 -6.703125 1.503906 -7.203125 1.578125 -7.734375 C 1.773438 -9.109375 1.65625 -10.351562 1.21875 -11.46875 C 0.78125 -12.59375 0.0664062 -13.546875 -0.921875 -14.328125 Z M -0.921875 -14.328125" transform="translate(51.951 171.098)"/></g></g></g><g fill="#FFF"><g><g><path d="M -10.78125 -10.484375 L -13 -11.125 L -14.71875 -5.171875 L -14.09375 -5 L -13.328125 -7.671875 L 0.40625 -3.6875 L -0.359375 -1.015625 L 0.25 -0.84375 L 2.734375 -9.46875 L 2.125 -9.640625 L 1.359375 -6.96875 L -9.09375 -10 C -9.5 -10.113281 -9.882812 -10.351562 -10.25 -10.71875 C -10.625 -11.082031 -10.929688 -11.515625 -11.171875 -12.015625 C -11.410156 -12.515625 -11.566406 -13.035156 -11.640625 -13.578125 C -11.710938 -14.117188 -11.679688 -14.625 -11.546875 -15.09375 C -11.472656 -15.363281 -11.382812 -15.601562 -11.28125 -15.8125 C -11.1875 -16.019531 -11.0625 -16.101562 -10.90625 -16.0625 C -10.78125 -16.019531 -10.707031 -15.929688 -10.6875 -15.796875 C -10.625 -15.609375 -10.503906 -15.375 -10.328125 -15.09375 C -10.148438 -14.820312 -9.804688 -14.613281 -9.296875 -14.46875 C -8.765625 -14.320312 -8.273438 -14.375 -7.828125 -14.625 C -7.378906 -14.882812 -7.070312 -15.300781 -6.90625 -15.875 C -6.757812 -16.382812 -6.800781 -16.882812 -7.03125 -17.375 C -7.257812 -17.863281 -7.679688 -18.195312 -8.296875 -18.375 C -8.804688 -18.519531 -9.257812 -18.539062 -9.65625 -18.4375 C -10.0625 -18.332031 -10.414062 -18.148438 -10.71875 -17.890625 C -11.03125 -17.628906 -11.300781 -17.300781 -11.53125 -16.90625 C -11.757812 -16.519531 -11.9375 -16.109375 -12.0625 -15.671875 C -12.238281 -15.066406 -12.300781 -14.5 -12.25 -13.96875 C -12.207031 -13.4375 -12.113281 -12.941406 -11.96875 -12.484375 C -11.832031 -12.023438 -11.65625 -11.625 -11.4375 -11.28125 C -11.226562 -10.945312 -11.007812 -10.679688 -10.78125 -10.484375 Z M -10.78125 -10.484375" transform="translate(54.869 151.63)"/></g></g></g><g fill="#FFF"><g><g><path d="M -2.78125 -18.140625 C -3.175781 -18.285156 -3.757812 -18.390625 -4.53125 -18.453125 C -5.3125 -18.515625 -6.117188 -18.429688 -6.953125 -18.203125 C -7.796875 -17.984375 -8.628906 -17.570312 -9.453125 -16.96875 C -10.273438 -16.375 -10.9375 -15.488281 -11.4375 -14.3125 C -11.851562 -13.34375 -12.003906 -12.34375 -11.890625 -11.3125 C -11.785156 -10.28125 -11.492188 -9.300781 -11.015625 -8.375 C -10.546875 -7.457031 -9.921875 -6.628906 -9.140625 -5.890625 C -8.367188 -5.148438 -7.507812 -4.578125 -6.5625 -4.171875 C -5.613281 -3.773438 -4.613281 -3.554688 -3.5625 -3.515625 C -2.507812 -3.472656 -1.5 -3.601562 -0.53125 -3.90625 C 0.425781 -4.21875 1.304688 -4.707031 2.109375 -5.375 C 2.921875 -6.050781 3.546875 -6.90625 3.984375 -7.9375 C 4.335938 -8.769531 4.539062 -9.570312 4.59375 -10.34375 C 4.65625 -11.125 4.59375 -11.863281 4.40625 -12.5625 C 4.226562 -13.257812 3.953125 -13.90625 3.578125 -14.5 C 3.203125 -15.101562 2.765625 -15.632812 2.265625 -16.09375 C 2.128906 -16.226562 1.972656 -16.332031 1.796875 -16.40625 C 1.628906 -16.488281 1.515625 -16.457031 1.453125 -16.3125 C 1.398438 -16.1875 1.472656 -16.023438 1.671875 -15.828125 C 2.085938 -15.390625 2.484375 -14.894531 2.859375 -14.34375 C 3.234375 -13.800781 3.515625 -13.207031 3.703125 -12.5625 C 3.890625 -11.914062 3.972656 -11.238281 3.953125 -10.53125 C 3.941406 -9.820312 3.765625 -9.0625 3.421875 -8.25 C 3.003906 -7.269531 2.304688 -6.640625 1.328125 -6.359375 C 0.347656 -6.078125 -0.945312 -6.28125 -2.5625 -6.96875 L -6.28125 -8.546875 L -2.53125 -17.359375 C -2.375 -17.742188 -2.457031 -18.003906 -2.78125 -18.140625 Z M -6.875 -8.796875 L -8.328125 -9.421875 C -9.128906 -9.765625 -9.742188 -10.128906 -10.171875 -10.515625 C -10.597656 -10.910156 -10.878906 -11.3125 -11.015625 -11.71875 C -11.160156 -12.125 -11.207031 -12.53125 -11.15625 -12.9375 C -11.101562 -13.351562 -11 -13.742188 -10.84375 -14.109375 C -10.59375 -14.691406 -10.28125 -15.128906 -9.90625 -15.421875 C -9.539062 -15.710938 -9.140625 -15.890625 -8.703125 -15.953125 C -8.265625 -16.023438 -7.820312 -16.007812 -7.375 -15.90625 C -6.9375 -15.8125 -6.492188 -15.671875 -6.046875 -15.484375 C -4.910156 -14.992188 -4.421875 -14.566406 -4.578125 -14.203125 Z M -6.875 -8.796875" transform="translate(58.721 137.827)"/></g></g></g><g fill="#FFF"><g><g><path d="M -16.765625 -23.59375 L -22.4375 -14.484375 L -21.890625 -14.15625 L -20.078125 -17.0625 L 7.09375 -10.65625 L 7.46875 -11.265625 L -10.484375 -32.46875 L -8.96875 -34.890625 L -9.515625 -35.21875 L -13.28125 -29.1875 L -12.734375 -28.859375 L -10.9375 -31.75 L 3.015625 -15.296875 L -18.109375 -20.234375 L -16.21875 -23.265625 Z M -16.765625 -23.59375" transform="translate(64.288 123.583)"/></g></g></g><g fill="#FFF"><g><g><path d="M 2.875 -18.140625 C 2.539062 -18.390625 2.007812 -18.660156 1.28125 -18.953125 C 0.5625 -19.253906 -0.226562 -19.425781 -1.09375 -19.46875 C -1.96875 -19.507812 -2.882812 -19.367188 -3.84375 -19.046875 C -4.8125 -18.722656 -5.707031 -18.082031 -6.53125 -17.125 C -7.226562 -16.320312 -7.679688 -15.410156 -7.890625 -14.390625 C -8.109375 -13.367188 -8.128906 -12.347656 -7.953125 -11.328125 C -7.785156 -10.304688 -7.441406 -9.320312 -6.921875 -8.375 C -6.410156 -7.4375 -5.765625 -6.632812 -4.984375 -5.96875 C -4.203125 -5.289062 -3.316406 -4.773438 -2.328125 -4.421875 C -1.335938 -4.066406 -0.335938 -3.890625 0.671875 -3.890625 C 1.691406 -3.890625 2.6875 -4.082031 3.65625 -4.46875 C 4.625 -4.863281 5.472656 -5.484375 6.203125 -6.328125 C 6.796875 -7.015625 7.238281 -7.722656 7.53125 -8.453125 C 7.820312 -9.179688 7.988281 -9.898438 8.03125 -10.609375 C 8.070312 -11.328125 8 -12.03125 7.8125 -12.71875 C 7.632812 -13.40625 7.382812 -14.039062 7.0625 -14.625 C 6.976562 -14.800781 6.863281 -14.953125 6.71875 -15.078125 C 6.570312 -15.203125 6.445312 -15.207031 6.34375 -15.09375 C 6.257812 -14.988281 6.28125 -14.816406 6.40625 -14.578125 C 6.675781 -14.015625 6.90625 -13.414062 7.09375 -12.78125 C 7.28125 -12.144531 7.363281 -11.492188 7.34375 -10.828125 C 7.332031 -10.171875 7.207031 -9.503906 6.96875 -8.828125 C 6.738281 -8.148438 6.335938 -7.476562 5.765625 -6.8125 C 5.078125 -6.007812 4.21875 -5.625 3.1875 -5.65625 C 2.164062 -5.6875 0.992188 -6.273438 -0.328125 -7.421875 L -3.390625 -10.0625 L 2.859375 -17.3125 C 3.128906 -17.632812 3.132812 -17.910156 2.875 -18.140625 Z M -3.875 -10.484375 L -5.078125 -11.515625 C -5.734375 -12.085938 -6.203125 -12.625 -6.484375 -13.125 C -6.765625 -13.625 -6.910156 -14.085938 -6.921875 -14.515625 C -6.929688 -14.953125 -6.847656 -15.359375 -6.671875 -15.734375 C -6.503906 -16.109375 -6.289062 -16.441406 -6.03125 -16.734375 C -5.613281 -17.222656 -5.1875 -17.546875 -4.75 -17.703125 C -4.320312 -17.867188 -3.882812 -17.921875 -3.4375 -17.859375 C -3 -17.796875 -2.582031 -17.644531 -2.1875 -17.40625 C -1.800781 -17.175781 -1.425781 -16.90625 -1.0625 -16.59375 C -0.125 -15.789062 0.210938 -15.238281 -0.046875 -14.9375 Z M -3.875 -10.484375" transform="translate(76.629 104.048)"/></g></g></g><g fill="#FFF"><g><g><path d="M -3.6875 -14.578125 L -5.25 -16.28125 L -9.84375 -12.109375 L -9.40625 -11.640625 L -7.34375 -13.515625 L 2.265625 -2.9375 L 0.203125 -1.0625 L 0.640625 -0.59375 L 7.296875 -6.640625 L 6.859375 -7.109375 L 4.796875 -5.234375 L -2.515625 -13.28125 C -2.804688 -13.59375 -3.007812 -14 -3.125 -14.5 C -3.238281 -15.007812 -3.269531 -15.535156 -3.21875 -16.078125 C -3.164062 -16.628906 -3.03125 -17.15625 -2.8125 -17.65625 C -2.59375 -18.164062 -2.304688 -18.582031 -1.953125 -18.90625 C -1.734375 -19.101562 -1.53125 -19.257812 -1.34375 -19.375 C -1.15625 -19.5 -1.003906 -19.503906 -0.890625 -19.390625 C -0.804688 -19.285156 -0.785156 -19.175781 -0.828125 -19.0625 C -0.890625 -18.863281 -0.910156 -18.601562 -0.890625 -18.28125 C -0.878906 -17.957031 -0.695312 -17.597656 -0.34375 -17.203125 C 0.03125 -16.796875 0.472656 -16.582031 0.984375 -16.5625 C 1.503906 -16.550781 1.988281 -16.75 2.4375 -17.15625 C 2.820312 -17.507812 3.039062 -17.953125 3.09375 -18.484375 C 3.15625 -19.023438 2.972656 -19.53125 2.546875 -20 C 2.179688 -20.394531 1.800781 -20.648438 1.40625 -20.765625 C 1.019531 -20.878906 0.628906 -20.90625 0.234375 -20.84375 C -0.160156 -20.789062 -0.5625 -20.65625 -0.96875 -20.4375 C -1.375 -20.226562 -1.738281 -19.972656 -2.0625 -19.671875 C -2.53125 -19.242188 -2.882812 -18.789062 -3.125 -18.3125 C -3.363281 -17.84375 -3.539062 -17.375 -3.65625 -16.90625 C -3.78125 -16.4375 -3.835938 -16 -3.828125 -15.59375 C -3.828125 -15.195312 -3.78125 -14.859375 -3.6875 -14.578125 Z M -3.6875 -14.578125" transform="translate(86.825 92.14)"/></g></g></g><g fill="#FFF"><g><g><path d="M -0.25 -19.53125 L -0.4375 -18.25 C -1.539062 -18.363281 -2.578125 -18.066406 -3.546875 -17.359375 C -4.222656 -16.867188 -4.75 -16.316406 -5.125 -15.703125 C -5.5 -15.085938 -5.722656 -14.457031 -5.796875 -13.8125 C -5.867188 -13.175781 -5.816406 -12.546875 -5.640625 -11.921875 C -5.460938 -11.296875 -5.1875 -10.71875 -4.8125 -10.1875 C -4.238281 -9.394531 -3.503906 -8.867188 -2.609375 -8.609375 C -1.710938 -8.359375 -0.726562 -8.457031 0.34375 -8.90625 C 0.675781 -9.050781 1.039062 -9.207031 1.4375 -9.375 C 1.832031 -9.539062 2.238281 -9.707031 2.65625 -9.875 C 3.082031 -10.039062 3.503906 -10.179688 3.921875 -10.296875 C 4.347656 -10.421875 4.742188 -10.5 5.109375 -10.53125 C 5.703125 -10.625 6.195312 -10.5625 6.59375 -10.34375 C 7 -10.132812 7.320312 -9.863281 7.5625 -9.53125 C 7.894531 -9.070312 8.066406 -8.59375 8.078125 -8.09375 C 8.097656 -7.601562 8.007812 -7.132812 7.8125 -6.6875 C 7.613281 -6.238281 7.359375 -5.820312 7.046875 -5.4375 C 6.734375 -5.0625 6.40625 -4.75 6.0625 -4.5 C 5.070312 -3.78125 4.003906 -3.421875 2.859375 -3.421875 C 1.710938 -3.429688 0.578125 -3.894531 -0.546875 -4.8125 C -0.753906 -4.945312 -0.910156 -4.976562 -1.015625 -4.90625 C -1.140625 -4.8125 -1.140625 -4.679688 -1.015625 -4.515625 L 1.484375 -1.078125 C 1.609375 -0.910156 1.734375 -0.875 1.859375 -0.96875 C 1.941406 -1.03125 1.976562 -1.132812 1.96875 -1.28125 L 1.90625 -2.75 C 2.582031 -2.632812 3.304688 -2.664062 4.078125 -2.84375 C 4.859375 -3.03125 5.675781 -3.4375 6.53125 -4.0625 C 7.238281 -4.570312 7.773438 -5.132812 8.140625 -5.75 C 8.515625 -6.375 8.742188 -7.019531 8.828125 -7.6875 C 8.921875 -8.351562 8.875 -9.015625 8.6875 -9.671875 C 8.5 -10.335938 8.179688 -10.984375 7.734375 -11.609375 C 7.140625 -12.421875 6.367188 -13.039062 5.421875 -13.46875 C 4.484375 -13.90625 3.304688 -13.90625 1.890625 -13.46875 C 1.660156 -13.382812 1.363281 -13.269531 1 -13.125 C 0.644531 -12.988281 0.269531 -12.84375 -0.125 -12.6875 C -0.519531 -12.53125 -0.914062 -12.375 -1.3125 -12.21875 C -1.707031 -12.070312 -2.03125 -11.945312 -2.28125 -11.84375 C -2.820312 -11.6875 -3.265625 -11.65625 -3.609375 -11.75 C -3.953125 -11.851562 -4.273438 -12.101562 -4.578125 -12.5 C -4.984375 -13.0625 -5.078125 -13.757812 -4.859375 -14.59375 C -4.648438 -15.425781 -4.140625 -16.140625 -3.328125 -16.734375 C -2.804688 -17.109375 -2.273438 -17.34375 -1.734375 -17.4375 C -1.203125 -17.539062 -0.695312 -17.539062 -0.21875 -17.4375 C 0.257812 -17.332031 0.71875 -17.148438 1.15625 -16.890625 C 1.59375 -16.640625 1.972656 -16.351562 2.296875 -16.03125 C 2.410156 -15.90625 2.519531 -15.878906 2.625 -15.953125 C 2.71875 -16.023438 2.71875 -16.128906 2.625 -16.265625 L 0.125 -19.703125 C 0.0195312 -19.847656 -0.0664062 -19.894531 -0.140625 -19.84375 C -0.179688 -19.8125 -0.21875 -19.707031 -0.25 -19.53125 Z M -0.25 -19.53125" transform="translate(97.503 82.38)"/></g></g></g><g fill="#FFF"><g><g><path d="M -1.203125 -17.390625 L -6.703125 -14.140625 L -6.375 -13.59375 L -3.8125 -15.109375 L 3.46875 -2.796875 L 0.90625 -1.28125 L 1.234375 -0.734375 L 9.296875 -5.515625 L 8.96875 -6.0625 L 6.40625 -4.53125 Z M -4.671875 -23.859375 C -4.972656 -24.367188 -5.394531 -24.695312 -5.9375 -24.84375 C -6.476562 -24.988281 -7 -24.910156 -7.5 -24.609375 C -8 -24.316406 -8.316406 -23.894531 -8.453125 -23.34375 C -8.597656 -22.800781 -8.519531 -22.273438 -8.21875 -21.765625 C -7.925781 -21.265625 -7.503906 -20.945312 -6.953125 -20.8125 C -6.410156 -20.675781 -5.890625 -20.753906 -5.390625 -21.046875 C -4.890625 -21.347656 -4.570312 -21.765625 -4.4375 -22.296875 C -4.300781 -22.835938 -4.378906 -23.359375 -4.671875 -23.859375 Z M -4.671875 -23.859375" transform="translate(107.948 74.783)"/></g></g></g><g fill="#FFF"><g><g><path d="M 8.4375 -3.21875 C 9.53125 -3.71875 10.398438 -4.414062 11.046875 -5.3125 C 11.691406 -6.207031 12.15625 -7.164062 12.4375 -8.1875 C 12.71875 -9.21875 12.820312 -10.257812 12.75 -11.3125 C 12.675781 -12.363281 12.460938 -13.28125 12.109375 -14.0625 C 11.742188 -14.863281 11.191406 -15.632812 10.453125 -16.375 C 9.710938 -17.113281 8.863281 -17.710938 7.90625 -18.171875 C 6.945312 -18.640625 5.914062 -18.921875 4.8125 -19.015625 C 3.707031 -19.109375 2.609375 -18.90625 1.515625 -18.40625 C 0.429688 -17.914062 -0.429688 -17.222656 -1.078125 -16.328125 C -1.734375 -15.441406 -2.203125 -14.484375 -2.484375 -13.453125 C -2.773438 -12.421875 -2.882812 -11.378906 -2.8125 -10.328125 C -2.75 -9.285156 -2.535156 -8.363281 -2.171875 -7.5625 C -1.816406 -6.78125 -1.265625 -6.015625 -0.515625 -5.265625 C 0.222656 -4.523438 1.070312 -3.925781 2.03125 -3.46875 C 3 -3.007812 4.035156 -2.726562 5.140625 -2.625 C 6.253906 -2.53125 7.351562 -2.726562 8.4375 -3.21875 Z M 1.21875 -10.0625 C 0.757812 -11.082031 0.394531 -11.992188 0.125 -12.796875 C -0.132812 -13.609375 -0.265625 -14.335938 -0.265625 -14.984375 C -0.273438 -15.628906 -0.117188 -16.1875 0.203125 -16.65625 C 0.535156 -17.125 1.0625 -17.519531 1.78125 -17.84375 C 2.507812 -18.175781 3.15625 -18.3125 3.71875 -18.25 C 4.289062 -18.1875 4.8125 -17.941406 5.28125 -17.515625 C 5.75 -17.085938 6.203125 -16.503906 6.640625 -15.765625 C 7.078125 -15.035156 7.523438 -14.160156 7.984375 -13.140625 L 8.703125 -11.59375 C 9.191406 -10.507812 9.570312 -9.554688 9.84375 -8.734375 C 10.113281 -7.910156 10.25 -7.191406 10.25 -6.578125 C 10.257812 -5.972656 10.097656 -5.441406 9.765625 -4.984375 C 9.429688 -4.535156 8.898438 -4.144531 8.171875 -3.8125 C 7.453125 -3.488281 6.8125 -3.347656 6.25 -3.390625 C 5.6875 -3.441406 5.171875 -3.660156 4.703125 -4.046875 C 4.234375 -4.441406 3.773438 -5.015625 3.328125 -5.765625 C 2.890625 -6.515625 2.425781 -7.429688 1.9375 -8.515625 Z M 1.21875 -10.0625" transform="translate(116.685 69.333)"/></g></g></g><g fill="#FFF"><g><g><path d="M 3.78125 -14.1875 L 2.921875 -17.09375 L -3.015625 -15.359375 L -2.828125 -14.734375 L -0.15625 -15.515625 L 3.859375 -1.796875 L 1.1875 -1.015625 L 1.375 -0.40625 L 9.984375 -2.921875 L 9.796875 -3.53125 L 7.125 -2.75 L 4.359375 -12.203125 C 4.234375 -12.640625 4.210938 -13.140625 4.296875 -13.703125 C 4.378906 -14.265625 4.539062 -14.816406 4.78125 -15.359375 C 5.03125 -15.898438 5.347656 -16.378906 5.734375 -16.796875 C 6.128906 -17.210938 6.582031 -17.492188 7.09375 -17.640625 C 7.820312 -17.859375 8.421875 -17.789062 8.890625 -17.4375 C 9.367188 -17.082031 9.757812 -16.40625 10.0625 -15.40625 L 13.234375 -4.546875 L 10.5625 -3.765625 L 10.75 -3.15625 L 19.375 -5.6875 L 19.1875 -6.296875 L 16.515625 -5.515625 L 13.265625 -16.640625 C 12.867188 -17.960938 12.222656 -18.765625 11.328125 -19.046875 C 10.429688 -19.335938 9.398438 -19.3125 8.234375 -18.96875 C 6.828125 -18.5625 5.773438 -17.910156 5.078125 -17.015625 C 4.390625 -16.117188 3.957031 -15.175781 3.78125 -14.1875 Z M 3.78125 -14.1875" transform="translate(131.093 62.5)"/></g></g></g><g fill="#FFF"><g><g><path d="M 9.921875 -27.984375 L -1.75 -26.671875 L -1.671875 -26.03125 L 1.8125 -26.421875 L 4.65625 -1.171875 L 1.171875 -0.78125 L 1.25 -0.140625 L 12.921875 -1.453125 C 14.765625 -1.660156 16.410156 -2.171875 17.859375 -2.984375 C 19.316406 -3.804688 20.515625 -4.867188 21.453125 -6.171875 C 22.390625 -7.484375 23.0625 -9.007812 23.46875 -10.75 C 23.882812 -12.488281 23.976562 -14.382812 23.75 -16.4375 C 23.53125 -18.351562 23.023438 -20.070312 22.234375 -21.59375 C 21.441406 -23.125 20.4375 -24.398438 19.21875 -25.421875 C 18 -26.441406 16.597656 -27.175781 15.015625 -27.625 C 13.429688 -28.070312 11.734375 -28.191406 9.921875 -27.984375 Z M 19.28125 -16.921875 L 19.5 -14.953125 C 19.757812 -12.609375 19.757812 -10.640625 19.5 -9.046875 C 19.25 -7.460938 18.800781 -6.175781 18.15625 -5.1875 C 17.519531 -4.195312 16.734375 -3.460938 15.796875 -2.984375 C 14.867188 -2.515625 13.851562 -2.21875 12.75 -2.09375 L 8.5 -1.609375 L 5.65625 -26.859375 L 9.90625 -27.34375 C 10.988281 -27.457031 12.035156 -27.378906 13.046875 -27.109375 C 14.066406 -26.847656 15 -26.316406 15.84375 -25.515625 C 16.695312 -24.722656 17.421875 -23.625 18.015625 -22.21875 C 18.617188 -20.820312 19.039062 -19.054688 19.28125 -16.921875 Z M 19.28125 -16.921875" transform="translate(149.126 56.777)"/></g></g></g><g fill="#FFF"><g><g><path d="M 16.046875 -8.921875 C 16.046875 -9.347656 15.9375 -9.9375 15.71875 -10.6875 C 15.5 -11.4375 15.140625 -12.164062 14.640625 -12.875 C 14.140625 -13.59375 13.460938 -14.226562 12.609375 -14.78125 C 11.765625 -15.332031 10.707031 -15.640625 9.4375 -15.703125 C 8.382812 -15.753906 7.390625 -15.550781 6.453125 -15.09375 C 5.515625 -14.632812 4.695312 -14.019531 4 -13.25 C 3.300781 -12.488281 2.738281 -11.613281 2.3125 -10.625 C 1.894531 -9.632812 1.664062 -8.625 1.625 -7.59375 C 1.570312 -6.570312 1.707031 -5.5625 2.03125 -4.5625 C 2.363281 -3.5625 2.84375 -2.660156 3.46875 -1.859375 C 4.101562 -1.066406 4.875 -0.410156 5.78125 0.109375 C 6.695312 0.628906 7.707031 0.914062 8.8125 0.96875 C 9.71875 1.007812 10.546875 0.921875 11.296875 0.703125 C 12.054688 0.484375 12.726562 0.171875 13.3125 -0.234375 C 13.90625 -0.648438 14.414062 -1.140625 14.84375 -1.703125 C 15.269531 -2.265625 15.613281 -2.859375 15.875 -3.484375 C 15.957031 -3.660156 16.003906 -3.84375 16.015625 -4.03125 C 16.023438 -4.21875 15.953125 -4.316406 15.796875 -4.328125 C 15.660156 -4.328125 15.535156 -4.203125 15.421875 -3.953125 C 15.148438 -3.398438 14.820312 -2.851562 14.4375 -2.3125 C 14.050781 -1.769531 13.59375 -1.300781 13.0625 -0.90625 C 12.53125 -0.507812 11.925781 -0.195312 11.25 0.03125 C 10.570312 0.269531 9.796875 0.375 8.921875 0.34375 C 7.859375 0.289062 7.023438 -0.144531 6.421875 -0.96875 C 5.816406 -1.800781 5.554688 -3.09375 5.640625 -4.84375 L 5.828125 -8.875 L 15.390625 -8.4375 C 15.804688 -8.414062 16.023438 -8.578125 16.046875 -8.921875 Z M 5.859375 -9.515625 L 5.9375 -11.09375 C 5.976562 -11.96875 6.109375 -12.671875 6.328125 -13.203125 C 6.546875 -13.734375 6.820312 -14.132812 7.15625 -14.40625 C 7.488281 -14.6875 7.851562 -14.875 8.25 -14.96875 C 8.644531 -15.0625 9.039062 -15.097656 9.4375 -15.078125 C 10.070312 -15.046875 10.585938 -14.910156 10.984375 -14.671875 C 11.390625 -14.429688 11.703125 -14.113281 11.921875 -13.71875 C 12.148438 -13.332031 12.289062 -12.914062 12.34375 -12.46875 C 12.40625 -12.019531 12.425781 -11.554688 12.40625 -11.078125 C 12.34375 -9.835938 12.113281 -9.222656 11.71875 -9.234375 Z M 5.859375 -9.515625" transform="translate(173.234 54.252)"/></g></g></g><g fill="#FFF"><g><g><path d="M 1.453125 -0.328125 L 1.3125 0.296875 L 8.140625 1.859375 L 8.28125 1.234375 L 5.1875 0.53125 L 10.703125 -23.59375 L 13.671875 3.125 L 14.1875 3.25 L 28.515625 -19.6875 L 22.953125 4.59375 L 19.84375 3.890625 L 19.703125 4.515625 L 29.671875 6.78125 L 29.8125 6.15625 L 26.703125 5.453125 L 32.375 -19.328125 L 35.484375 -18.625 L 35.625 -19.25 L 28.453125 -20.890625 L 17.015625 -2.546875 L 14.4375 -24.09375 L 7.265625 -25.734375 L 7.125 -25.109375 L 10.234375 -24.390625 L 4.5625 0.390625 Z M 1.453125 -0.328125" transform="translate(188.292 54.111)"/></g></g></g><g fill="#FFF"><g><g><path d="M 8.0625 4.0625 C 9.164062 4.539062 10.265625 4.71875 11.359375 4.59375 C 12.460938 4.476562 13.484375 4.175781 14.421875 3.6875 C 15.367188 3.195312 16.207031 2.570312 16.9375 1.8125 C 17.675781 1.0625 18.210938 0.285156 18.546875 -0.515625 C 18.890625 -1.316406 19.082031 -2.242188 19.125 -3.296875 C 19.175781 -4.347656 19.050781 -5.378906 18.75 -6.390625 C 18.457031 -7.410156 17.972656 -8.359375 17.296875 -9.234375 C 16.628906 -10.109375 15.742188 -10.785156 14.640625 -11.265625 C 13.554688 -11.722656 12.460938 -11.894531 11.359375 -11.78125 C 10.253906 -11.675781 9.222656 -11.382812 8.265625 -10.90625 C 7.304688 -10.425781 6.460938 -9.804688 5.734375 -9.046875 C 5.003906 -8.285156 4.46875 -7.503906 4.125 -6.703125 C 3.789062 -5.898438 3.597656 -4.972656 3.546875 -3.921875 C 3.492188 -2.878906 3.625 -1.84375 3.9375 -0.8125 C 4.25 0.207031 4.742188 1.160156 5.421875 2.046875 C 6.097656 2.929688 6.976562 3.601562 8.0625 4.0625 Z M 8.265625 -5.875 C 8.710938 -6.894531 9.144531 -7.773438 9.5625 -8.515625 C 9.976562 -9.265625 10.421875 -9.851562 10.890625 -10.28125 C 11.367188 -10.71875 11.890625 -10.972656 12.453125 -11.046875 C 13.015625 -11.128906 13.660156 -11.015625 14.390625 -10.703125 C 15.128906 -10.378906 15.664062 -9.984375 16 -9.515625 C 16.332031 -9.054688 16.5 -8.507812 16.5 -7.875 C 16.507812 -7.238281 16.390625 -6.507812 16.140625 -5.6875 C 15.890625 -4.875 15.539062 -3.957031 15.09375 -2.9375 L 14.421875 -1.375 C 13.953125 -0.28125 13.503906 0.640625 13.078125 1.390625 C 12.660156 2.148438 12.222656 2.738281 11.765625 3.15625 C 11.316406 3.570312 10.8125 3.804688 10.25 3.859375 C 9.695312 3.921875 9.050781 3.789062 8.3125 3.46875 C 7.582031 3.15625 7.046875 2.773438 6.703125 2.328125 C 6.367188 1.890625 6.1875 1.359375 6.15625 0.734375 C 6.132812 0.117188 6.25 -0.597656 6.5 -1.421875 C 6.757812 -2.253906 7.125 -3.21875 7.59375 -4.3125 Z M 8.265625 -5.875" transform="translate(216.778 61.05)"/></g></g></g><g fill="#FFF"><g><g><path d="M 14.46875 -9.734375 L 8.890625 -12.875 L 8.578125 -12.3125 L 11.171875 -10.859375 L 4.15625 1.59375 L 1.5625 0.140625 L 1.25 0.703125 L 9.421875 5.296875 L 9.734375 4.734375 L 7.140625 3.28125 Z M 18.328125 -15.96875 C 18.617188 -16.476562 18.691406 -17.003906 18.546875 -17.546875 C 18.398438 -18.097656 18.070312 -18.515625 17.5625 -18.796875 C 17.050781 -19.085938 16.523438 -19.15625 15.984375 -19 C 15.441406 -18.84375 15.023438 -18.507812 14.734375 -18 C 14.453125 -17.5 14.382812 -16.976562 14.53125 -16.4375 C 14.6875 -15.894531 15.019531 -15.476562 15.53125 -15.1875 C 16.039062 -14.90625 16.5625 -14.835938 17.09375 -14.984375 C 17.632812 -15.140625 18.046875 -15.46875 18.328125 -15.96875 Z M 18.328125 -15.96875" transform="translate(231.776 67.582)"/></g></g></g><g fill="#FFF"><g><g><path d="M 32.609375 -11.21875 L 37.015625 -11.28125 L 37.015625 -8.734375 C 36.515625 -8.816406 35.929688 -8.859375 35.265625 -8.859375 C 34.609375 -8.859375 33.867188 -8.816406 33.046875 -8.734375 C 33.046875 -5.554688 31.515625 -2.335938 28.453125 0.921875 C 25.398438 4.191406 21.710938 6.847656 17.390625 8.890625 C 13.066406 10.941406 9.046875 11.96875 5.328125 11.96875 C 3.390625 11.96875 1.8125 11.46875 0.59375 10.46875 C -0.625 9.476562 -1.234375 8.179688 -1.234375 6.578125 C -1.234375 4.171875 0.351562 1.664062 3.53125 -0.9375 C 6.71875 -3.539062 10.4375 -5.6875 14.6875 -7.375 C 18.945312 -9.070312 22.789062 -10.066406 26.21875 -10.359375 C 25.8125 -10.972656 25.171875 -11.503906 24.296875 -11.953125 C 23.429688 -12.410156 21.65625 -13.125 18.96875 -14.09375 C 16.28125 -15.070312 14.378906 -16.148438 13.265625 -17.328125 C 12.148438 -18.503906 11.59375 -20.164062 11.59375 -22.3125 C 11.59375 -24.46875 12.75 -26.929688 15.0625 -29.703125 C 17.375 -32.472656 20.113281 -34.796875 23.28125 -36.671875 C 26.445312 -38.554688 29.226562 -39.5 31.625 -39.5 C 32.695312 -39.5 33.582031 -39.113281 34.28125 -38.34375 C 34.988281 -37.582031 35.34375 -36.644531 35.34375 -35.53125 C 35.34375 -33.707031 34.242188 -31.421875 32.046875 -28.671875 C 29.859375 -25.921875 27.421875 -23.820312 24.734375 -22.375 L 23.25 -24.484375 C 24.863281 -25.316406 26.28125 -26.609375 27.5 -28.359375 C 28.71875 -30.117188 29.328125 -31.640625 29.328125 -32.921875 C 29.328125 -34.203125 28.644531 -34.84375 27.28125 -34.84375 C 25.332031 -34.84375 23.109375 -33.632812 20.609375 -31.21875 C 18.109375 -28.800781 16.859375 -26.535156 16.859375 -24.421875 C 16.859375 -22.984375 17.226562 -21.847656 17.96875 -21.015625 C 18.71875 -20.191406 20.597656 -19.171875 23.609375 -17.953125 C 26.628906 -16.734375 28.78125 -15.65625 30.0625 -14.71875 C 31.34375 -13.789062 32.191406 -12.625 32.609375 -11.21875 Z M 4.953125 4.953125 C 4.953125 6.941406 6.566406 7.9375 9.796875 7.9375 C 11.578125 7.9375 13.878906 7.285156 16.703125 5.984375 C 19.535156 4.679688 22.035156 2.863281 24.203125 0.53125 C 26.378906 -1.800781 27.46875 -4.191406 27.46875 -6.640625 C 27.46875 -6.921875 27.40625 -7.351562 27.28125 -7.9375 C 21.613281 -7.394531 16.472656 -5.800781 11.859375 -3.15625 C 7.253906 -0.507812 4.953125 2.191406 4.953125 4.953125 Z M 4.953125 4.953125" transform="translate(84.992 172.277)"/></g></g></g><g fill="#FFF"><g><g><path d="M 27.21875 -6.265625 L 28.640625 -5.203125 C 28.066406 -3.960938 27.003906 -2.785156 25.453125 -1.671875 C 23.898438 -0.554688 22.484375 0 21.203125 0 C 18.765625 0 17.546875 -1.28125 17.546875 -3.84375 C 17.546875 -5.039062 17.851562 -6.46875 18.46875 -8.125 L 16.1875 -5.765625 C 13.945312 -3.492188 12.007812 -1.960938 10.375 -1.171875 C 8.75 -0.390625 7.148438 0 5.578125 0 C 4.003906 0 2.816406 -0.441406 2.015625 -1.328125 C 1.210938 -2.222656 0.8125 -3.453125 0.8125 -5.015625 C 0.8125 -7.910156 1.925781 -10.773438 4.15625 -13.609375 C 6.382812 -16.441406 9.234375 -18.742188 12.703125 -20.515625 C 16.179688 -22.296875 19.65625 -23.207031 23.125 -23.25 L 23.25 -21.203125 L 20.640625 -20.640625 C 16.878906 -19.816406 13.5625 -18.164062 10.6875 -15.6875 C 7.820312 -13.207031 6.390625 -10.738281 6.390625 -8.28125 C 6.390625 -5.820312 7.378906 -4.59375 9.359375 -4.59375 C 11.222656 -4.59375 13.519531 -5.894531 16.25 -8.5 C 18.976562 -11.101562 21.25 -14.160156 23.0625 -17.671875 L 25.671875 -16.125 C 23.109375 -10.957031 21.828125 -7.671875 21.828125 -6.265625 C 21.828125 -5.679688 22.019531 -5.191406 22.40625 -4.796875 C 22.800781 -4.410156 23.195312 -4.21875 23.59375 -4.21875 C 23.988281 -4.21875 24.242188 -4.238281 24.359375 -4.28125 C 24.484375 -4.320312 24.609375 -4.375 24.734375 -4.4375 C 24.859375 -4.5 25.015625 -4.585938 25.203125 -4.703125 C 25.390625 -4.828125 25.554688 -4.953125 25.703125 -5.078125 C 25.847656 -5.203125 26.082031 -5.390625 26.40625 -5.640625 C 26.738281 -5.890625 27.007812 -6.097656 27.21875 -6.265625 Z M 27.21875 -6.265625" transform="translate(123.861 172.277)"/></g></g></g><g fill="#FFF"><g><g><path d="M 11.53125 -17.046875 C 13.519531 -19.078125 15.265625 -20.472656 16.765625 -21.234375 C 18.273438 -21.992188 19.703125 -22.375 21.046875 -22.375 C 22.390625 -22.375 23.503906 -21.910156 24.390625 -20.984375 C 25.285156 -20.054688 25.734375 -18.847656 25.734375 -17.359375 C 25.734375 -13.515625 24.117188 -9.472656 20.890625 -5.234375 C 17.671875 -1.003906 14.203125 1.109375 10.484375 1.109375 C 9.359375 1.109375 8.300781 0.90625 7.3125 0.5 L 8.796875 -2.234375 C 9.460938 -2.066406 9.984375 -1.984375 10.359375 -1.984375 C 12.878906 -1.984375 15.171875 -3.390625 17.234375 -6.203125 C 19.304688 -9.015625 20.34375 -11.785156 20.34375 -14.515625 C 20.34375 -15.378906 20.0625 -16.085938 19.5 -16.640625 C 18.9375 -17.203125 18.222656 -17.484375 17.359375 -17.484375 C 15.460938 -17.484375 13.238281 -15.953125 10.6875 -12.890625 C 8.144531 -9.835938 5.925781 -5.851562 4.03125 -0.9375 L 0.25 -2.484375 C 1.488281 -8.804688 3.96875 -16.515625 7.6875 -25.609375 C 11.40625 -34.703125 14.503906 -41.128906 16.984375 -44.890625 L 20.15625 -43.765625 C 17.425781 -38.679688 14.519531 -32.378906 11.4375 -24.859375 C 8.351562 -17.335938 6.546875 -12.234375 6.015625 -9.546875 C 7.710938 -12.523438 9.550781 -15.023438 11.53125 -17.046875 Z M 11.53125 -17.046875" transform="translate(152.935 172.277)"/></g></g></g><g fill="#FFF"><g><g><path d="M 17.984375 -21.953125 C 19.015625 -21.953125 19.859375 -21.597656 20.515625 -20.890625 C 21.179688 -20.191406 21.515625 -19.285156 21.515625 -18.171875 C 21.515625 -15.929688 20.234375 -13.570312 17.671875 -11.09375 L 16.1875 -12.28125 C 16.757812 -13.5625 17.046875 -14.488281 17.046875 -15.0625 C 17.046875 -16.175781 16.425781 -16.734375 15.1875 -16.734375 C 13.945312 -16.734375 12.769531 -15.945312 11.65625 -14.375 C 10.539062 -12.8125 9.226562 -10.382812 7.71875 -7.09375 C 6.207031 -3.8125 5.0625 -1.488281 4.28125 -0.125 L 0.75 -1.671875 C 3.019531 -6.835938 4.320312 -9.875 4.65625 -10.78125 C 5.769531 -14.007812 6.328125 -18.101562 6.328125 -23.0625 L 9.796875 -24 C 9.671875 -21.3125 9.484375 -19.234375 9.234375 -17.765625 C 8.984375 -16.296875 8.382812 -13.910156 7.4375 -10.609375 C 11.613281 -18.171875 15.128906 -21.953125 17.984375 -21.953125 Z M 17.984375 -21.953125" transform="translate(179.654 172.277)"/></g></g></g><g fill="#FFF"><g><g><path d="M 13.265625 -26.28125 C 10.953125 -26.28125 9.796875 -27.210938 9.796875 -29.078125 C 9.796875 -30.109375 10.082031 -30.972656 10.65625 -31.671875 C 11.238281 -32.378906 11.984375 -32.734375 12.890625 -32.734375 C 13.804688 -32.734375 14.550781 -32.460938 15.125 -31.921875 C 15.707031 -31.390625 16 -30.6875 16 -29.8125 C 16 -28.945312 15.75 -28.140625 15.25 -27.390625 C 14.757812 -26.648438 14.097656 -26.28125 13.265625 -26.28125 Z M 12.46875 -8 L 13.703125 -6.9375 C 12.710938 -5.039062 11.398438 -3.421875 9.765625 -2.078125 C 8.128906 -0.734375 6.648438 -0.0625 5.328125 -0.0625 C 3.015625 -0.0625 1.859375 -1.671875 1.859375 -4.890625 C 1.859375 -8.898438 3.507812 -14.128906 6.8125 -20.578125 C 7.5625 -21.984375 8 -22.8125 8.125 -23.0625 L 10.78125 -21.453125 C 9.914062 -19.878906 8.851562 -17.375 7.59375 -13.9375 C 6.332031 -10.507812 5.703125 -8.3125 5.703125 -7.34375 C 5.703125 -6.375 5.90625 -5.679688 6.3125 -5.265625 C 6.726562 -4.859375 7.226562 -4.65625 7.8125 -4.65625 C 8.925781 -4.65625 10.476562 -5.769531 12.46875 -8 Z M 12.46875 -8" transform="translate(201.661 172.277)"/></g></g></g><g fill="#FFF"><g><g><path d="M 26.59375 -7.5 L 27.90625 -6.515625 C 26.988281 -4.691406 25.734375 -3.160156 24.140625 -1.921875 C 22.554688 -0.679688 21.125 -0.0625 19.84375 -0.0625 C 18.5625 -0.0625 17.546875 -0.429688 16.796875 -1.171875 C 16.054688 -1.921875 15.6875 -2.851562 15.6875 -3.96875 C 15.6875 -5.082031 16.398438 -7.035156 17.828125 -9.828125 C 19.253906 -12.617188 19.96875 -14.675781 19.96875 -16 C 19.96875 -16.570312 19.726562 -17.097656 19.25 -17.578125 C 18.769531 -18.054688 18.203125 -18.296875 17.546875 -18.296875 C 15.441406 -18.296875 13.3125 -16.691406 11.15625 -13.484375 C 9.007812 -10.285156 6.613281 -5.664062 3.96875 0.375 L 0.25 -0.9375 C 1.03125 -5.726562 2.15625 -10.40625 3.625 -14.96875 C 5.09375 -19.539062 6.445312 -22.816406 7.6875 -24.796875 L 10.234375 -24 C 9.078125 -21.0625 7.609375 -15.992188 5.828125 -8.796875 C 11.535156 -18.554688 16.785156 -23.4375 21.578125 -23.4375 C 22.609375 -23.4375 23.460938 -23.082031 24.140625 -22.375 C 24.828125 -21.675781 25.171875 -20.847656 25.171875 -19.890625 C 25.171875 -18.941406 25.046875 -18.085938 24.796875 -17.328125 C 24.546875 -16.566406 23.769531 -14.789062 22.46875 -12 C 21.164062 -9.207031 20.515625 -7.457031 20.515625 -6.75 C 20.515625 -6.050781 20.722656 -5.503906 21.140625 -5.109375 C 21.554688 -4.722656 21.945312 -4.53125 22.3125 -4.53125 C 22.6875 -4.53125 23 -4.585938 23.25 -4.703125 C 23.5 -4.828125 23.773438 -5.015625 24.078125 -5.265625 C 24.390625 -5.515625 24.671875 -5.742188 24.921875 -5.953125 C 25.171875 -6.160156 25.46875 -6.4375 25.8125 -6.78125 C 26.164062 -7.132812 26.425781 -7.375 26.59375 -7.5 Z M 26.59375 -7.5" transform="translate(218.275 172.277)"/></g></g></g><g fill="#FFF"><g><g><path d="M 27.21875 -6.265625 L 28.640625 -5.203125 C 28.066406 -3.960938 27.003906 -2.785156 25.453125 -1.671875 C 23.898438 -0.554688 22.484375 0 21.203125 0 C 18.765625 0 17.546875 -1.28125 17.546875 -3.84375 C 17.546875 -5.039062 17.851562 -6.46875 18.46875 -8.125 L 16.1875 -5.765625 C 13.945312 -3.492188 12.007812 -1.960938 10.375 -1.171875 C 8.75 -0.390625 7.148438 0 5.578125 0 C 4.003906 0 2.816406 -0.441406 2.015625 -1.328125 C 1.210938 -2.222656 0.8125 -3.453125 0.8125 -5.015625 C 0.8125 -7.910156 1.925781 -10.773438 4.15625 -13.609375 C 6.382812 -16.441406 9.234375 -18.742188 12.703125 -20.515625 C 16.179688 -22.296875 19.65625 -23.207031 23.125 -23.25 L 23.25 -21.203125 L 20.640625 -20.640625 C 16.878906 -19.816406 13.5625 -18.164062 10.6875 -15.6875 C 7.820312 -13.207031 6.390625 -10.738281 6.390625 -8.28125 C 6.390625 -5.820312 7.378906 -4.59375 9.359375 -4.59375 C 11.222656 -4.59375 13.519531 -5.894531 16.25 -8.5 C 18.976562 -11.101562 21.25 -14.160156 23.0625 -17.671875 L 25.671875 -16.125 C 23.109375 -10.957031 21.828125 -7.671875 21.828125 -6.265625 C 21.828125 -5.679688 22.019531 -5.191406 22.40625 -4.796875 C 22.800781 -4.410156 23.195312 -4.21875 23.59375 -4.21875 C 23.988281 -4.21875 24.242188 -4.238281 24.359375 -4.28125 C 24.484375 -4.320312 24.609375 -4.375 24.734375 -4.4375 C 24.859375 -4.5 25.015625 -4.585938 25.203125 -4.703125 C 25.390625 -4.828125 25.554688 -4.953125 25.703125 -5.078125 C 25.847656 -5.203125 26.082031 -5.390625 26.40625 -5.640625 C 26.738281 -5.890625 27.007812 -6.097656 27.21875 -6.265625 Z M 27.21875 -6.265625" transform="translate(247.04 172.277)"/></g></g></g><g fill="#FFF"><g><g><path d="M 22.84375 -8.125 C 22.707031 -8.125 22.570312 -7.976562 22.4375 -7.6875 C 21.957031 -6.59375 21.4375 -5.570312 20.875 -4.625 C 20.320312 -3.675781 19.679688 -2.851562 18.953125 -2.15625 C 18.234375 -1.46875 17.429688 -0.925781 16.546875 -0.53125 C 15.671875 -0.144531 14.703125 0.046875 13.640625 0.046875 C 11.210938 0.046875 9.410156 -0.898438 8.234375 -2.796875 C 7.066406 -4.691406 6.484375 -7.46875 6.484375 -11.125 L 6.484375 -15.59375 C 6.484375 -19.113281 7.082031 -21.828125 8.28125 -23.734375 C 9.476562 -25.640625 11.332031 -26.59375 13.84375 -26.59375 C 14.882812 -26.59375 15.828125 -26.425781 16.671875 -26.09375 C 17.523438 -25.757812 18.300781 -25.300781 19 -24.71875 C 19.695312 -24.132812 20.296875 -23.425781 20.796875 -22.59375 C 21.304688 -21.769531 21.722656 -20.878906 22.046875 -19.921875 C 22.117188 -19.648438 22.207031 -19.515625 22.3125 -19.515625 C 22.445312 -19.515625 22.515625 -19.675781 22.515625 -20 L 22.515625 -26.515625 C 22.515625 -26.753906 22.488281 -26.914062 22.4375 -27 C 22.382812 -27.082031 22.304688 -27.125 22.203125 -27.125 C 22.066406 -27.125 21.894531 -27.015625 21.6875 -26.796875 L 20.125 -25.203125 C 19.269531 -25.890625 18.304688 -26.410156 17.234375 -26.765625 C 16.171875 -27.128906 15.039062 -27.3125 13.84375 -27.3125 C 12.082031 -27.3125 10.445312 -26.910156 8.9375 -26.109375 C 7.4375 -25.316406 6.128906 -24.265625 5.015625 -22.953125 C 3.910156 -21.648438 3.050781 -20.164062 2.4375 -18.5 C 1.820312 -16.832031 1.515625 -15.144531 1.515625 -13.4375 C 1.515625 -11.46875 1.867188 -9.617188 2.578125 -7.890625 C 3.285156 -6.171875 4.210938 -4.671875 5.359375 -3.390625 C 6.503906 -2.117188 7.796875 -1.109375 9.234375 -0.359375 C 10.679688 0.390625 12.148438 0.765625 13.640625 0.765625 C 14.890625 0.765625 16.085938 0.515625 17.234375 0.015625 C 18.378906 -0.472656 19.40625 -1.222656 20.3125 -2.234375 L 22.4375 0.078125 C 22.570312 0.210938 22.691406 0.28125 22.796875 0.28125 C 22.960938 0.28125 23.046875 0.1875 23.046875 0 L 23.046875 -7.71875 C 23.046875 -7.988281 22.976562 -8.125 22.84375 -8.125 Z M 22.84375 -8.125" transform="translate(128.576 232.227)"/></g></g></g><g fill="#FFF"><g><g><path d="M 9.078125 0.5625 C 10.273438 0.5625 11.359375 0.289062 12.328125 -0.25 C 13.304688 -0.800781 14.132812 -1.488281 14.8125 -2.3125 C 15.5 -3.144531 16.023438 -4.050781 16.390625 -5.03125 C 16.765625 -6.019531 16.953125 -6.957031 16.953125 -7.84375 C 16.953125 -8.71875 16.765625 -9.648438 16.390625 -10.640625 C 16.023438 -11.628906 15.5 -12.535156 14.8125 -13.359375 C 14.132812 -14.179688 13.304688 -14.863281 12.328125 -15.40625 C 11.359375 -15.957031 10.273438 -16.234375 9.078125 -16.234375 C 7.878906 -16.234375 6.789062 -15.957031 5.8125 -15.40625 C 4.84375 -14.863281 4.007812 -14.179688 3.3125 -13.359375 C 2.625 -12.535156 2.09375 -11.628906 1.71875 -10.640625 C 1.34375 -9.648438 1.15625 -8.71875 1.15625 -7.84375 C 1.15625 -6.957031 1.34375 -6.019531 1.71875 -5.03125 C 2.09375 -4.050781 2.625 -3.144531 3.3125 -2.3125 C 4.007812 -1.488281 4.84375 -0.800781 5.8125 -0.25 C 6.789062 0.289062 7.878906 0.5625 9.078125 0.5625 Z M 5.3125 -8.71875 C 5.3125 -9.84375 5.359375 -10.828125 5.453125 -11.671875 C 5.546875 -12.523438 5.726562 -13.242188 6 -13.828125 C 6.269531 -14.421875 6.648438 -14.863281 7.140625 -15.15625 C 7.628906 -15.445312 8.273438 -15.59375 9.078125 -15.59375 C 9.878906 -15.59375 10.523438 -15.445312 11.015625 -15.15625 C 11.515625 -14.863281 11.890625 -14.421875 12.140625 -13.828125 C 12.390625 -13.242188 12.5625 -12.523438 12.65625 -11.671875 C 12.75 -10.828125 12.796875 -9.84375 12.796875 -8.71875 L 12.796875 -7 C 12.796875 -5.800781 12.75 -4.765625 12.65625 -3.890625 C 12.5625 -3.023438 12.390625 -2.3125 12.140625 -1.75 C 11.890625 -1.195312 11.515625 -0.78125 11.015625 -0.5 C 10.523438 -0.21875 9.878906 -0.078125 9.078125 -0.078125 C 8.273438 -0.078125 7.628906 -0.21875 7.140625 -0.5 C 6.648438 -0.78125 6.269531 -1.195312 6 -1.75 C 5.726562 -2.3125 5.546875 -3.023438 5.453125 -3.890625 C 5.359375 -4.765625 5.3125 -5.800781 5.3125 -7 Z M 5.3125 -8.71875" transform="translate(153.094 232.227)"/></g></g></g><g fill="#FFF"><g><g><path d="M 4.59375 -15.28125 C 3.738281 -14.71875 3.3125 -14.050781 3.3125 -13.28125 C 3.3125 -12.90625 3.4375 -12.5625 3.6875 -12.25 C 3.945312 -11.945312 4.304688 -11.796875 4.765625 -11.796875 C 5.210938 -11.796875 5.578125 -11.925781 5.859375 -12.1875 C 6.140625 -12.457031 6.28125 -12.796875 6.28125 -13.203125 C 6.28125 -13.390625 6.242188 -13.582031 6.171875 -13.78125 C 6.109375 -13.976562 5.984375 -14.171875 5.796875 -14.359375 C 5.660156 -14.492188 5.550781 -14.585938 5.46875 -14.640625 C 5.394531 -14.691406 5.359375 -14.757812 5.359375 -14.84375 C 5.359375 -14.945312 5.4375 -15.050781 5.59375 -15.15625 C 5.757812 -15.257812 5.960938 -15.351562 6.203125 -15.4375 C 6.441406 -15.519531 6.710938 -15.585938 7.015625 -15.640625 C 7.328125 -15.691406 7.628906 -15.71875 7.921875 -15.71875 C 8.742188 -15.71875 9.394531 -15.554688 9.875 -15.234375 C 10.351562 -14.921875 10.59375 -14.3125 10.59375 -13.40625 L 10.59375 -8.6875 C 9.375 -8.6875 8.226562 -8.554688 7.15625 -8.296875 C 6.09375 -8.046875 5.160156 -7.679688 4.359375 -7.203125 C 3.554688 -6.722656 2.925781 -6.128906 2.46875 -5.421875 C 2.019531 -4.710938 1.796875 -3.921875 1.796875 -3.046875 C 1.796875 -2.398438 1.910156 -1.84375 2.140625 -1.375 C 2.367188 -0.914062 2.679688 -0.546875 3.078125 -0.265625 C 3.484375 0.015625 3.941406 0.222656 4.453125 0.359375 C 4.972656 0.492188 5.53125 0.5625 6.125 0.5625 C 6.738281 0.5625 7.289062 0.488281 7.78125 0.34375 C 8.269531 0.195312 8.707031 0.0078125 9.09375 -0.21875 C 9.488281 -0.445312 9.816406 -0.6875 10.078125 -0.9375 C 10.347656 -1.1875 10.5625 -1.4375 10.71875 -1.6875 C 10.800781 -1.125 11.054688 -0.609375 11.484375 -0.140625 C 11.910156 0.328125 12.65625 0.5625 13.71875 0.5625 C 14.414062 0.5625 14.992188 0.453125 15.453125 0.234375 C 15.921875 0.0234375 16.300781 -0.222656 16.59375 -0.515625 C 16.894531 -0.804688 17.101562 -1.101562 17.21875 -1.40625 C 17.34375 -1.71875 17.40625 -1.957031 17.40625 -2.125 C 17.40625 -2.25 17.363281 -2.3125 17.28125 -2.3125 C 17.195312 -2.3125 17.101562 -2.207031 17 -2 C 16.789062 -1.539062 16.523438 -1.171875 16.203125 -0.890625 C 15.878906 -0.617188 15.53125 -0.484375 15.15625 -0.484375 C 14.625 -0.484375 14.304688 -0.703125 14.203125 -1.140625 C 14.097656 -1.578125 14.046875 -2.179688 14.046875 -2.953125 L 14.046875 -12.640625 C 14.046875 -13.785156 13.617188 -14.671875 12.765625 -15.296875 C 11.910156 -15.921875 10.601562 -16.234375 8.84375 -16.234375 C 8.007812 -16.234375 7.210938 -16.144531 6.453125 -15.96875 C 5.691406 -15.800781 5.070312 -15.570312 4.59375 -15.28125 Z M 10.59375 -8.28125 L 10.59375 -2.71875 C 10.59375 -2.476562 10.476562 -2.222656 10.25 -1.953125 C 10.03125 -1.691406 9.753906 -1.445312 9.421875 -1.21875 C 9.085938 -0.988281 8.738281 -0.804688 8.375 -0.671875 C 8.019531 -0.546875 7.722656 -0.484375 7.484375 -0.484375 C 6.648438 -0.484375 6.019531 -0.800781 5.59375 -1.4375 C 5.164062 -2.082031 4.953125 -2.953125 4.953125 -4.046875 C 4.953125 -4.921875 5.113281 -5.625 5.4375 -6.15625 C 5.757812 -6.6875 6.179688 -7.097656 6.703125 -7.390625 C 7.222656 -7.691406 7.820312 -7.898438 8.5 -8.015625 C 9.175781 -8.140625 9.875 -8.226562 10.59375 -8.28125 Z M 10.59375 -8.28125" transform="translate(170.972 232.227)"/></g></g></g><g fill="#FFF"><g><g><path d="M 5.484375 -6.921875 L 5.484375 -8.6875 C 5.484375 -9.988281 5.5625 -11.078125 5.71875 -11.953125 C 5.875 -12.835938 6.117188 -13.550781 6.453125 -14.09375 C 6.785156 -14.644531 7.207031 -15.03125 7.71875 -15.25 C 8.226562 -15.476562 8.828125 -15.59375 9.515625 -15.59375 C 10.503906 -15.59375 11.175781 -15.46875 11.53125 -15.21875 C 11.894531 -14.96875 12.078125 -14.789062 12.078125 -14.6875 C 12.078125 -14.570312 12.035156 -14.476562 11.953125 -14.40625 C 11.773438 -14.1875 11.640625 -13.960938 11.546875 -13.734375 C 11.453125 -13.515625 11.40625 -13.226562 11.40625 -12.875 C 11.40625 -12.34375 11.578125 -11.9375 11.921875 -11.65625 C 12.265625 -11.375 12.664062 -11.234375 13.125 -11.234375 C 13.65625 -11.234375 14.078125 -11.394531 14.390625 -11.71875 C 14.710938 -12.039062 14.875 -12.453125 14.875 -12.953125 C 14.875 -13.460938 14.703125 -13.921875 14.359375 -14.328125 C 14.015625 -14.742188 13.582031 -15.09375 13.0625 -15.375 C 12.539062 -15.65625 11.972656 -15.867188 11.359375 -16.015625 C 10.742188 -16.160156 10.15625 -16.234375 9.59375 -16.234375 C 8.5625 -16.234375 7.550781 -16.023438 6.5625 -15.609375 C 5.570312 -15.203125 4.691406 -14.628906 3.921875 -13.890625 C 3.148438 -13.160156 2.519531 -12.273438 2.03125 -11.234375 C 1.550781 -10.203125 1.3125 -9.054688 1.3125 -7.796875 C 1.3125 -6.515625 1.546875 -5.359375 2.015625 -4.328125 C 2.484375 -3.304688 3.097656 -2.425781 3.859375 -1.6875 C 4.617188 -0.957031 5.484375 -0.398438 6.453125 -0.015625 C 7.429688 0.367188 8.414062 0.5625 9.40625 0.5625 C 10.382812 0.5625 11.25 0.40625 12 0.09375 C 12.75 -0.207031 13.375 -0.59375 13.875 -1.0625 C 14.382812 -1.53125 14.785156 -2.019531 15.078125 -2.53125 C 15.367188 -3.050781 15.582031 -3.523438 15.71875 -3.953125 C 15.769531 -4.117188 15.796875 -4.226562 15.796875 -4.28125 C 15.796875 -4.519531 15.691406 -4.640625 15.484375 -4.640625 C 15.316406 -4.640625 15.195312 -4.503906 15.125 -4.234375 C 14.957031 -3.734375 14.710938 -3.234375 14.390625 -2.734375 C 14.078125 -2.242188 13.6875 -1.796875 13.21875 -1.390625 C 12.75 -0.992188 12.203125 -0.675781 11.578125 -0.4375 C 10.953125 -0.195312 10.265625 -0.078125 9.515625 -0.078125 C 8.691406 -0.078125 8.019531 -0.195312 7.5 -0.4375 C 6.976562 -0.675781 6.5625 -1.066406 6.25 -1.609375 C 5.945312 -2.160156 5.742188 -2.867188 5.640625 -3.734375 C 5.535156 -4.609375 5.484375 -5.671875 5.484375 -6.921875 Z M 5.484375 -6.921875" transform="translate(188.69 232.227)"/></g></g></g><g fill="#FFF"><g><g><path d="M 7.4375 -12.875 L 7.4375 -26.875 L 1.203125 -26.875 L 1.203125 -26.234375 L 4 -26.234375 L 4 -0.640625 L 1.203125 -0.640625 L 1.203125 0 L 10.234375 0 L 10.234375 -0.640625 L 7.4375 -0.640625 L 7.4375 -10.640625 C 7.4375 -11.066406 7.550781 -11.539062 7.78125 -12.0625 C 8.007812 -12.582031 8.335938 -13.070312 8.765625 -13.53125 C 9.191406 -14 9.679688 -14.394531 10.234375 -14.71875 C 10.796875 -15.039062 11.425781 -15.203125 12.125 -15.203125 C 12.675781 -15.203125 13.113281 -15.109375 13.4375 -14.921875 C 13.757812 -14.734375 14 -14.492188 14.15625 -14.203125 C 14.320312 -13.910156 14.421875 -13.582031 14.453125 -13.21875 C 14.492188 -12.863281 14.515625 -12.5 14.515625 -12.125 L 14.515625 -0.640625 L 11.765625 -0.640625 L 11.765625 0 L 20.765625 0 L 20.765625 -0.640625 L 17.953125 -0.640625 L 17.953125 -12.5625 C 17.953125 -13.757812 17.546875 -14.671875 16.734375 -15.296875 C 15.921875 -15.921875 14.796875 -16.234375 13.359375 -16.234375 C 11.785156 -16.234375 10.523438 -15.898438 9.578125 -15.234375 C 8.628906 -14.566406 7.914062 -13.78125 7.4375 -12.875 Z M 7.4375 -12.875" transform="translate(205.089 232.227)"/></g></g></g><g fill="#FFF"><g><g><path d="M 7.875 -15.6875 L 1.4375 -15.6875 L 1.4375 -15.046875 L 4.4375 -15.046875 L 4.4375 -0.640625 L 1.4375 -0.640625 L 1.4375 0 L 10.875 0 L 10.875 -0.640625 L 7.875 -0.640625 Z M 8.203125 -23.078125 C 8.203125 -23.660156 8 -24.148438 7.59375 -24.546875 C 7.195312 -24.953125 6.707031 -25.15625 6.125 -25.15625 C 5.53125 -25.15625 5.035156 -24.953125 4.640625 -24.546875 C 4.242188 -24.148438 4.046875 -23.660156 4.046875 -23.078125 C 4.046875 -22.492188 4.242188 -22 4.640625 -21.59375 C 5.035156 -21.195312 5.53125 -21 6.125 -21 C 6.707031 -21 7.195312 -21.195312 7.59375 -21.59375 C 8 -22 8.203125 -22.492188 8.203125 -23.078125 Z M 8.203125 -23.078125" transform="translate(226.647 232.227)"/></g></g></g><g fill="#FFF"><g><g><path d="M 7.6875 -12.640625 L 7.6875 -15.6875 L 1.4375 -15.6875 L 1.4375 -15.046875 L 4.234375 -15.046875 L 4.234375 -0.640625 L 1.4375 -0.640625 L 1.4375 0 L 10.484375 0 L 10.484375 -0.640625 L 7.6875 -0.640625 L 7.6875 -10.5625 C 7.6875 -11.007812 7.804688 -11.492188 8.046875 -12.015625 C 8.285156 -12.535156 8.597656 -13.019531 8.984375 -13.46875 C 9.367188 -13.925781 9.804688 -14.300781 10.296875 -14.59375 C 10.796875 -14.894531 11.3125 -15.046875 11.84375 -15.046875 C 12.613281 -15.046875 13.175781 -14.800781 13.53125 -14.3125 C 13.894531 -13.832031 14.078125 -13.078125 14.078125 -12.046875 L 14.078125 -0.640625 L 11.28125 -0.640625 L 11.28125 0 L 20.3125 0 L 20.3125 -0.640625 L 17.515625 -0.640625 L 17.515625 -12.3125 C 17.515625 -13.707031 17.117188 -14.671875 16.328125 -15.203125 C 15.546875 -15.734375 14.539062 -16 13.3125 -16 C 11.851562 -16 10.660156 -15.664062 9.734375 -15 C 8.816406 -14.332031 8.132812 -13.546875 7.6875 -12.640625 Z M 7.6875 -12.640625" transform="translate(238.405 232.227)"/></g></g></g><g fill="#FFF"><g><g><path d="M 5.234375 -10 L 5.234375 -11.359375 C 5.234375 -12.984375 5.457031 -14.09375 5.90625 -14.6875 C 6.363281 -15.289062 7.078125 -15.59375 8.046875 -15.59375 C 9.003906 -15.59375 9.707031 -15.289062 10.15625 -14.6875 C 10.613281 -14.09375 10.84375 -12.984375 10.84375 -11.359375 L 10.84375 -10 C 10.84375 -8.632812 10.65625 -7.59375 10.28125 -6.875 C 9.90625 -6.15625 9.160156 -5.796875 8.046875 -5.796875 C 6.921875 -5.796875 6.171875 -6.15625 5.796875 -6.875 C 5.421875 -7.59375 5.234375 -8.632812 5.234375 -10 Z M 5.765625 -5.484375 C 6.003906 -5.398438 6.316406 -5.320312 6.703125 -5.25 C 7.085938 -5.1875 7.535156 -5.15625 8.046875 -5.15625 C 9.242188 -5.15625 10.253906 -5.351562 11.078125 -5.75 C 11.898438 -6.15625 12.566406 -6.644531 13.078125 -7.21875 C 13.585938 -7.789062 13.945312 -8.394531 14.15625 -9.03125 C 14.375 -9.675781 14.484375 -10.238281 14.484375 -10.71875 C 14.484375 -12.320312 13.851562 -13.679688 12.59375 -14.796875 C 13.207031 -15.515625 13.78125 -15.992188 14.3125 -16.234375 C 14.207031 -16.023438 14.15625 -15.8125 14.15625 -15.59375 C 14.15625 -15.28125 14.269531 -15.015625 14.5 -14.796875 C 14.726562 -14.585938 15.039062 -14.484375 15.4375 -14.484375 C 15.863281 -14.484375 16.171875 -14.609375 16.359375 -14.859375 C 16.546875 -15.109375 16.640625 -15.367188 16.640625 -15.640625 C 16.640625 -16.035156 16.492188 -16.335938 16.203125 -16.546875 C 15.910156 -16.765625 15.5625 -16.875 15.15625 -16.875 C 14.144531 -16.875 13.132812 -16.300781 12.125 -15.15625 C 11.75 -15.476562 11.1875 -15.738281 10.4375 -15.9375 C 9.6875 -16.132812 8.890625 -16.234375 8.046875 -16.234375 C 7.003906 -16.234375 6.078125 -16.078125 5.265625 -15.765625 C 4.453125 -15.460938 3.773438 -15.050781 3.234375 -14.53125 C 2.703125 -14.019531 2.296875 -13.429688 2.015625 -12.765625 C 1.734375 -12.097656 1.59375 -11.414062 1.59375 -10.71875 C 1.59375 -9.539062 1.929688 -8.523438 2.609375 -7.671875 C 3.296875 -6.828125 4.066406 -6.191406 4.921875 -5.765625 C 3.640625 -5.390625 2.738281 -4.90625 2.21875 -4.3125 C 1.695312 -3.726562 1.4375 -2.972656 1.4375 -2.046875 C 1.4375 -1.429688 1.535156 -0.894531 1.734375 -0.4375 C 1.941406 0.0078125 2.210938 0.394531 2.546875 0.71875 C 2.878906 1.039062 3.25 1.285156 3.65625 1.453125 C 4.070312 1.628906 4.476562 1.742188 4.875 1.796875 C 3.757812 2.203125 2.894531 2.765625 2.28125 3.484375 C 1.664062 4.203125 1.359375 5.082031 1.359375 6.125 C 1.359375 6.863281 1.53125 7.515625 1.875 8.078125 C 2.226562 8.640625 2.722656 9.097656 3.359375 9.453125 C 3.992188 9.816406 4.75 10.09375 5.625 10.28125 C 6.507812 10.46875 7.488281 10.5625 8.5625 10.5625 C 9.625 10.5625 10.617188 10.414062 11.546875 10.125 C 12.484375 9.832031 13.304688 9.394531 14.015625 8.8125 C 14.722656 8.238281 15.273438 7.539062 15.671875 6.71875 C 16.078125 5.894531 16.28125 4.9375 16.28125 3.84375 C 16.28125 2.15625 15.832031 0.914062 14.9375 0.125 C 14.039062 -0.65625 12.875 -1.046875 11.4375 -1.046875 L 5 -1.046875 C 3.320312 -1.046875 2.484375 -1.617188 2.484375 -2.765625 C 2.484375 -3.535156 2.785156 -4.113281 3.390625 -4.5 C 4.003906 -4.882812 4.796875 -5.210938 5.765625 -5.484375 Z M 14.796875 5.484375 C 14.796875 6.285156 14.601562 6.960938 14.21875 7.515625 C 13.832031 8.078125 13.34375 8.535156 12.75 8.890625 C 12.164062 9.253906 11.507812 9.515625 10.78125 9.671875 C 10.050781 9.835938 9.351562 9.921875 8.6875 9.921875 C 7.59375 9.921875 6.695312 9.773438 6 9.484375 C 5.300781 9.191406 4.753906 8.820312 4.359375 8.375 C 3.960938 7.9375 3.679688 7.441406 3.515625 6.890625 C 3.359375 6.347656 3.28125 5.835938 3.28125 5.359375 C 3.28125 4.847656 3.363281 4.375 3.53125 3.9375 C 3.707031 3.5 3.921875 3.125 4.171875 2.8125 C 4.429688 2.507812 4.703125 2.269531 4.984375 2.09375 C 5.265625 1.925781 5.507812 1.84375 5.71875 1.84375 L 10.796875 1.84375 C 11.441406 1.84375 12.007812 1.941406 12.5 2.140625 C 12.988281 2.335938 13.40625 2.609375 13.75 2.953125 C 14.101562 3.304688 14.363281 3.695312 14.53125 4.125 C 14.707031 4.550781 14.796875 5.003906 14.796875 5.484375 Z M 14.796875 5.484375" transform="translate(259.643 232.227)"/></g></g></g></svg>