<svg xmlns="http://www.w3.org/2000/svg" width="375" viewBox="0 0 375 375" height="375" version="1.0"><defs><clipPath id="a"><path d="M 0 0 L 375 0 L 375 356.25 L 0 356.25 Z M 0 0"/></clipPath></defs><g clip-path="url(#a)"><path fill="#B07D92" d="M 361.640625 193.257812 C 361.730469 191.566406 360.882812 189.785156 359.328125 188.496094 C 358.390625 187.738281 357.367188 187.203125 356.433594 186.804688 C 356.566406 183.957031 356.65625 181.019531 356.65625 178.125 C 356.65625 154.089844 351.9375 130.765625 342.679688 108.78125 C 333.691406 87.550781 320.871094 68.5 304.492188 52.164062 C 288.113281 35.828125 269.105469 22.964844 247.875 13.976562 C 225.890625 4.71875 202.566406 0 178.53125 0 C 154.496094 0 131.128906 4.71875 109.1875 13.976562 C 87.957031 22.964844 68.90625 35.785156 52.570312 52.164062 C 36.234375 68.542969 23.375 87.550781 14.382812 108.78125 C 5.125 130.722656 0.40625 154.089844 0.40625 178.125 C 0.40625 202.160156 5.125 225.484375 14.382812 247.46875 C 23.375 268.699219 36.191406 287.75 52.570312 304.085938 C 68.949219 320.421875 87.957031 333.285156 109.1875 342.273438 C 131.128906 351.578125 154.453125 356.25 178.53125 356.25 C 238.394531 356.25 293.941406 326.429688 327.058594 276.445312 C 327.058594 276.445312 327.058594 276.445312 327.101562 276.402344 C 327.101562 276.355469 327.148438 276.355469 327.148438 276.355469 C 328.480469 274.351562 329.816406 272.261719 331.0625 270.167969 C 337.472656 260.378906 343.171875 253.257812 347.441406 248.449219 C 347.441406 248.582031 347.441406 248.671875 347.488281 248.804688 C 347.664062 250.675781 349.089844 252.722656 351.183594 252.8125 C 351.269531 252.8125 351.316406 252.8125 351.402344 252.8125 C 352.695312 252.8125 353.984375 252.054688 354.832031 250.808594 C 355.542969 249.738281 355.855469 248.539062 356.121094 247.292969 L 356.253906 246.625 C 356.523438 245.332031 356.789062 243.953125 357.058594 242.574219 C 357.367188 243.863281 357.679688 245.15625 358.082031 246.402344 C 358.613281 248.183594 359.238281 250.007812 359.949219 251.699219 C 360.929688 254.058594 362.21875 255.257812 363.824219 255.257812 C 364.625 255.257812 365.378906 254.902344 366.003906 254.28125 C 366.761719 253.523438 367.160156 252.410156 367.070312 251.34375 C 367.027344 250.765625 366.894531 250.230469 366.714844 249.695312 L 367.605469 250.097656 C 367.960938 250.273438 368.496094 250.496094 369.117188 250.453125 C 370.320312 250.320312 371.03125 249.117188 370.988281 248.09375 C 370.945312 247.203125 370.5 246.402344 370.054688 245.777344 C 369.921875 245.554688 369.742188 245.378906 369.609375 245.15625 C 369.207031 244.621094 368.761719 244.132812 368.273438 243.640625 C 368.941406 244 369.652344 244.308594 370.410156 244.398438 C 370.585938 244.445312 370.765625 244.445312 370.945312 244.445312 C 372.101562 244.445312 373.390625 243.953125 373.96875 242.753906 C 374.59375 241.417969 374.058594 239.726562 372.546875 238.257812 C 370.722656 236.519531 368.40625 235.273438 365.957031 234.652344 C 366.136719 232.46875 365.601562 230.246094 364.402344 228.375 C 364.089844 227.886719 363.734375 227.441406 363.378906 226.996094 C 362.085938 225.570312 360.394531 224.546875 358.570312 224.058594 C 357.011719 223.613281 354.785156 223.703125 353.808594 225.394531 C 353.140625 226.550781 353.40625 227.796875 353.898438 228.910156 C 352.875 227.976562 351.625 227.039062 350.113281 226.105469 C 351.625 220.675781 352.917969 215.113281 353.898438 209.503906 C 355.410156 209.324219 356.65625 208.65625 357.503906 207.589844 C 359.148438 205.410156 358.527344 202.292969 357.011719 200.335938 C 356.476562 199.667969 355.855469 199.042969 355.097656 198.464844 C 355.054688 198.464844 355.054688 198.421875 355.007812 198.421875 C 355.765625 198.421875 356.476562 198.289062 357.191406 198.109375 C 359.636719 197.53125 361.507812 195.484375 361.640625 193.257812 Z M 337.515625 232.914062 C 337.652344 233.273438 337.875 233.628906 338.097656 233.9375 C 338.542969 234.519531 339.164062 234.964844 339.875 235.230469 C 341.121094 235.71875 342.367188 235.675781 343.617188 235.675781 L 344.105469 235.675781 C 344.503906 235.675781 344.863281 235.675781 345.261719 235.675781 C 345.128906 236.121094 344.949219 236.566406 344.773438 237.054688 C 344.726562 237.054688 344.726562 237.097656 344.683594 237.097656 C 344.328125 237.1875 343.972656 237.320312 343.660156 237.457031 C 343.617188 237.457031 343.570312 237.5 343.480469 237.5 C 343.125 237.632812 342.769531 237.765625 342.414062 237.945312 C 341.566406 238.34375 340.5 238.96875 340.011719 240.035156 C 339.519531 241.0625 339.652344 242.394531 340.320312 243.417969 C 340.410156 243.597656 340.542969 243.730469 340.632812 243.820312 C 340.722656 243.910156 340.8125 244 340.898438 244.132812 C 340.945312 244.175781 340.945312 244.175781 340.988281 244.222656 C 341.035156 244.265625 341.121094 244.355469 341.210938 244.398438 C 341.257812 244.441406 341.300781 244.488281 341.34375 244.488281 C 341.390625 244.53125 341.480469 244.578125 341.566406 244.621094 C 341.613281 244.664062 341.65625 244.710938 341.703125 244.710938 C 341.746094 244.753906 341.789062 244.753906 341.835938 244.800781 C 338.453125 253.121094 334.355469 261.222656 329.726562 268.921875 L 329.640625 269.011719 C 329.640625 269.058594 329.59375 269.058594 329.59375 269.101562 C 328.347656 271.015625 327.101562 272.972656 325.8125 275.066406 C 329.726562 267.453125 332.84375 259.886719 334.578125 253.34375 C 336.359375 246.800781 337.339844 239.902344 337.515625 232.914062 Z M 348.378906 235.941406 C 348.910156 236.03125 349.445312 236.121094 349.980469 236.253906 C 348.910156 236.253906 347.84375 236.386719 346.820312 236.566406 C 346.910156 236.296875 346.996094 236.03125 347.085938 235.808594 C 347.488281 235.808594 347.933594 235.851562 348.378906 235.941406 Z M 343.394531 245.601562 C 344.683594 246 346.0625 246.089844 347.355469 245.824219 C 344.90625 248.492188 341.925781 252.054688 338.496094 256.503906 C 340.277344 252.898438 341.878906 249.292969 343.394531 245.601562 Z M 324.65625 188.09375 C 324.699219 188.140625 324.789062 188.183594 324.832031 188.226562 C 324.742188 188.226562 324.65625 188.226562 324.566406 188.273438 C 324.609375 188.183594 324.609375 188.140625 324.65625 188.09375 Z M 178.53125 354.46875 C 81.277344 354.46875 2.1875 275.332031 2.1875 178.125 C 2.1875 80.871094 81.277344 1.78125 178.53125 1.78125 C 275.785156 1.78125 354.875 80.871094 354.875 178.125 C 354.875 180.796875 354.832031 183.464844 354.699219 186.136719 C 354.609375 186.09375 354.519531 186.046875 354.429688 186.046875 C 354.296875 186.003906 354.121094 185.914062 353.984375 185.871094 C 353.851562 185.824219 353.675781 185.734375 353.539062 185.691406 C 353.40625 185.648438 353.230469 185.558594 353.09375 185.511719 C 352.917969 185.46875 352.785156 185.378906 352.605469 185.335938 C 352.472656 185.289062 352.292969 185.246094 352.160156 185.15625 C 351.984375 185.113281 351.847656 185.023438 351.671875 184.980469 C 351.539062 184.933594 351.359375 184.890625 351.226562 184.800781 C 351.046875 184.757812 350.914062 184.667969 350.738281 184.625 C 350.601562 184.578125 350.425781 184.535156 350.292969 184.488281 C 350.113281 184.445312 349.980469 184.355469 349.800781 184.3125 C 349.667969 184.265625 349.492188 184.222656 349.355469 184.179688 C 349.179688 184.132812 349 184.089844 348.867188 184 C 348.734375 183.957031 348.554688 183.910156 348.421875 183.867188 C 348.246094 183.820312 348.066406 183.777344 347.933594 183.734375 C 347.800781 183.6875 347.621094 183.644531 347.488281 183.601562 C 347.308594 183.554688 347.132812 183.511719 346.996094 183.464844 C 346.863281 183.421875 346.6875 183.378906 346.554688 183.332031 C 346.375 183.289062 346.195312 183.242188 346.019531 183.199219 C 345.886719 183.15625 345.707031 183.109375 345.574219 183.066406 C 345.394531 183.019531 345.21875 182.976562 345.039062 182.933594 C 344.90625 182.886719 344.726562 182.84375 344.59375 182.84375 C 344.417969 182.796875 344.238281 182.753906 344.058594 182.710938 C 343.925781 182.664062 343.75 182.621094 343.617188 182.621094 C 343.4375 182.574219 343.257812 182.53125 343.082031 182.53125 C 342.949219 182.488281 342.769531 182.488281 342.636719 182.441406 C 342.457031 182.398438 342.234375 182.398438 342.058594 182.351562 C 341.925781 182.308594 341.789062 182.308594 341.613281 182.265625 C 341.390625 182.21875 341.167969 182.21875 340.945312 182.175781 C 340.8125 182.175781 340.722656 182.128906 340.589844 182.128906 C 340.234375 182.085938 339.921875 182.042969 339.566406 182.042969 C 339.207031 181.996094 338.851562 181.996094 338.542969 181.953125 C 337.429688 181.910156 336.316406 181.910156 335.292969 181.953125 C 336.316406 181.6875 337.296875 181.507812 338.320312 181.328125 C 341.300781 180.839844 345.039062 180.261719 346.195312 177.144531 C 347.308594 174.121094 345.039062 171.136719 342.769531 169.535156 C 340.011719 167.53125 336.582031 166.375 333.109375 166.152344 C 332.085938 166.109375 331.019531 166.109375 329.996094 166.242188 C 325.855469 166.730469 321.851562 168.734375 318.957031 171.714844 C 315.175781 168.644531 310.5 166.640625 305.648438 166.0625 C 302.042969 165.617188 299.238281 166.640625 298.171875 168.867188 C 297.101562 171.136719 298.261719 173.71875 299.773438 175.097656 C 301.242188 176.433594 303.066406 177.144531 304.804688 177.8125 L 305.113281 177.945312 C 307.027344 178.660156 308.898438 179.460938 310.769531 180.351562 C 310.546875 180.304688 310.324219 180.21875 310.101562 180.171875 C 306.226562 179.058594 302.488281 178.527344 299.0625 178.613281 C 298.570312 178.613281 298.082031 178.660156 297.636719 178.660156 C 296.300781 178.75 294.789062 178.96875 293.585938 179.90625 C 292.296875 180.882812 291.539062 182.886719 292.5625 184.402344 C 293.097656 185.203125 293.941406 185.601562 294.566406 185.914062 L 298.304688 187.738281 C 296.613281 187.960938 294.921875 188.496094 293.5 189.519531 C 292.074219 190.585938 291.003906 192.324219 290.785156 194.058594 C 290.605469 195.484375 290.960938 196.820312 291.808594 197.84375 C 292.832031 199.089844 294.386719 199.757812 296.4375 199.757812 C 297.726562 199.757812 299.152344 199.488281 300.796875 199 C 304.179688 197.976562 307.519531 196.773438 310.769531 195.4375 C 314.0625 194.105469 317.3125 192.546875 320.425781 190.898438 C 320.691406 190.765625 321.003906 190.585938 321.273438 190.453125 C 321.09375 190.632812 320.960938 190.808594 320.78125 190.988281 C 320.605469 191.167969 320.472656 191.386719 320.292969 191.566406 C 317.933594 194.191406 315.664062 196.90625 313.484375 199.578125 C 313.214844 199.933594 312.949219 200.246094 312.683594 200.601562 C 311.257812 202.425781 309.878906 204.25 309.210938 206.433594 C 308.410156 209.058594 308.898438 211.730469 310.457031 213.421875 C 312.816406 216.003906 317.042969 215.691406 319.757812 213.910156 C 321.804688 212.574219 323.230469 210.570312 324.433594 208.65625 C 325.542969 212.039062 327.992188 214.976562 331.109375 216.625 C 331.597656 216.890625 332.132812 217.113281 332.621094 217.335938 C 333.378906 217.605469 334.089844 217.78125 334.800781 217.871094 C 336.539062 229.667969 335.871094 241.816406 332.800781 253.078125 C 329.90625 263.847656 323.320312 277.511719 315.21875 289.574219 C 281.882812 330.433594 231.988281 354.46875 178.53125 354.46875 Z M 348.511719 225.214844 C 348.421875 225.171875 348.332031 225.125 348.289062 225.082031 C 348.246094 225.039062 348.199219 225.039062 348.15625 224.992188 C 348.023438 224.902344 347.84375 224.816406 347.664062 224.726562 C 347.53125 224.636719 347.355469 224.546875 347.21875 224.503906 C 346.640625 224.191406 345.929688 223.835938 345.128906 223.65625 C 343.972656 223.433594 342.8125 223.703125 342.058594 224.414062 C 341.078125 225.347656 340.8125 226.953125 341.433594 228.421875 C 341.480469 228.507812 341.523438 228.597656 341.566406 228.644531 C 341.34375 228.644531 341.167969 228.597656 340.945312 228.644531 C 339.609375 228.6875 338.140625 229.398438 337.5625 230.691406 C 337.5625 226.371094 337.25 222.054688 336.628906 217.78125 C 338.675781 217.515625 340.410156 216.3125 341.210938 214.667969 C 342.058594 212.886719 341.703125 210.792969 341.300781 209.191406 C 340.632812 206.476562 339.609375 203.851562 338.230469 201.3125 C 336.9375 198.957031 335.382812 196.730469 333.601562 194.726562 C 333.511719 194.636719 333.46875 194.546875 333.378906 194.460938 L 333.289062 194.328125 C 331.910156 192.8125 330.574219 191.523438 329.238281 190.5 C 330.128906 191.03125 331.019531 191.566406 331.863281 192.101562 L 332.042969 192.191406 C 332.175781 192.277344 332.308594 192.367188 332.445312 192.457031 C 334.535156 193.835938 336.539062 195.4375 338.453125 197.175781 C 340.5 199.042969 342.367188 201.046875 344.105469 203.183594 C 344.28125 203.40625 344.503906 203.671875 344.683594 203.941406 C 345.707031 205.277344 346.777344 206.609375 348.109375 207.722656 C 348.554688 208.078125 349.046875 208.4375 349.535156 208.703125 C 349.714844 208.792969 349.890625 208.878906 350.070312 208.96875 C 350.113281 209.015625 350.15625 209.015625 350.203125 209.015625 C 350.335938 209.101562 350.515625 209.148438 350.691406 209.191406 C 350.738281 209.191406 350.738281 209.238281 350.78125 209.238281 C 350.960938 209.28125 351.183594 209.371094 351.359375 209.414062 C 351.40625 209.414062 351.449219 209.460938 351.492188 209.460938 C 351.671875 209.503906 351.804688 209.546875 351.984375 209.546875 C 352.027344 209.546875 352.027344 209.546875 352.070312 209.546875 C 351.09375 214.84375 349.933594 220.097656 348.511719 225.214844 Z M 348.511719 225.214844"/></g><g fill="#B07D92"><g><g><path d="M -22.4375 -6.046875 C -21.71875 -6.765625 -21.023438 -7.398438 -20.359375 -7.953125 C -19.703125 -8.515625 -19.046875 -8.929688 -18.390625 -9.203125 C -17.734375 -9.484375 -17.0625 -9.585938 -16.375 -9.515625 C -15.695312 -9.441406 -14.972656 -9.148438 -14.203125 -8.640625 L -7.421875 -4.140625 L -21.453125 17.0625 L -24.59375 14.984375 L -24.953125 15.515625 L -15.734375 21.609375 L -15.375 21.078125 L -18.234375 19.1875 L -4.203125 -2.015625 L -1.34375 -0.125 L -0.984375 -0.65625 L -18.0625 -11.953125 C -18.695312 -12.378906 -19.25 -12.238281 -19.71875 -11.53125 L -23.015625 -6.5625 C -23.359375 -6.03125 -23.441406 -5.707031 -23.265625 -5.59375 C -23.117188 -5.488281 -22.84375 -5.640625 -22.4375 -6.046875 Z M -22.4375 -6.046875" transform="translate(117.627 288.263)"/></g></g></g><g fill="#B07D92"><g><g><path d="M -13.5625 8.1875 C -12.5625 8.332031 -11.804688 8.125 -11.296875 7.5625 C -11.046875 7.289062 -10.910156 6.957031 -10.890625 6.5625 C -10.867188 6.164062 -11.03125 5.816406 -11.375 5.515625 C -11.695312 5.210938 -12.050781 5.066406 -12.4375 5.078125 C -12.832031 5.085938 -13.160156 5.238281 -13.421875 5.53125 C -13.546875 5.664062 -13.648438 5.828125 -13.734375 6.015625 C -13.828125 6.203125 -13.863281 6.429688 -13.84375 6.703125 C -13.84375 6.890625 -13.828125 7.03125 -13.796875 7.125 C -13.773438 7.21875 -13.789062 7.289062 -13.84375 7.34375 C -13.914062 7.425781 -14.046875 7.453125 -14.234375 7.421875 C -14.421875 7.398438 -14.628906 7.335938 -14.859375 7.234375 C -15.085938 7.128906 -15.332031 6.988281 -15.59375 6.8125 C -15.863281 6.644531 -16.109375 6.46875 -16.328125 6.28125 C -16.921875 5.726562 -17.289062 5.175781 -17.4375 4.625 C -17.582031 4.070312 -17.351562 3.460938 -16.75 2.796875 L -13.609375 -0.671875 C -12.703125 0.140625 -11.769531 0.8125 -10.8125 1.34375 C -9.851562 1.875 -8.921875 2.222656 -8.015625 2.390625 C -7.109375 2.566406 -6.25 2.546875 -5.4375 2.328125 C -4.625 2.109375 -3.925781 1.675781 -3.34375 1.03125 C -2.914062 0.5625 -2.628906 0.0820312 -2.484375 -0.40625 C -2.347656 -0.90625 -2.332031 -1.390625 -2.4375 -1.859375 C -2.539062 -2.328125 -2.738281 -2.785156 -3.03125 -3.234375 C -3.332031 -3.691406 -3.695312 -4.113281 -4.125 -4.5 C -4.582031 -4.914062 -5.039062 -5.234375 -5.5 -5.453125 C -5.96875 -5.671875 -6.414062 -5.820312 -6.84375 -5.90625 C -7.28125 -5.988281 -7.679688 -6.023438 -8.046875 -6.015625 C -8.410156 -6.015625 -8.734375 -5.984375 -9.015625 -5.921875 C -8.703125 -6.390625 -8.546875 -6.9375 -8.546875 -7.5625 C -8.546875 -8.195312 -8.9375 -8.863281 -9.71875 -9.5625 C -10.226562 -10.03125 -10.722656 -10.335938 -11.203125 -10.484375 C -11.691406 -10.628906 -12.144531 -10.691406 -12.5625 -10.671875 C -12.976562 -10.660156 -13.332031 -10.578125 -13.625 -10.421875 C -13.925781 -10.273438 -14.128906 -10.144531 -14.234375 -10.03125 C -14.316406 -9.9375 -14.332031 -9.867188 -14.28125 -9.828125 C -14.21875 -9.765625 -14.070312 -9.78125 -13.84375 -9.875 C -13.382812 -10.0625 -12.941406 -10.148438 -12.515625 -10.140625 C -12.097656 -10.128906 -11.753906 -10 -11.484375 -9.75 C -11.097656 -9.394531 -11.007812 -9.019531 -11.21875 -8.625 C -11.4375 -8.238281 -11.800781 -7.757812 -12.3125 -7.1875 L -18.78125 -0.046875 C -19.539062 0.796875 -19.8125 1.726562 -19.59375 2.75 C -19.382812 3.78125 -18.632812 4.882812 -17.34375 6.0625 C -16.726562 6.613281 -16.082031 7.078125 -15.40625 7.453125 C -14.738281 7.828125 -14.125 8.070312 -13.5625 8.1875 Z M -13.328125 -0.96875 L -9.625 -5.0625 C -9.46875 -5.238281 -9.210938 -5.351562 -8.859375 -5.40625 C -8.515625 -5.457031 -8.144531 -5.453125 -7.75 -5.390625 C -7.351562 -5.328125 -6.976562 -5.222656 -6.625 -5.078125 C -6.269531 -4.929688 -6.007812 -4.785156 -5.84375 -4.640625 C -5.226562 -4.085938 -4.972656 -3.429688 -5.078125 -2.671875 C -5.191406 -1.910156 -5.613281 -1.128906 -6.34375 -0.328125 C -6.925781 0.328125 -7.515625 0.742188 -8.109375 0.921875 C -8.703125 1.097656 -9.285156 1.113281 -9.859375 0.96875 C -10.441406 0.832031 -11.019531 0.582031 -11.59375 0.21875 C -12.175781 -0.132812 -12.753906 -0.53125 -13.328125 -0.96875 Z M -13.328125 -0.96875" transform="translate(99.462 276.13)"/></g></g></g><g fill="#B07D92"><g><g><path d="M -25.953125 -10.453125 C -25.085938 -9.128906 -24.113281 -8.25 -23.03125 -7.8125 C -21.957031 -7.382812 -20.90625 -7.222656 -19.875 -7.328125 C -20.425781 -6.898438 -20.820312 -6.457031 -21.0625 -6 C -21.3125 -5.539062 -21.4375 -5.09375 -21.4375 -4.65625 C -21.4375 -4.226562 -21.351562 -3.816406 -21.1875 -3.421875 C -21.019531 -3.023438 -20.828125 -2.65625 -20.609375 -2.3125 C -20.347656 -1.925781 -20.023438 -1.53125 -19.640625 -1.125 C -19.265625 -0.71875 -18.828125 -0.363281 -18.328125 -0.0625 C -17.835938 0.238281 -17.273438 0.472656 -16.640625 0.640625 C -16.003906 0.804688 -15.296875 0.859375 -14.515625 0.796875 L -17.03125 2.453125 L -13.734375 7.46875 L -13.203125 7.125 L -14.625 4.96875 L -2.671875 -2.890625 L -1.25 -0.734375 L -0.71875 -1.09375 L -5.421875 -8.234375 L -5.953125 -7.875 L -4.546875 -5.75 L -12.921875 -0.25 C -13.179688 -0.0820312 -13.578125 0.0390625 -14.109375 0.125 C -14.640625 0.207031 -15.207031 0.210938 -15.8125 0.140625 C -16.425781 0.0664062 -17.007812 -0.0976562 -17.5625 -0.359375 C -18.113281 -0.617188 -18.539062 -0.976562 -18.84375 -1.4375 C -19.144531 -1.894531 -19.28125 -2.300781 -19.25 -2.65625 C -19.21875 -3.019531 -19.097656 -3.34375 -18.890625 -3.625 C -18.691406 -3.90625 -18.453125 -4.140625 -18.171875 -4.328125 C -17.898438 -4.515625 -17.664062 -4.671875 -17.46875 -4.796875 L -8.015625 -11.015625 L -6.609375 -8.875 L -6.078125 -9.234375 L -10.796875 -16.390625 L -11.328125 -16.03125 L -9.90625 -13.875 L -18 -8.5625 C -18.332031 -8.34375 -18.773438 -8.175781 -19.328125 -8.0625 C -19.890625 -7.957031 -20.472656 -7.929688 -21.078125 -7.984375 C -21.691406 -8.035156 -22.28125 -8.1875 -22.84375 -8.4375 C -23.40625 -8.6875 -23.863281 -9.078125 -24.21875 -9.609375 C -24.46875 -9.984375 -24.597656 -10.328125 -24.609375 -10.640625 C -24.617188 -10.953125 -24.546875 -11.242188 -24.390625 -11.515625 C -24.234375 -11.796875 -24.019531 -12.046875 -23.75 -12.265625 C -23.476562 -12.492188 -23.171875 -12.71875 -22.828125 -12.9375 L -13.375 -19.15625 L -12 -17.0625 L -11.46875 -17.421875 L -16.140625 -24.515625 L -16.671875 -24.15625 L -15.25 -22.015625 L -25.0625 -15.5625 C -25.863281 -15.03125 -26.398438 -14.332031 -26.671875 -13.46875 C -26.953125 -12.613281 -26.710938 -11.609375 -25.953125 -10.453125 Z M -25.953125 -10.453125" transform="translate(80.95 259.158)"/></g></g></g><g fill="#B07D92"><g><g><path d="M -15.0625 -10.484375 C -15.445312 -10.296875 -15.925781 -9.941406 -16.5 -9.421875 C -17.082031 -8.898438 -17.582031 -8.253906 -18 -7.484375 C -18.425781 -6.722656 -18.703125 -5.835938 -18.828125 -4.828125 C -18.953125 -3.828125 -18.757812 -2.742188 -18.25 -1.578125 C -17.832031 -0.609375 -17.210938 0.191406 -16.390625 0.828125 C -15.566406 1.472656 -14.65625 1.941406 -13.65625 2.234375 C -12.664062 2.523438 -11.632812 2.644531 -10.5625 2.59375 C -9.488281 2.539062 -8.484375 2.304688 -7.546875 1.890625 C -6.597656 1.484375 -5.742188 0.910156 -4.984375 0.171875 C -4.234375 -0.554688 -3.632812 -1.378906 -3.1875 -2.296875 C -2.75 -3.210938 -2.5 -4.191406 -2.4375 -5.234375 C -2.375 -6.285156 -2.5625 -7.320312 -3 -8.34375 C -3.363281 -9.175781 -3.804688 -9.878906 -4.328125 -10.453125 C -4.859375 -11.035156 -5.4375 -11.5 -6.0625 -11.84375 C -6.695312 -12.1875 -7.359375 -12.425781 -8.046875 -12.5625 C -8.742188 -12.707031 -9.429688 -12.757812 -10.109375 -12.71875 C -10.296875 -12.726562 -10.476562 -12.695312 -10.65625 -12.625 C -10.820312 -12.550781 -10.875 -12.441406 -10.8125 -12.296875 C -10.757812 -12.171875 -10.59375 -12.113281 -10.3125 -12.125 C -9.707031 -12.125 -9.078125 -12.066406 -8.421875 -11.953125 C -7.773438 -11.847656 -7.148438 -11.640625 -6.546875 -11.328125 C -5.953125 -11.023438 -5.40625 -10.625 -4.90625 -10.125 C -4.40625 -9.625 -3.976562 -8.972656 -3.625 -8.171875 C -3.207031 -7.191406 -3.234375 -6.242188 -3.703125 -5.328125 C -4.179688 -4.421875 -5.222656 -3.617188 -6.828125 -2.921875 L -10.546875 -1.3125 L -14.34375 -10.109375 C -14.507812 -10.492188 -14.75 -10.617188 -15.0625 -10.484375 Z M -11.125 -1.0625 L -12.578125 -0.4375 C -13.378906 -0.09375 -14.066406 0.09375 -14.640625 0.125 C -15.222656 0.164062 -15.707031 0.0976562 -16.09375 -0.078125 C -16.488281 -0.253906 -16.8125 -0.503906 -17.0625 -0.828125 C -17.320312 -1.148438 -17.53125 -1.492188 -17.6875 -1.859375 C -17.9375 -2.441406 -18.039062 -2.960938 -18 -3.421875 C -17.96875 -3.890625 -17.828125 -4.304688 -17.578125 -4.671875 C -17.328125 -5.046875 -17.007812 -5.359375 -16.625 -5.609375 C -16.25 -5.859375 -15.84375 -6.078125 -15.40625 -6.265625 C -14.257812 -6.753906 -13.609375 -6.820312 -13.453125 -6.46875 Z M -11.125 -1.0625" transform="translate(65.854 235.551)"/></g></g></g><g fill="#B07D92"><g><g><path d="M -17.21875 -2.8125 L -15.296875 3.28125 L -14.671875 3.078125 L -15.5625 0.25 L -1.921875 -4.015625 L -1.03125 -1.1875 L -0.421875 -1.375 L -3.234375 -10.3125 L -3.84375 -10.125 L -2.953125 -7.28125 Z M -24.3125 -0.921875 C -24.875 -0.742188 -25.285156 -0.410156 -25.546875 0.078125 C -25.804688 0.578125 -25.847656 1.109375 -25.671875 1.671875 C -25.492188 2.222656 -25.15625 2.628906 -24.65625 2.890625 C -24.164062 3.148438 -23.640625 3.191406 -23.078125 3.015625 C -22.523438 2.835938 -22.113281 2.5 -21.84375 2 C -21.582031 1.507812 -21.539062 0.988281 -21.71875 0.4375 C -21.894531 -0.125 -22.234375 -0.535156 -22.734375 -0.796875 C -23.234375 -1.054688 -23.757812 -1.097656 -24.3125 -0.921875 Z M -24.3125 -0.921875" transform="translate(59.614 220.964)"/></g></g></g><g fill="#B07D92"><g><g><path d="M -2.28125 -7.265625 L -27.71875 -1.59375 L -26.359375 4.453125 L -25.734375 4.3125 L -26.34375 1.59375 L -1.53125 -3.9375 L -0.921875 -1.21875 L -0.296875 -1.359375 L -2.25 -10.125 L -2.875 -9.984375 Z M -2.28125 -7.265625" transform="translate(56.419 210.873)"/></g></g></g><g fill="#B07D92"><g><g><path d="M -1.671875 -7.421875 L -27.484375 -3.875 L -26.640625 2.265625 L -26 2.171875 L -26.375 -0.59375 L -1.203125 -4.046875 L -0.828125 -1.28125 L -0.1875 -1.375 L -1.40625 -10.28125 L -2.046875 -10.1875 Z M -1.671875 -7.421875" transform="translate(54.146 200.883)"/></g></g></g><g fill="#B07D92"><g><g><path d="M -10.15625 -15.28125 C -10.582031 -15.25 -11.160156 -15.09375 -11.890625 -14.8125 C -12.628906 -14.539062 -13.332031 -14.128906 -14 -13.578125 C -14.664062 -13.035156 -15.238281 -12.316406 -15.71875 -11.421875 C -16.207031 -10.535156 -16.429688 -9.457031 -16.390625 -8.1875 C -16.359375 -7.125 -16.078125 -6.144531 -15.546875 -5.25 C -15.023438 -4.351562 -14.351562 -3.585938 -13.53125 -2.953125 C -12.71875 -2.316406 -11.800781 -1.828125 -10.78125 -1.484375 C -9.769531 -1.140625 -8.75 -0.984375 -7.71875 -1.015625 C -6.6875 -1.046875 -5.679688 -1.265625 -4.703125 -1.671875 C -3.734375 -2.078125 -2.875 -2.625 -2.125 -3.3125 C -1.382812 -4 -0.789062 -4.816406 -0.34375 -5.765625 C 0.101562 -6.722656 0.3125 -7.757812 0.28125 -8.875 C 0.25 -9.78125 0.09375 -10.597656 -0.1875 -11.328125 C -0.46875 -12.066406 -0.832031 -12.710938 -1.28125 -13.265625 C -1.738281 -13.816406 -2.265625 -14.28125 -2.859375 -14.65625 C -3.460938 -15.03125 -4.085938 -15.320312 -4.734375 -15.53125 C -4.910156 -15.613281 -5.09375 -15.648438 -5.28125 -15.640625 C -5.46875 -15.640625 -5.554688 -15.5625 -5.546875 -15.40625 C -5.546875 -15.269531 -5.414062 -15.148438 -5.15625 -15.046875 C -4.582031 -14.828125 -4.007812 -14.550781 -3.4375 -14.21875 C -2.875 -13.882812 -2.367188 -13.460938 -1.921875 -12.953125 C -1.484375 -12.453125 -1.117188 -11.875 -0.828125 -11.21875 C -0.546875 -10.570312 -0.394531 -9.8125 -0.375 -8.9375 C -0.332031 -7.875 -0.695312 -7.003906 -1.46875 -6.328125 C -2.25 -5.660156 -3.515625 -5.296875 -5.265625 -5.234375 L -9.3125 -5.109375 L -9.625 -14.671875 C -9.632812 -15.085938 -9.8125 -15.289062 -10.15625 -15.28125 Z M -9.953125 -5.09375 L -11.53125 -5.03125 C -12.40625 -5.007812 -13.113281 -5.085938 -13.65625 -5.265625 C -14.207031 -5.441406 -14.628906 -5.6875 -14.921875 -6 C -15.222656 -6.3125 -15.4375 -6.660156 -15.5625 -7.046875 C -15.6875 -7.441406 -15.753906 -7.835938 -15.765625 -8.234375 C -15.785156 -8.867188 -15.691406 -9.394531 -15.484375 -9.8125 C -15.273438 -10.226562 -14.988281 -10.5625 -14.625 -10.8125 C -14.257812 -11.070312 -13.851562 -11.242188 -13.40625 -11.328125 C -12.96875 -11.421875 -12.507812 -11.476562 -12.03125 -11.5 C -10.789062 -11.539062 -10.160156 -11.363281 -10.140625 -10.96875 Z M -9.953125 -5.09375" transform="translate(52.563 191.03)"/></g></g></g><g fill="#B07D92"><g><g><path d="M -1.453125 -14.28125 L 1.515625 -13.953125 L 2.1875 -20.09375 L 1.546875 -20.15625 L 1.25 -17.390625 L -13.59375 -19.015625 L -14.265625 -12.875 L -13.625 -12.8125 L -13.328125 -15.578125 L -3.5 -14.5 C -3.070312 -14.457031 -2.625 -14.28125 -2.15625 -13.96875 C -1.6875 -13.65625 -1.253906 -13.265625 -0.859375 -12.796875 C -0.472656 -12.328125 -0.164062 -11.800781 0.0625 -11.21875 C 0.289062 -10.632812 0.375 -10.050781 0.3125 -9.46875 C 0.207031 -8.550781 -0.078125 -7.984375 -0.546875 -7.765625 C -1.023438 -7.546875 -1.769531 -7.492188 -2.78125 -7.609375 L -14.703125 -8.90625 L -15.375 -2.765625 L -14.734375 -2.703125 L -14.421875 -5.46875 L -3.421875 -4.265625 C -2.566406 -4.171875 -1.851562 -4.191406 -1.28125 -4.328125 C -0.707031 -4.472656 -0.242188 -4.71875 0.109375 -5.0625 C 0.472656 -5.40625 0.742188 -5.8125 0.921875 -6.28125 C 1.109375 -6.75 1.234375 -7.25 1.296875 -7.78125 C 1.441406 -9.164062 1.273438 -10.410156 0.796875 -11.515625 C 0.328125 -12.617188 -0.421875 -13.539062 -1.453125 -14.28125 Z M -1.453125 -14.28125" transform="translate(51.785 175.61)"/></g></g></g><g fill="#B07D92"><g><g><path d="M -11.15625 -10.078125 L -13.390625 -10.640625 L -14.890625 -4.625 L -14.265625 -4.46875 L -13.59375 -7.171875 L 0.265625 -3.703125 L -0.40625 -1 L 0.21875 -0.84375 L 2.390625 -9.5625 L 1.765625 -9.71875 L 1.09375 -7.015625 L -9.453125 -9.65625 C -9.867188 -9.757812 -10.265625 -9.988281 -10.640625 -10.34375 C -11.015625 -10.695312 -11.332031 -11.117188 -11.59375 -11.609375 C -11.851562 -12.097656 -12.03125 -12.609375 -12.125 -13.140625 C -12.226562 -13.679688 -12.222656 -14.179688 -12.109375 -14.640625 C -12.035156 -14.929688 -11.953125 -15.179688 -11.859375 -15.390625 C -11.765625 -15.597656 -11.640625 -15.679688 -11.484375 -15.640625 C -11.359375 -15.609375 -11.285156 -15.53125 -11.265625 -15.40625 C -11.191406 -15.207031 -11.0625 -14.972656 -10.875 -14.703125 C -10.6875 -14.441406 -10.332031 -14.25 -9.8125 -14.125 C -9.28125 -13.988281 -8.796875 -14.054688 -8.359375 -14.328125 C -7.921875 -14.597656 -7.628906 -15.023438 -7.484375 -15.609375 C -7.347656 -16.128906 -7.40625 -16.628906 -7.65625 -17.109375 C -7.914062 -17.585938 -8.351562 -17.90625 -8.96875 -18.0625 C -9.476562 -18.1875 -9.929688 -18.1875 -10.328125 -18.0625 C -10.722656 -17.945312 -11.066406 -17.753906 -11.359375 -17.484375 C -11.660156 -17.210938 -11.921875 -16.875 -12.140625 -16.46875 C -12.359375 -16.070312 -12.519531 -15.660156 -12.625 -15.234375 C -12.78125 -14.609375 -12.828125 -14.03125 -12.765625 -13.5 C -12.703125 -12.976562 -12.585938 -12.488281 -12.421875 -12.03125 C -12.265625 -11.582031 -12.070312 -11.191406 -11.84375 -10.859375 C -11.613281 -10.523438 -11.382812 -10.265625 -11.15625 -10.078125 Z M -11.15625 -10.078125" transform="translate(53.99 156.047)"/></g></g></g><g fill="#B07D92"><g><g><path d="M -3.4375 -18.03125 C -3.832031 -18.164062 -4.421875 -18.25 -5.203125 -18.28125 C -5.984375 -18.3125 -6.789062 -18.203125 -7.625 -17.953125 C -8.457031 -17.703125 -9.269531 -17.257812 -10.0625 -16.625 C -10.863281 -15.988281 -11.492188 -15.078125 -11.953125 -13.890625 C -12.328125 -12.898438 -12.441406 -11.890625 -12.296875 -10.859375 C -12.160156 -9.828125 -11.835938 -8.859375 -11.328125 -7.953125 C -10.816406 -7.054688 -10.160156 -6.253906 -9.359375 -5.546875 C -8.554688 -4.835938 -7.671875 -4.300781 -6.703125 -3.9375 C -5.742188 -3.5625 -4.738281 -3.375 -3.6875 -3.375 C -2.632812 -3.375 -1.628906 -3.539062 -0.671875 -3.875 C 0.273438 -4.21875 1.140625 -4.742188 1.921875 -5.453125 C 2.710938 -6.160156 3.304688 -7.03125 3.703125 -8.0625 C 4.023438 -8.914062 4.195312 -9.734375 4.21875 -10.515625 C 4.25 -11.296875 4.160156 -12.03125 3.953125 -12.71875 C 3.742188 -13.40625 3.4375 -14.039062 3.03125 -14.625 C 2.632812 -15.207031 2.179688 -15.722656 1.671875 -16.171875 C 1.535156 -16.304688 1.378906 -16.40625 1.203125 -16.46875 C 1.023438 -16.539062 0.910156 -16.503906 0.859375 -16.359375 C 0.804688 -16.234375 0.890625 -16.078125 1.109375 -15.890625 C 1.535156 -15.453125 1.945312 -14.96875 2.34375 -14.4375 C 2.738281 -13.90625 3.039062 -13.320312 3.25 -12.6875 C 3.457031 -12.050781 3.566406 -11.378906 3.578125 -10.671875 C 3.585938 -9.960938 3.4375 -9.195312 3.125 -8.375 C 2.738281 -7.382812 2.054688 -6.726562 1.078125 -6.40625 C 0.109375 -6.09375 -1.1875 -6.25 -2.8125 -6.875 L -6.59375 -8.3125 L -3.171875 -17.265625 C -3.023438 -17.648438 -3.113281 -17.90625 -3.4375 -18.03125 Z M -7.203125 -8.546875 L -8.671875 -9.109375 C -9.484375 -9.421875 -10.109375 -9.765625 -10.546875 -10.140625 C -10.984375 -10.523438 -11.28125 -10.914062 -11.4375 -11.3125 C -11.601562 -11.71875 -11.664062 -12.125 -11.625 -12.53125 C -11.582031 -12.945312 -11.488281 -13.335938 -11.34375 -13.703125 C -11.113281 -14.296875 -10.820312 -14.742188 -10.46875 -15.046875 C -10.113281 -15.359375 -9.71875 -15.554688 -9.28125 -15.640625 C -8.84375 -15.734375 -8.398438 -15.734375 -7.953125 -15.640625 C -7.515625 -15.554688 -7.070312 -15.429688 -6.625 -15.265625 C -5.46875 -14.816406 -4.960938 -14.40625 -5.109375 -14.03125 Z M -7.203125 -8.546875" transform="translate(57.335 142.113)"/></g></g></g><g fill="#B07D92"><g><g><path d="M -12.5 -9.359375 L -11.96875 -9 L -10.5625 -11.15625 L 5.546875 -8.25 L 5.71875 -8.5 L -3.609375 -21.8125 L -2.328125 -23.765625 L -2.859375 -24.125 L -6.078125 -19.203125 L -5.546875 -18.84375 L -4 -21.203125 L 2.421875 -12.0625 L -8.5625 -14.21875 L -7.046875 -16.546875 L -7.578125 -16.90625 Z M -12.5 -9.359375" transform="translate(67.016 118.87)"/></g></g></g><g fill="#B07D92"><g><g><path d="M 2.890625 -18.125 C 2.546875 -18.382812 2.007812 -18.660156 1.28125 -18.953125 C 0.5625 -19.253906 -0.226562 -19.425781 -1.09375 -19.46875 C -1.957031 -19.507812 -2.867188 -19.367188 -3.828125 -19.046875 C -4.785156 -18.722656 -5.679688 -18.082031 -6.515625 -17.125 C -7.210938 -16.320312 -7.671875 -15.410156 -7.890625 -14.390625 C -8.109375 -13.367188 -8.128906 -12.347656 -7.953125 -11.328125 C -7.785156 -10.304688 -7.441406 -9.320312 -6.921875 -8.375 C -6.410156 -7.4375 -5.765625 -6.632812 -4.984375 -5.96875 C -4.203125 -5.289062 -3.316406 -4.773438 -2.328125 -4.421875 C -1.335938 -4.066406 -0.335938 -3.890625 0.671875 -3.890625 C 1.691406 -3.890625 2.6875 -4.082031 3.65625 -4.46875 C 4.625 -4.863281 5.472656 -5.484375 6.203125 -6.328125 C 6.796875 -7.015625 7.238281 -7.722656 7.53125 -8.453125 C 7.820312 -9.179688 7.988281 -9.898438 8.03125 -10.609375 C 8.070312 -11.328125 8 -12.03125 7.8125 -12.71875 C 7.632812 -13.414062 7.382812 -14.050781 7.0625 -14.625 C 6.976562 -14.800781 6.863281 -14.953125 6.71875 -15.078125 C 6.570312 -15.203125 6.445312 -15.207031 6.34375 -15.09375 C 6.257812 -14.988281 6.28125 -14.816406 6.40625 -14.578125 C 6.675781 -14.015625 6.90625 -13.414062 7.09375 -12.78125 C 7.28125 -12.144531 7.363281 -11.492188 7.34375 -10.828125 C 7.332031 -10.171875 7.207031 -9.503906 6.96875 -8.828125 C 6.738281 -8.148438 6.34375 -7.476562 5.78125 -6.8125 C 5.082031 -6.007812 4.21875 -5.625 3.1875 -5.65625 C 2.164062 -5.6875 0.992188 -6.273438 -0.328125 -7.421875 L -3.390625 -10.0625 L 2.859375 -17.3125 C 3.140625 -17.625 3.148438 -17.894531 2.890625 -18.125 Z M -3.875 -10.484375 L -5.0625 -11.515625 C -5.726562 -12.085938 -6.203125 -12.625 -6.484375 -13.125 C -6.765625 -13.632812 -6.910156 -14.101562 -6.921875 -14.53125 C -6.929688 -14.957031 -6.847656 -15.351562 -6.671875 -15.71875 C -6.503906 -16.09375 -6.289062 -16.429688 -6.03125 -16.734375 C -5.613281 -17.210938 -5.1875 -17.535156 -4.75 -17.703125 C -4.3125 -17.867188 -3.867188 -17.921875 -3.421875 -17.859375 C -2.984375 -17.796875 -2.570312 -17.644531 -2.1875 -17.40625 C -1.800781 -17.175781 -1.425781 -16.90625 -1.0625 -16.59375 C -0.125 -15.78125 0.21875 -15.226562 -0.03125 -14.9375 Z M -3.875 -10.484375" transform="translate(76.669 103.99)"/></g></g></g><g fill="#B07D92"><g><g><path d="M -3.6875 -14.578125 L -5.25 -16.296875 L -9.84375 -12.125 L -9.40625 -11.640625 L -7.34375 -13.5 L 2.265625 -2.921875 L 0.203125 -1.0625 L 0.640625 -0.59375 L 7.296875 -6.640625 L 6.859375 -7.109375 L 4.796875 -5.234375 L -2.515625 -13.28125 C -2.804688 -13.601562 -3.007812 -14.015625 -3.125 -14.515625 C -3.238281 -15.015625 -3.269531 -15.535156 -3.21875 -16.078125 C -3.164062 -16.628906 -3.03125 -17.15625 -2.8125 -17.65625 C -2.59375 -18.164062 -2.304688 -18.582031 -1.953125 -18.90625 C -1.734375 -19.101562 -1.523438 -19.257812 -1.328125 -19.375 C -1.128906 -19.5 -0.976562 -19.503906 -0.875 -19.390625 C -0.789062 -19.296875 -0.773438 -19.1875 -0.828125 -19.0625 C -0.878906 -18.863281 -0.898438 -18.601562 -0.890625 -18.28125 C -0.878906 -17.957031 -0.695312 -17.597656 -0.34375 -17.203125 C 0.03125 -16.796875 0.472656 -16.582031 0.984375 -16.5625 C 1.503906 -16.550781 1.988281 -16.75 2.4375 -17.15625 C 2.820312 -17.507812 3.039062 -17.953125 3.09375 -18.484375 C 3.15625 -19.023438 2.972656 -19.53125 2.546875 -20 C 2.179688 -20.394531 1.800781 -20.648438 1.40625 -20.765625 C 1.019531 -20.878906 0.628906 -20.90625 0.234375 -20.84375 C -0.160156 -20.789062 -0.554688 -20.660156 -0.953125 -20.453125 C -1.347656 -20.242188 -1.710938 -19.988281 -2.046875 -19.6875 C -2.515625 -19.257812 -2.867188 -18.804688 -3.109375 -18.328125 C -3.359375 -17.847656 -3.539062 -17.375 -3.65625 -16.90625 C -3.78125 -16.4375 -3.835938 -16 -3.828125 -15.59375 C -3.828125 -15.195312 -3.78125 -14.859375 -3.6875 -14.578125 Z M -3.6875 -14.578125" transform="translate(86.868 92.086)"/></g></g></g><g fill="#B07D92"><g><g><path d="M -0.25 -19.515625 L -0.4375 -18.234375 C -1.539062 -18.359375 -2.578125 -18.066406 -3.546875 -17.359375 C -4.222656 -16.867188 -4.75 -16.316406 -5.125 -15.703125 C -5.5 -15.085938 -5.722656 -14.457031 -5.796875 -13.8125 C -5.867188 -13.175781 -5.816406 -12.546875 -5.640625 -11.921875 C -5.460938 -11.296875 -5.1875 -10.722656 -4.8125 -10.203125 C -4.238281 -9.398438 -3.503906 -8.867188 -2.609375 -8.609375 C -1.710938 -8.347656 -0.722656 -8.445312 0.359375 -8.90625 C 0.679688 -9.050781 1.039062 -9.207031 1.4375 -9.375 C 1.84375 -9.539062 2.253906 -9.707031 2.671875 -9.875 C 3.097656 -10.039062 3.519531 -10.179688 3.9375 -10.296875 C 4.351562 -10.421875 4.742188 -10.503906 5.109375 -10.546875 C 5.703125 -10.628906 6.195312 -10.5625 6.59375 -10.34375 C 7 -10.132812 7.320312 -9.863281 7.5625 -9.53125 C 7.894531 -9.070312 8.066406 -8.59375 8.078125 -8.09375 C 8.097656 -7.601562 8.007812 -7.132812 7.8125 -6.6875 C 7.613281 -6.238281 7.359375 -5.820312 7.046875 -5.4375 C 6.734375 -5.0625 6.40625 -4.75 6.0625 -4.5 C 5.070312 -3.78125 4.003906 -3.421875 2.859375 -3.421875 C 1.710938 -3.429688 0.578125 -3.894531 -0.546875 -4.8125 C -0.753906 -4.945312 -0.910156 -4.976562 -1.015625 -4.90625 C -1.140625 -4.8125 -1.140625 -4.679688 -1.015625 -4.515625 L 1.484375 -1.078125 C 1.609375 -0.910156 1.734375 -0.875 1.859375 -0.96875 C 1.941406 -1.019531 1.976562 -1.125 1.96875 -1.28125 L 1.90625 -2.75 C 2.582031 -2.632812 3.304688 -2.664062 4.078125 -2.84375 C 4.859375 -3.03125 5.675781 -3.4375 6.53125 -4.0625 C 7.238281 -4.570312 7.773438 -5.132812 8.140625 -5.75 C 8.515625 -6.375 8.742188 -7.019531 8.828125 -7.6875 C 8.921875 -8.351562 8.875 -9.015625 8.6875 -9.671875 C 8.5 -10.335938 8.179688 -10.984375 7.734375 -11.609375 C 7.140625 -12.421875 6.375 -13.039062 5.4375 -13.46875 C 4.5 -13.90625 3.316406 -13.90625 1.890625 -13.46875 C 1.660156 -13.382812 1.363281 -13.269531 1 -13.125 C 0.644531 -12.988281 0.269531 -12.84375 -0.125 -12.6875 C -0.519531 -12.53125 -0.910156 -12.375 -1.296875 -12.21875 C -1.691406 -12.070312 -2.019531 -11.945312 -2.28125 -11.84375 C -2.820312 -11.6875 -3.265625 -11.65625 -3.609375 -11.75 C -3.953125 -11.851562 -4.273438 -12.101562 -4.578125 -12.5 C -4.972656 -13.0625 -5.066406 -13.757812 -4.859375 -14.59375 C -4.648438 -15.425781 -4.140625 -16.140625 -3.328125 -16.734375 C -2.804688 -17.109375 -2.273438 -17.34375 -1.734375 -17.4375 C -1.203125 -17.53125 -0.691406 -17.523438 -0.203125 -17.421875 C 0.273438 -17.316406 0.726562 -17.132812 1.15625 -16.875 C 1.59375 -16.625 1.972656 -16.335938 2.296875 -16.015625 C 2.421875 -15.898438 2.535156 -15.878906 2.640625 -15.953125 C 2.734375 -16.023438 2.726562 -16.128906 2.625 -16.265625 L 0.125 -19.703125 C 0.0195312 -19.847656 -0.0625 -19.894531 -0.125 -19.84375 C -0.164062 -19.8125 -0.207031 -19.703125 -0.25 -19.515625 Z M -0.25 -19.515625" transform="translate(97.55 82.329)"/></g></g></g><g fill="#B07D92"><g><g><path d="M -1.203125 -17.390625 L -6.703125 -14.140625 L -6.375 -13.59375 L -3.8125 -15.109375 L 3.46875 -2.796875 L 0.90625 -1.28125 L 1.234375 -0.734375 L 9.3125 -5.5 L 8.984375 -6.046875 L 6.40625 -4.53125 Z M -4.671875 -23.875 C -4.972656 -24.375 -5.394531 -24.695312 -5.9375 -24.84375 C -6.476562 -24.988281 -7 -24.910156 -7.5 -24.609375 C -8 -24.316406 -8.316406 -23.894531 -8.453125 -23.34375 C -8.597656 -22.800781 -8.519531 -22.28125 -8.21875 -21.78125 C -7.925781 -21.269531 -7.503906 -20.945312 -6.953125 -20.8125 C -6.410156 -20.675781 -5.890625 -20.753906 -5.390625 -21.046875 C -4.890625 -21.347656 -4.570312 -21.765625 -4.4375 -22.296875 C -4.300781 -22.835938 -4.378906 -23.363281 -4.671875 -23.875 Z M -4.671875 -23.875" transform="translate(107.996 74.735)"/></g></g></g><g fill="#B07D92"><g><g><path d="M 8.4375 -3.21875 C 9.53125 -3.707031 10.398438 -4.398438 11.046875 -5.296875 C 11.691406 -6.203125 12.15625 -7.164062 12.4375 -8.1875 C 12.71875 -9.21875 12.820312 -10.253906 12.75 -11.296875 C 12.675781 -12.347656 12.460938 -13.265625 12.109375 -14.046875 C 11.742188 -14.847656 11.191406 -15.617188 10.453125 -16.359375 C 9.710938 -17.109375 8.863281 -17.710938 7.90625 -18.171875 C 6.945312 -18.640625 5.914062 -18.914062 4.8125 -19 C 3.71875 -19.09375 2.625 -18.894531 1.53125 -18.40625 C 0.445312 -17.914062 -0.421875 -17.222656 -1.078125 -16.328125 C -1.734375 -15.441406 -2.203125 -14.484375 -2.484375 -13.453125 C -2.773438 -12.421875 -2.882812 -11.378906 -2.8125 -10.328125 C -2.75 -9.285156 -2.535156 -8.363281 -2.171875 -7.5625 C -1.816406 -6.78125 -1.265625 -6.015625 -0.515625 -5.265625 C 0.222656 -4.523438 1.070312 -3.925781 2.03125 -3.46875 C 3 -3.007812 4.035156 -2.726562 5.140625 -2.625 C 6.253906 -2.53125 7.351562 -2.726562 8.4375 -3.21875 Z M 1.234375 -10.0625 C 0.765625 -11.082031 0.394531 -11.992188 0.125 -12.796875 C -0.132812 -13.609375 -0.265625 -14.335938 -0.265625 -14.984375 C -0.273438 -15.628906 -0.117188 -16.179688 0.203125 -16.640625 C 0.535156 -17.109375 1.0625 -17.507812 1.78125 -17.84375 C 2.507812 -18.175781 3.15625 -18.3125 3.71875 -18.25 C 4.289062 -18.1875 4.8125 -17.941406 5.28125 -17.515625 C 5.757812 -17.085938 6.210938 -16.503906 6.640625 -15.765625 C 7.078125 -15.035156 7.53125 -14.160156 8 -13.140625 L 8.703125 -11.59375 C 9.191406 -10.507812 9.570312 -9.554688 9.84375 -8.734375 C 10.125 -7.910156 10.265625 -7.191406 10.265625 -6.578125 C 10.265625 -5.972656 10.097656 -5.441406 9.765625 -4.984375 C 9.429688 -4.535156 8.898438 -4.144531 8.171875 -3.8125 C 7.453125 -3.476562 6.8125 -3.335938 6.25 -3.390625 C 5.6875 -3.441406 5.171875 -3.660156 4.703125 -4.046875 C 4.234375 -4.441406 3.773438 -5.015625 3.328125 -5.765625 C 2.890625 -6.515625 2.425781 -7.429688 1.9375 -8.515625 Z M 1.234375 -10.0625" transform="translate(116.735 69.287)"/></g></g></g><g fill="#B07D92"><g><g><path d="M 3.78125 -14.203125 L 2.9375 -17.09375 L -3 -15.359375 L -2.828125 -14.734375 L -0.15625 -15.515625 L 3.859375 -1.796875 L 1.1875 -1.015625 L 1.375 -0.40625 L 9.984375 -2.921875 L 9.796875 -3.53125 L 7.125 -2.75 L 4.359375 -12.203125 C 4.234375 -12.640625 4.210938 -13.140625 4.296875 -13.703125 C 4.378906 -14.265625 4.539062 -14.816406 4.78125 -15.359375 C 5.03125 -15.898438 5.347656 -16.375 5.734375 -16.78125 C 6.128906 -17.195312 6.582031 -17.484375 7.09375 -17.640625 C 7.820312 -17.847656 8.425781 -17.773438 8.90625 -17.421875 C 9.382812 -17.078125 9.769531 -16.40625 10.0625 -15.40625 L 13.234375 -4.546875 L 10.5625 -3.765625 L 10.75 -3.15625 L 19.375 -5.671875 L 19.1875 -6.28125 L 16.515625 -5.5 L 13.265625 -16.625 C 12.878906 -17.945312 12.234375 -18.753906 11.328125 -19.046875 C 10.429688 -19.335938 9.398438 -19.3125 8.234375 -18.96875 C 6.828125 -18.5625 5.78125 -17.910156 5.09375 -17.015625 C 4.40625 -16.117188 3.96875 -15.179688 3.78125 -14.203125 Z M 3.78125 -14.203125" transform="translate(131.145 62.46)"/></g></g></g><g fill="#B07D92"><g><g><path d="M 8.71875 -26.578125 L 11.734375 -26.734375 L 12.40625 -14.6875 C 11.34375 -16.050781 9.859375 -16.679688 7.953125 -16.578125 C 7.003906 -16.523438 6.09375 -16.238281 5.21875 -15.71875 C 4.351562 -15.207031 3.59375 -14.539062 2.9375 -13.71875 C 2.289062 -12.894531 1.785156 -11.972656 1.421875 -10.953125 C 1.054688 -9.941406 0.898438 -8.921875 0.953125 -7.890625 C 1.015625 -6.773438 1.304688 -5.722656 1.828125 -4.734375 C 2.347656 -3.742188 2.984375 -2.882812 3.734375 -2.15625 C 4.492188 -1.425781 5.320312 -0.859375 6.21875 -0.453125 C 7.113281 -0.0546875 7.957031 0.117188 8.75 0.078125 C 9.8125 0.0234375 10.6875 -0.285156 11.375 -0.859375 C 12.0625 -1.429688 12.625 -2.070312 13.0625 -2.78125 L 13.171875 -0.71875 L 19.59375 -1.078125 L 19.5625 -1.71875 L 16.546875 -1.546875 L 15.109375 -27.5625 L 8.6875 -27.21875 Z M 5.015625 -9.109375 C 4.878906 -11.566406 5.046875 -13.304688 5.515625 -14.328125 C 5.992188 -15.347656 6.867188 -15.894531 8.140625 -15.96875 C 8.703125 -16 9.207031 -15.929688 9.65625 -15.765625 C 10.101562 -15.609375 10.5 -15.390625 10.84375 -15.109375 C 11.195312 -14.828125 11.503906 -14.519531 11.765625 -14.1875 C 12.035156 -13.851562 12.273438 -13.53125 12.484375 -13.21875 L 13 -3.9375 C 12.46875 -2.925781 11.867188 -2.125 11.203125 -1.53125 C 10.535156 -0.9375 9.765625 -0.613281 8.890625 -0.5625 C 8.328125 -0.53125 7.828125 -0.613281 7.390625 -0.8125 C 6.953125 -1.019531 6.578125 -1.375 6.265625 -1.875 C 5.960938 -2.375 5.710938 -3.054688 5.515625 -3.921875 C 5.328125 -4.785156 5.195312 -5.863281 5.125 -7.15625 Z M 5.015625 -9.109375" transform="translate(159.023 55.244)"/></g></g></g><g fill="#B07D92"><g><g><path d="M 16.359375 -8.328125 C 16.378906 -8.753906 16.289062 -9.34375 16.09375 -10.09375 C 15.90625 -10.851562 15.570312 -11.597656 15.09375 -12.328125 C 14.625 -13.066406 13.976562 -13.726562 13.15625 -14.3125 C 12.332031 -14.894531 11.285156 -15.238281 10.015625 -15.34375 C 8.953125 -15.425781 7.945312 -15.257812 7 -14.84375 C 6.050781 -14.425781 5.210938 -13.84375 4.484375 -13.09375 C 3.753906 -12.351562 3.160156 -11.5 2.703125 -10.53125 C 2.253906 -9.5625 1.988281 -8.5625 1.90625 -7.53125 C 1.8125 -6.507812 1.910156 -5.488281 2.203125 -4.46875 C 2.492188 -3.457031 2.9375 -2.546875 3.53125 -1.734375 C 4.132812 -0.921875 4.878906 -0.238281 5.765625 0.3125 C 6.660156 0.875 7.664062 1.203125 8.78125 1.296875 C 9.6875 1.367188 10.515625 1.304688 11.265625 1.109375 C 12.023438 0.921875 12.707031 0.628906 13.3125 0.234375 C 13.914062 -0.148438 14.441406 -0.613281 14.890625 -1.15625 C 15.335938 -1.707031 15.703125 -2.289062 15.984375 -2.90625 C 16.085938 -3.070312 16.144531 -3.25 16.15625 -3.4375 C 16.175781 -3.625 16.109375 -3.722656 15.953125 -3.734375 C 15.816406 -3.742188 15.6875 -3.625 15.5625 -3.375 C 15.269531 -2.832031 14.921875 -2.300781 14.515625 -1.78125 C 14.109375 -1.257812 13.628906 -0.804688 13.078125 -0.421875 C 12.535156 -0.046875 11.921875 0.242188 11.234375 0.453125 C 10.554688 0.660156 9.78125 0.726562 8.90625 0.65625 C 7.84375 0.570312 7.023438 0.109375 6.453125 -0.734375 C 5.878906 -1.578125 5.664062 -2.875 5.8125 -4.625 L 6.140625 -8.65625 L 15.6875 -7.875 C 16.101562 -7.832031 16.328125 -7.984375 16.359375 -8.328125 Z M 6.203125 -9.296875 L 6.328125 -10.859375 C 6.398438 -11.734375 6.554688 -12.429688 6.796875 -12.953125 C 7.046875 -13.484375 7.335938 -13.878906 7.671875 -14.140625 C 8.003906 -14.410156 8.375 -14.582031 8.78125 -14.65625 C 9.1875 -14.738281 9.585938 -14.765625 9.984375 -14.734375 C 10.617188 -14.679688 11.132812 -14.523438 11.53125 -14.265625 C 11.925781 -14.003906 12.222656 -13.675781 12.421875 -13.28125 C 12.628906 -12.882812 12.753906 -12.457031 12.796875 -12 C 12.835938 -11.550781 12.835938 -11.085938 12.796875 -10.609375 C 12.691406 -9.378906 12.445312 -8.78125 12.0625 -8.8125 Z M 6.203125 -9.296875" transform="translate(177.79 54.202)"/></g></g></g><g fill="#B07D92"><g><g><path d="M 26.953125 -7.515625 C 25.460938 -8.035156 24.15625 -8.140625 23.03125 -7.828125 C 21.914062 -7.515625 20.984375 -6.992188 20.234375 -6.265625 C 20.410156 -6.960938 20.457031 -7.5625 20.375 -8.0625 C 20.289062 -8.570312 20.113281 -8.992188 19.84375 -9.328125 C 19.570312 -9.671875 19.253906 -9.953125 18.890625 -10.171875 C 18.523438 -10.398438 18.148438 -10.578125 17.765625 -10.703125 C 17.316406 -10.859375 16.816406 -10.984375 16.265625 -11.078125 C 15.722656 -11.171875 15.160156 -11.179688 14.578125 -11.109375 C 14.003906 -11.046875 13.410156 -10.890625 12.796875 -10.640625 C 12.191406 -10.390625 11.601562 -9.992188 11.03125 -9.453125 L 12.015625 -12.3125 L 6.34375 -14.28125 L 6.140625 -13.671875 L 8.578125 -12.828125 L 3.875 0.671875 L 1.4375 -0.171875 L 1.234375 0.4375 L 9.3125 3.234375 L 9.515625 2.625 L 7.109375 1.796875 L 10.40625 -7.65625 C 10.507812 -7.957031 10.742188 -8.300781 11.109375 -8.6875 C 11.484375 -9.070312 11.929688 -9.414062 12.453125 -9.71875 C 12.984375 -10.03125 13.546875 -10.253906 14.140625 -10.390625 C 14.742188 -10.523438 15.304688 -10.5 15.828125 -10.3125 C 16.347656 -10.132812 16.703125 -9.890625 16.890625 -9.578125 C 17.085938 -9.273438 17.191406 -8.957031 17.203125 -8.625 C 17.210938 -8.289062 17.164062 -7.960938 17.0625 -7.640625 C 16.96875 -7.316406 16.878906 -7.046875 16.796875 -6.828125 L 13.078125 3.859375 L 10.640625 3.015625 L 10.4375 3.625 L 18.53125 6.4375 L 18.734375 5.828125 L 16.3125 4.984375 L 19.5 -4.15625 C 19.625 -4.53125 19.875 -4.9375 20.25 -5.375 C 20.625 -5.8125 21.066406 -6.191406 21.578125 -6.515625 C 22.097656 -6.847656 22.660156 -7.082031 23.265625 -7.21875 C 23.867188 -7.351562 24.46875 -7.316406 25.0625 -7.109375 C 25.488281 -6.960938 25.800781 -6.769531 26 -6.53125 C 26.195312 -6.300781 26.316406 -6.03125 26.359375 -5.71875 C 26.410156 -5.40625 26.394531 -5.070312 26.3125 -4.71875 C 26.226562 -4.363281 26.117188 -4 25.984375 -3.625 L 22.265625 7.0625 L 19.90625 6.234375 L 19.703125 6.84375 L 27.734375 9.640625 L 27.9375 9.03125 L 25.5 8.171875 L 29.359375 -2.921875 C 29.671875 -3.828125 29.675781 -4.703125 29.375 -5.546875 C 29.070312 -6.398438 28.265625 -7.054688 26.953125 -7.515625 Z M 26.953125 -7.515625" transform="translate(202.47 56.382)"/></g></g></g><g fill="#B07D92"><g><g><path d="M 7.59375 4.875 C 8.632812 5.46875 9.710938 5.757812 10.828125 5.75 C 11.941406 5.75 12.988281 5.554688 13.96875 5.171875 C 14.957031 4.785156 15.851562 4.253906 16.65625 3.578125 C 17.457031 2.898438 18.070312 2.179688 18.5 1.421875 C 18.925781 0.660156 19.21875 -0.238281 19.375 -1.28125 C 19.53125 -2.320312 19.515625 -3.363281 19.328125 -4.40625 C 19.140625 -5.445312 18.753906 -6.4375 18.171875 -7.375 C 17.585938 -8.320312 16.773438 -9.09375 15.734375 -9.6875 C 14.691406 -10.257812 13.617188 -10.546875 12.515625 -10.546875 C 11.410156 -10.546875 10.359375 -10.351562 9.359375 -9.96875 C 8.359375 -9.59375 7.457031 -9.066406 6.65625 -8.390625 C 5.851562 -7.710938 5.238281 -6.992188 4.8125 -6.234375 C 4.382812 -5.472656 4.09375 -4.570312 3.9375 -3.53125 C 3.78125 -2.488281 3.800781 -1.441406 4 -0.390625 C 4.207031 0.648438 4.597656 1.644531 5.171875 2.59375 C 5.742188 3.539062 6.550781 4.300781 7.59375 4.875 Z M 8.828125 -4.984375 C 9.367188 -5.953125 9.890625 -6.78125 10.390625 -7.46875 C 10.890625 -8.164062 11.394531 -8.703125 11.90625 -9.078125 C 12.425781 -9.460938 12.96875 -9.664062 13.53125 -9.6875 C 14.101562 -9.707031 14.738281 -9.523438 15.4375 -9.140625 C 16.132812 -8.742188 16.625 -8.296875 16.90625 -7.796875 C 17.195312 -7.304688 17.304688 -6.742188 17.234375 -6.109375 C 17.171875 -5.484375 16.972656 -4.773438 16.640625 -3.984375 C 16.304688 -3.203125 15.867188 -2.328125 15.328125 -1.359375 L 14.5 0.140625 C 13.914062 1.171875 13.367188 2.039062 12.859375 2.75 C 12.359375 3.457031 11.863281 3.992188 11.375 4.359375 C 10.882812 4.722656 10.359375 4.90625 9.796875 4.90625 C 9.234375 4.914062 8.601562 4.722656 7.90625 4.328125 C 7.207031 3.941406 6.710938 3.507812 6.421875 3.03125 C 6.128906 2.550781 6.003906 2.003906 6.046875 1.390625 C 6.085938 0.773438 6.273438 0.0664062 6.609375 -0.734375 C 6.953125 -1.535156 7.414062 -2.453125 8 -3.484375 Z M 8.828125 -4.984375" transform="translate(228.803 65.9)"/></g></g></g><g fill="#B07D92"><g><g><path d="M 15.40625 -8.171875 L 10.1875 -11.875 L 9.8125 -11.359375 L 12.234375 -9.640625 L 3.96875 2.03125 L 1.546875 0.3125 L 1.171875 0.828125 L 8.8125 6.25 L 9.1875 5.734375 L 6.765625 4.015625 Z M 19.90625 -14 C 20.238281 -14.46875 20.359375 -14.976562 20.265625 -15.53125 C 20.179688 -16.09375 19.898438 -16.539062 19.421875 -16.875 C 18.953125 -17.207031 18.4375 -17.320312 17.875 -17.21875 C 17.320312 -17.125 16.878906 -16.84375 16.546875 -16.375 C 16.203125 -15.894531 16.078125 -15.378906 16.171875 -14.828125 C 16.265625 -14.273438 16.546875 -13.832031 17.015625 -13.5 C 17.492188 -13.164062 18.007812 -13.046875 18.5625 -13.140625 C 19.113281 -13.234375 19.5625 -13.519531 19.90625 -14 Z M 19.90625 -14" transform="translate(243.039 73.957)"/></g></g></g><g fill="#B07D92"><g><g><path d="M 32.609375 -11.21875 L 37.015625 -11.28125 L 37.015625 -8.734375 C 36.515625 -8.816406 35.929688 -8.859375 35.265625 -8.859375 C 34.609375 -8.859375 33.867188 -8.816406 33.046875 -8.734375 C 33.046875 -5.554688 31.515625 -2.335938 28.453125 0.921875 C 25.398438 4.191406 21.710938 6.847656 17.390625 8.890625 C 13.066406 10.941406 9.046875 11.96875 5.328125 11.96875 C 3.390625 11.96875 1.8125 11.46875 0.59375 10.46875 C -0.625 9.476562 -1.234375 8.179688 -1.234375 6.578125 C -1.234375 4.171875 0.351562 1.664062 3.53125 -0.9375 C 6.71875 -3.539062 10.4375 -5.6875 14.6875 -7.375 C 18.945312 -9.070312 22.789062 -10.066406 26.21875 -10.359375 C 25.8125 -10.972656 25.171875 -11.503906 24.296875 -11.953125 C 23.429688 -12.410156 21.65625 -13.125 18.96875 -14.09375 C 16.28125 -15.070312 14.378906 -16.148438 13.265625 -17.328125 C 12.148438 -18.503906 11.59375 -20.164062 11.59375 -22.3125 C 11.59375 -24.46875 12.75 -26.929688 15.0625 -29.703125 C 17.375 -32.472656 20.113281 -34.796875 23.28125 -36.671875 C 26.445312 -38.554688 29.226562 -39.5 31.625 -39.5 C 32.695312 -39.5 33.582031 -39.113281 34.28125 -38.34375 C 34.988281 -37.582031 35.34375 -36.644531 35.34375 -35.53125 C 35.34375 -33.707031 34.242188 -31.421875 32.046875 -28.671875 C 29.859375 -25.921875 27.421875 -23.820312 24.734375 -22.375 L 23.25 -24.484375 C 24.863281 -25.316406 26.28125 -26.609375 27.5 -28.359375 C 28.71875 -30.117188 29.328125 -31.640625 29.328125 -32.921875 C 29.328125 -34.203125 28.644531 -34.84375 27.28125 -34.84375 C 25.332031 -34.84375 23.109375 -33.632812 20.609375 -31.21875 C 18.109375 -28.800781 16.859375 -26.535156 16.859375 -24.421875 C 16.859375 -22.984375 17.226562 -21.847656 17.96875 -21.015625 C 18.71875 -20.191406 20.597656 -19.171875 23.609375 -17.953125 C 26.628906 -16.734375 28.78125 -15.65625 30.0625 -14.71875 C 31.34375 -13.789062 32.191406 -12.625 32.609375 -11.21875 Z M 4.953125 4.953125 C 4.953125 6.941406 6.566406 7.9375 9.796875 7.9375 C 11.578125 7.9375 13.878906 7.285156 16.703125 5.984375 C 19.535156 4.679688 22.035156 2.863281 24.203125 0.53125 C 26.378906 -1.800781 27.46875 -4.191406 27.46875 -6.640625 C 27.46875 -6.921875 27.40625 -7.351562 27.28125 -7.9375 C 21.613281 -7.394531 16.472656 -5.800781 11.859375 -3.15625 C 7.253906 -0.507812 4.953125 2.191406 4.953125 4.953125 Z M 4.953125 4.953125" transform="translate(84.992 172.277)"/></g></g></g><g fill="#B07D92"><g><g><path d="M 27.21875 -6.265625 L 28.640625 -5.203125 C 28.066406 -3.960938 27.003906 -2.785156 25.453125 -1.671875 C 23.898438 -0.554688 22.484375 0 21.203125 0 C 18.765625 0 17.546875 -1.28125 17.546875 -3.84375 C 17.546875 -5.039062 17.851562 -6.46875 18.46875 -8.125 L 16.1875 -5.765625 C 13.945312 -3.492188 12.007812 -1.960938 10.375 -1.171875 C 8.75 -0.390625 7.148438 0 5.578125 0 C 4.003906 0 2.816406 -0.441406 2.015625 -1.328125 C 1.210938 -2.222656 0.8125 -3.453125 0.8125 -5.015625 C 0.8125 -7.910156 1.925781 -10.773438 4.15625 -13.609375 C 6.382812 -16.441406 9.234375 -18.742188 12.703125 -20.515625 C 16.179688 -22.296875 19.65625 -23.207031 23.125 -23.25 L 23.25 -21.203125 L 20.640625 -20.640625 C 16.878906 -19.816406 13.5625 -18.164062 10.6875 -15.6875 C 7.820312 -13.207031 6.390625 -10.738281 6.390625 -8.28125 C 6.390625 -5.820312 7.378906 -4.59375 9.359375 -4.59375 C 11.222656 -4.59375 13.519531 -5.894531 16.25 -8.5 C 18.976562 -11.101562 21.25 -14.160156 23.0625 -17.671875 L 25.671875 -16.125 C 23.109375 -10.957031 21.828125 -7.671875 21.828125 -6.265625 C 21.828125 -5.679688 22.019531 -5.191406 22.40625 -4.796875 C 22.800781 -4.410156 23.195312 -4.21875 23.59375 -4.21875 C 23.988281 -4.21875 24.242188 -4.238281 24.359375 -4.28125 C 24.484375 -4.320312 24.609375 -4.375 24.734375 -4.4375 C 24.859375 -4.5 25.015625 -4.585938 25.203125 -4.703125 C 25.390625 -4.828125 25.554688 -4.953125 25.703125 -5.078125 C 25.847656 -5.203125 26.082031 -5.390625 26.40625 -5.640625 C 26.738281 -5.890625 27.007812 -6.097656 27.21875 -6.265625 Z M 27.21875 -6.265625" transform="translate(123.861 172.277)"/></g></g></g><g fill="#B07D92"><g><g><path d="M 11.53125 -17.046875 C 13.519531 -19.078125 15.265625 -20.472656 16.765625 -21.234375 C 18.273438 -21.992188 19.703125 -22.375 21.046875 -22.375 C 22.390625 -22.375 23.503906 -21.910156 24.390625 -20.984375 C 25.285156 -20.054688 25.734375 -18.847656 25.734375 -17.359375 C 25.734375 -13.515625 24.117188 -9.472656 20.890625 -5.234375 C 17.671875 -1.003906 14.203125 1.109375 10.484375 1.109375 C 9.359375 1.109375 8.300781 0.90625 7.3125 0.5 L 8.796875 -2.234375 C 9.460938 -2.066406 9.984375 -1.984375 10.359375 -1.984375 C 12.878906 -1.984375 15.171875 -3.390625 17.234375 -6.203125 C 19.304688 -9.015625 20.34375 -11.785156 20.34375 -14.515625 C 20.34375 -15.378906 20.0625 -16.085938 19.5 -16.640625 C 18.9375 -17.203125 18.222656 -17.484375 17.359375 -17.484375 C 15.460938 -17.484375 13.238281 -15.953125 10.6875 -12.890625 C 8.144531 -9.835938 5.925781 -5.851562 4.03125 -0.9375 L 0.25 -2.484375 C 1.488281 -8.804688 3.96875 -16.515625 7.6875 -25.609375 C 11.40625 -34.703125 14.503906 -41.128906 16.984375 -44.890625 L 20.15625 -43.765625 C 17.425781 -38.679688 14.519531 -32.378906 11.4375 -24.859375 C 8.351562 -17.335938 6.546875 -12.234375 6.015625 -9.546875 C 7.710938 -12.523438 9.550781 -15.023438 11.53125 -17.046875 Z M 11.53125 -17.046875" transform="translate(152.935 172.277)"/></g></g></g><g fill="#B07D92"><g><g><path d="M 17.984375 -21.953125 C 19.015625 -21.953125 19.859375 -21.597656 20.515625 -20.890625 C 21.179688 -20.191406 21.515625 -19.285156 21.515625 -18.171875 C 21.515625 -15.929688 20.234375 -13.570312 17.671875 -11.09375 L 16.1875 -12.28125 C 16.757812 -13.5625 17.046875 -14.488281 17.046875 -15.0625 C 17.046875 -16.175781 16.425781 -16.734375 15.1875 -16.734375 C 13.945312 -16.734375 12.769531 -15.945312 11.65625 -14.375 C 10.539062 -12.8125 9.226562 -10.382812 7.71875 -7.09375 C 6.207031 -3.8125 5.0625 -1.488281 4.28125 -0.125 L 0.75 -1.671875 C 3.019531 -6.835938 4.320312 -9.875 4.65625 -10.78125 C 5.769531 -14.007812 6.328125 -18.101562 6.328125 -23.0625 L 9.796875 -24 C 9.671875 -21.3125 9.484375 -19.234375 9.234375 -17.765625 C 8.984375 -16.296875 8.382812 -13.910156 7.4375 -10.609375 C 11.613281 -18.171875 15.128906 -21.953125 17.984375 -21.953125 Z M 17.984375 -21.953125" transform="translate(179.654 172.277)"/></g></g></g><g fill="#B07D92"><g><g><path d="M 13.265625 -26.28125 C 10.953125 -26.28125 9.796875 -27.210938 9.796875 -29.078125 C 9.796875 -30.109375 10.082031 -30.972656 10.65625 -31.671875 C 11.238281 -32.378906 11.984375 -32.734375 12.890625 -32.734375 C 13.804688 -32.734375 14.550781 -32.460938 15.125 -31.921875 C 15.707031 -31.390625 16 -30.6875 16 -29.8125 C 16 -28.945312 15.75 -28.140625 15.25 -27.390625 C 14.757812 -26.648438 14.097656 -26.28125 13.265625 -26.28125 Z M 12.46875 -8 L 13.703125 -6.9375 C 12.710938 -5.039062 11.398438 -3.421875 9.765625 -2.078125 C 8.128906 -0.734375 6.648438 -0.0625 5.328125 -0.0625 C 3.015625 -0.0625 1.859375 -1.671875 1.859375 -4.890625 C 1.859375 -8.898438 3.507812 -14.128906 6.8125 -20.578125 C 7.5625 -21.984375 8 -22.8125 8.125 -23.0625 L 10.78125 -21.453125 C 9.914062 -19.878906 8.851562 -17.375 7.59375 -13.9375 C 6.332031 -10.507812 5.703125 -8.3125 5.703125 -7.34375 C 5.703125 -6.375 5.90625 -5.679688 6.3125 -5.265625 C 6.726562 -4.859375 7.226562 -4.65625 7.8125 -4.65625 C 8.925781 -4.65625 10.476562 -5.769531 12.46875 -8 Z M 12.46875 -8" transform="translate(201.661 172.277)"/></g></g></g><g fill="#B07D92"><g><g><path d="M 26.59375 -7.5 L 27.90625 -6.515625 C 26.988281 -4.691406 25.734375 -3.160156 24.140625 -1.921875 C 22.554688 -0.679688 21.125 -0.0625 19.84375 -0.0625 C 18.5625 -0.0625 17.546875 -0.429688 16.796875 -1.171875 C 16.054688 -1.921875 15.6875 -2.851562 15.6875 -3.96875 C 15.6875 -5.082031 16.398438 -7.035156 17.828125 -9.828125 C 19.253906 -12.617188 19.96875 -14.675781 19.96875 -16 C 19.96875 -16.570312 19.726562 -17.097656 19.25 -17.578125 C 18.769531 -18.054688 18.203125 -18.296875 17.546875 -18.296875 C 15.441406 -18.296875 13.3125 -16.691406 11.15625 -13.484375 C 9.007812 -10.285156 6.613281 -5.664062 3.96875 0.375 L 0.25 -0.9375 C 1.03125 -5.726562 2.15625 -10.40625 3.625 -14.96875 C 5.09375 -19.539062 6.445312 -22.816406 7.6875 -24.796875 L 10.234375 -24 C 9.078125 -21.0625 7.609375 -15.992188 5.828125 -8.796875 C 11.535156 -18.554688 16.785156 -23.4375 21.578125 -23.4375 C 22.609375 -23.4375 23.460938 -23.082031 24.140625 -22.375 C 24.828125 -21.675781 25.171875 -20.847656 25.171875 -19.890625 C 25.171875 -18.941406 25.046875 -18.085938 24.796875 -17.328125 C 24.546875 -16.566406 23.769531 -14.789062 22.46875 -12 C 21.164062 -9.207031 20.515625 -7.457031 20.515625 -6.75 C 20.515625 -6.050781 20.722656 -5.503906 21.140625 -5.109375 C 21.554688 -4.722656 21.945312 -4.53125 22.3125 -4.53125 C 22.6875 -4.53125 23 -4.585938 23.25 -4.703125 C 23.5 -4.828125 23.773438 -5.015625 24.078125 -5.265625 C 24.390625 -5.515625 24.671875 -5.742188 24.921875 -5.953125 C 25.171875 -6.160156 25.46875 -6.4375 25.8125 -6.78125 C 26.164062 -7.132812 26.425781 -7.375 26.59375 -7.5 Z M 26.59375 -7.5" transform="translate(218.275 172.277)"/></g></g></g><g fill="#B07D92"><g><g><path d="M 27.21875 -6.265625 L 28.640625 -5.203125 C 28.066406 -3.960938 27.003906 -2.785156 25.453125 -1.671875 C 23.898438 -0.554688 22.484375 0 21.203125 0 C 18.765625 0 17.546875 -1.28125 17.546875 -3.84375 C 17.546875 -5.039062 17.851562 -6.46875 18.46875 -8.125 L 16.1875 -5.765625 C 13.945312 -3.492188 12.007812 -1.960938 10.375 -1.171875 C 8.75 -0.390625 7.148438 0 5.578125 0 C 4.003906 0 2.816406 -0.441406 2.015625 -1.328125 C 1.210938 -2.222656 0.8125 -3.453125 0.8125 -5.015625 C 0.8125 -7.910156 1.925781 -10.773438 4.15625 -13.609375 C 6.382812 -16.441406 9.234375 -18.742188 12.703125 -20.515625 C 16.179688 -22.296875 19.65625 -23.207031 23.125 -23.25 L 23.25 -21.203125 L 20.640625 -20.640625 C 16.878906 -19.816406 13.5625 -18.164062 10.6875 -15.6875 C 7.820312 -13.207031 6.390625 -10.738281 6.390625 -8.28125 C 6.390625 -5.820312 7.378906 -4.59375 9.359375 -4.59375 C 11.222656 -4.59375 13.519531 -5.894531 16.25 -8.5 C 18.976562 -11.101562 21.25 -14.160156 23.0625 -17.671875 L 25.671875 -16.125 C 23.109375 -10.957031 21.828125 -7.671875 21.828125 -6.265625 C 21.828125 -5.679688 22.019531 -5.191406 22.40625 -4.796875 C 22.800781 -4.410156 23.195312 -4.21875 23.59375 -4.21875 C 23.988281 -4.21875 24.242188 -4.238281 24.359375 -4.28125 C 24.484375 -4.320312 24.609375 -4.375 24.734375 -4.4375 C 24.859375 -4.5 25.015625 -4.585938 25.203125 -4.703125 C 25.390625 -4.828125 25.554688 -4.953125 25.703125 -5.078125 C 25.847656 -5.203125 26.082031 -5.390625 26.40625 -5.640625 C 26.738281 -5.890625 27.007812 -6.097656 27.21875 -6.265625 Z M 27.21875 -6.265625" transform="translate(247.04 172.277)"/></g></g></g><g fill="#B07D92"><g><g><path d="M 22.84375 -8.125 C 22.707031 -8.125 22.570312 -7.976562 22.4375 -7.6875 C 21.957031 -6.59375 21.4375 -5.570312 20.875 -4.625 C 20.320312 -3.675781 19.679688 -2.851562 18.953125 -2.15625 C 18.234375 -1.46875 17.429688 -0.925781 16.546875 -0.53125 C 15.671875 -0.144531 14.703125 0.046875 13.640625 0.046875 C 11.210938 0.046875 9.410156 -0.898438 8.234375 -2.796875 C 7.066406 -4.691406 6.484375 -7.46875 6.484375 -11.125 L 6.484375 -15.59375 C 6.484375 -19.113281 7.082031 -21.828125 8.28125 -23.734375 C 9.476562 -25.640625 11.332031 -26.59375 13.84375 -26.59375 C 14.882812 -26.59375 15.828125 -26.425781 16.671875 -26.09375 C 17.523438 -25.757812 18.300781 -25.300781 19 -24.71875 C 19.695312 -24.132812 20.296875 -23.425781 20.796875 -22.59375 C 21.304688 -21.769531 21.722656 -20.878906 22.046875 -19.921875 C 22.117188 -19.648438 22.207031 -19.515625 22.3125 -19.515625 C 22.445312 -19.515625 22.515625 -19.675781 22.515625 -20 L 22.515625 -26.515625 C 22.515625 -26.753906 22.488281 -26.914062 22.4375 -27 C 22.382812 -27.082031 22.304688 -27.125 22.203125 -27.125 C 22.066406 -27.125 21.894531 -27.015625 21.6875 -26.796875 L 20.125 -25.203125 C 19.269531 -25.890625 18.304688 -26.410156 17.234375 -26.765625 C 16.171875 -27.128906 15.039062 -27.3125 13.84375 -27.3125 C 12.082031 -27.3125 10.445312 -26.910156 8.9375 -26.109375 C 7.4375 -25.316406 6.128906 -24.265625 5.015625 -22.953125 C 3.910156 -21.648438 3.050781 -20.164062 2.4375 -18.5 C 1.820312 -16.832031 1.515625 -15.144531 1.515625 -13.4375 C 1.515625 -11.46875 1.867188 -9.617188 2.578125 -7.890625 C 3.285156 -6.171875 4.210938 -4.671875 5.359375 -3.390625 C 6.503906 -2.117188 7.796875 -1.109375 9.234375 -0.359375 C 10.679688 0.390625 12.148438 0.765625 13.640625 0.765625 C 14.890625 0.765625 16.085938 0.515625 17.234375 0.015625 C 18.378906 -0.472656 19.40625 -1.222656 20.3125 -2.234375 L 22.4375 0.078125 C 22.570312 0.210938 22.691406 0.28125 22.796875 0.28125 C 22.960938 0.28125 23.046875 0.1875 23.046875 0 L 23.046875 -7.71875 C 23.046875 -7.988281 22.976562 -8.125 22.84375 -8.125 Z M 22.84375 -8.125" transform="translate(128.576 232.227)"/></g></g></g><g fill="#B07D92"><g><g><path d="M 9.078125 0.5625 C 10.273438 0.5625 11.359375 0.289062 12.328125 -0.25 C 13.304688 -0.800781 14.132812 -1.488281 14.8125 -2.3125 C 15.5 -3.144531 16.023438 -4.050781 16.390625 -5.03125 C 16.765625 -6.019531 16.953125 -6.957031 16.953125 -7.84375 C 16.953125 -8.71875 16.765625 -9.648438 16.390625 -10.640625 C 16.023438 -11.628906 15.5 -12.535156 14.8125 -13.359375 C 14.132812 -14.179688 13.304688 -14.863281 12.328125 -15.40625 C 11.359375 -15.957031 10.273438 -16.234375 9.078125 -16.234375 C 7.878906 -16.234375 6.789062 -15.957031 5.8125 -15.40625 C 4.84375 -14.863281 4.007812 -14.179688 3.3125 -13.359375 C 2.625 -12.535156 2.09375 -11.628906 1.71875 -10.640625 C 1.34375 -9.648438 1.15625 -8.71875 1.15625 -7.84375 C 1.15625 -6.957031 1.34375 -6.019531 1.71875 -5.03125 C 2.09375 -4.050781 2.625 -3.144531 3.3125 -2.3125 C 4.007812 -1.488281 4.84375 -0.800781 5.8125 -0.25 C 6.789062 0.289062 7.878906 0.5625 9.078125 0.5625 Z M 5.3125 -8.71875 C 5.3125 -9.84375 5.359375 -10.828125 5.453125 -11.671875 C 5.546875 -12.523438 5.726562 -13.242188 6 -13.828125 C 6.269531 -14.421875 6.648438 -14.863281 7.140625 -15.15625 C 7.628906 -15.445312 8.273438 -15.59375 9.078125 -15.59375 C 9.878906 -15.59375 10.523438 -15.445312 11.015625 -15.15625 C 11.515625 -14.863281 11.890625 -14.421875 12.140625 -13.828125 C 12.390625 -13.242188 12.5625 -12.523438 12.65625 -11.671875 C 12.75 -10.828125 12.796875 -9.84375 12.796875 -8.71875 L 12.796875 -7 C 12.796875 -5.800781 12.75 -4.765625 12.65625 -3.890625 C 12.5625 -3.023438 12.390625 -2.3125 12.140625 -1.75 C 11.890625 -1.195312 11.515625 -0.78125 11.015625 -0.5 C 10.523438 -0.21875 9.878906 -0.078125 9.078125 -0.078125 C 8.273438 -0.078125 7.628906 -0.21875 7.140625 -0.5 C 6.648438 -0.78125 6.269531 -1.195312 6 -1.75 C 5.726562 -2.3125 5.546875 -3.023438 5.453125 -3.890625 C 5.359375 -4.765625 5.3125 -5.800781 5.3125 -7 Z M 5.3125 -8.71875" transform="translate(153.094 232.227)"/></g></g></g><g fill="#B07D92"><g><g><path d="M 4.59375 -15.28125 C 3.738281 -14.71875 3.3125 -14.050781 3.3125 -13.28125 C 3.3125 -12.90625 3.4375 -12.5625 3.6875 -12.25 C 3.945312 -11.945312 4.304688 -11.796875 4.765625 -11.796875 C 5.210938 -11.796875 5.578125 -11.925781 5.859375 -12.1875 C 6.140625 -12.457031 6.28125 -12.796875 6.28125 -13.203125 C 6.28125 -13.390625 6.242188 -13.582031 6.171875 -13.78125 C 6.109375 -13.976562 5.984375 -14.171875 5.796875 -14.359375 C 5.660156 -14.492188 5.550781 -14.585938 5.46875 -14.640625 C 5.394531 -14.691406 5.359375 -14.757812 5.359375 -14.84375 C 5.359375 -14.945312 5.4375 -15.050781 5.59375 -15.15625 C 5.757812 -15.257812 5.960938 -15.351562 6.203125 -15.4375 C 6.441406 -15.519531 6.710938 -15.585938 7.015625 -15.640625 C 7.328125 -15.691406 7.628906 -15.71875 7.921875 -15.71875 C 8.742188 -15.71875 9.394531 -15.554688 9.875 -15.234375 C 10.351562 -14.921875 10.59375 -14.3125 10.59375 -13.40625 L 10.59375 -8.6875 C 9.375 -8.6875 8.226562 -8.554688 7.15625 -8.296875 C 6.09375 -8.046875 5.160156 -7.679688 4.359375 -7.203125 C 3.554688 -6.722656 2.925781 -6.128906 2.46875 -5.421875 C 2.019531 -4.710938 1.796875 -3.921875 1.796875 -3.046875 C 1.796875 -2.398438 1.910156 -1.84375 2.140625 -1.375 C 2.367188 -0.914062 2.679688 -0.546875 3.078125 -0.265625 C 3.484375 0.015625 3.941406 0.222656 4.453125 0.359375 C 4.972656 0.492188 5.53125 0.5625 6.125 0.5625 C 6.738281 0.5625 7.289062 0.488281 7.78125 0.34375 C 8.269531 0.195312 8.707031 0.0078125 9.09375 -0.21875 C 9.488281 -0.445312 9.816406 -0.6875 10.078125 -0.9375 C 10.347656 -1.1875 10.5625 -1.4375 10.71875 -1.6875 C 10.800781 -1.125 11.054688 -0.609375 11.484375 -0.140625 C 11.910156 0.328125 12.65625 0.5625 13.71875 0.5625 C 14.414062 0.5625 14.992188 0.453125 15.453125 0.234375 C 15.921875 0.0234375 16.300781 -0.222656 16.59375 -0.515625 C 16.894531 -0.804688 17.101562 -1.101562 17.21875 -1.40625 C 17.34375 -1.71875 17.40625 -1.957031 17.40625 -2.125 C 17.40625 -2.25 17.363281 -2.3125 17.28125 -2.3125 C 17.195312 -2.3125 17.101562 -2.207031 17 -2 C 16.789062 -1.539062 16.523438 -1.171875 16.203125 -0.890625 C 15.878906 -0.617188 15.53125 -0.484375 15.15625 -0.484375 C 14.625 -0.484375 14.304688 -0.703125 14.203125 -1.140625 C 14.097656 -1.578125 14.046875 -2.179688 14.046875 -2.953125 L 14.046875 -12.640625 C 14.046875 -13.785156 13.617188 -14.671875 12.765625 -15.296875 C 11.910156 -15.921875 10.601562 -16.234375 8.84375 -16.234375 C 8.007812 -16.234375 7.210938 -16.144531 6.453125 -15.96875 C 5.691406 -15.800781 5.070312 -15.570312 4.59375 -15.28125 Z M 10.59375 -8.28125 L 10.59375 -2.71875 C 10.59375 -2.476562 10.476562 -2.222656 10.25 -1.953125 C 10.03125 -1.691406 9.753906 -1.445312 9.421875 -1.21875 C 9.085938 -0.988281 8.738281 -0.804688 8.375 -0.671875 C 8.019531 -0.546875 7.722656 -0.484375 7.484375 -0.484375 C 6.648438 -0.484375 6.019531 -0.800781 5.59375 -1.4375 C 5.164062 -2.082031 4.953125 -2.953125 4.953125 -4.046875 C 4.953125 -4.921875 5.113281 -5.625 5.4375 -6.15625 C 5.757812 -6.6875 6.179688 -7.097656 6.703125 -7.390625 C 7.222656 -7.691406 7.820312 -7.898438 8.5 -8.015625 C 9.175781 -8.140625 9.875 -8.226562 10.59375 -8.28125 Z M 10.59375 -8.28125" transform="translate(170.972 232.227)"/></g></g></g><g fill="#B07D92"><g><g><path d="M 5.484375 -6.921875 L 5.484375 -8.6875 C 5.484375 -9.988281 5.5625 -11.078125 5.71875 -11.953125 C 5.875 -12.835938 6.117188 -13.550781 6.453125 -14.09375 C 6.785156 -14.644531 7.207031 -15.03125 7.71875 -15.25 C 8.226562 -15.476562 8.828125 -15.59375 9.515625 -15.59375 C 10.503906 -15.59375 11.175781 -15.46875 11.53125 -15.21875 C 11.894531 -14.96875 12.078125 -14.789062 12.078125 -14.6875 C 12.078125 -14.570312 12.035156 -14.476562 11.953125 -14.40625 C 11.773438 -14.1875 11.640625 -13.960938 11.546875 -13.734375 C 11.453125 -13.515625 11.40625 -13.226562 11.40625 -12.875 C 11.40625 -12.34375 11.578125 -11.9375 11.921875 -11.65625 C 12.265625 -11.375 12.664062 -11.234375 13.125 -11.234375 C 13.65625 -11.234375 14.078125 -11.394531 14.390625 -11.71875 C 14.710938 -12.039062 14.875 -12.453125 14.875 -12.953125 C 14.875 -13.460938 14.703125 -13.921875 14.359375 -14.328125 C 14.015625 -14.742188 13.582031 -15.09375 13.0625 -15.375 C 12.539062 -15.65625 11.972656 -15.867188 11.359375 -16.015625 C 10.742188 -16.160156 10.15625 -16.234375 9.59375 -16.234375 C 8.5625 -16.234375 7.550781 -16.023438 6.5625 -15.609375 C 5.570312 -15.203125 4.691406 -14.628906 3.921875 -13.890625 C 3.148438 -13.160156 2.519531 -12.273438 2.03125 -11.234375 C 1.550781 -10.203125 1.3125 -9.054688 1.3125 -7.796875 C 1.3125 -6.515625 1.546875 -5.359375 2.015625 -4.328125 C 2.484375 -3.304688 3.097656 -2.425781 3.859375 -1.6875 C 4.617188 -0.957031 5.484375 -0.398438 6.453125 -0.015625 C 7.429688 0.367188 8.414062 0.5625 9.40625 0.5625 C 10.382812 0.5625 11.25 0.40625 12 0.09375 C 12.75 -0.207031 13.375 -0.59375 13.875 -1.0625 C 14.382812 -1.53125 14.785156 -2.019531 15.078125 -2.53125 C 15.367188 -3.050781 15.582031 -3.523438 15.71875 -3.953125 C 15.769531 -4.117188 15.796875 -4.226562 15.796875 -4.28125 C 15.796875 -4.519531 15.691406 -4.640625 15.484375 -4.640625 C 15.316406 -4.640625 15.195312 -4.503906 15.125 -4.234375 C 14.957031 -3.734375 14.710938 -3.234375 14.390625 -2.734375 C 14.078125 -2.242188 13.6875 -1.796875 13.21875 -1.390625 C 12.75 -0.992188 12.203125 -0.675781 11.578125 -0.4375 C 10.953125 -0.195312 10.265625 -0.078125 9.515625 -0.078125 C 8.691406 -0.078125 8.019531 -0.195312 7.5 -0.4375 C 6.976562 -0.675781 6.5625 -1.066406 6.25 -1.609375 C 5.945312 -2.160156 5.742188 -2.867188 5.640625 -3.734375 C 5.535156 -4.609375 5.484375 -5.671875 5.484375 -6.921875 Z M 5.484375 -6.921875" transform="translate(188.69 232.227)"/></g></g></g><g fill="#B07D92"><g><g><path d="M 7.4375 -12.875 L 7.4375 -26.875 L 1.203125 -26.875 L 1.203125 -26.234375 L 4 -26.234375 L 4 -0.640625 L 1.203125 -0.640625 L 1.203125 0 L 10.234375 0 L 10.234375 -0.640625 L 7.4375 -0.640625 L 7.4375 -10.640625 C 7.4375 -11.066406 7.550781 -11.539062 7.78125 -12.0625 C 8.007812 -12.582031 8.335938 -13.070312 8.765625 -13.53125 C 9.191406 -14 9.679688 -14.394531 10.234375 -14.71875 C 10.796875 -15.039062 11.425781 -15.203125 12.125 -15.203125 C 12.675781 -15.203125 13.113281 -15.109375 13.4375 -14.921875 C 13.757812 -14.734375 14 -14.492188 14.15625 -14.203125 C 14.320312 -13.910156 14.421875 -13.582031 14.453125 -13.21875 C 14.492188 -12.863281 14.515625 -12.5 14.515625 -12.125 L 14.515625 -0.640625 L 11.765625 -0.640625 L 11.765625 0 L 20.765625 0 L 20.765625 -0.640625 L 17.953125 -0.640625 L 17.953125 -12.5625 C 17.953125 -13.757812 17.546875 -14.671875 16.734375 -15.296875 C 15.921875 -15.921875 14.796875 -16.234375 13.359375 -16.234375 C 11.785156 -16.234375 10.523438 -15.898438 9.578125 -15.234375 C 8.628906 -14.566406 7.914062 -13.78125 7.4375 -12.875 Z M 7.4375 -12.875" transform="translate(205.089 232.227)"/></g></g></g><g fill="#B07D92"><g><g><path d="M 7.875 -15.6875 L 1.4375 -15.6875 L 1.4375 -15.046875 L 4.4375 -15.046875 L 4.4375 -0.640625 L 1.4375 -0.640625 L 1.4375 0 L 10.875 0 L 10.875 -0.640625 L 7.875 -0.640625 Z M 8.203125 -23.078125 C 8.203125 -23.660156 8 -24.148438 7.59375 -24.546875 C 7.195312 -24.953125 6.707031 -25.15625 6.125 -25.15625 C 5.53125 -25.15625 5.035156 -24.953125 4.640625 -24.546875 C 4.242188 -24.148438 4.046875 -23.660156 4.046875 -23.078125 C 4.046875 -22.492188 4.242188 -22 4.640625 -21.59375 C 5.035156 -21.195312 5.53125 -21 6.125 -21 C 6.707031 -21 7.195312 -21.195312 7.59375 -21.59375 C 8 -22 8.203125 -22.492188 8.203125 -23.078125 Z M 8.203125 -23.078125" transform="translate(226.647 232.227)"/></g></g></g><g fill="#B07D92"><g><g><path d="M 7.6875 -12.640625 L 7.6875 -15.6875 L 1.4375 -15.6875 L 1.4375 -15.046875 L 4.234375 -15.046875 L 4.234375 -0.640625 L 1.4375 -0.640625 L 1.4375 0 L 10.484375 0 L 10.484375 -0.640625 L 7.6875 -0.640625 L 7.6875 -10.5625 C 7.6875 -11.007812 7.804688 -11.492188 8.046875 -12.015625 C 8.285156 -12.535156 8.597656 -13.019531 8.984375 -13.46875 C 9.367188 -13.925781 9.804688 -14.300781 10.296875 -14.59375 C 10.796875 -14.894531 11.3125 -15.046875 11.84375 -15.046875 C 12.613281 -15.046875 13.175781 -14.800781 13.53125 -14.3125 C 13.894531 -13.832031 14.078125 -13.078125 14.078125 -12.046875 L 14.078125 -0.640625 L 11.28125 -0.640625 L 11.28125 0 L 20.3125 0 L 20.3125 -0.640625 L 17.515625 -0.640625 L 17.515625 -12.3125 C 17.515625 -13.707031 17.117188 -14.671875 16.328125 -15.203125 C 15.546875 -15.734375 14.539062 -16 13.3125 -16 C 11.851562 -16 10.660156 -15.664062 9.734375 -15 C 8.816406 -14.332031 8.132812 -13.546875 7.6875 -12.640625 Z M 7.6875 -12.640625" transform="translate(238.405 232.227)"/></g></g></g><g fill="#B07D92"><g><g><path d="M 5.234375 -10 L 5.234375 -11.359375 C 5.234375 -12.984375 5.457031 -14.09375 5.90625 -14.6875 C 6.363281 -15.289062 7.078125 -15.59375 8.046875 -15.59375 C 9.003906 -15.59375 9.707031 -15.289062 10.15625 -14.6875 C 10.613281 -14.09375 10.84375 -12.984375 10.84375 -11.359375 L 10.84375 -10 C 10.84375 -8.632812 10.65625 -7.59375 10.28125 -6.875 C 9.90625 -6.15625 9.160156 -5.796875 8.046875 -5.796875 C 6.921875 -5.796875 6.171875 -6.15625 5.796875 -6.875 C 5.421875 -7.59375 5.234375 -8.632812 5.234375 -10 Z M 5.765625 -5.484375 C 6.003906 -5.398438 6.316406 -5.320312 6.703125 -5.25 C 7.085938 -5.1875 7.535156 -5.15625 8.046875 -5.15625 C 9.242188 -5.15625 10.253906 -5.351562 11.078125 -5.75 C 11.898438 -6.15625 12.566406 -6.644531 13.078125 -7.21875 C 13.585938 -7.789062 13.945312 -8.394531 14.15625 -9.03125 C 14.375 -9.675781 14.484375 -10.238281 14.484375 -10.71875 C 14.484375 -12.320312 13.851562 -13.679688 12.59375 -14.796875 C 13.207031 -15.515625 13.78125 -15.992188 14.3125 -16.234375 C 14.207031 -16.023438 14.15625 -15.8125 14.15625 -15.59375 C 14.15625 -15.28125 14.269531 -15.015625 14.5 -14.796875 C 14.726562 -14.585938 15.039062 -14.484375 15.4375 -14.484375 C 15.863281 -14.484375 16.171875 -14.609375 16.359375 -14.859375 C 16.546875 -15.109375 16.640625 -15.367188 16.640625 -15.640625 C 16.640625 -16.035156 16.492188 -16.335938 16.203125 -16.546875 C 15.910156 -16.765625 15.5625 -16.875 15.15625 -16.875 C 14.144531 -16.875 13.132812 -16.300781 12.125 -15.15625 C 11.75 -15.476562 11.1875 -15.738281 10.4375 -15.9375 C 9.6875 -16.132812 8.890625 -16.234375 8.046875 -16.234375 C 7.003906 -16.234375 6.078125 -16.078125 5.265625 -15.765625 C 4.453125 -15.460938 3.773438 -15.050781 3.234375 -14.53125 C 2.703125 -14.019531 2.296875 -13.429688 2.015625 -12.765625 C 1.734375 -12.097656 1.59375 -11.414062 1.59375 -10.71875 C 1.59375 -9.539062 1.929688 -8.523438 2.609375 -7.671875 C 3.296875 -6.828125 4.066406 -6.191406 4.921875 -5.765625 C 3.640625 -5.390625 2.738281 -4.90625 2.21875 -4.3125 C 1.695312 -3.726562 1.4375 -2.972656 1.4375 -2.046875 C 1.4375 -1.429688 1.535156 -0.894531 1.734375 -0.4375 C 1.941406 0.0078125 2.210938 0.394531 2.546875 0.71875 C 2.878906 1.039062 3.25 1.285156 3.65625 1.453125 C 4.070312 1.628906 4.476562 1.742188 4.875 1.796875 C 3.757812 2.203125 2.894531 2.765625 2.28125 3.484375 C 1.664062 4.203125 1.359375 5.082031 1.359375 6.125 C 1.359375 6.863281 1.53125 7.515625 1.875 8.078125 C 2.226562 8.640625 2.722656 9.097656 3.359375 9.453125 C 3.992188 9.816406 4.75 10.09375 5.625 10.28125 C 6.507812 10.46875 7.488281 10.5625 8.5625 10.5625 C 9.625 10.5625 10.617188 10.414062 11.546875 10.125 C 12.484375 9.832031 13.304688 9.394531 14.015625 8.8125 C 14.722656 8.238281 15.273438 7.539062 15.671875 6.71875 C 16.078125 5.894531 16.28125 4.9375 16.28125 3.84375 C 16.28125 2.15625 15.832031 0.914062 14.9375 0.125 C 14.039062 -0.65625 12.875 -1.046875 11.4375 -1.046875 L 5 -1.046875 C 3.320312 -1.046875 2.484375 -1.617188 2.484375 -2.765625 C 2.484375 -3.535156 2.785156 -4.113281 3.390625 -4.5 C 4.003906 -4.882812 4.796875 -5.210938 5.765625 -5.484375 Z M 14.796875 5.484375 C 14.796875 6.285156 14.601562 6.960938 14.21875 7.515625 C 13.832031 8.078125 13.34375 8.535156 12.75 8.890625 C 12.164062 9.253906 11.507812 9.515625 10.78125 9.671875 C 10.050781 9.835938 9.351562 9.921875 8.6875 9.921875 C 7.59375 9.921875 6.695312 9.773438 6 9.484375 C 5.300781 9.191406 4.753906 8.820312 4.359375 8.375 C 3.960938 7.9375 3.679688 7.441406 3.515625 6.890625 C 3.359375 6.347656 3.28125 5.835938 3.28125 5.359375 C 3.28125 4.847656 3.363281 4.375 3.53125 3.9375 C 3.707031 3.5 3.921875 3.125 4.171875 2.8125 C 4.429688 2.507812 4.703125 2.269531 4.984375 2.09375 C 5.265625 1.925781 5.507812 1.84375 5.71875 1.84375 L 10.796875 1.84375 C 11.441406 1.84375 12.007812 1.941406 12.5 2.140625 C 12.988281 2.335938 13.40625 2.609375 13.75 2.953125 C 14.101562 3.304688 14.363281 3.695312 14.53125 4.125 C 14.707031 4.550781 14.796875 5.003906 14.796875 5.484375 Z M 14.796875 5.484375" transform="translate(259.643 232.227)"/></g></g></g></svg>