<?xml version="1.0" encoding="utf-8"?>
<!-- Svg Vector Icons : http://www.onlinewebfonts.com/icon -->
<!DOCTYPE svg PUBLIC "-//W3C//DTD SVG 1.1//EN" "http://www.w3.org/Graphics/SVG/1.1/DTD/svg11.dtd">
<svg version="1.1" xmlns="http://www.w3.org/2000/svg" xmlns:xlink="http://www.w3.org/1999/xlink" x="0px" y="0px" viewBox="0 0 1000 1000" enable-background="new 0 0 1000 1000" xml:space="preserve">
<metadata> Svg Vector Icons : http://www.onlinewebfonts.com/icon </metadata>
<g><path d="M990,475.4h-62.1c-2.8-49.2-13.8-96.9-33-142.3c-21.6-51-52.5-96.9-91.8-136.2c-39.3-39.3-85.2-70.2-136.2-91.8c-45.3-19.2-93.1-30.2-142.3-33V10h-2h-45.1h-2v62.1c-49.2,2.8-96.9,13.8-142.3,33c-51,21.6-96.9,52.5-136.2,91.8c-39.3,39.4-70.2,85.2-91.8,136.2c-19.2,45.3-30.2,93.1-33,142.3H10v49.2h62.1c2.8,49.2,13.8,96.9,33,142.3c21.6,51,52.5,96.9,91.8,136.2c39.4,39.3,85.2,70.3,136.2,91.8c45.3,19.2,93.1,30.2,142.3,33V990h2h45.1h2v-62.1c49.2-2.8,96.9-13.8,142.3-33c51-21.6,96.9-52.5,136.2-91.8c39.3-39.3,70.2-85.2,91.8-136.2c19.2-45.3,30.2-93.1,33-142.3H990V475.4z M858.1,475.4H751.6c-5.6-58.2-31-112.3-72.9-154.2c-41.9-41.9-95.9-67.3-154.2-72.9V141.9C703,154,846,297,858.1,475.4z M500,703.7c-112.3,0-203.7-91.4-203.7-203.7c0-112.3,91.4-203.7,203.7-203.7c112.3,0,203.7,91.4,203.7,203.7C703.7,612.3,612.3,703.7,500,703.7z M475.4,141.9v106.5c-58.2,5.6-112.3,31-154.2,72.9c-41.9,41.9-67.3,95.9-72.9,154.2H141.9C154,297,297,154,475.4,141.9z M141.9,524.6h106.5c5.6,58.2,31,112.3,72.9,154.2c41.9,41.9,95.9,67.3,154.2,72.9v106.5C297,846,154,703,141.9,524.6z M524.6,858.1V751.6c58.2-5.6,112.3-31,154.2-72.9c41.9-41.9,67.3-95.9,72.9-154.2h106.5C846,703,703,846,524.6,858.1z M417.6,500c0-45.5,36.9-82.4,82.4-82.4c45.5,0,82.4,36.9,82.4,82.4c0,45.5-36.9,82.4-82.4,82.4C454.5,582.4,417.6,545.5,417.6,500L417.6,500z"/></g>
</svg>